<svg width="32" height="32" viewBox="0 0 32 32" fill="none" xmlns="http://www.w3.org/2000/svg">
<path fill-rule="evenodd" clip-rule="evenodd" d="M20.3236 6.31667C20.3236 9.27799 22.7277 11.6786 25.6934 11.6786C26.0199 11.677 26.3457 11.6457 26.6665 11.585V22.2152C26.6665 26.6874 24.0285 29.3333 19.5497 29.3333H9.79498C5.30451 29.3333 2.6665 26.6874 2.6665 22.2152V12.4747C2.6665 8.00252 5.30451 5.33325 9.79498 5.33325H20.4174C20.3543 5.65726 20.3229 5.9866 20.3236 6.31667ZM17.5332 19.862L21.3437 14.945V14.9215C21.6699 14.4832 21.5866 13.8651 21.1561 13.5284C20.9477 13.3675 20.6829 13.2979 20.4221 13.3354C20.1614 13.3729 19.927 13.5143 19.7726 13.7274L16.5601 17.8601L12.902 14.9801C12.6932 14.8174 12.4275 14.7455 12.165 14.7808C11.9025 14.816 11.6652 14.9554 11.5068 15.1674L7.56741 20.2484C7.42894 20.421 7.35439 20.636 7.35637 20.8572C7.33351 21.3041 7.61574 21.7101 8.04308 21.845C8.47042 21.9799 8.93508 21.8097 9.17366 21.4308L12.4682 17.1694L16.1263 20.0376C16.3343 20.2054 16.6018 20.2814 16.8671 20.2483C17.1325 20.2152 17.3729 20.0758 17.5332 19.862Z" fill="#200E32"/>
<ellipse cx="25.9998" cy="5.99996" rx="3.33333" ry="3.33333" fill="#9C1258"/>
</svg>
