<svg width="32" height="32" viewBox="0 0 32 32" fill="none" xmlns="http://www.w3.org/2000/svg">
<path d="M19.2245 7.31988C18.5898 7.20263 18.0069 7.60768 17.886 8.22726C17.7652 8.84683 18.1715 9.45175 18.789 9.573C20.648 9.93542 22.0834 11.3744 22.4473 13.2398V13.2411C22.5508 13.7781 23.0235 14.1685 23.568 14.1685C23.641 14.1685 23.714 14.1619 23.7884 14.1485C24.4059 14.0246 24.8122 13.421 24.6913 12.8001C24.1482 10.014 22.0037 7.86218 19.2245 7.31988Z" fill="#9C1258"/>
<path d="M19.1415 2.6772C18.844 2.63456 18.5452 2.7225 18.3076 2.9117C18.0632 3.10357 17.9105 3.38072 17.8773 3.69117C17.807 4.31874 18.2598 4.88635 18.8865 4.95697C23.2087 5.4393 26.5682 8.80632 27.0542 13.142C27.1193 13.7229 27.6066 14.1613 28.1882 14.1613C28.232 14.1613 28.2745 14.1586 28.3184 14.1533C28.6224 14.12 28.8933 13.9694 29.0845 13.7296C29.2744 13.4898 29.3607 13.1913 29.3262 12.8862C28.7207 7.47657 24.5339 3.27812 19.1415 2.6772Z" fill="#9C1258"/>
<path d="M23.4732 19.564C22.6088 19.3801 21.9249 19.7799 21.3194 20.129C20.6993 20.4887 19.5188 21.4414 18.8443 21.1962C15.3839 19.7785 12.1292 16.7606 10.7204 13.3016C10.4721 12.6128 11.4241 11.4309 11.7813 10.8074C12.1306 10.2024 12.5236 9.51358 12.3444 8.64751C12.1824 7.86805 10.087 5.21254 9.34603 4.48637C8.85605 4.0067 8.35677 3.74288 7.84288 3.69891C5.91083 3.61763 3.75305 6.1852 3.37461 6.79945C2.42518 8.10921 2.43182 9.85202 3.39054 11.9652C5.70103 17.6413 14.4397 26.2075 20.1602 28.5951C21.2145 29.0868 22.1812 29.3333 23.0483 29.3333C23.8968 29.3333 24.6524 29.0975 25.3017 28.6298C25.7904 28.3486 28.4753 26.0929 28.4036 24.1169C28.3624 23.6132 28.0982 23.1096 27.6228 22.6219C26.8978 21.8771 24.25 19.7279 23.4732 19.564Z" fill="#200E32"/>
</svg>
