<svg width="74" height="200" viewBox="0 0 74 200" fill="none" xmlns="http://www.w3.org/2000/svg">
<path d="M32.306 198.1C32.5774 198.151 32.8388 197.972 32.8898 197.701L33.7217 193.279C33.7728 193.007 33.5942 192.746 33.3228 192.695C33.0514 192.644 32.79 192.822 32.739 193.094L31.9995 197.025L28.0684 196.285C27.7971 196.234 27.5357 196.413 27.4846 196.684C27.4336 196.956 27.6122 197.217 27.8836 197.268L32.306 198.1ZM38.4021 100.633L38.207 100.173L38.4021 100.633ZM44.889 3.5299C44.818 3.26305 44.5441 3.10425 44.2773 3.17523L39.9285 4.33191C39.6616 4.40288 39.5028 4.67676 39.5738 4.94363C39.6448 5.21048 39.9186 5.36928 40.1855 5.2983L44.0511 4.27015L45.0793 8.13575C45.1502 8.40262 45.4241 8.56141 45.691 8.49042C45.9578 8.41945 46.1166 8.14557 46.0456 7.87872L44.889 3.5299ZM32.3984 197.609C32.8113 197.326 32.8113 197.326 32.8113 197.326C32.8113 197.326 32.8113 197.326 32.8113 197.326C32.8113 197.326 32.8113 197.326 32.8112 197.326C32.8112 197.326 32.8111 197.326 32.811 197.326C32.8108 197.326 32.8105 197.325 32.8101 197.325C32.8092 197.323 32.8078 197.321 32.8059 197.319C32.8022 197.313 32.7964 197.305 32.7888 197.293C32.7736 197.271 32.7506 197.237 32.7203 197.192C32.6598 197.101 32.5698 196.966 32.4529 196.789C32.2191 196.433 31.8777 195.906 31.4488 195.224L30.6023 195.756C31.0349 196.444 31.38 196.977 31.6172 197.338C31.7359 197.518 31.8276 197.656 31.8898 197.749C31.9209 197.795 31.9447 197.83 31.9608 197.854C31.9688 197.866 31.9749 197.875 31.9791 197.881C31.9811 197.884 31.9827 197.886 31.9838 197.888C31.9844 197.889 31.9848 197.889 31.9851 197.89C31.9852 197.89 31.9854 197.89 31.9855 197.89C31.9855 197.89 31.9855 197.891 31.9856 197.891C31.9856 197.891 31.9856 197.891 31.9856 197.891C31.9856 197.891 31.9856 197.891 32.3984 197.609ZM28.8124 190.843C28.0502 189.523 27.2136 188.029 26.334 186.384L25.4522 186.855C26.3373 188.511 27.1793 190.015 27.9464 191.343L28.8124 190.843ZM23.9968 181.838C23.2731 180.372 22.5398 178.828 21.8117 177.218L20.9006 177.63C21.6336 179.251 22.3718 180.805 23.1001 182.281L23.9968 181.838ZM19.7896 172.524C19.1582 170.981 18.5422 169.393 17.9521 167.769L17.0123 168.111C17.6071 169.748 18.228 171.348 18.864 172.903L19.7896 172.524ZM16.3133 162.936C15.807 161.324 15.3339 159.688 14.9035 158.033L13.9357 158.285C14.3706 159.957 14.8483 161.609 15.3592 163.236L16.3133 162.936ZM13.7581 153.071C13.4243 151.405 13.1412 149.729 12.9177 148.05L11.9265 148.182C12.1531 149.884 12.4398 151.581 12.7776 153.267L13.7581 153.071ZM12.4338 142.99C12.3378 141.291 12.3122 139.598 12.366 137.916L11.3665 137.884C11.3117 139.597 11.3379 141.32 11.4353 143.046L12.4338 142.99ZM12.7815 132.863C13.0088 131.185 13.3277 129.527 13.7478 127.896L12.7794 127.647C12.349 129.317 12.0228 131.014 11.7906 132.729L12.7815 132.863ZM15.3206 123.096C15.9454 121.546 16.6786 120.029 17.5295 118.554L16.6633 118.054C15.7883 119.571 15.0348 121.13 14.3931 122.722L15.3206 123.096ZM20.3478 114.381C21.3594 113.09 22.4812 111.84 23.7209 110.637L23.0244 109.919C21.7525 111.154 20.6004 112.438 19.5607 113.765L20.3478 114.381ZM27.559 107.355C28.8591 106.374 30.2577 105.433 31.7603 104.537L31.2482 103.678C29.7155 104.592 28.2866 105.553 26.9565 106.557L27.559 107.355ZM36.2315 102.156C36.9977 101.792 37.7862 101.438 38.5973 101.094L38.207 100.173C37.3831 100.522 36.5817 100.882 35.8023 101.253L36.2315 102.156ZM38.5973 101.094C39.4338 100.739 40.2422 100.382 41.023 100.023L40.6049 99.1144C39.8337 99.4694 39.0347 99.8223 38.207 100.173L38.5973 101.094ZM45.6146 97.711C47.2213 96.8221 48.6779 95.9191 49.9943 95.0019L49.4226 94.1814C48.1374 95.0769 46.7103 95.9619 45.1305 96.836L45.6146 97.711ZM53.9947 91.78C55.3651 90.4863 56.4968 89.1652 57.4129 87.8166L56.5857 87.2547C55.7143 88.5374 54.6313 89.8038 53.3083 91.0528L53.9947 91.78ZM59.7258 83.1407C60.2755 81.4494 60.5493 79.7285 60.5952 77.9813L59.5956 77.955C59.552 79.6138 59.2924 81.2388 58.7748 82.8316L59.7258 83.1407ZM60.1221 72.7873C59.7992 71.1467 59.3256 69.4862 58.7382 67.8076L57.7943 68.1378C58.3694 69.7814 58.829 71.3954 59.1409 72.9804L60.1221 72.7873ZM56.81 63.0256C56.1236 61.4981 55.3726 59.954 54.5821 58.3947L53.6901 58.8469C54.476 60.397 55.2197 61.9264 55.8978 63.4355L56.81 63.0256ZM52.2129 53.8528C51.4201 52.3605 50.6149 50.8582 49.8133 49.3385L48.9288 49.8051C49.7311 51.3261 50.5395 52.8344 51.3298 54.322L52.2129 53.8528ZM47.4765 44.8012C46.718 43.2799 45.9843 41.7464 45.2942 40.2004L44.381 40.608C45.0782 42.1699 45.8183 43.7166 46.5816 45.2474L47.4765 44.8012ZM43.3654 35.503C42.7727 33.9072 42.245 32.2998 41.8019 30.6809L40.8373 30.9449C41.2893 32.596 41.8265 34.2317 42.4279 35.8511L43.3654 35.503ZM40.7384 25.7433C40.4829 24.0822 40.3342 22.4098 40.3124 20.7264L39.3124 20.7393C39.3349 22.4732 39.488 24.1921 39.75 25.8954L40.7384 25.7433ZM40.6376 15.7119C40.8737 14.0893 41.2427 12.4553 41.7627 10.8099L40.8091 10.5086C40.2727 12.206 39.8917 13.8927 39.648 15.5679L40.6376 15.7119ZM43.6332 6.16133C44.0005 5.41315 44.4016 4.66244 44.8383 3.90922L43.9732 3.40763C43.5251 4.18043 43.1131 4.95146 42.7355 5.72072L43.6332 6.16133ZM32.2136 198.591C32.7563 198.693 33.2791 198.336 33.3812 197.793L35.045 188.949C35.1471 188.406 34.7899 187.883 34.2471 187.781C33.7043 187.679 33.1816 188.036 33.0795 188.579L31.6005 196.441L23.7384 194.962C23.1957 194.86 22.6729 195.217 22.5708 195.76C22.4687 196.303 22.8259 196.825 23.3687 196.928L32.2136 198.591ZM38.4021 100.633L38.0118 99.7128L38.4021 100.633ZM45.3722 3.40138C45.2302 2.86765 44.6825 2.55006 44.1487 2.69203L35.4511 5.00537C34.9174 5.14734 34.5998 5.69509 34.7418 6.22881C34.8837 6.76254 35.4315 7.08013 35.9652 6.93818L43.6964 4.88187L45.7527 12.6131C45.8947 13.1468 46.4424 13.4644 46.9762 13.3224C47.5099 13.1805 47.8275 12.6327 47.6855 12.099L45.3722 3.40138ZM32.3984 197.609C33.2241 197.044 33.2241 197.044 33.2241 197.044C33.2241 197.044 33.2241 197.044 33.2241 197.044C33.2241 197.044 33.2241 197.044 33.2241 197.044C33.2241 197.044 33.2241 197.044 33.224 197.044C33.2239 197.044 33.2236 197.044 33.2232 197.043C33.2224 197.042 33.2211 197.04 33.2193 197.037C33.2158 197.032 33.2103 197.024 33.2028 197.013C33.188 196.991 33.1655 196.958 33.1356 196.913C33.0759 196.824 32.9867 196.69 32.8707 196.514C32.6386 196.161 32.2991 195.637 31.8721 194.958L30.179 196.023C30.6135 196.714 30.9604 197.249 31.1994 197.612C31.3189 197.794 31.4115 197.933 31.4745 198.027C31.5061 198.074 31.5302 198.11 31.5467 198.134C31.555 198.147 31.5613 198.156 31.5656 198.162C31.5678 198.165 31.5695 198.168 31.5707 198.17C31.5713 198.171 31.5718 198.171 31.5721 198.172C31.5723 198.172 31.5724 198.172 31.5726 198.172C31.5726 198.172 31.5727 198.173 31.5727 198.173C31.5727 198.173 31.5727 198.173 31.5728 198.173C31.5728 198.173 31.5728 198.173 32.3984 197.609ZM29.2453 190.593C28.4857 189.277 27.6517 187.788 26.7749 186.148L25.0112 187.091C25.8992 188.751 26.7438 190.26 27.5134 191.593L29.2453 190.593ZM24.4451 181.617C23.7238 180.156 22.9929 178.617 22.2673 177.012L20.445 177.836C21.1805 179.463 21.9211 181.022 22.6518 182.502L24.4451 181.617ZM20.2524 172.335C19.6233 170.797 19.0097 169.216 18.4221 167.599L16.5424 168.282C17.1396 169.925 17.7629 171.531 18.4013 173.092L20.2524 172.335ZM16.7903 162.786C16.2863 161.182 15.8156 159.553 15.3873 157.907L13.4518 158.411C13.889 160.091 14.369 161.752 14.8822 163.386L16.7903 162.786ZM14.2484 152.972C13.9166 151.316 13.6353 149.651 13.4134 147.984L11.4309 148.248C11.659 149.962 11.9476 151.67 12.2874 153.365L14.2484 152.972ZM12.933 142.961C12.8378 141.277 12.8125 139.598 12.8657 137.932L10.8668 137.868C10.8115 139.597 10.8379 141.335 10.9361 143.074L12.933 142.961ZM13.277 132.93C13.5018 131.27 13.8171 129.631 14.232 128.021L12.2952 127.522C11.8596 129.213 11.5298 130.929 11.2951 132.662L13.277 132.93ZM15.7844 123.283C16.4007 121.753 17.1237 120.258 17.9626 118.803L16.2301 117.804C15.3431 119.342 14.5795 120.922 13.9293 122.535L15.7844 123.283ZM20.7414 114.69C21.7389 113.417 22.8455 112.183 24.0692 110.996L22.6762 109.56C21.3882 110.811 20.2209 112.111 19.1671 113.456L20.7414 114.69ZM27.8603 107.754C29.1453 106.784 30.5288 105.853 32.0163 104.967L30.9922 103.249C29.4444 104.171 28.0004 105.142 26.6552 106.158L27.8603 107.754ZM36.4461 102.608C37.2058 102.247 37.9877 101.895 38.7924 101.554L38.0118 99.7128C37.1815 100.065 36.3737 100.428 35.5877 100.801L36.4461 102.608ZM38.7924 101.554C39.6334 101.198 40.4464 100.839 41.232 100.477L40.3959 98.6602C39.6295 99.013 38.8351 99.3638 38.0118 99.7128L38.7924 101.554ZM45.8567 98.1485C47.4767 97.2522 48.9482 96.3402 50.2801 95.4121L49.1367 93.7712C47.8671 94.6558 46.4549 95.5318 44.8885 96.3985L45.8567 98.1485ZM54.338 92.1436C55.7321 90.8275 56.888 89.4791 57.8265 88.0976L56.1721 86.9737C55.3231 88.2235 54.2644 89.4626 52.965 90.6893L54.338 92.1436ZM60.2013 83.2952C60.767 81.5547 61.048 79.7859 61.0951 77.9944L59.0958 77.9419C59.0533 79.5564 58.8009 81.1335 58.2992 82.6771L60.2013 83.2952ZM60.6127 72.6908C60.2844 71.0223 59.8037 69.3386 59.2101 67.6424L57.3224 68.303C57.8914 69.929 58.3439 71.5198 58.6503 73.0769L60.6127 72.6908ZM57.266 62.8207C56.5755 61.2839 55.8208 59.7325 55.028 58.1686L53.2442 59.073C54.0277 60.6185 54.7678 62.1405 55.4417 63.6404L57.266 62.8207ZM52.6545 53.6182C51.8604 52.1235 51.0568 50.6243 50.2556 49.1053L48.4866 50.0384C49.2892 51.56 50.0992 53.0714 50.8883 54.5566L52.6545 53.6182ZM47.924 44.5781C47.1678 43.0616 46.4373 41.5346 45.7508 39.9966L43.9245 40.8118C44.6252 42.3817 45.3685 43.935 46.1341 45.4705L47.924 44.5781ZM43.8341 35.3289C43.2458 33.7449 42.7229 32.1517 42.2841 30.5489L40.3551 31.0769C40.8115 32.7442 41.3534 34.3939 41.9592 36.0252L43.8341 35.3289ZM41.2326 25.6673C40.9803 24.0272 40.8338 22.3782 40.8123 20.7199L38.8125 20.7458C38.8353 22.5049 38.9906 24.2471 39.2558 25.9714L41.2326 25.6673ZM41.1324 15.7839C41.3646 14.1876 41.7277 12.5799 42.2394 10.9606L40.3324 10.3579C39.7877 12.0814 39.4008 13.7944 39.1532 15.4959L41.1324 15.7839ZM44.0821 6.38165C44.4441 5.644 44.8398 4.90346 45.2709 4.16002L43.5407 3.15683C43.0869 3.93942 42.6694 4.72063 42.2867 5.50041L44.0821 6.38165Z" fill="#1B4C8E"/>
</svg>
