<svg width="313" height="250" viewBox="0 0 313 250" fill="none" xmlns="http://www.w3.org/2000/svg">
<path d="M279.154 1.72345C279.001 1.19271 278.447 0.88627 277.916 1.03901L269.267 3.52803C268.736 3.68076 268.43 4.23484 268.583 4.76558C268.735 5.29633 269.289 5.60275 269.82 5.45003L277.508 3.23756L279.721 10.9255C279.873 11.4563 280.427 11.7627 280.958 11.61C281.489 11.4572 281.795 10.9032 281.643 10.3724L279.154 1.72345ZM96.6316 94.1602L95.6815 93.8482L96.6316 94.1602ZM143.735 157.386L142.905 156.827L143.735 157.386ZM32.4349 245.044C32.322 245.585 32.6686 246.114 33.2093 246.227L42.0191 248.068C42.5597 248.181 43.0895 247.834 43.2024 247.294C43.3154 246.753 42.9687 246.223 42.4281 246.11L34.5972 244.474L36.2333 236.643C36.3462 236.103 35.9995 235.573 35.4589 235.46C34.9183 235.347 34.3885 235.694 34.2755 236.234L32.4349 245.044ZM277.318 1.51604C276.945 2.19013 276.547 2.87638 276.126 3.57423L277.838 4.6083C278.271 3.89011 278.682 3.1818 279.068 2.48397L277.318 1.51604ZM273.408 7.7591C272.495 9.07803 271.512 10.4289 270.46 11.8084L272.051 13.0206C273.119 11.6191 274.121 10.2434 275.053 8.89692L273.408 7.7591ZM267.404 15.6704C266.374 16.9278 265.294 18.2045 264.169 19.4984L265.678 20.811C266.815 19.5033 267.907 18.2116 268.951 16.9382L267.404 15.6704ZM260.832 23.2382C259.736 24.4368 258.605 25.6475 257.441 26.8687L258.888 28.2488C260.062 27.018 261.203 25.797 262.308 24.5876L260.832 23.2382ZM253.913 30.4993C252.769 31.6541 251.599 32.8166 250.404 33.9853L251.802 35.4154C253.005 34.2394 254.183 33.0692 255.334 31.9063L253.913 30.4993ZM246.77 37.4832C245.58 38.6116 244.369 39.7444 243.138 40.8806L244.494 42.3505C245.732 41.2083 246.95 40.0692 248.146 38.9343L246.77 37.4832ZM239.416 44.2701C238.19 45.3723 236.947 46.4764 235.688 47.5815L237.008 49.0845C238.272 47.9743 239.521 46.8649 240.753 45.7574L239.416 44.2701ZM231.889 50.878C230.634 51.9549 229.365 53.0316 228.083 54.1072L229.369 55.6392C230.656 54.559 231.93 53.4776 233.191 52.396L231.889 50.878ZM224.215 57.3192C222.933 58.372 221.641 59.4228 220.339 60.4706L221.593 62.0287C222.9 60.9767 224.197 59.9217 225.484 58.8646L224.215 57.3192ZM216.409 63.6015C215.103 64.6313 213.789 65.6574 212.468 66.6787L213.691 68.261C215.017 67.2357 216.337 66.2057 217.648 65.1719L216.409 63.6015ZM208.484 69.7278C207.154 70.7356 205.818 71.7379 204.478 72.7337L205.67 74.3392C207.016 73.3396 208.357 72.3335 209.692 71.3218L208.484 69.7278ZM200.443 75.7007C199.09 76.686 197.733 77.664 196.373 78.6336L197.534 80.2619C198.899 79.2885 200.262 78.3067 201.62 77.3176L200.443 75.7007ZM192.286 81.5187C190.91 82.4796 189.533 83.4311 188.156 84.3724L189.284 86.0236C190.667 85.0784 192.05 84.1231 193.431 83.1584L192.286 81.5187ZM184.012 87.173C182.614 88.107 181.218 89.0295 179.823 89.9395L180.917 91.6144C182.317 90.7003 183.72 89.7738 185.123 88.8358L184.012 87.173ZM175.621 92.6493C174.2 93.5537 172.783 94.444 171.372 95.3192L172.425 97.019C173.844 96.1395 175.268 95.2449 176.695 94.3363L175.621 92.6493ZM167.107 97.9264C165.661 98.7978 164.221 99.6519 162.79 100.488L163.799 102.215C165.238 101.374 166.685 100.515 168.139 99.6394L167.107 97.9264ZM158.464 102.973C156.987 103.807 155.521 104.619 154.067 105.409L155.022 107.166C156.485 106.371 157.961 105.554 159.447 104.715L158.464 102.973ZM149.682 107.741C148.166 108.53 146.667 109.292 145.185 110.025L146.072 111.818C147.566 111.078 149.078 110.31 150.606 109.516L149.682 107.741ZM140.73 112.168C139.174 112.895 137.64 113.586 136.133 114.241L136.93 116.075C138.454 115.413 140.004 114.714 141.576 113.98L140.73 112.168ZM131.528 116.156C129.957 116.779 128.421 117.356 126.922 117.885L127.587 119.771C129.112 119.233 130.673 118.647 132.265 118.015L131.528 116.156ZM122.137 119.444C120.475 119.938 118.872 120.361 117.331 120.709L117.772 122.66C119.361 122.301 121.007 121.866 122.706 121.361L122.137 119.444ZM112.494 121.584C110.762 121.809 109.14 121.913 107.638 121.892L107.611 123.892C109.223 123.914 110.941 123.802 112.752 123.567L112.494 121.584ZM102.908 121.309C101.292 120.889 99.9177 120.242 98.7869 119.369L97.5645 120.952C98.942 122.016 100.571 122.768 102.404 123.245L102.908 121.309ZM96.0139 115.855C95.4339 114.606 95.0369 113.125 94.8547 111.387L92.8656 111.595C93.0668 113.515 93.5121 115.215 94.1998 116.697L96.0139 115.855ZM94.859 106.567C94.9934 105.05 95.2444 103.407 95.6199 101.63L93.6631 101.216C93.2735 103.06 93.0092 104.783 92.8668 106.39L94.859 106.567ZM96.7979 96.9927C97.0373 96.1751 97.2984 95.335 97.5817 94.4721L95.6815 93.8482C95.3918 94.7306 95.1242 95.5914 94.8785 96.4309L96.7979 96.9927ZM97.5817 94.4721C97.8574 93.6326 98.1342 92.8066 98.4122 91.9943L96.52 91.3467C96.2392 92.1671 95.9597 93.0009 95.6815 93.8482L97.5817 94.4721ZM100.093 87.2814C100.696 85.6611 101.304 84.1014 101.915 82.601L100.063 81.8464C99.4433 83.3666 98.8285 84.9454 98.2189 86.5841L100.093 87.2814ZM103.857 78.0595C104.578 76.4563 105.303 74.9317 106.032 73.4838L104.245 72.585C103.503 74.0603 102.765 75.6112 102.033 77.2395L103.857 78.0595ZM108.361 69.1302C109.217 67.6313 110.074 66.2337 110.934 64.9339L109.265 63.831C108.38 65.1699 107.499 66.605 106.624 68.1391L108.361 69.1302ZM113.859 60.8844C114.953 59.5079 116.045 58.2846 117.131 57.2064L115.722 55.7871C114.575 56.9258 113.431 58.2084 112.294 59.6402L113.859 60.8844ZM120.825 54.0685C122.235 53.0696 123.626 52.3091 124.991 51.7651L124.251 49.9073C122.724 50.5157 121.195 51.3558 119.669 52.4364L120.825 54.0685ZM129.587 50.7134C131.162 50.6214 132.708 50.8088 134.219 51.2538L134.784 49.3352C133.061 48.8276 131.284 48.6108 129.47 48.7168L129.587 50.7134ZM138.493 53.2468C139.778 54.0738 141.03 55.0935 142.241 56.2927L143.648 54.8719C142.351 53.587 140.991 52.4765 139.576 51.5651L138.493 53.2468ZM145.442 60.0149C146.377 61.275 147.275 62.6474 148.129 64.1222L149.86 63.1199C148.971 61.5853 148.032 60.1489 147.048 58.8228L145.442 60.0149ZM150.402 68.5115C151.078 69.9707 151.716 71.5006 152.312 73.094L154.185 72.3934C153.573 70.755 152.915 69.1781 152.217 67.6706L150.402 68.5115ZM153.898 77.8138C154.367 79.374 154.797 80.9808 155.187 82.6286L157.133 82.168C156.735 80.4828 156.294 78.8377 155.813 77.2385L153.898 77.8138ZM156.198 87.497C156.488 89.1088 156.74 90.7514 156.951 92.4203L158.935 92.1685C158.719 90.4659 158.462 88.7893 158.167 87.1433L156.198 87.497ZM157.456 97.3831C157.582 99.0274 157.669 100.691 157.716 102.371L159.715 102.315C159.667 100.603 159.578 98.9067 159.45 97.2302L157.456 97.3831ZM157.736 107.369C157.702 109.022 157.629 110.685 157.515 112.354L159.51 112.491C159.627 110.789 159.701 109.094 159.735 107.41L157.736 107.369ZM157.054 117.318C156.86 118.963 156.626 120.61 156.349 122.257L158.321 122.589C158.604 120.909 158.843 119.229 159.04 117.552L157.054 117.318ZM155.396 127.157C155.038 128.775 154.637 130.39 154.192 131.998L156.119 132.531C156.574 130.89 156.983 129.241 157.349 127.589L155.396 127.157ZM152.733 136.759C152.205 138.329 151.633 139.888 151.014 141.434L152.871 142.177C153.504 140.596 154.089 139.001 154.629 137.397L152.733 136.759ZM149.03 146.004C148.327 147.502 147.577 148.984 146.78 150.446L148.536 151.404C149.353 149.905 150.12 148.388 150.84 146.854L149.03 146.004ZM144.267 154.734C143.825 155.438 143.371 156.135 142.905 156.827L144.564 157.945C145.042 157.235 145.508 156.52 145.961 155.799L144.267 154.734ZM142.905 156.827C142.432 157.529 141.955 158.226 141.473 158.918L143.114 160.061C143.602 159.361 144.085 158.655 144.564 157.945L142.905 156.827ZM138.522 163.022C137.514 164.381 136.49 165.72 135.451 167.038L137.022 168.276C138.072 166.943 139.109 165.589 140.129 164.214L138.522 163.022ZM132.264 170.964C131.179 172.263 130.08 173.541 128.968 174.8L130.467 176.124C131.591 174.852 132.702 173.56 133.799 172.246L132.264 170.964ZM125.569 178.546C124.414 179.785 123.248 181.003 122.072 182.202L123.5 183.603C124.688 182.392 125.866 181.161 127.032 179.909L125.569 178.546ZM118.483 185.769C117.266 186.949 116.041 188.109 114.808 189.249L116.165 190.718C117.41 189.567 118.647 188.396 119.875 187.205L118.483 185.769ZM111.051 192.643C109.779 193.766 108.501 194.869 107.219 195.953L108.509 197.48C109.803 196.388 111.092 195.275 112.375 194.142L111.051 192.643ZM103.315 199.18C101.995 200.25 100.671 201.299 99.346 202.329L100.573 203.908C101.909 202.87 103.243 201.813 104.574 200.735L103.315 199.18ZM95.3151 205.401C93.9515 206.42 92.5883 207.419 91.2273 208.399L92.3959 210.022C93.7661 209.036 95.139 208.029 96.5125 207.003L95.3151 205.401ZM87.0869 211.327C85.6856 212.3 84.2887 213.254 82.8984 214.187L84.0135 215.848C85.4122 214.908 86.8177 213.949 88.228 212.969L87.0869 211.327ZM78.6661 216.985C77.2321 217.918 75.8076 218.831 74.3949 219.724L75.4633 221.414C76.8831 220.517 78.3151 219.6 79.757 218.661L78.6661 216.985ZM70.09 222.407C68.6291 223.306 67.184 224.184 65.7574 225.041L66.7875 226.755C68.2195 225.895 69.6706 225.013 71.138 224.111L70.09 222.407ZM61.3944 227.635C59.9038 228.513 58.438 229.368 57.0004 230.202L58.0037 231.932C59.4444 231.097 60.9142 230.239 62.4094 229.359L61.3944 227.635ZM52.5999 232.74C51.091 233.607 49.6214 234.448 48.1934 235.267L49.1882 237.002C50.6147 236.184 52.0862 235.341 53.5959 234.474L52.5999 232.74ZM43.773 237.81C42.2428 238.696 40.7748 239.553 39.3764 240.384L40.3979 242.103C41.7876 241.278 43.2487 240.425 44.7749 239.541L43.773 237.81ZM35.0231 243.032C34.276 243.5 33.5565 243.96 32.8662 244.412L33.9613 246.085C34.639 245.642 35.3474 245.189 36.0851 244.727L35.0231 243.032Z" fill="#EB5757"/>
</svg>
