<svg width="503" height="456" viewBox="0 0 503 456" fill="none" xmlns="http://www.w3.org/2000/svg">
<path d="M2.0643 264.689C1.8694 265.206 2.13031 265.783 2.64707 265.978L11.068 269.154C11.5848 269.349 12.1617 269.088 12.3566 268.571C12.5515 268.054 12.2906 267.477 11.7738 267.282L4.28852 264.459L7.11171 256.974C7.30662 256.457 7.04571 255.88 6.52895 255.685C6.0122 255.49 5.4353 255.751 5.24039 256.268L2.0643 264.689ZM294.539 315.438L295.114 316.256L294.539 315.438ZM294.606 200.874L294.937 201.817L294.606 200.874ZM500.097 195.131C500.511 194.765 500.55 194.133 500.184 193.72L494.223 186.977C493.857 186.563 493.225 186.524 492.811 186.89C492.397 187.256 492.358 187.888 492.724 188.302L498.023 194.295L492.029 199.594C491.616 199.96 491.577 200.592 491.943 201.006C492.308 201.419 492.94 201.458 493.354 201.092L500.097 195.131ZM3.41203 265.953C4.12416 265.631 4.85511 265.313 5.60448 264.998L4.82991 263.154C4.0647 263.475 3.31718 263.801 2.58788 264.131L3.41203 265.953ZM10.3171 263.154C11.8268 262.602 13.3953 262.063 15.0196 261.538L14.4036 259.635C12.7574 260.168 11.1655 260.714 9.63084 261.275L10.3171 263.154ZM19.8981 260.045C21.4566 259.594 23.058 259.153 24.7003 258.724L24.194 256.789C22.5361 257.223 20.918 257.668 19.3421 258.124L19.8981 260.045ZM29.6285 257.495C31.2316 257.114 32.8683 256.743 34.5369 256.381L34.1128 254.426C32.432 254.791 30.7826 255.165 29.1662 255.549L29.6285 257.495ZM39.4657 255.357C41.1117 255.03 42.785 254.711 44.4842 254.401L44.1252 252.433C42.416 252.745 40.7324 253.066 39.0757 253.395L39.4657 255.357ZM49.3957 253.541C51.0554 253.262 52.7371 252.991 54.4398 252.728L54.1343 250.751C52.4233 251.016 50.7329 251.288 49.0643 251.569L49.3957 253.541ZM59.4075 251.991C61.0558 251.756 62.7216 251.528 64.404 251.308L64.144 249.325C62.4545 249.546 60.7813 249.775 59.1255 250.011L59.4075 251.991ZM69.4863 250.669C71.1259 250.472 72.7796 250.281 74.4464 250.096L74.2266 248.109C72.5534 248.294 70.8934 248.485 69.2473 248.683L69.4863 250.669ZM79.4855 249.563C81.1616 249.393 82.8497 249.23 84.5489 249.073L84.3652 247.082C82.6602 247.239 80.9662 247.403 79.2842 247.573L79.4855 249.563ZM89.5489 248.633C91.2255 248.493 92.9119 248.358 94.6071 248.23L94.4562 246.236C92.7557 246.364 91.0639 246.499 89.3818 246.64L89.5489 248.633ZM99.6653 247.867C101.332 247.754 103.007 247.647 104.689 247.546L104.569 245.55C102.882 245.651 101.202 245.759 99.53 245.872L99.6653 247.867ZM109.753 247.26C111.434 247.171 113.121 247.088 114.814 247.011L114.722 245.013C113.025 245.09 111.334 245.173 109.648 245.263L109.753 247.26ZM119.852 246.798C121.536 246.733 123.224 246.674 124.916 246.62L124.853 244.621C123.156 244.675 121.463 244.735 119.775 244.8L119.852 246.798ZM129.98 246.477C131.66 246.435 133.343 246.399 135.028 246.369L134.992 244.369C133.302 244.4 131.615 244.436 129.93 244.478L129.98 246.477ZM140.09 246.294C141.777 246.274 143.465 246.26 145.154 246.252L145.144 244.252C143.451 244.261 141.758 244.274 140.067 244.294L140.09 246.294ZM150.211 246.245C151.897 246.248 153.583 246.257 155.268 246.271L155.285 244.271C153.595 244.257 151.905 244.248 150.215 244.245L150.211 246.245ZM160.328 246.331C162.017 246.357 163.706 246.389 165.392 246.426L165.436 244.426C163.745 244.389 162.052 244.357 160.358 244.332L160.328 246.331ZM170.444 246.554C172.131 246.603 173.815 246.657 175.495 246.717L175.567 244.719C173.882 244.658 172.193 244.604 170.502 244.555L170.444 246.554ZM180.566 246.917C182.252 246.99 183.934 247.068 185.611 247.152L185.711 245.154C184.029 245.07 182.343 244.992 180.652 244.919L180.566 246.917ZM190.65 247.423C192.348 247.521 194.04 247.625 195.724 247.735L195.855 245.74C194.165 245.629 192.468 245.525 190.765 245.427L190.65 247.423ZM200.757 248.084C202.442 248.207 204.119 248.337 205.787 248.473L205.949 246.48C204.276 246.343 202.593 246.213 200.903 246.089L200.757 248.084ZM210.858 248.908C212.538 249.059 214.209 249.217 215.87 249.382L216.067 247.392C214.401 247.227 212.724 247.068 211.037 246.916L210.858 248.908ZM220.897 249.904C222.594 250.088 224.279 250.279 225.951 250.477L226.187 248.491C224.508 248.292 222.816 248.1 221.113 247.915L220.897 249.904ZM230.926 251.093C232.621 251.312 234.3 251.539 235.964 251.773L236.242 249.792C234.571 249.557 232.884 249.33 231.182 249.11L230.926 251.093ZM240.978 252.508C242.633 252.761 244.271 253.022 245.89 253.29L246.217 251.317C244.59 251.047 242.944 250.785 241.28 250.531L240.978 252.508ZM250.954 254.167C252.62 254.468 254.264 254.778 255.884 255.096L256.27 253.134C254.639 252.813 252.985 252.502 251.309 252.199L250.954 254.167ZM260.838 256.112C262.517 256.472 264.167 256.842 265.788 257.221L266.244 255.274C264.61 254.891 262.948 254.519 261.257 254.157L260.838 256.112ZM270.619 258.405C272.306 258.838 273.956 259.283 275.568 259.739L276.112 257.814C274.485 257.353 272.818 256.905 271.116 256.468L270.619 258.405ZM280.281 261.142C281.963 261.669 283.596 262.21 285.176 262.765L285.839 260.878C284.236 260.315 282.582 259.767 280.879 259.234L280.281 261.142ZM289.77 264.478C291.417 265.13 292.994 265.8 294.498 266.486L295.328 264.667C293.791 263.965 292.182 263.282 290.507 262.619L289.77 264.478ZM298.934 268.676C300.468 269.497 301.902 270.339 303.23 271.202L304.32 269.525C302.939 268.628 301.456 267.757 299.878 266.912L298.934 268.676ZM307.257 274.15C308.583 275.256 309.742 276.389 310.73 277.548L312.252 276.251C311.182 274.994 309.939 273.782 308.538 272.614L307.257 274.15ZM313.376 281.508C314.093 282.964 314.556 284.458 314.757 285.994L316.74 285.735C316.509 283.968 315.978 282.264 315.171 280.624L313.376 281.508ZM314.568 290.711C314.27 292.172 313.751 293.685 312.989 295.253L314.788 296.127C315.614 294.426 316.193 292.753 316.527 291.109L314.568 290.711ZM310.532 299.335C309.638 300.587 308.598 301.868 307.406 303.177L308.884 304.524C310.124 303.163 311.215 301.821 312.16 300.497L310.532 299.335ZM303.866 306.729C302.723 307.787 301.485 308.861 300.149 309.951L301.414 311.501C302.779 310.387 304.049 309.285 305.225 308.197L303.866 306.729ZM296.155 313.043C295.446 313.565 294.716 314.091 293.964 314.619L295.114 316.256C295.878 315.719 296.62 315.184 297.341 314.653L296.155 313.043ZM293.964 314.619C293.235 315.131 292.512 315.635 291.794 316.131L292.93 317.777C293.653 317.278 294.381 316.771 295.114 316.256L293.964 314.619ZM287.543 319.009C286.147 319.937 284.77 320.833 283.413 321.698L284.487 323.384C285.855 322.513 287.243 321.61 288.65 320.675L287.543 319.009ZM279.068 324.401C277.591 325.298 276.139 326.156 274.711 326.976L275.708 328.711C277.149 327.882 278.616 327.016 280.106 326.111L279.068 324.401ZM270.41 329.375C268.852 330.216 267.325 331.011 265.829 331.759L266.724 333.547C268.239 332.79 269.784 331.986 271.36 331.135L270.41 329.375ZM261.436 333.865C259.814 334.609 258.231 335.294 256.688 335.924L257.443 337.776C259.014 337.135 260.622 336.438 262.269 335.683L261.436 333.865ZM252.148 337.656C250.461 338.253 248.827 338.778 247.244 339.233L247.797 341.155C249.421 340.688 251.093 340.151 252.815 339.541L252.148 337.656ZM242.452 340.436C240.757 340.796 239.131 341.068 237.571 341.256L237.811 343.241C239.433 343.046 241.118 342.764 242.867 342.393L242.452 340.436ZM232.582 341.578C230.851 341.586 229.22 341.474 227.687 341.253L227.401 343.233C229.039 343.469 230.768 343.586 232.59 343.578L232.582 341.578ZM222.967 340.131C221.384 339.588 219.934 338.9 218.612 338.079L217.557 339.778C219.011 340.681 220.598 341.433 222.318 342.023L222.967 340.131ZM214.87 335.074C213.76 333.937 212.778 332.662 211.924 331.261L210.216 332.303C211.145 333.825 212.218 335.22 213.439 336.472L214.87 335.074ZM209.812 326.881C209.258 325.4 208.807 323.824 208.459 322.16L206.501 322.57C206.868 324.324 207.346 325.998 207.938 327.582L209.812 326.881ZM207.749 317.258C207.611 315.651 207.553 313.985 207.573 312.265L205.573 312.241C205.552 314.021 205.612 315.753 205.757 317.429L207.749 317.258ZM207.838 307.292C207.986 305.682 208.196 304.035 208.467 302.357L206.492 302.039C206.215 303.759 205.999 305.45 205.846 307.108L207.838 307.292ZM209.416 297.431C209.775 295.817 210.186 294.18 210.649 292.524L208.722 291.986C208.251 293.675 207.831 295.346 207.463 296.996L209.416 297.431ZM212.102 287.762C212.621 286.193 213.183 284.612 213.787 283.02L211.918 282.31C211.303 283.928 210.731 285.537 210.203 287.134L212.102 287.762ZM215.678 278.339C216.326 276.822 217.012 275.3 217.734 273.775L215.927 272.919C215.194 274.467 214.497 276.012 213.839 277.553L215.678 278.339ZM219.983 269.246C220.748 267.775 221.545 266.305 222.376 264.836L220.635 263.851C219.793 265.341 218.984 266.832 218.209 268.324L219.983 269.246ZM224.933 260.492C225.804 259.07 226.705 257.651 227.636 256.239L225.967 255.138C225.023 256.569 224.11 258.006 223.227 259.448L224.933 260.492ZM230.476 252.088C231.444 250.722 232.44 249.365 233.465 248.017L231.872 246.807C230.835 248.172 229.825 249.548 228.844 250.932L230.476 252.088ZM236.57 244.07C237.629 242.769 238.714 241.48 239.825 240.205L238.317 238.891C237.191 240.183 236.092 241.489 235.019 242.807L236.57 244.07ZM243.186 236.476C244.329 235.249 245.497 234.038 246.689 232.844L245.274 231.431C244.065 232.641 242.882 233.869 241.723 235.112L243.186 236.476ZM250.301 229.35C251.525 228.205 252.773 227.079 254.043 225.974L252.73 224.465C251.442 225.586 250.176 226.728 248.935 227.888L250.301 229.35ZM257.894 222.742C259.197 221.688 260.521 220.656 261.867 219.647L260.668 218.047C259.302 219.071 257.958 220.118 256.636 221.187L257.894 222.742ZM265.946 216.708C267.323 215.755 268.72 214.826 270.138 213.924L269.064 212.237C267.624 213.153 266.206 214.096 264.808 215.063L265.946 216.708ZM274.432 211.309C275.878 210.468 277.343 209.654 278.828 208.869L277.893 207.101C276.384 207.899 274.895 208.726 273.426 209.581L274.432 211.309ZM283.319 206.611C284.827 205.892 286.354 205.203 287.899 204.546L287.116 202.705C285.544 203.374 283.992 204.075 282.458 204.806L283.319 206.611ZM292.564 202.678C293.351 202.383 294.141 202.096 294.937 201.817L294.275 199.93C293.466 200.213 292.661 200.505 291.861 200.806L292.564 202.678ZM294.937 201.817C295.712 201.546 296.487 201.278 297.263 201.015L296.621 199.121C295.839 199.386 295.057 199.656 294.275 199.93L294.937 201.817ZM301.921 199.489C303.487 198.994 305.053 198.515 306.619 198.053L306.054 196.135C304.475 196.6 302.896 197.083 301.317 197.582L301.921 199.489ZM311.335 196.713C312.918 196.279 314.5 195.863 316.082 195.462L315.591 193.523C313.997 193.927 312.402 194.347 310.807 194.784L311.335 196.713ZM320.853 194.301C322.448 193.929 324.043 193.572 325.636 193.231L325.217 191.275C323.612 191.619 322.006 191.978 320.399 192.354L320.853 194.301ZM330.452 192.245C332.062 191.931 333.671 191.632 335.277 191.347L334.928 189.377C333.31 189.664 331.69 189.966 330.068 190.283L330.452 192.245ZM340.114 190.533C341.737 190.274 343.357 190.029 344.975 189.799L344.693 187.819C343.064 188.051 341.433 188.297 339.799 188.558L340.114 190.533ZM349.84 189.147C351.468 188.942 353.093 188.751 354.714 188.573L354.496 186.585C352.865 186.764 351.229 186.957 349.59 187.163L349.84 189.147ZM359.606 188.075C361.24 187.922 362.87 187.781 364.496 187.653L364.339 185.659C362.703 185.788 361.063 185.929 359.418 186.084L359.606 188.075ZM369.394 187.302C371.036 187.197 372.673 187.103 374.304 187.022L374.204 185.024C372.564 185.106 370.918 185.2 369.266 185.306L369.394 187.302ZM379.209 186.81C380.852 186.75 382.488 186.702 384.118 186.664L384.072 184.665C382.434 184.703 380.788 184.751 379.137 184.811L379.209 186.81ZM389.038 186.583C390.683 186.566 392.321 186.559 393.95 186.563L393.955 184.563C392.317 184.559 390.671 184.566 389.018 184.583L389.038 186.583ZM398.858 186.602C400.508 186.626 402.149 186.658 403.782 186.7L403.833 184.7C402.193 184.659 400.544 184.626 398.886 184.603L398.858 186.602ZM408.696 186.852C410.341 186.912 411.976 186.98 413.6 187.056L413.694 185.059C412.063 184.982 410.421 184.913 408.769 184.853L408.696 186.852ZM418.514 187.312C420.164 187.405 421.803 187.507 423.429 187.615L423.561 185.619C421.929 185.511 420.284 185.409 418.627 185.315L418.514 187.312ZM428.333 187.962C429.979 188.086 431.61 188.216 433.227 188.352L433.394 186.359C431.772 186.223 430.135 186.092 428.484 185.968L428.333 187.962ZM438.129 188.781C439.782 188.932 441.418 189.088 443.036 189.247L443.232 187.257C441.609 187.097 439.969 186.941 438.311 186.789L438.129 188.781ZM447.935 189.746C449.585 189.919 451.216 190.095 452.825 190.273L453.045 188.285C451.432 188.107 449.797 187.93 448.143 187.757L447.935 189.746ZM457.71 190.823C459.362 191.013 460.989 191.203 462.591 191.393L462.826 189.407C461.222 189.217 459.593 189.026 457.939 188.836L457.71 190.823ZM467.482 191.978C469.144 192.178 470.776 192.376 472.378 192.57L472.618 190.584C471.017 190.391 469.384 190.193 467.721 189.992L467.482 191.978ZM477.273 193.16C478.943 193.359 480.576 193.552 482.168 193.736L482.398 191.749C480.809 191.566 479.179 191.373 477.51 191.174L477.273 193.16ZM487.065 194.284C488.758 194.467 490.399 194.636 491.986 194.787L492.176 192.796C490.599 192.645 488.966 192.478 487.279 192.296L487.065 194.284ZM496.932 195.212C497.764 195.275 498.578 195.331 499.373 195.38L499.496 193.384C498.711 193.336 497.906 193.28 497.082 193.218L496.932 195.212Z" fill="#5E1F60"/>
</svg>
