<svg width="201" height="269" viewBox="0 0 201 269" fill="none" xmlns="http://www.w3.org/2000/svg">
<path d="M10.1203 0.445873C9.81424 -0.0138663 9.19345 -0.138468 8.73371 0.167568L1.24182 5.15471C0.782082 5.46074 0.65748 6.08153 0.963516 6.54127C1.26955 7.00101 1.89033 7.12561 2.35007 6.81957L9.00953 2.38656L13.4425 9.04602C13.7486 9.50576 14.3694 9.63036 14.8291 9.32432C15.2888 9.01829 15.4134 8.3975 15.1074 7.93776L10.1203 0.445873ZM200.547 261.651C200.907 261.231 200.858 260.6 200.439 260.241L193.604 254.385C193.185 254.025 192.554 254.074 192.194 254.493C191.835 254.913 191.884 255.544 192.303 255.903L198.378 261.109L193.172 267.184C192.813 267.603 192.862 268.234 193.281 268.594C193.7 268.953 194.332 268.904 194.691 268.485L200.547 261.651ZM8.30739 0.803208C8.14869 1.59391 7.99219 2.39101 7.83801 3.19432L9.80215 3.57132C9.95528 2.77351 10.1107 1.98194 10.2683 1.19679L8.30739 0.803208ZM6.94132 8.0874C6.66067 9.69362 6.38941 11.322 6.12824 12.9712L8.10362 13.284C8.36314 11.6452 8.63266 10.0273 8.91147 8.43164L6.94132 8.0874ZM5.38714 17.8994C5.15689 19.5153 4.93649 21.1491 4.72653 22.7998L6.71055 23.0521C6.91924 21.4114 7.13831 19.7875 7.36714 18.1815L5.38714 17.8994ZM4.13474 27.7463C3.95244 29.372 3.78045 31.0125 3.6193 32.6666L5.60987 32.8605C5.77008 31.2161 5.94107 29.5853 6.12228 27.9692L4.13474 27.7463ZM3.17285 37.6214C3.03745 39.2565 2.91283 40.9037 2.79948 42.5621L4.79482 42.6984C4.90751 41.0497 5.03142 39.4121 5.16603 37.7864L3.17285 37.6214ZM2.49649 47.519C2.4079 49.1625 2.33059 50.8158 2.26503 52.478L4.26347 52.5568C4.32866 50.9043 4.40552 49.2606 4.49359 47.6267L2.49649 47.519ZM2.10546 57.4333C2.0643 59.0834 2.03493 60.7413 2.01781 62.4061L4.01771 62.4266C4.03473 60.7717 4.06392 59.1236 4.10483 57.4832L2.10546 57.4333ZM2.00333 67.3574C2.01071 69.0118 2.03043 70.6721 2.06291 72.3377L4.06253 72.2987C4.03025 70.6433 4.01065 68.9929 4.00331 67.3485L2.00333 67.3574ZM2.19676 77.2831C2.25409 78.9361 2.32425 80.5935 2.40766 82.2543L4.40515 82.154C4.32226 80.5036 4.25253 78.8566 4.19556 77.2138L2.19676 77.2831ZM2.69503 87.2006C2.80391 88.8494 2.92614 90.501 3.06215 92.1545L5.05542 91.9906C4.92031 90.3479 4.79886 88.7071 4.69069 87.0688L2.69503 87.2006ZM3.50971 97.0988C3.67224 98.7427 3.84871 100.388 4.03951 102.033L6.0262 101.803C5.83671 100.169 5.66144 98.5348 5.5 96.902L3.50971 97.0988ZM4.65448 106.965C4.87321 108.603 5.10651 110.24 5.35479 111.877L7.33217 111.577C7.0857 109.952 6.85406 108.326 6.63688 106.7L4.65448 106.965ZM6.14489 116.784C6.42281 118.414 6.716 120.043 7.02486 121.669L8.98975 121.296C8.68327 119.682 8.39229 118.066 8.11645 116.448L6.14489 116.784ZM7.99867 126.541C8.33907 128.161 8.69551 129.778 9.06836 131.392L11.017 130.942C10.6472 129.341 10.2937 127.737 9.95595 126.129L7.99867 126.541ZM10.2363 136.221C10.6424 137.827 11.0654 139.428 11.5055 141.025L13.4336 140.493C12.9973 138.911 12.578 137.323 12.1753 135.731L10.2363 136.221ZM12.8788 145.802C13.3541 147.389 13.8469 148.97 14.3578 150.544L16.2602 149.927C15.7541 148.367 15.2657 146.801 14.7947 145.228L12.8788 145.802ZM15.948 155.257C16.4965 156.821 17.0633 158.378 17.6491 159.927L19.5198 159.219C18.9399 157.686 18.3785 156.144 17.8354 154.595L15.948 155.257ZM19.4663 164.556C20.0917 166.092 20.7365 167.62 21.401 169.138L23.2331 168.336C22.5757 166.834 21.9376 165.322 21.3187 163.802L19.4663 164.556ZM23.4557 173.666C24.1615 175.168 24.8876 176.659 25.6343 178.14L27.42 177.239C26.6818 175.775 25.9638 174.3 25.2656 172.815L23.4557 173.666ZM27.9368 182.548C28.7259 184.008 29.536 185.456 30.3676 186.891L32.0982 185.889C31.2766 184.471 30.476 183.04 29.6961 181.597L27.9368 182.548ZM32.9272 191.16C33.8014 192.569 34.6974 193.965 35.6157 195.347L37.2815 194.241C36.3749 192.876 35.4901 191.498 34.6266 190.106L32.9272 191.16ZM38.4367 199.451C39.3977 200.802 40.3813 202.138 41.3877 203.46L42.9787 202.248C41.9857 200.944 41.015 199.625 40.0664 198.292L38.4367 199.451ZM44.4694 207.369C45.5184 208.655 46.5906 209.925 47.6862 211.179L49.1921 209.863C48.1115 208.626 47.054 207.374 46.0192 206.105L44.4694 207.369ZM51.0214 214.865C52.1566 216.077 53.3153 217.272 54.498 218.449L55.9089 217.031C54.7429 215.871 53.6004 214.693 52.4811 213.498L51.0214 214.865ZM58.0798 221.891C59.2948 223.017 60.5334 224.126 61.7961 225.217L63.1031 223.703C61.8585 222.628 60.6376 221.535 59.4399 220.424L58.0798 221.891ZM65.6234 228.404C66.9104 229.437 68.221 230.452 69.5555 231.447L70.7514 229.844C69.436 228.863 68.1442 227.863 66.8755 226.844L65.6234 228.404ZM73.6238 234.37C74.9731 235.304 76.3453 236.218 77.7409 237.112L78.8202 235.429C77.4444 234.547 76.0916 233.645 74.7616 232.725L73.6238 234.37ZM81.9978 239.737C83.4138 240.576 84.8526 241.395 86.3144 242.195L87.2741 240.44C85.8324 239.652 84.4136 238.843 83.0173 238.016L81.9978 239.737ZM90.7148 244.505C92.2005 245.253 93.7088 245.982 95.24 246.689L96.0791 244.874C94.5681 244.176 93.08 243.457 91.6145 242.719L90.7148 244.505ZM99.7429 248.683C101.265 249.328 102.81 249.953 104.376 250.558L105.096 248.692C103.55 248.095 102.026 247.478 100.523 246.841L99.7429 248.683ZM109.051 252.281C110.592 252.822 112.154 253.345 113.737 253.848L114.343 251.942C112.779 251.445 111.236 250.929 109.713 250.394L109.051 252.281ZM118.546 255.299C120.117 255.747 121.707 256.178 123.317 256.589L123.812 254.652C122.22 254.245 120.648 253.819 119.095 253.376L118.546 255.299ZM128.131 257.75C129.755 258.118 131.398 258.468 133.06 258.798L133.45 256.837C131.805 256.51 130.179 256.164 128.573 255.799L128.131 257.75ZM137.894 259.696C139.506 259.975 141.136 260.236 142.783 260.479L143.075 258.501C141.444 258.26 139.83 258.001 138.234 257.725L137.894 259.696ZM147.779 261.156C149.391 261.355 151.02 261.538 152.665 261.703L152.865 259.713C151.235 259.549 149.621 259.369 148.024 259.171L147.779 261.156ZM157.583 262.144C159.239 262.274 160.91 262.388 162.599 262.485L162.713 260.488C161.039 260.392 159.381 260.279 157.74 260.15L157.583 262.144ZM167.549 262.718C169.17 262.778 170.805 262.823 172.455 262.853L172.491 260.853C170.854 260.824 169.231 260.779 167.623 260.719L167.549 262.718ZM177.45 262.895C179.117 262.893 180.798 262.876 182.494 262.844L182.456 260.844C180.772 260.876 179.103 260.893 177.449 260.895L177.45 262.895ZM187.356 262.709C188.99 262.65 190.638 262.577 192.299 262.489L192.193 260.492C190.543 260.579 188.907 260.652 187.284 260.71L187.356 262.709ZM197.322 262.183C198.166 262.125 199.014 262.063 199.865 261.997L199.711 260.003C198.865 260.068 198.023 260.13 197.184 260.188L197.322 262.183Z" fill="#F2994A"/>
</svg>
