<svg width="92" height="72" viewBox="0 0 92 72" fill="none" xmlns="http://www.w3.org/2000/svg">
<path d="M5.92128 6.50624C5.64859 6.54971 5.46276 6.80602 5.50624 7.07872L6.21468 11.5226C6.25815 11.7953 6.51446 11.9811 6.78716 11.9376C7.05986 11.8942 7.24568 11.6379 7.20221 11.3652L6.57248 7.41505L10.5226 6.78532C10.7953 6.74185 10.9811 6.48554 10.9376 6.21284C10.8942 5.94014 10.6379 5.75432 10.3652 5.79779L5.92128 6.50624ZM86.0787 65.4938C86.3514 65.4503 86.5372 65.194 86.4938 64.9213L85.7853 60.4774C85.7418 60.2047 85.4855 60.0189 85.2128 60.0624C84.9401 60.1058 84.7543 60.3621 84.7978 60.6348L85.4275 64.585L81.4774 65.2147C81.2047 65.2582 81.0189 65.5145 81.0623 65.7872C81.1058 66.0599 81.3621 66.2457 81.6348 66.2022L86.0787 65.4938ZM5.70652 7.40481L7.70652 8.85481L8.29348 8.04519L6.29348 6.59519L5.70652 7.40481ZM11.7065 11.7548L15.7065 14.6548L16.2935 13.8452L12.2935 10.9452L11.7065 11.7548ZM19.7065 17.5548L23.7065 20.4548L24.2935 19.6452L20.2935 16.7452L19.7065 17.5548ZM27.7065 23.3548L31.7065 26.2548L32.2935 25.4452L28.2935 22.5452L27.7065 23.3548ZM35.7065 29.1548L39.7065 32.0548L40.2935 31.2452L36.2935 28.3452L35.7065 29.1548ZM43.7065 34.9548L47.7065 37.8548L48.2935 37.0452L44.2935 34.1452L43.7065 34.9548ZM51.7065 40.7548L55.7065 43.6548L56.2935 42.8452L52.2935 39.9452L51.7065 40.7548ZM59.7065 46.5548L63.7065 49.4548L64.2935 48.6452L60.2935 45.7452L59.7065 46.5548ZM67.7065 52.3548L71.7065 55.2548L72.2935 54.4452L68.2935 51.5452L67.7065 52.3548ZM75.7065 58.1548L79.7065 61.0548L80.2935 60.2452L76.2935 57.3452L75.7065 58.1548ZM83.7065 63.9548L85.7065 65.4048L86.2935 64.5952L84.2935 63.1452L83.7065 63.9548ZM5.84257 6.01247C5.29717 6.09942 4.92552 6.61203 5.01247 7.15743L6.42936 16.0452C6.51631 16.5906 7.02892 16.9622 7.57432 16.8753C8.11972 16.7884 8.49137 16.2757 8.40442 15.7303L7.14496 7.8301L15.0452 6.57064C15.5906 6.48369 15.9622 5.97108 15.8753 5.42568C15.7884 4.88028 15.2757 4.50863 14.7303 4.59558L5.84257 6.01247ZM86.1574 65.9875C86.7028 65.9006 87.0745 65.388 86.9875 64.8426L85.5706 55.9548C85.4837 55.4094 84.9711 55.0378 84.4257 55.1247C83.8803 55.2117 83.5086 55.7243 83.5956 56.2697L84.855 64.1699L76.9548 65.4294C76.4094 65.5163 76.0378 66.0289 76.1247 66.5743C76.2117 67.1197 76.7243 67.4914 77.2697 67.4044L86.1574 65.9875ZM5.41303 7.80961L7.41303 9.25961L8.58697 7.64039L6.58697 6.19039L5.41303 7.80961ZM11.413 12.1596L15.413 15.0596L16.587 13.4404L12.587 10.5404L11.413 12.1596ZM19.413 17.9596L23.413 20.8596L24.587 19.2404L20.587 16.3404L19.413 17.9596ZM27.413 23.7596L31.413 26.6596L32.587 25.0404L28.587 22.1404L27.413 23.7596ZM35.413 29.5596L39.413 32.4596L40.587 30.8404L36.587 27.9404L35.413 29.5596ZM43.413 35.3596L47.413 38.2596L48.587 36.6404L44.587 33.7404L43.413 35.3596ZM51.413 41.1596L55.413 44.0596L56.587 42.4404L52.587 39.5404L51.413 41.1596ZM59.413 46.9596L63.413 49.8596L64.587 48.2404L60.587 45.3404L59.413 46.9596ZM67.413 52.7596L71.413 55.6596L72.587 54.0404L68.587 51.1404L67.413 52.7596ZM75.413 58.5596L79.413 61.4596L80.587 59.8404L76.587 56.9404L75.413 58.5596ZM83.413 64.3596L85.413 65.8096L86.587 64.1904L84.587 62.7404L83.413 64.3596Z" fill="#08ADB8"/>
</svg>
