<svg width="322" height="236" viewBox="0 0 322 236" fill="none" xmlns="http://www.w3.org/2000/svg">
<path d="M291.854 12.2736C291.712 12.0372 291.404 11.9612 291.168 12.1039L287.315 14.4288C287.079 14.5715 287.003 14.8788 287.145 15.1152C287.288 15.3517 287.595 15.4277 287.832 15.285L291.256 13.2184L293.323 16.6432C293.466 16.8796 293.773 16.9556 294.009 16.8129C294.246 16.6703 294.322 16.3629 294.179 16.1265L291.854 12.2736ZM159.639 116.307L159.426 116.76L159.639 116.307ZM27.4345 219.808C27.2827 220.039 27.3466 220.349 27.5773 220.501L31.3365 222.974C31.5672 223.126 31.8773 223.062 32.0291 222.831C32.1808 222.601 32.1169 222.291 31.8862 222.139L28.5447 219.94L30.7434 216.599C30.8951 216.368 30.8312 216.058 30.6005 215.906C30.3698 215.754 30.0598 215.818 29.908 216.049L27.4345 219.808ZM291.426 12.532C290.941 12.4119 290.941 12.4119 290.941 12.4119C290.941 12.4119 290.941 12.4119 290.941 12.4119C290.941 12.4119 290.941 12.4119 290.941 12.412C290.941 12.412 290.941 12.4122 290.941 12.4123C290.941 12.4127 290.941 12.4132 290.94 12.414C290.94 12.4155 290.939 12.4178 290.939 12.421C290.937 12.4273 290.935 12.4369 290.931 12.4496C290.925 12.4752 290.915 12.5137 290.902 12.5647C290.876 12.6669 290.837 12.8194 290.785 13.0201C290.68 13.4216 290.522 14.0156 290.309 14.7839L291.273 15.0506C291.487 14.2775 291.646 13.6789 291.752 13.273C291.805 13.0701 291.845 12.9154 291.872 12.8111C291.885 12.759 291.895 12.7194 291.901 12.6928C291.905 12.6795 291.907 12.6695 291.909 12.6626C291.91 12.6592 291.91 12.6566 291.911 12.6549C291.911 12.654 291.911 12.6533 291.911 12.6528C291.911 12.6526 291.911 12.6524 291.912 12.6523C291.912 12.6522 291.912 12.6521 291.912 12.6521C291.912 12.6521 291.912 12.6521 291.912 12.652C291.912 12.652 291.912 12.652 291.426 12.532ZM288.875 19.7055C288.433 21.1544 287.92 22.7902 287.332 24.586L288.282 24.8971C288.872 23.0943 289.388 21.452 289.831 19.9968L288.875 19.7055ZM285.687 29.4523C285.152 30.9841 284.576 32.593 283.956 34.2677L284.894 34.6147C285.516 32.9338 286.095 31.3191 286.631 29.7816L285.687 29.4523ZM282.141 39.0379C281.539 40.577 280.904 42.1574 280.236 43.7718L281.161 44.1539C281.831 42.5334 282.468 40.9471 283.072 39.4024L282.141 39.0379ZM278.238 48.4734C277.568 50.0085 276.87 51.5665 276.143 53.1419L277.051 53.5608C277.781 51.9789 278.482 50.4147 279.155 48.8736L278.238 48.4734ZM273.947 57.7722C273.209 59.2859 272.446 60.8103 271.657 62.3406L272.545 62.799C273.338 61.2617 274.105 59.7306 274.846 58.2104L273.947 57.7722ZM269.266 66.8443C268.455 68.3289 267.62 69.8148 266.76 71.2979L267.625 71.7995C268.489 70.3088 269.329 68.8154 270.144 67.3237L269.266 66.8443ZM264.136 75.6875C263.246 77.1305 262.332 78.5668 261.394 79.9924L262.23 80.542C263.173 79.1079 264.092 77.6634 264.987 76.2125L264.136 75.6875ZM258.524 84.2125C257.545 85.6032 256.542 86.9795 255.515 88.3375L256.313 88.9406C257.347 87.5731 258.356 86.1877 259.341 84.7881L258.524 84.2125ZM252.366 92.3492C251.289 93.6688 250.188 94.9663 249.063 96.2377L249.811 96.9005C250.946 95.6186 252.056 94.3109 253.141 92.9814L252.366 92.3492ZM245.6 99.982C244.417 101.206 243.209 102.399 241.975 103.559L242.66 104.287C243.906 103.117 245.125 101.912 246.319 100.677L245.6 99.982ZM238.175 106.949C236.874 108.049 235.547 109.109 234.194 110.127L234.795 110.926C236.164 109.897 237.506 108.824 238.821 107.713L238.175 106.949ZM230.037 113.057C228.619 113.991 227.174 114.877 225.703 115.711L226.195 116.581C227.688 115.736 229.151 114.838 230.587 113.892L230.037 113.057ZM221.193 118.058C219.666 118.783 218.112 119.452 216.53 120.061L216.889 120.994C218.495 120.376 220.073 119.697 221.622 118.961L221.193 118.058ZM211.725 121.694C210.108 122.172 208.463 122.588 206.791 122.937L206.995 123.916C208.695 123.561 210.366 123.139 212.009 122.653L211.725 121.694ZM201.798 123.767C200.142 123.972 198.46 124.113 196.752 124.185L196.794 125.185C198.529 125.111 200.238 124.968 201.921 124.759L201.798 123.767ZM191.656 124.198C189.995 124.136 188.311 124.011 186.602 123.818L186.49 124.812C188.223 125.007 189.933 125.135 191.619 125.197L191.656 124.198ZM181.599 123.072C179.948 122.767 178.276 122.399 176.582 121.968L176.335 122.937C178.05 123.374 179.744 123.746 181.417 124.055L181.599 123.072ZM171.75 120.578C170.162 120.07 168.555 119.505 166.929 118.883L166.572 119.817C168.214 120.446 169.839 121.016 171.446 121.53L171.75 120.578ZM162.237 116.945C161.446 116.596 160.652 116.232 159.853 115.855L159.426 116.76C160.232 117.14 161.034 117.507 161.832 117.86L162.237 116.945ZM159.853 115.855C159.033 115.469 158.224 115.095 157.424 114.734L157.013 115.646C157.807 116.004 158.611 116.375 159.426 116.76L159.853 115.855ZM152.741 112.723C151.085 112.05 149.473 111.435 147.905 110.878L147.57 111.821C149.124 112.372 150.721 112.981 152.364 113.65L152.741 112.723ZM143.117 109.317C141.384 108.803 139.706 108.366 138.083 108.002L137.864 108.978C139.464 109.337 141.12 109.768 142.834 110.276L143.117 109.317ZM133.003 107.076C131.229 106.83 129.525 106.682 127.887 106.625L127.852 107.624C129.454 107.68 131.124 107.825 132.866 108.066L133.003 107.076ZM122.742 106.763C120.958 106.929 119.261 107.217 117.644 107.621L117.886 108.591C119.452 108.2 121.099 107.92 122.834 107.759L122.742 106.763ZM112.739 109.294C111.137 109.999 109.625 110.833 108.195 111.783L108.749 112.616C110.133 111.696 111.594 110.89 113.142 110.209L112.739 109.294ZM104.128 114.982C102.875 116.133 101.691 117.384 100.567 118.724L101.334 119.366C102.432 118.057 103.586 116.838 104.805 115.719L104.128 114.982ZM97.4697 122.846C96.5252 124.24 95.6244 125.701 94.7596 127.221L95.6288 127.716C96.4823 126.216 97.3695 124.777 98.2976 123.407L97.4697 122.846ZM92.356 131.764C91.6099 133.274 90.8884 134.827 90.1854 136.417L91.1 136.821C91.7981 135.243 92.5136 133.702 93.2525 132.207L92.356 131.764ZM88.1855 141.142C87.5488 142.707 86.9234 144.299 86.3041 145.912L87.2377 146.27C87.8551 144.662 88.4781 143.076 89.1118 141.519L88.1855 141.142ZM84.4982 150.703C83.9098 152.287 83.3223 153.886 82.7315 155.493L83.6701 155.838C84.261 154.231 84.8479 152.634 85.4356 151.051L84.4982 150.703ZM80.9633 160.285C80.3718 161.876 79.7728 163.471 79.1618 165.064L80.0955 165.422C80.7081 163.824 81.3084 162.226 81.9006 160.633L80.9633 160.285ZM77.2971 169.816C76.6618 171.393 76.0106 172.964 75.3394 174.523L76.258 174.919C76.9327 173.351 77.5869 171.773 78.2247 170.189L77.2971 169.816ZM73.2575 179.173C72.5371 180.716 71.7922 182.243 71.0186 183.748L71.908 184.205C72.688 182.688 73.4384 181.149 74.1636 179.596L73.2575 179.173ZM68.593 188.221C67.7473 189.697 66.8679 191.145 65.9504 192.562L66.7898 193.105C67.7178 191.673 68.6066 190.209 69.4606 188.719L68.593 188.221ZM63.0617 196.735C62.0528 198.096 61.0005 199.419 59.9005 200.7L60.659 201.351C61.7756 200.052 62.8428 198.709 63.8652 197.33L63.0617 196.735ZM56.4479 204.411C55.253 205.595 54.0062 206.731 52.7031 207.814L53.3422 208.583C54.6686 207.48 55.9369 206.325 57.1516 205.122L56.4479 204.411ZM48.6736 210.863C47.3001 211.805 45.8693 212.694 44.3773 213.524L44.8634 214.398C46.3832 213.553 47.8405 212.647 49.2395 211.687L48.6736 210.863ZM39.8373 215.778C38.319 216.447 36.7426 217.059 35.1047 217.612L35.4245 218.56C37.0903 217.997 38.6944 217.374 40.2402 216.694L39.8373 215.778ZM30.2781 219.02C29.4503 219.225 28.6081 219.416 27.7511 219.593L27.9532 220.573C28.823 220.393 29.6781 220.199 30.5189 219.99L30.2781 219.02ZM292.282 12.0153C291.997 11.5424 291.382 11.3904 290.91 11.6758L283.204 16.3256C282.731 16.611 282.579 17.2256 282.864 17.6985C283.15 18.1713 283.764 18.3234 284.237 18.038L291.087 13.9048L295.22 20.7544C295.505 21.2272 296.12 21.3793 296.593 21.0939C297.066 20.8086 297.218 20.1939 296.932 19.7211L292.282 12.0153ZM159.639 116.307L159.212 117.212L159.639 116.307ZM27.0168 219.533C26.7132 219.995 26.8411 220.615 27.3025 220.918L34.8209 225.865C35.2823 226.169 35.9024 226.041 36.206 225.58C36.5095 225.118 36.3816 224.498 35.9203 224.195L29.2372 219.797L33.6345 213.114C33.9381 212.653 33.8102 212.033 33.3488 211.729C32.8875 211.426 32.2674 211.553 31.9638 212.015L27.0168 219.533ZM291.426 12.532C290.455 12.2919 290.455 12.2918 290.455 12.2918C290.455 12.2918 290.455 12.2918 290.455 12.2918C290.455 12.2918 290.455 12.2918 290.455 12.2918C290.455 12.2919 290.455 12.292 290.455 12.2921C290.455 12.2924 290.455 12.2929 290.455 12.2936C290.455 12.295 290.454 12.2972 290.453 12.3002C290.452 12.3062 290.45 12.3155 290.446 12.328C290.44 12.3531 290.431 12.391 290.418 12.4415C290.392 12.5426 290.353 12.6941 290.301 12.8937C290.197 13.2929 290.039 13.8846 289.827 14.6505L291.755 15.184C291.969 14.4085 292.129 13.8076 292.236 13.3995C292.289 13.1954 292.329 13.0396 292.356 12.9343C292.369 12.8816 292.38 12.8416 292.386 12.8144C292.39 12.8009 292.392 12.7905 292.394 12.7835C292.395 12.7799 292.396 12.7772 292.396 12.7753C292.396 12.7743 292.397 12.7736 292.397 12.7731C292.397 12.7728 292.397 12.7726 292.397 12.7724C292.397 12.7723 292.397 12.7722 292.397 12.7722C292.397 12.7722 292.397 12.7721 292.397 12.7721C292.397 12.7721 292.397 12.7721 291.426 12.532ZM288.396 19.5598C287.956 21.0056 287.443 22.6381 286.857 24.4305L288.757 25.0526C289.349 23.2464 289.865 21.6008 290.31 20.1425L288.396 19.5598ZM285.215 29.2877C284.681 30.8167 284.106 32.4226 283.487 34.0942L285.363 34.7881C285.986 33.1043 286.566 31.4866 287.103 29.9463L285.215 29.2877ZM281.675 38.8557C281.074 40.392 280.441 41.9694 279.774 43.5807L281.623 44.3449C282.294 42.7214 282.932 41.1322 283.538 39.5846L281.675 38.8557ZM277.78 48.2733C277.111 49.8054 276.414 51.3603 275.689 52.9325L277.505 53.7702C278.236 52.1852 278.939 50.6178 279.613 49.0737L277.78 48.2733ZM273.498 57.5531C272.762 59.0635 272 60.5845 271.212 62.1115L272.99 63.0282C273.784 61.4874 274.553 59.953 275.296 58.4295L273.498 57.5531ZM268.827 66.6046C268.018 68.0856 267.185 69.5678 266.328 71.0471L268.058 72.0502C268.924 70.5557 269.766 69.0587 270.583 67.5634L268.827 66.6046ZM263.71 75.4251C262.823 76.8641 261.911 78.2963 260.977 79.7176L262.647 80.8167C263.593 79.3784 264.515 77.9298 265.412 76.4749L263.71 75.4251ZM258.115 83.9247C257.139 85.311 256.14 86.6827 255.116 88.036L256.712 89.2422C257.749 87.87 258.762 86.4799 259.75 85.0759L258.115 83.9247ZM251.978 92.0331C250.906 93.3478 249.809 94.6401 248.688 95.9063L250.186 97.232C251.325 95.9448 252.439 94.632 253.528 93.2975L251.978 92.0331ZM245.241 99.6344C244.063 100.853 242.86 102.041 241.632 103.194L243.002 104.652C244.254 103.475 245.48 102.265 246.679 101.025L245.241 99.6344ZM237.852 106.567C236.558 107.661 235.239 108.716 233.894 109.727L235.095 111.326C236.472 110.29 237.822 109.212 239.143 108.094L237.852 106.567ZM229.762 112.64C228.353 113.568 226.918 114.448 225.456 115.276L226.442 117.016C227.944 116.165 229.417 115.262 230.862 114.31L229.762 112.64ZM220.979 117.606C219.463 118.326 217.92 118.99 216.35 119.594L217.068 121.461C218.687 120.838 220.277 120.154 221.837 119.413L220.979 117.606ZM211.583 121.215C209.979 121.689 208.348 122.101 206.689 122.448L207.098 124.405C208.811 124.048 210.495 123.622 212.15 123.132L211.583 121.215ZM201.736 123.27C200.094 123.474 198.425 123.614 196.731 123.686L196.815 125.684C198.564 125.61 200.286 125.466 201.983 125.255L201.736 123.27ZM191.675 123.698C190.027 123.637 188.354 123.512 186.658 123.321L186.434 125.308C188.18 125.505 189.902 125.634 191.601 125.697L191.675 123.698ZM181.69 122.58C180.05 122.277 178.389 121.912 176.705 121.483L176.211 123.421C177.937 123.861 179.642 124.236 181.326 124.547L181.69 122.58ZM171.903 120.102C170.323 119.596 168.725 119.035 167.108 118.416L166.393 120.283C168.044 120.916 169.677 121.49 171.293 122.007L171.903 120.102ZM162.439 116.488C161.652 116.14 160.861 115.778 160.066 115.403L159.212 117.212C160.022 117.594 160.828 117.962 161.63 118.317L162.439 116.488ZM160.066 115.403C159.244 115.015 158.432 114.64 157.629 114.278L156.807 116.101C157.599 116.459 158.4 116.829 159.212 117.212L160.066 115.403ZM152.929 112.26C151.267 111.584 149.648 110.967 148.072 110.407L147.403 112.292C148.949 112.841 150.539 113.447 152.176 114.113L152.929 112.26ZM143.259 108.837C141.516 108.321 139.827 107.881 138.192 107.514L137.755 109.466C139.343 109.822 140.988 110.251 142.692 110.755L143.259 108.837ZM133.071 106.58C131.282 106.333 129.561 106.183 127.904 106.125L127.835 108.124C129.419 108.179 131.071 108.323 132.797 108.561L133.071 106.58ZM122.696 106.265C120.887 106.433 119.165 106.726 117.523 107.135L118.007 109.076C119.547 108.692 121.169 108.415 122.881 108.257L122.696 106.265ZM112.538 108.836C110.908 109.553 109.372 110.401 107.918 111.367L109.025 113.032C110.386 112.128 111.822 111.336 113.344 110.666L112.538 108.836ZM103.79 114.614C102.519 115.781 101.32 117.048 100.184 118.403L101.717 119.688C102.802 118.393 103.942 117.19 105.143 116.087L103.79 114.614ZM97.0558 122.565C96.1031 123.971 95.1954 125.444 94.325 126.974L96.0634 127.963C96.9112 126.473 97.7916 125.045 98.7116 123.687L97.0558 122.565ZM91.9077 131.543C91.158 133.06 90.4335 134.62 89.7281 136.215L91.5572 137.024C92.2529 135.45 92.9655 133.917 93.7007 132.429L91.9077 131.543ZM87.7223 140.953C87.0842 142.522 86.4575 144.117 85.8373 145.732L87.7044 146.449C88.321 144.844 88.9428 143.261 89.5749 141.707L87.7223 140.953ZM84.0295 150.529C83.4407 152.114 82.8529 153.714 82.2622 155.32L84.1394 156.01C84.7304 154.403 85.317 152.807 85.9043 151.225L84.0295 150.529ZM80.4946 160.11C79.9035 161.701 79.3051 163.294 78.695 164.885L80.5624 165.601C81.1757 164.001 81.7766 162.402 82.3693 160.807L80.4946 160.11ZM76.8333 169.629C76.1992 171.203 75.5496 172.77 74.8801 174.326L76.7172 175.116C77.3937 173.544 78.0494 171.963 78.6885 170.376L76.8333 169.629ZM72.8044 178.962C72.0864 180.499 71.3443 182.02 70.5739 183.52L72.3527 184.434C73.1358 182.91 73.889 181.366 74.6166 179.808L72.8044 178.962ZM68.1592 187.973C67.3176 189.441 66.4429 190.882 65.5308 192.29L67.2094 193.377C68.1428 191.936 69.0362 190.464 69.8943 188.967L68.1592 187.973ZM62.6601 196.437C61.6578 197.789 60.613 199.103 59.5212 200.374L61.0382 201.677C62.1631 200.368 63.2377 199.016 64.2668 197.628L62.6601 196.437ZM56.096 204.056C54.9111 205.23 53.675 206.356 52.3835 207.429L53.6618 208.967C54.9998 207.855 56.2789 206.69 57.5035 205.477L56.096 204.056ZM48.3907 210.451C47.0299 211.384 45.6124 212.265 44.1343 213.087L45.1065 214.835C46.6401 213.982 48.1107 213.068 49.5224 212.1L48.3907 210.451ZM39.6359 215.321C38.1312 215.983 36.5687 216.59 34.9448 217.138L35.5844 219.033C37.2641 218.466 38.8821 217.838 40.4416 217.151L39.6359 215.321ZM30.1577 218.535C29.3364 218.738 28.5007 218.928 27.6501 219.104L28.0542 221.062C28.9304 220.882 29.7919 220.686 30.6392 220.476L30.1577 218.535Z" fill="#1BB978"/>
</svg>
