<svg width="565" height="383" viewBox="0 0 565 383" fill="none" xmlns="http://www.w3.org/2000/svg">
<path d="M464.51 304.994C463.449 302.927 462.563 300.664 462.688 298.364C462.908 294.179 466.257 291.084 469.144 288.176C472.031 285.269 474.851 281.321 473.69 277.265C472.58 273.367 468.408 271.412 464.872 269.524C461.336 267.635 457.538 264.303 458.262 260.36C459.298 254.711 468.428 253.949 469.343 248.275C469.676 246.22 468.749 244.161 467.85 242.26C464.776 235.767 461.702 229.269 458.628 222.776C457.222 219.802 455.941 215.875 458.199 213.624C459.722 212.11 462.147 212.177 464.156 211.449C469.373 209.556 470.858 202.959 471.989 197.401C473.121 191.844 475.837 185.313 481.399 184.976C483.541 184.847 485.65 185.745 487.518 186.889C494.922 191.432 499.569 200.379 499.036 209.069C498.807 212.788 497.821 216.931 500.014 219.98C501.153 221.565 502.938 222.493 504.523 223.608C510.575 227.876 513.991 235.788 512.942 243.105C512.227 248.097 509.689 253.384 512.048 257.901C514.685 262.955 522.069 263.908 524.581 269.024C526.649 273.238 524.428 278.18 521.836 281.945C519.244 285.709 516.1 289.616 516.274 294.279C516.366 296.691 517.36 299 517.651 301.4C518.388 307.523 514.444 313.135 509.835 316.962C503.882 321.908 494.822 327.12 486.84 324.317C477.696 321.114 468.986 313.738 464.51 304.994Z" fill="#E3E5FC"/>
<path d="M494.265 295.868C493.974 295.868 493.724 295.651 493.687 295.36L482.451 209.618C482.41 209.298 482.634 209.007 482.955 208.961C483.292 208.911 483.566 209.144 483.612 209.464L494.847 295.206C494.889 295.527 494.664 295.818 494.344 295.864C494.315 295.868 494.29 295.868 494.265 295.868Z" fill="white"/>
<path d="M487.443 239.465C487.364 239.465 487.285 239.448 487.21 239.415C486.915 239.286 486.777 238.941 486.91 238.645L495.509 218.945C495.638 218.645 495.987 218.512 496.278 218.641C496.574 218.77 496.711 219.115 496.578 219.411L487.979 239.111C487.884 239.332 487.667 239.465 487.443 239.465Z" fill="white"/>
<path d="M491.091 271.654C490.937 271.654 490.783 271.595 490.671 271.475L478.229 258.613C478.004 258.38 478.013 258.009 478.241 257.785C478.474 257.56 478.844 257.564 479.069 257.797L491.511 270.659C491.736 270.892 491.727 271.262 491.499 271.487C491.386 271.599 491.237 271.654 491.091 271.654Z" fill="white"/>
<path d="M325.131 342.903C443.746 342.903 539.902 336.935 539.902 329.575C539.902 322.214 443.746 316.247 325.131 316.247C206.517 316.247 110.361 322.214 110.361 329.575C110.361 336.935 206.517 342.903 325.131 342.903Z" fill="#E3E5FC"/>
<path d="M13.3253 331.33C9.21961 329.941 5.21789 327.778 2.60553 324.317C-0.00266549 320.856 -0.94278 315.905 1.13712 312.099C3.24614 308.235 7.70545 306.45 11.4493 304.125C15.1889 301.804 18.7622 297.611 17.3687 293.434C16.0209 289.403 11.0666 288.13 7.72624 285.501C4.90174 283.276 3.08807 279.52 3.92419 276.021C4.75615 272.523 8.72044 269.861 12.1065 271.075C14.1115 271.795 15.7297 273.671 17.8595 273.688C21.5077 273.721 22.7306 268.55 21.4661 265.131C20.2015 261.707 17.6474 258.496 18.0758 254.873C18.5708 250.713 23.1674 247.943 27.3397 248.309C31.512 248.675 35.1227 251.42 37.839 254.607C43.696 261.483 46.3209 270.447 49.162 279.02C49.682 280.593 50.3392 282.311 51.816 283.06C53.3135 283.821 55.1147 283.309 56.7162 282.789C61.8078 281.125 66.8994 279.461 71.991 277.798C70.7847 278.193 93.1935 302.544 94.0837 305.261C97.1412 314.603 94.4955 325.173 85.7059 329.953C77.066 334.65 65.144 333.668 55.6888 333.755C41.8449 333.876 26.6617 335.835 13.3253 331.33Z" fill="#A7ADFF"/>
<path d="M62.2238 300.706C60.564 296.105 59.5366 290.809 61.7829 286.467C64.8486 280.535 79.4204 274.241 72.2988 265.796C68.8379 261.695 61.213 261.516 59.8028 256.337C58.3593 251.05 64.7862 246.753 66.6997 242.41C68.9876 237.219 68.9627 231.532 67.7355 226.095C65.0649 214.294 56.3294 204.689 50.41 194.46C49.2743 192.497 48.1803 190.271 48.6545 188.058C49.1995 185.516 51.7453 183.798 54.316 183.391C58.7878 182.684 66.8245 184.514 69.6158 188.453C72.407 192.393 71.6291 198.503 75.427 201.482C79.1625 204.41 84.7782 202.326 89.2292 203.974C100.469 208.137 94.1919 229.219 104.999 234.394C106.73 235.222 108.693 235.476 110.44 236.27C114.529 238.13 116.721 242.531 118.606 246.607C120.79 251.337 123.028 256.395 122.329 261.558C121.01 271.333 109.554 279.183 112.399 288.63C113.244 291.433 115.353 294.066 114.804 296.945C113.78 302.315 105.186 302.478 102.836 307.411C100.29 312.765 106.002 318.397 103.044 323.876C100.673 328.273 92.424 330.831 87.7317 330.074C75.7681 328.152 65.8844 310.855 62.2238 300.706Z" fill="#E3E5FC"/>
<path d="M94.6867 330.927C94.3997 330.927 94.1501 330.719 94.1085 330.427L80.6349 237.447C80.5892 237.127 80.8096 236.832 81.1299 236.786C81.4419 236.74 81.7456 236.961 81.7913 237.281L95.2649 330.261C95.3107 330.581 95.0902 330.877 94.7699 330.922C94.745 330.926 94.7158 330.927 94.6867 330.927Z" fill="white"/>
<path d="M86.4009 269.782C86.3302 269.782 86.2594 269.769 86.1887 269.74C85.8892 269.624 85.7395 269.282 85.8559 268.983L94.0591 247.984C94.1755 247.685 94.5208 247.535 94.8162 247.651C95.1157 247.768 95.2654 248.109 95.1489 248.409L86.9458 269.407C86.8543 269.64 86.6338 269.782 86.4009 269.782Z" fill="white"/>
<path d="M90.8848 304.67C90.7267 304.67 90.5645 304.603 90.4521 304.478L77.5651 290.181C77.3488 289.94 77.3696 289.57 77.6067 289.358C77.8479 289.137 78.214 289.162 78.4345 289.399L91.3215 303.696C91.5378 303.938 91.517 304.308 91.2799 304.524C91.1635 304.62 91.022 304.67 90.8848 304.67Z" fill="white"/>
<path d="M51.4499 382.496C51.1629 382.496 50.9133 382.288 50.8717 381.996L37.3981 289.016C37.3523 288.696 37.5728 288.401 37.8931 288.355C38.2051 288.313 38.5088 288.53 38.5545 288.85L52.0281 381.83C52.0739 382.15 51.8534 382.446 51.5331 382.491C51.5081 382.491 51.479 382.496 51.4499 382.496Z" fill="white"/>
<path d="M43.1636 321.351C43.0929 321.351 43.0221 321.338 42.9514 321.309C42.6519 321.193 42.5022 320.851 42.6186 320.552L50.8218 299.553C50.9382 299.254 51.2835 299.104 51.5788 299.22C51.8784 299.337 52.0281 299.678 51.9116 299.978L43.7085 320.976C43.617 321.209 43.3965 321.351 43.1636 321.351Z" fill="white"/>
<path d="M47.6479 356.235C47.4899 356.235 47.3276 356.168 47.2153 356.043L34.3283 341.746C34.112 341.505 34.1327 341.135 34.3699 340.922C34.6111 340.702 34.9772 340.727 35.1935 340.964L48.0806 355.261C48.2969 355.503 48.2761 355.873 48.039 356.085C47.9266 356.189 47.7852 356.235 47.6479 356.235Z" fill="white"/>
<path d="M421.414 324.283C421.751 320.847 421.743 317.661 422.87 314.308C423.249 313.177 423.79 311.97 424.863 311.454C425.067 311.355 425.308 311.288 425.512 311.375C425.691 311.454 425.803 311.633 425.895 311.812C431.735 323.002 416.061 329.296 408.91 320.881C408.469 320.361 408.053 319.766 407.991 319.084C407.878 317.836 409.068 316.758 410.312 316.613C411.556 316.467 412.775 317.033 413.802 317.744C416.523 319.628 418.332 322.532 420.063 325.348C417.65 321.721 416.406 317.332 416.552 312.981C416.572 312.328 416.793 311.492 417.446 311.438C417.758 311.413 418.045 311.592 418.295 311.783C420.075 313.152 421.078 315.344 421.452 317.561C421.822 319.778 421.631 322.045 421.414 324.283Z" fill="#FDC510"/>
<path d="M194.406 301.142C194.564 301.146 194.722 301.188 194.884 301.275C195.391 301.55 195.579 302.174 195.699 302.74C196.802 307.91 196.772 306.642 196.223 313.426C197.38 309.192 196.922 309.932 199.085 306.109C199.505 305.365 199.971 304.603 200.699 304.158C205.421 301.267 200.849 314.075 200.05 315.544C197.089 320.993 191.327 322.341 185.737 320.336C180.832 318.576 176.148 314.757 174.393 309.761C174.235 309.312 174.118 308.746 174.455 308.405C174.688 308.172 175.05 308.139 175.379 308.135C178.34 308.131 181.115 309.637 183.382 311.542C185.645 313.451 187.521 315.772 189.651 317.827C191.161 319.283 194.493 319.2 196.573 319.45C200.113 319.878 201.511 318.505 204.585 316.696C205.254 316.301 205.986 315.943 206.764 315.951C207.542 315.96 208.366 316.446 208.511 317.212C208.599 317.665 208.441 318.131 208.241 318.551C205.724 323.867 198.865 323.152 195.841 318.909C192.958 314.861 191.099 308.122 192.48 303.268C192.758 302.286 193.532 301.122 194.406 301.142Z" fill="#FDC510"/>
<path d="M554.436 310.951C554.545 310.955 554.657 310.98 554.769 311.043C555.123 311.234 555.252 311.671 555.335 312.066C556.105 315.677 556.084 314.791 555.701 319.524C556.508 316.567 556.188 317.087 557.698 314.416C557.993 313.896 558.318 313.364 558.825 313.052C562.12 311.034 558.929 319.97 558.372 320.997C556.304 324.799 552.282 325.743 548.384 324.342C544.96 323.114 541.691 320.448 540.468 316.962C540.356 316.646 540.276 316.255 540.514 316.014C540.676 315.851 540.93 315.826 541.158 315.826C543.226 315.822 545.164 316.875 546.741 318.206C548.317 319.537 549.628 321.159 551.117 322.594C552.169 323.609 554.495 323.551 555.946 323.726C558.417 324.025 559.391 323.064 561.537 321.804C562.003 321.53 562.515 321.276 563.06 321.284C563.6 321.288 564.175 321.629 564.279 322.162C564.341 322.478 564.229 322.802 564.091 323.094C562.336 326.804 557.548 326.305 555.439 323.343C553.426 320.519 552.132 315.814 553.093 312.428C553.288 311.75 553.829 310.939 554.436 310.951Z" fill="#A7ADFF"/>
<path d="M489.622 298.139C487.156 295.393 484.735 292.636 483.986 289.046C483.599 287.186 484.244 284.64 486.136 284.532C487.089 284.478 487.925 285.106 488.77 285.551C492.018 287.274 492.039 283.401 491.145 281.35C489.572 277.735 487.168 274.129 487.701 270.223C487.734 269.977 487.788 269.719 487.958 269.536C488.212 269.266 488.636 269.266 489.003 269.312C491.503 269.64 494.078 272.889 496.652 271.828C502.942 269.241 497.501 254.794 497.073 250.335C496.989 249.482 496.919 248.571 497.33 247.822C498.129 246.366 500.313 246.337 501.744 247.173C503.94 248.458 505.188 250.954 507.584 251.969C509.473 252.768 511.624 251.853 513.013 250.505C517.194 246.453 518.167 239.835 521.461 235.135C524.157 231.287 531.653 225.434 535.85 230.642C537.772 233.026 536.624 236.503 535.838 239.461C535.106 242.202 534.507 245.426 534.785 248.259C534.993 250.335 535.879 252.439 537.581 253.646C540.888 255.988 547.102 256.063 543.683 261.637C542.635 263.342 541.008 264.607 539.756 266.171C538.504 267.735 537.631 269.894 538.442 271.724C539.919 275.065 549.823 276.296 546.029 281.541C545.081 282.856 543.571 283.621 542.169 284.432C535.388 288.351 541.474 291.791 540.164 297.178C539.694 299.117 538.225 300.693 536.528 301.733C533.799 303.405 530.488 304.042 527.568 305.315C521.636 307.906 516.332 311.762 511.374 315.88C507.738 318.901 502.035 325.644 496.673 322.386C493.366 320.377 495.429 314.737 495.733 311.8C496.328 306.088 493.258 302.186 489.622 298.139Z" fill="#FDC510"/>
<path d="M499.032 326.584C498.94 326.584 498.849 326.567 498.757 326.534C498.354 326.384 498.15 325.935 498.304 325.531L523.2 259.332C523.35 258.929 523.803 258.725 524.203 258.879C524.606 259.029 524.81 259.478 524.656 259.881L499.76 326.08C499.643 326.392 499.348 326.584 499.032 326.584Z" fill="white"/>
<path d="M516.661 280.818C516.412 280.818 516.162 280.697 516.012 280.472C515.775 280.115 515.871 279.632 516.229 279.391L528.342 271.312C528.696 271.075 529.182 271.167 529.424 271.529C529.661 271.886 529.565 272.369 529.207 272.61L517.094 280.689C516.961 280.776 516.811 280.818 516.661 280.818Z" fill="white"/>
<path d="M507.884 304.911C507.634 304.911 507.385 304.79 507.235 304.566C506.998 304.208 507.094 303.726 507.451 303.484L519.565 295.406C519.918 295.169 520.405 295.265 520.646 295.622C520.883 295.98 520.788 296.463 520.43 296.704L508.317 304.782C508.184 304.87 508.034 304.911 507.884 304.911Z" fill="white"/>
<path d="M510.779 293.072C510.525 293.072 510.271 292.948 510.122 292.715L502.414 280.684C502.181 280.323 502.289 279.84 502.651 279.607C503.008 279.374 503.495 279.478 503.728 279.844L511.436 291.874C511.669 292.236 511.561 292.719 511.199 292.952C511.07 293.035 510.925 293.072 510.779 293.072Z" fill="white"/>
<path d="M471.611 323.297C461.157 324.483 451.044 323.314 446.868 312.511C445.366 308.622 443.166 307.091 439.256 305.988C437.355 305.452 435.362 304.836 434.01 303.393C432.662 301.949 432.284 299.404 433.748 298.077C434.917 297.016 436.693 297.12 438.261 297.282C440.861 297.557 443.465 297.827 446.065 298.102C446.435 298.139 446.826 298.176 447.159 298.014C448.266 297.478 447.571 295.797 446.752 294.882C443.69 291.458 440.537 288.114 437.301 284.861C436.102 283.659 434.85 282.394 434.36 280.768C433.869 279.141 434.447 277.053 436.04 276.462C438.249 275.639 440.836 278.035 442.92 276.936C444.414 276.15 444.597 274.066 444.206 272.427C443.815 270.788 443.045 269.149 443.341 267.49C443.623 265.905 444.959 264.565 446.544 264.282C448.124 263.995 449.846 264.786 450.662 266.171C451.56 267.693 451.502 269.869 452.979 270.842C454.218 271.658 455.911 271.142 457.143 270.318C458.378 269.495 459.451 268.371 460.857 267.893C463.241 267.078 466.149 268.663 466.76 271.104C467.368 273.538 465.966 276.342 467.226 278.513C468.399 280.535 471.236 280.809 473.528 280.347C475.82 279.886 478.125 278.933 480.421 279.387C481.211 279.54 482.039 279.931 482.359 280.668C482.709 281.475 482.347 282.407 481.914 283.172C480.604 285.472 478.616 287.336 477.368 289.67C476.12 292.003 475.824 295.219 477.742 297.041C478.749 298.002 480.155 298.376 481.428 298.946C482.701 299.516 483.982 300.473 484.161 301.854C484.464 304.187 481.673 305.535 480.234 307.395C478.362 309.807 478.824 313.197 478.753 316.251C478.549 324.941 470.051 324.753 463.59 323.164" fill="#F44E4E"/>
<path d="M473.071 325.057C472.755 325.057 472.459 324.866 472.343 324.554L457.925 286.221C457.771 285.818 457.975 285.368 458.378 285.219C458.778 285.065 459.231 285.269 459.381 285.672L473.799 324.005C473.953 324.408 473.749 324.857 473.345 325.007C473.254 325.04 473.162 325.057 473.071 325.057Z" fill="white"/>
<path d="M462.863 298.555C462.713 298.555 462.563 298.513 462.43 298.426L455.417 293.75C455.059 293.513 454.963 293.027 455.2 292.669C455.438 292.311 455.928 292.215 456.282 292.452L463.295 297.128C463.653 297.365 463.749 297.852 463.512 298.21C463.358 298.434 463.112 298.555 462.863 298.555Z" fill="white"/>
<path d="M467.946 312.507C467.796 312.507 467.647 312.465 467.513 312.378L460.496 307.702C460.138 307.465 460.042 306.978 460.28 306.621C460.521 306.263 461.003 306.167 461.361 306.404L468.379 311.08C468.736 311.317 468.832 311.804 468.595 312.162C468.441 312.386 468.196 312.507 467.946 312.507Z" fill="white"/>
<path d="M466.266 305.652C466.12 305.652 465.974 305.61 465.846 305.527C465.484 305.294 465.375 304.811 465.608 304.449L470.072 297.486C470.305 297.12 470.792 297.016 471.149 297.249C471.511 297.482 471.619 297.964 471.386 298.326L466.923 305.29C466.773 305.527 466.524 305.652 466.266 305.652Z" fill="white"/>
<path d="M261.104 39.4992C292.743 40.4018 324.62 41.2879 355.839 36.0757C360.964 35.2187 367.092 33.2387 368.102 28.1388C369.35 21.845 361.343 17.5188 354.949 18.0429C348.555 18.5671 342.258 21.5954 335.96 20.3682C331.172 19.4365 327.22 16.1876 323.405 13.1468C317.486 8.42962 311.013 3.81224 303.513 2.79725C296.013 1.78226 287.327 5.61759 285.381 12.9305C277.232 11.2624 269.948 6.86553 262.277 3.65001C254.606 0.43448 245.746 -1.59134 238.075 1.62418C230.405 4.83971 225.45 15.0936 230.209 21.9157C225.858 15.6718 197.239 30.0023 192.937 32.9308C186.236 37.4983 182.509 39.6988 190.57 41.5375C198.395 43.322 209.793 39.0874 217.813 38.6381C232.152 37.8477 246.753 39.0915 261.104 39.4992Z" fill="#E3E5FC"/>
<path d="M491.964 130.416C494.398 130.52 497.638 129.983 497.921 127.566C498.121 125.857 496.565 124.496 495.134 123.531C492.31 121.626 488.911 119.85 485.637 120.798C484.377 121.164 483.254 121.909 481.985 122.246C474.626 124.184 468.952 111.909 461.681 114.151C460.491 114.517 459.46 115.253 458.341 115.798C456.935 116.48 455.4 116.859 453.865 117.138C448.802 118.053 443.557 117.936 438.54 116.809C436.269 116.297 434.002 115.574 431.672 115.661C425.582 115.886 414.575 121.589 420.99 127.941C425.566 132.467 431.419 130.74 436.743 129.538C453.836 125.665 474.514 129.675 491.964 130.416Z" fill="#E3E5FC"/>
<path d="M97.1535 136.606C92.7857 136.547 86.8039 134.725 87.5069 130.412C88.1059 126.751 93.1975 126.036 96.725 127.179C100.253 128.323 103.959 130.416 107.432 129.11C108.822 128.585 110.02 127.546 111.488 127.308C113.015 127.063 114.596 127.733 116.106 127.392C118.302 126.897 119.596 124.459 121.75 123.802C125.344 122.708 129.346 127.026 132.607 125.154C134.646 123.985 134.85 121.206 135.32 118.906C137.125 110.091 147.321 104.022 155.927 106.634C167.159 110.041 172.987 124.788 184.667 125.919C189.514 126.389 209.518 122.57 205.862 134.33C203.607 141.585 180.212 137.687 174.222 137.608C148.535 137.275 122.844 136.943 97.1535 136.606Z" fill="#E3E5FC"/>
<path d="M462.575 84.5914C464.672 84.2628 467.405 82.9524 466.769 80.9308C466.573 80.3027 466.057 79.8243 465.525 79.4333C457.966 73.909 447.251 81.5714 438.137 79.4416C435.395 78.801 432.929 77.2868 430.225 76.5089C428.661 76.0597 427.026 75.8641 425.507 75.2693C420.449 73.2934 417.895 67.4988 413.182 64.7949C407.184 61.3548 398.415 64.7408 396.281 71.3133C395.116 74.8991 395.374 79.5165 392.179 81.5173C388.261 83.9716 381.409 80.415 380.02 86.2013C391.272 90.9101 402.425 86.4758 413.947 86.7129C430.345 87.054 446.298 87.1289 462.575 84.5914Z" fill="#E3E5FC"/>
<path d="M302.997 97.2746C304.657 97.0167 306.82 95.9768 306.321 94.3753C306.163 93.8761 305.759 93.4975 305.335 93.1897C299.349 88.8136 290.863 94.8828 283.641 93.198C281.47 92.6905 279.519 91.4884 277.373 90.8769C276.133 90.5233 274.839 90.3652 273.637 89.8952C269.631 88.3311 267.61 83.7428 263.874 81.6005C259.124 78.8758 252.181 81.5548 250.492 86.7628C249.569 89.604 249.772 93.2604 247.243 94.8453C244.14 96.788 238.716 93.9718 237.613 98.5517C246.524 102.283 255.359 98.7722 264.481 98.9594C277.472 99.2256 290.11 99.2838 302.997 97.2746Z" fill="#E3E5FC"/>
<path d="M154.388 170.832C155.266 170.695 156.41 170.146 156.144 169.297C156.061 169.035 155.844 168.832 155.624 168.669C152.458 166.356 147.97 169.564 144.151 168.673C143.003 168.403 141.971 167.771 140.836 167.446C140.183 167.259 139.496 167.176 138.86 166.926C136.742 166.099 135.673 163.673 133.697 162.542C131.185 161.103 127.512 162.517 126.622 165.271C126.135 166.772 126.243 168.707 124.904 169.547C123.265 170.574 120.394 169.085 119.812 171.506C124.525 173.478 129.197 171.623 134.022 171.723C140.89 171.864 147.57 171.893 154.388 170.832Z" fill="#E3E5FC"/>
<path d="M81.2258 75.4773C79.5661 75.2194 77.403 74.1794 77.9022 72.5779C78.0602 72.0787 78.4637 71.7002 78.888 71.3924C84.874 67.0162 93.36 73.0854 100.581 71.4007C102.753 70.8932 104.704 69.691 106.85 69.0795C108.09 68.7259 109.384 68.5679 110.586 68.0978C114.592 66.5337 116.613 61.9455 120.349 59.8032C125.099 57.0785 132.042 59.7574 133.731 64.9655C134.654 67.8066 134.45 71.4631 136.98 73.048C140.083 74.9906 145.507 72.1744 146.61 76.7543C137.699 80.4857 128.864 76.9748 119.741 77.162C106.75 77.4282 94.1171 77.4906 81.2258 75.4773Z" fill="#E3E5FC"/>
<path d="M168.602 310.078C168.931 309.782 169.214 309.441 169.434 309.033C171.389 305.385 166.884 300.656 165.807 297.44C164.218 292.698 164.896 286.77 166.148 282.003C167.146 278.197 169.771 275.381 171.086 271.716C173.132 266.009 167.13 257.785 162.57 254.848C152.346 248.263 155.353 264.678 151.048 267.41C149.717 268.255 148.011 268.084 146.451 268.342C140.811 269.295 144.683 275.16 142.986 278.567C142.366 279.811 141.118 280.593 140.153 281.6C135.482 286.45 146.414 288.85 136.518 293.193C133.976 294.308 131.28 296.525 132.869 298.268C133.364 298.809 134.184 299.141 134.858 299.57C137.894 301.492 137.678 304.915 137.221 307.86C136.73 311.034 139.35 313.326 140.652 315.922C142.117 318.846 141.193 322.869 145.786 323.002C148.93 323.089 151.41 320.814 153.918 319.258C156.668 317.549 159.509 315.918 161.809 313.605C163.548 311.891 166.788 311.687 168.602 310.078Z" fill="#A7ADFF"/>
<path d="M145.262 325.881C145.212 325.881 145.162 325.876 145.108 325.86C144.796 325.777 144.613 325.456 144.696 325.144L157.966 275.867C158.049 275.555 158.373 275.372 158.681 275.456C158.993 275.539 159.176 275.859 159.093 276.171L145.823 325.448C145.752 325.706 145.519 325.881 145.262 325.881Z" fill="white"/>
<path d="M154.243 291.654C153.985 291.654 153.752 291.483 153.677 291.225L151.11 281.828C151.027 281.516 151.21 281.196 151.518 281.109C151.834 281.026 152.15 281.209 152.238 281.516L154.804 290.913C154.888 291.225 154.704 291.546 154.397 291.633C154.347 291.65 154.293 291.654 154.243 291.654Z" fill="white"/>
<path d="M149.28 309.487C149.022 309.487 148.785 309.316 148.714 309.054L146.147 299.661C146.064 299.349 146.247 299.029 146.559 298.942C146.867 298.859 147.192 299.042 147.279 299.354L149.846 308.746C149.929 309.058 149.746 309.379 149.434 309.466C149.384 309.479 149.334 309.487 149.28 309.487Z" fill="white"/>
<path d="M152.37 301.25C152.162 301.25 151.963 301.138 151.859 300.947C151.705 300.664 151.809 300.306 152.092 300.152L160.145 295.755C160.432 295.601 160.786 295.705 160.94 295.988C161.094 296.271 160.99 296.629 160.707 296.783L152.653 301.18C152.562 301.23 152.466 301.25 152.37 301.25Z" fill="white"/>
<path d="M233.508 178.798L238.113 177.837L234.847 181.602L233.508 178.798Z" fill="#4B369D"/>
<path d="M216.082 191.29C214.805 192.838 213.491 194.681 211.902 196.053C210.325 197.414 207.372 197.684 206.169 199.156C209.859 203.183 218.965 200.325 222.946 198.237C228.258 195.454 232.58 190.675 234.46 184.947C235.463 181.889 235.621 178.058 233.204 175.932C232.031 174.901 230.459 174.476 228.932 174.135C226.544 173.603 223.607 173.029 221.245 173.986C217.65 175.441 221.573 175.225 222.376 176.877C223.324 178.828 221.353 182.542 220.5 184.206C219.227 186.681 217.867 189.136 216.082 191.29Z" fill="#A7ADFF"/>
<path d="M230.159 178.798C230.69 178.798 231.12 178.368 231.12 177.837C231.12 177.307 230.69 176.877 230.159 176.877C229.628 176.877 229.198 177.307 229.198 177.837C229.198 178.368 229.628 178.798 230.159 178.798Z" fill="#4B369D"/>
<path d="M214.069 179.405C211.594 178.506 208.819 178.016 206.943 176.165C205.912 175.145 205.051 173.669 203.607 173.548C203.387 173.527 203.145 173.552 202.983 173.706C202.784 173.897 202.784 174.209 202.796 174.484C202.879 176.131 202.971 177.82 203.624 179.334C204.277 180.848 205.625 182.175 207.268 182.317C207.467 182.334 207.684 182.338 207.854 182.442C208.349 182.745 208.079 183.54 207.634 183.918C207.189 184.297 206.586 184.592 206.461 185.158C206.328 185.757 206.852 186.344 207.442 186.51C208.033 186.676 208.661 186.531 209.26 186.385C209.04 187.433 208.994 188.835 209.984 189.243C210.845 189.601 212.022 188.902 212.688 189.551C212.938 189.792 213.021 190.154 213.158 190.47C213.611 191.502 214.726 192.13 215.849 192.242C216.968 192.354 218.092 192.022 219.119 191.564C221.769 190.387 224.681 187.77 222.559 185.05C220.567 182.496 217.056 180.487 214.069 179.405Z" fill="#978CFF"/>
<path d="M364.109 152.596L360.689 151.885L363.115 154.676L364.109 152.596Z" fill="#4B369D"/>
<path d="M377.038 161.864C377.986 163.012 378.959 164.381 380.137 165.4C381.306 166.411 383.498 166.61 384.392 167.7C381.655 170.691 374.899 168.569 371.942 167.018C368.003 164.95 364.795 161.406 363.398 157.155C362.653 154.888 362.537 152.043 364.329 150.466C365.199 149.701 366.368 149.389 367.499 149.135C369.271 148.74 371.451 148.311 373.202 149.023C375.869 150.104 372.961 149.942 372.362 151.169C371.659 152.617 373.119 155.375 373.756 156.606C374.704 158.445 375.715 160.267 377.038 161.864Z" fill="#A7ADFF"/>
<path d="M366.592 152.596C366.985 152.596 367.304 152.277 367.304 151.885C367.304 151.492 366.985 151.173 366.592 151.173C366.199 151.173 365.881 151.492 365.881 151.885C365.881 152.277 366.199 152.596 366.592 152.596Z" fill="#4B369D"/>
<path d="M378.531 153.049C380.37 152.384 382.429 152.018 383.818 150.645C384.584 149.888 385.22 148.794 386.293 148.702C386.456 148.69 386.639 148.706 386.755 148.819C386.901 148.96 386.905 149.193 386.892 149.397C386.83 150.62 386.763 151.872 386.277 152.995C385.79 154.118 384.792 155.104 383.573 155.208C383.423 155.221 383.265 155.225 383.136 155.304C382.766 155.528 382.97 156.119 383.302 156.398C383.631 156.677 384.08 156.897 384.172 157.317C384.272 157.762 383.885 158.199 383.444 158.32C383.003 158.44 382.537 158.336 382.096 158.228C382.258 159.006 382.296 160.046 381.559 160.35C380.919 160.616 380.049 160.096 379.55 160.578C379.367 160.757 379.305 161.024 379.201 161.261C378.864 162.026 378.036 162.492 377.204 162.575C376.372 162.658 375.54 162.413 374.779 162.072C372.811 161.198 370.652 159.256 372.229 157.238C373.71 155.341 376.314 153.852 378.531 153.049Z" fill="#978CFF"/>
<path d="M392.283 200.704L387.125 201.577L392.034 204.157L392.283 200.704Z" fill="#4B369D"/>
<path d="M415.387 206.573C417.333 207.655 419.442 209.032 421.643 209.81C423.827 210.579 426.997 209.66 428.835 210.696C426.651 216.361 416.06 217.094 411.094 216.549C404.467 215.821 398.053 212.626 393.781 207.455C391.501 204.697 389.783 200.791 391.426 197.613C392.225 196.07 393.681 194.993 395.12 194.023C397.375 192.501 400.183 190.716 403.02 190.75C407.333 190.799 403.182 192.164 403.02 194.202C402.828 196.607 406.376 199.656 407.936 201.028C410.266 203.079 412.67 205.063 415.387 206.573Z" fill="#A7ADFF"/>
<path d="M395.362 199.423C395.952 199.423 396.431 198.944 396.431 198.354C396.431 197.763 395.952 197.285 395.362 197.285C394.771 197.285 394.292 197.763 394.292 198.354C394.292 198.944 394.771 199.423 395.362 199.423Z" fill="#4B369D"/>
<path d="M412.658 193.453C414.858 191.519 417.533 189.884 418.719 187.21C419.372 185.737 419.667 183.861 421.111 183.145C421.331 183.037 421.593 182.962 421.822 183.058C422.105 183.175 422.229 183.499 422.329 183.786C422.912 185.525 423.502 187.309 423.44 189.14C423.378 190.974 422.517 192.892 420.878 193.707C420.678 193.807 420.457 193.898 420.32 194.077C419.929 194.593 420.536 195.305 421.148 195.512C421.759 195.72 422.504 195.783 422.866 196.319C423.249 196.885 422.945 197.705 422.396 198.117C421.851 198.528 421.14 198.632 420.462 198.728C421.115 199.726 421.73 201.153 420.873 201.981C420.125 202.701 418.627 202.455 418.199 203.399C418.041 203.753 418.099 204.157 418.082 204.543C418.032 205.796 417.13 206.902 416.015 207.472C414.9 208.042 413.606 208.154 412.354 208.096C409.13 207.95 405.058 206.424 406.152 202.746C407.183 199.29 410 195.787 412.658 193.453Z" fill="#978CFF"/>
<path d="M305.502 182.825L306.014 209.489L326.043 220.039L332.345 207.838L339.72 185.18L335.964 176.981L305.502 182.825Z" fill="#D4A79A"/>
<path d="M309.133 323.431C308.264 322.965 307.569 323.564 305.839 324.092C301.85 325.311 297.744 326.143 293.596 326.567C292.032 326.729 290.327 326.887 289.183 327.965C288.06 329.021 287.789 330.664 287.311 332.129C285.393 337.99 279.761 341.663 275.693 346.305C275.318 346.73 274.94 347.316 275.206 347.815C275.393 348.169 275.83 348.302 276.229 348.36C278.625 348.714 280.992 347.636 283.101 346.438C286.308 344.621 289.32 342.466 292.078 340.024C293.888 338.418 295.635 336.655 297.856 335.694C299 335.199 300.227 334.932 301.434 334.625C305.473 333.589 309.379 332.021 313.01 329.974C312.124 328.243 311.351 325.698 310.078 324.246C309.712 323.842 309.412 323.58 309.133 323.431Z" fill="#EAC2AB"/>
<path d="M320.889 324.687C321.759 324.221 322.453 324.82 324.184 325.352C328.173 326.571 332.279 327.403 336.426 327.827C337.99 327.99 339.696 328.148 340.84 329.225C341.963 330.282 342.233 331.925 342.711 333.389C344.629 339.25 350.261 342.923 354.33 347.566C354.704 347.99 355.083 348.577 354.816 349.076C354.629 349.429 354.193 349.562 353.793 349.621C351.397 349.974 349.03 348.897 346.921 347.699C343.714 345.881 340.702 343.726 337.944 341.284C336.135 339.679 334.388 337.915 332.166 336.954C331.022 336.459 329.795 336.193 328.589 335.885C324.55 334.849 320.644 333.281 317.012 331.234C317.898 329.504 318.672 326.958 319.945 325.506C320.311 325.094 320.61 324.837 320.889 324.687Z" fill="#EAC2AB"/>
<path d="M314.333 333.568C329.3 324.354 347.316 322.004 364.267 317.361C381.219 312.719 398.856 304.35 406.352 288.451C408.249 284.432 409.064 278.896 405.558 276.167C404.206 275.114 402.467 274.728 400.778 274.441C382.575 271.362 364.018 277.065 347.137 284.536C343.344 286.217 339.575 287.993 335.598 289.175C328.09 291.404 320.128 291.421 312.299 291.421C302.993 291.421 293.688 291.425 284.387 291.296C278.384 291.213 272.269 291.059 266.579 289.141C262.826 287.877 259.374 285.88 255.776 284.229C247.231 280.302 237.801 278.317 228.4 278.463C224.59 278.521 220.659 278.966 217.335 280.83C214.011 282.694 211.415 286.267 211.665 290.069C212.002 295.185 216.936 298.605 221.428 301.067C236.69 309.437 252.893 315.976 269.303 321.792C275.418 323.959 286.217 326.284 292.694 326.671C299.008 327.045 301.691 325.215 307.407 324.267C312.748 323.385 311.87 329.466 314.333 333.568Z" fill="#5A54FF"/>
<path d="M338.589 309.266C351.176 304.857 363.76 300.452 376.347 296.042C368.315 296.309 360.182 296.592 352.466 298.834C344.242 301.226 336.821 305.747 328.951 309.129C321.08 312.515 312.195 314.77 303.984 312.336C301.001 311.45 298.255 309.911 295.327 308.859C265.817 298.272 258.276 290.215 248.354 298.272C255.102 295.435 292.848 314.574 304.628 322.141C311.305 326.43 314.3 320.893 320.007 317.378C325.773 313.83 332.22 311.496 338.589 309.266Z" fill="#4B369D"/>
<path d="M306.97 208.52C306.97 208.52 290.884 234.652 278.014 257.277C274.998 262.581 271.034 267.302 266.404 271.05C262.993 273.808 259.045 275.659 255.093 277.323C253.613 277.947 251.437 279.362 249.835 279.382C247.868 279.412 246.562 277.881 244.794 277.244C244.033 276.97 243.205 276.911 242.414 277.078C238.151 277.964 243.983 281.662 245.222 280.926C243.33 282.045 241.158 282.457 239.095 283.135C237.032 283.813 234.927 284.869 233.77 286.824C233.225 287.744 232.98 289.079 233.716 289.828C234.132 290.248 234.735 290.352 235.301 290.427C237.539 290.726 239.794 290.909 242.052 290.976C247.597 291.142 249.22 288.201 253.65 285.056C258.226 281.808 266.504 278.309 271.075 275.069C275.892 271.654 281.512 267.606 284.316 262.011C289.794 251.083 308.41 217.073 308.41 217.073L306.97 208.52Z" fill="#EAC2AB"/>
<path d="M323.888 211.029C323.888 211.029 339.966 232.343 354.899 253.658C358.402 258.654 362.79 262.984 367.753 266.279C371.405 268.704 375.511 270.177 379.6 271.462C381.135 271.945 383.431 273.147 385.029 273.018C386.988 272.86 388.144 271.213 389.85 270.418C390.582 270.077 391.401 269.94 392.204 270.027C396.535 270.51 391.073 274.736 389.767 274.12C391.755 275.056 393.956 275.26 396.077 275.743C398.199 276.225 400.391 277.078 401.726 278.917C402.354 279.778 402.724 281.088 402.063 281.899C401.689 282.357 401.098 282.515 400.541 282.644C398.34 283.151 396.115 283.546 393.872 283.825C388.369 284.511 386.476 281.737 381.772 279.021C376.913 276.213 368.344 273.513 363.489 270.713C358.373 267.768 352.399 264.266 349.08 258.954C342.603 248.592 320.872 216.478 320.872 216.478L323.888 211.029Z" fill="#EAC2AB"/>
<path d="M288.78 293.413C293.276 293.958 297.682 292.532 302.237 292.078C306.704 291.633 311.384 292.798 315.719 293.742C325.091 295.785 333.468 294.495 341.925 289.977C347.304 287.107 338.826 278.813 337.129 275.68C335.473 272.627 334.75 269.166 334.188 265.742C332.566 255.88 332.104 245.821 332.828 235.85C333.369 228.354 330.785 222.988 328.41 216.037C327.225 212.572 328.972 211.357 326.859 208.52C325.565 206.786 319.991 212.152 317.911 211.981C313.942 211.657 308.705 206.573 306.018 209.485C303.801 211.89 302.245 214.814 300.718 217.709C296.825 225.076 292.86 232.651 291.841 240.921C290.477 252.015 293.285 260.089 289.691 270.772C288.734 273.621 287.935 279.965 281.849 291.254C281.808 291.338 285.56 292.656 285.826 292.748C286.816 293.085 287.802 293.297 288.78 293.413Z" fill="#F44E4E"/>
<path d="M319.936 143.898C319.936 143.898 323.239 151.24 318.077 155.761C312.914 160.283 305.897 156.702 299.083 160.845C292.269 164.988 293.005 169.892 296.13 180.812C299.844 193.803 303.908 193.416 307.556 194.356C311.205 195.296 312.299 205.463 312.71 210.176C313.364 217.634 306.666 220.101 301.533 223.57C297.269 226.453 294.174 229.581 295.722 235.06C296.404 237.477 297.398 240.047 296.562 242.418C295.759 244.694 293.401 246.129 291.017 246.52C287.714 247.061 282.752 247.235 284.727 242.959C289.033 233.633 281.075 234.544 279.37 227.331C277.51 219.473 274.012 213.013 282.951 208.3C285.622 206.89 288.609 205.558 290.048 202.904C292.897 197.659 288.609 192.734 286.366 188.254C283.093 181.714 281.891 174.09 284.22 167.051C288.143 155.187 284.012 158.765 289.174 149.351C294.337 139.942 313.122 129.584 319.936 143.898Z" fill="#4B369D"/>
<path d="M301.138 157.563C301.138 157.563 292.656 162.937 294.915 176.523C297.174 190.105 309.516 202.484 313.596 201.964C324.882 200.529 326.176 192.676 330.514 186.199C335.835 178.258 327.869 157.396 327.869 157.396L319.333 151.98L301.138 157.563Z" fill="#EAC2AB"/>
<path d="M313.534 152.558C313.534 152.558 319.15 154.443 324.083 162.351C329.017 170.258 334.445 173.69 330.889 183.67C329.262 188.229 327.931 192.197 326.276 196.174C324.229 201.095 322.698 206.199 321.82 211.461C321.08 215.896 323.264 217.264 326.043 220.039C331.55 225.538 331.754 233.155 336.621 238.467C339.945 242.094 348.447 246.071 353.177 242.938C357.719 239.927 344.171 241.94 346.858 228.945C349.545 215.95 350.461 210.438 342.615 206.831C334.77 203.221 338.518 202.268 342.648 194.36C346.779 186.452 336.134 186.548 340.336 172.783C345.186 156.897 340.789 139.189 317.049 144.085C293.301 148.981 313.534 152.558 313.534 152.558Z" fill="#4B369D"/>
<path d="M307.752 167.679C314.566 163.536 312.914 160.279 318.076 155.761C323.239 151.244 319.936 143.898 319.936 143.898C313.122 129.588 294.336 139.942 289.174 149.36C284.012 158.773 288.143 155.196 284.22 167.059C281.516 175.238 284.403 183.395 286.366 188.262L294.823 188.844C290.331 171.781 302.631 170.791 307.752 167.679Z" fill="#4B369D"/>
</svg>
