<svg width="68" height="68" viewBox="0 0 68 68" fill="none" xmlns="http://www.w3.org/2000/svg">
<path d="M58.5554 15.1111H43.4443V18.8889H58.5554V58.5556H43.4443V62.3334H62.3332V18.8889C62.3332 17.887 61.9352 16.9261 61.2267 16.2176C60.5183 15.5092 59.5574 15.1111 58.5554 15.1111Z" fill="white"/>
<path d="M37.5507 5.66669H11.5596C10.4976 5.66669 9.47903 6.08858 8.72805 6.83956C7.97707 7.59054 7.55518 8.60909 7.55518 9.67113V62.3334H41.5552V9.67113C41.5552 8.60909 41.1333 7.59054 40.3823 6.83956C39.6313 6.08858 38.6128 5.66669 37.5507 5.66669ZM37.7774 58.5556H32.1107V52.8889H16.9996V58.5556H11.333V9.67113C11.333 9.64137 11.3388 9.61189 11.3502 9.58439C11.3616 9.55689 11.3783 9.5319 11.3993 9.51085C11.4204 9.48981 11.4454 9.47311 11.4729 9.46172C11.5004 9.45033 11.5299 9.44447 11.5596 9.44447H37.5507C37.5805 9.44447 37.61 9.45033 37.6375 9.46172C37.665 9.47311 37.69 9.48981 37.711 9.51085C37.7321 9.5319 37.7488 9.55689 37.7601 9.58439C37.7715 9.61189 37.7774 9.64137 37.7774 9.67113V58.5556Z" fill="white"/>
<path d="M15.1108 15.1111H18.8886V18.8889H15.1108V15.1111Z" fill="white"/>
<path d="M22.6665 15.1111H26.4443V18.8889H22.6665V15.1111Z" fill="white"/>
<path d="M30.2217 15.1111H33.9995V18.8889H30.2217V15.1111Z" fill="white"/>
<path d="M15.1108 24.5555H18.8886V28.3333H15.1108V24.5555Z" fill="white"/>
<path d="M22.6665 24.5555H26.4443V28.3333H22.6665V24.5555Z" fill="white"/>
<path d="M30.2217 24.5555H33.9995V28.3333H30.2217V24.5555Z" fill="white"/>
<path d="M15.1108 34H18.8886V37.7778H15.1108V34Z" fill="white"/>
<path d="M22.6665 34H26.4443V37.7778H22.6665V34Z" fill="white"/>
<path d="M30.2217 34H33.9995V37.7778H30.2217V34Z" fill="white"/>
<path d="M15.1108 43.4445H18.8886V47.2222H15.1108V43.4445Z" fill="white"/>
<path d="M22.6665 43.4445H26.4443V47.2222H22.6665V43.4445Z" fill="white"/>
<path d="M30.2217 43.4445H33.9995V47.2222H30.2217V43.4445Z" fill="white"/>
<path d="M43.4443 24.5555H47.2221V28.3333H43.4443V24.5555Z" fill="white"/>
<path d="M51 24.5555H54.7778V28.3333H51V24.5555Z" fill="white"/>
<path d="M43.4443 34H47.2221V37.7778H43.4443V34Z" fill="white"/>
<path d="M51 34H54.7778V37.7778H51V34Z" fill="white"/>
<path d="M43.4443 43.4445H47.2221V47.2222H43.4443V43.4445Z" fill="white"/>
<path d="M51 43.4445H54.7778V47.2222H51V43.4445Z" fill="white"/>
</svg>
