<svg width="32" height="32" viewBox="0 0 32 32" fill="none" xmlns="http://www.w3.org/2000/svg">
<path fill-rule="evenodd" clip-rule="evenodd" d="M4 22.4933V12.3427H28V22.5747C28 26.76 25.3655 29.3333 21.1504 29.3333H10.8364C6.66081 29.3333 4 26.7067 4 22.4933ZM10.6124 19.2133C10.0065 19.2413 9.50591 18.76 9.47956 18.148C9.47956 17.5347 9.95376 17.028 10.5597 17C11.1524 17 11.6398 17.468 11.653 18.0667C11.6793 18.6813 11.2051 19.188 10.6124 19.2133ZM16.0263 19.2133C15.4203 19.2413 14.9198 18.76 14.8935 18.148C14.8935 17.5347 15.3677 17.028 15.9736 17C16.5663 17 17.0537 17.468 17.0669 18.0667C17.0932 18.6813 16.619 19.188 16.0263 19.2133ZM21.4007 24.12C20.7948 24.1067 20.3074 23.6 20.3074 22.9867C20.2942 22.3733 20.7816 21.868 21.3875 21.8547H21.4007C22.0198 21.8547 22.5204 22.3613 22.5204 22.9867C22.5204 23.6133 22.0198 24.12 21.4007 24.12ZM14.8935 22.9867C14.9198 23.6 15.4203 24.0813 16.0263 24.0533C16.619 24.028 17.0932 23.5213 17.0669 22.908C17.0537 22.308 16.5663 21.84 15.9736 21.84C15.3677 21.868 14.8935 22.3733 14.8935 22.9867ZM9.46643 22.9867C9.49277 23.6 9.99332 24.0813 10.5992 24.0533C11.192 24.028 11.6662 23.5213 11.6399 22.908C11.6267 22.308 11.1393 21.84 10.5466 21.84C9.94063 21.868 9.46643 22.3733 9.46643 22.9867ZM20.3205 18.1347C20.3205 17.5213 20.7947 17.028 21.4006 17.0147C21.9934 17.0147 22.4676 17.4933 22.4939 18.0813C22.5071 18.6947 22.0329 19.2013 21.4401 19.2133C20.8342 19.2267 20.3336 18.76 20.3205 18.148V18.1347Z" fill="#200E32"/>
<path d="M4.00439 12.3425C4.02152 11.5599 4.08738 10.0065 4.2112 9.50653C4.84347 6.69453 6.99056 4.90786 10.0597 4.6532H21.9412C24.984 4.9212 27.1574 6.71987 27.7897 9.50653C27.9122 9.9932 27.978 11.5585 27.9952 12.3425H4.00439Z" fill="#9C1258"/>
<path d="M11.0729 8.78663C11.6524 8.78663 12.0871 8.34796 12.0871 7.75996V3.69463C12.0871 3.10663 11.6524 2.66663 11.0729 2.66663C10.4933 2.66663 10.0586 3.10663 10.0586 3.69463V7.75996C10.0586 8.34796 10.4933 8.78663 11.0729 8.78663Z" fill="#200E32"/>
<path d="M20.9269 8.78663C21.4933 8.78663 21.9411 8.34796 21.9411 7.75996V3.69463C21.9411 3.10663 21.4933 2.66663 20.9269 2.66663C20.3473 2.66663 19.9126 3.10663 19.9126 3.69463V7.75996C19.9126 8.34796 20.3473 8.78663 20.9269 8.78663Z" fill="#200E32"/>
</svg>
