<svg width="64" height="64" viewBox="0 0 64 64" fill="none" xmlns="http://www.w3.org/2000/svg">
<path d="M27.4396 10.2933L4.8529 47.9999C4.38722 48.8064 4.14081 49.7207 4.1382 50.652C4.1356 51.5832 4.37688 52.4989 4.83804 53.308C5.2992 54.1171 5.96417 54.7913 6.76679 55.2635C7.56941 55.7358 8.4817 55.9897 9.4129 55.9999H54.5862C55.5174 55.9897 56.4297 55.7358 57.2323 55.2635C58.035 54.7913 58.6999 54.1171 59.1611 53.308C59.6223 52.4989 59.8635 51.5832 59.8609 50.652C59.8583 49.7207 59.6119 48.8064 59.1462 47.9999L36.5596 10.2933C36.0842 9.50955 35.4148 8.86159 34.6161 8.41189C33.8174 7.9622 32.9162 7.72595 31.9996 7.72595C31.0829 7.72595 30.1818 7.9622 29.383 8.41189C28.5843 8.86159 27.915 9.50955 27.4396 10.2933V10.2933Z" stroke="#001833" stroke-width="5" stroke-linecap="round" stroke-linejoin="round"/>
<path d="M32 24V34.6667" stroke="#001833" stroke-width="5" stroke-linecap="round" stroke-linejoin="round"/>
<path d="M32 45.3334H32.0267" stroke="#001833" stroke-width="5" stroke-linecap="round" stroke-linejoin="round"/>
</svg>
