<svg width="608" height="623" viewBox="0 0 608 623" fill="none" xmlns="http://www.w3.org/2000/svg">
<g filter="url(#filter0_d)">
<path fill-rule="evenodd" clip-rule="evenodd" d="M404.94 151.635C459.578 190.744 509.392 240.796 517.146 301.412C524.303 357.367 483.653 400.122 441.1 434.315C404.454 463.762 356.669 472.022 305.285 471.652C238.517 471.171 154.463 486.591 114.46 431.962C74.5489 377.459 140.156 322.717 152.728 263.32C167.154 195.165 125.621 97.4259 191.438 68.2806C258.191 38.7209 339.409 104.73 404.94 151.635Z" fill="#08ADB8"/>
</g>
<path d="M346.14 252C347.487 252 348.68 252.28 349.72 252.84C350.773 253.387 351.593 254.187 352.18 255.24C352.767 256.293 353.06 257.547 353.06 259C353.06 260.453 352.767 261.707 352.18 262.76C351.593 263.813 350.773 264.62 349.72 265.18C348.68 265.727 347.487 266 346.14 266H340.36V252H346.14ZM346.14 262.78C347.207 262.78 348.02 262.467 348.58 261.84C349.14 261.213 349.42 260.267 349.42 259C349.42 257.733 349.14 256.787 348.58 256.16C348.02 255.533 347.207 255.22 346.14 255.22H343.84V262.78H346.14ZM360.824 266.28C359.718 266.28 358.744 266.047 357.904 265.58C357.064 265.1 356.411 264.453 355.944 263.64C355.491 262.813 355.264 261.893 355.264 260.88C355.264 259.867 355.491 258.953 355.944 258.14C356.411 257.313 357.064 256.667 357.904 256.2C358.744 255.72 359.718 255.48 360.824 255.48C361.931 255.48 362.904 255.72 363.744 256.2C364.584 256.667 365.231 257.313 365.684 258.14C366.151 258.953 366.384 259.867 366.384 260.88C366.384 261.893 366.151 262.813 365.684 263.64C365.231 264.453 364.584 265.1 363.744 265.58C362.904 266.047 361.931 266.28 360.824 266.28ZM360.824 263.28C361.491 263.28 362.018 263.067 362.404 262.64C362.791 262.2 362.984 261.613 362.984 260.88C362.984 260.147 362.791 259.567 362.404 259.14C362.018 258.7 361.491 258.48 360.824 258.48C360.158 258.48 359.631 258.7 359.244 259.14C358.858 259.567 358.664 260.147 358.664 260.88C358.664 261.613 358.858 262.2 359.244 262.64C359.631 263.067 360.158 263.28 360.824 263.28ZM383.721 255.76V264.92C383.721 266.64 383.234 267.96 382.261 268.88C381.288 269.813 379.888 270.28 378.061 270.28C377.168 270.28 376.328 270.167 375.541 269.94C374.768 269.727 374.128 269.413 373.621 269L374.901 266.48C375.328 266.76 375.794 266.973 376.301 267.12C376.821 267.28 377.321 267.36 377.801 267.36C378.628 267.36 379.274 267.14 379.741 266.7C380.208 266.273 380.441 265.68 380.441 264.92V264.2C380.148 264.693 379.734 265.087 379.201 265.38C378.681 265.66 378.081 265.8 377.401 265.8C376.361 265.8 375.534 265.473 374.921 264.82C374.308 264.153 374.001 263.227 374.001 262.04V255.76H377.361V261.16C377.361 261.693 377.474 262.093 377.701 262.36C377.941 262.627 378.301 262.76 378.781 262.76C379.861 262.76 380.401 262.147 380.401 260.92V255.76H383.721ZM391.877 266.28C390.77 266.28 389.797 266.047 388.957 265.58C388.117 265.1 387.463 264.453 386.997 263.64C386.543 262.813 386.317 261.893 386.317 260.88C386.317 259.867 386.543 258.953 386.997 258.14C387.463 257.313 388.117 256.667 388.957 256.2C389.797 255.72 390.77 255.48 391.877 255.48C392.983 255.48 393.957 255.72 394.797 256.2C395.637 256.667 396.283 257.313 396.737 258.14C397.203 258.953 397.437 259.867 397.437 260.88C397.437 261.893 397.203 262.813 396.737 263.64C396.283 264.453 395.637 265.1 394.797 265.58C393.957 266.047 392.983 266.28 391.877 266.28ZM391.877 263.28C392.543 263.28 393.07 263.067 393.457 262.64C393.843 262.2 394.037 261.613 394.037 260.88C394.037 260.147 393.843 259.567 393.457 259.14C393.07 258.7 392.543 258.48 391.877 258.48C391.21 258.48 390.683 258.7 390.297 259.14C389.91 259.567 389.717 260.147 389.717 260.88C389.717 261.613 389.91 262.2 390.297 262.64C390.683 263.067 391.21 263.28 391.877 263.28ZM404.719 266.28C403.186 266.28 401.992 265.907 401.139 265.16C400.299 264.4 399.879 263.353 399.879 262.02V255.76H403.239V261.54C403.239 262.7 403.732 263.28 404.719 263.28C405.706 263.28 406.199 262.7 406.199 261.54V255.76H409.559V262.02C409.559 263.353 409.132 264.4 408.279 265.16C407.439 265.907 406.252 266.28 404.719 266.28ZM418.46 258.72H416.66V255.76H418.46V254.7C418.46 252.353 419.807 251.18 422.5 251.18C423.1 251.18 423.7 251.24 424.3 251.36V254.2C423.873 254.133 423.52 254.1 423.24 254.1C422.733 254.1 422.367 254.187 422.14 254.36C421.927 254.52 421.82 254.767 421.82 255.1V255.76H424.3V258.72H421.82V266H418.46V258.72ZM428.28 254.54C427.666 254.54 427.173 254.367 426.8 254.02C426.426 253.66 426.24 253.187 426.24 252.6C426.24 252.013 426.426 251.547 426.8 251.2C427.173 250.84 427.666 250.66 428.28 250.66C428.893 250.66 429.386 250.84 429.76 251.2C430.133 251.547 430.32 252.013 430.32 252.6C430.32 253.187 430.133 253.66 429.76 254.02C429.386 254.367 428.893 254.54 428.28 254.54ZM426.6 255.76H429.96V266H426.6V255.76ZM439.522 255.48C440.589 255.48 441.429 255.813 442.042 256.48C442.669 257.133 442.982 258.053 442.982 259.24V266H439.622V260.12C439.622 259.587 439.502 259.187 439.262 258.92C439.022 258.653 438.649 258.52 438.142 258.52C437.022 258.52 436.462 259.133 436.462 260.36V266H433.102V255.76H436.382V257.14C436.676 256.633 437.089 256.233 437.622 255.94C438.169 255.633 438.802 255.48 439.522 255.48ZM456.471 251.36V266H453.191V264.62C452.898 265.153 452.471 265.567 451.911 265.86C451.351 266.14 450.724 266.28 450.031 266.28C449.164 266.28 448.384 266.053 447.691 265.6C447.011 265.147 446.478 264.513 446.091 263.7C445.704 262.873 445.511 261.933 445.511 260.88C445.511 259.827 445.704 258.893 446.091 258.08C446.478 257.253 447.011 256.613 447.691 256.16C448.384 255.707 449.164 255.48 450.031 255.48C450.684 255.48 451.284 255.613 451.831 255.88C452.378 256.147 452.804 256.527 453.111 257.02V251.36H456.471ZM451.071 263.28C451.738 263.28 452.264 263.067 452.651 262.64C453.038 262.2 453.231 261.613 453.231 260.88C453.231 260.147 453.038 259.567 452.651 259.14C452.264 258.7 451.738 258.48 451.071 258.48C450.404 258.48 449.878 258.7 449.491 259.14C449.104 259.567 448.911 260.147 448.911 260.88C448.911 261.613 449.104 262.2 449.491 262.64C449.878 263.067 450.404 263.28 451.071 263.28ZM349.7 283.76V292.92C349.7 294.64 349.213 295.96 348.24 296.88C347.267 297.813 345.867 298.28 344.04 298.28C343.147 298.28 342.307 298.167 341.52 297.94C340.747 297.727 340.107 297.413 339.6 297L340.88 294.48C341.307 294.76 341.773 294.973 342.28 295.12C342.8 295.28 343.3 295.36 343.78 295.36C344.607 295.36 345.253 295.14 345.72 294.7C346.187 294.273 346.42 293.68 346.42 292.92V292.2C346.127 292.693 345.713 293.087 345.18 293.38C344.66 293.66 344.06 293.8 343.38 293.8C342.34 293.8 341.513 293.473 340.9 292.82C340.287 292.153 339.98 291.227 339.98 290.04V283.76H343.34V289.16C343.34 289.693 343.453 290.093 343.68 290.36C343.92 290.627 344.28 290.76 344.76 290.76C345.84 290.76 346.38 290.147 346.38 288.92V283.76H349.7ZM357.855 294.28C356.749 294.28 355.775 294.047 354.935 293.58C354.095 293.1 353.442 292.453 352.975 291.64C352.522 290.813 352.295 289.893 352.295 288.88C352.295 287.867 352.522 286.953 352.975 286.14C353.442 285.313 354.095 284.667 354.935 284.2C355.775 283.72 356.749 283.48 357.855 283.48C358.962 283.48 359.935 283.72 360.775 284.2C361.615 284.667 362.262 285.313 362.715 286.14C363.182 286.953 363.415 287.867 363.415 288.88C363.415 289.893 363.182 290.813 362.715 291.64C362.262 292.453 361.615 293.1 360.775 293.58C359.935 294.047 358.962 294.28 357.855 294.28ZM357.855 291.28C358.522 291.28 359.049 291.067 359.435 290.64C359.822 290.2 360.015 289.613 360.015 288.88C360.015 288.147 359.822 287.567 359.435 287.14C359.049 286.7 358.522 286.48 357.855 286.48C357.189 286.48 356.662 286.7 356.275 287.14C355.889 287.567 355.695 288.147 355.695 288.88C355.695 289.613 355.889 290.2 356.275 290.64C356.662 291.067 357.189 291.28 357.855 291.28ZM370.698 294.28C369.164 294.28 367.971 293.907 367.118 293.16C366.278 292.4 365.858 291.353 365.858 290.02V283.76H369.218V289.54C369.218 290.7 369.711 291.28 370.698 291.28C371.684 291.28 372.178 290.7 372.178 289.54V283.76H375.538V290.02C375.538 291.353 375.111 292.4 374.258 293.16C373.418 293.907 372.231 294.28 370.698 294.28ZM384.678 283.56C384.971 283.56 385.251 283.6 385.518 283.68V286.94C385.064 286.847 384.598 286.8 384.118 286.8C383.304 286.8 382.724 286.98 382.378 287.34C382.031 287.7 381.858 288.313 381.858 289.18V294H378.498V283.76H381.778V285.32C382.044 284.773 382.431 284.347 382.938 284.04C383.444 283.72 384.024 283.56 384.678 283.56ZM391.874 294.28C390.9 294.28 389.987 294.14 389.134 293.86C388.294 293.567 387.607 293.16 387.074 292.64L388.514 290.34C388.954 290.687 389.48 290.973 390.094 291.2C390.72 291.427 391.327 291.54 391.914 291.54C392.3 291.54 392.594 291.493 392.794 291.4C392.994 291.293 393.094 291.153 393.094 290.98C393.094 290.807 393.014 290.667 392.854 290.56C392.707 290.453 392.467 290.36 392.134 290.28L390.394 289.86C389.354 289.607 388.6 289.233 388.134 288.74C387.68 288.247 387.454 287.64 387.454 286.92C387.454 285.88 387.847 285.047 388.634 284.42C389.434 283.793 390.52 283.48 391.894 283.48C392.787 283.48 393.62 283.613 394.394 283.88C395.18 284.147 395.82 284.507 396.314 284.96L394.834 287.24C393.78 286.573 392.794 286.24 391.874 286.24C391.514 286.24 391.24 286.293 391.054 286.4C390.88 286.493 390.794 286.62 390.794 286.78C390.794 286.927 390.86 287.047 390.994 287.14C391.14 287.233 391.38 287.32 391.714 287.4L393.454 287.82C394.534 288.087 395.307 288.467 395.774 288.96C396.24 289.44 396.474 290.053 396.474 290.8C396.474 291.88 396.067 292.733 395.254 293.36C394.44 293.973 393.314 294.28 391.874 294.28ZM408.864 288.86C408.864 289.18 408.844 289.513 408.804 289.86H401.864C402.011 290.42 402.278 290.833 402.664 291.1C403.064 291.353 403.584 291.48 404.224 291.48C405.211 291.48 406.011 291.18 406.624 290.58L408.444 292.58C407.964 293.127 407.351 293.547 406.604 293.84C405.871 294.133 405.038 294.28 404.104 294.28C402.971 294.28 401.978 294.067 401.124 293.64C400.271 293.2 399.611 292.58 399.144 291.78C398.691 290.98 398.464 290.033 398.464 288.94C398.464 287.873 398.684 286.927 399.124 286.1C399.564 285.273 400.184 284.633 400.984 284.18C401.784 283.713 402.711 283.48 403.764 283.48C404.791 283.48 405.684 283.7 406.444 284.14C407.218 284.58 407.811 285.207 408.224 286.02C408.651 286.833 408.864 287.78 408.864 288.86ZM403.784 286.26C402.691 286.26 402.038 286.78 401.824 287.82H405.544C405.464 286.78 404.878 286.26 403.784 286.26ZM411.425 279.36H414.785V294H411.425V279.36ZM418.948 286.72H417.148V283.76H418.948V282.7C418.948 280.353 420.295 279.18 422.988 279.18C423.588 279.18 424.188 279.24 424.788 279.36V282.2C424.362 282.133 424.008 282.1 423.728 282.1C423.222 282.1 422.855 282.187 422.628 282.36C422.415 282.52 422.308 282.767 422.308 283.1V283.76H424.788V286.72H422.308V294H418.948V286.72ZM356.2 311.76L353.16 322H349.42L347.7 316.14L345.98 322H342.24L339.2 311.76H342.64L344.28 318.04L346.16 311.76H349.24L351.12 318.04L352.76 311.76H356.2ZM363.168 322.28C362.061 322.28 361.088 322.047 360.248 321.58C359.408 321.1 358.755 320.453 358.288 319.64C357.835 318.813 357.608 317.893 357.608 316.88C357.608 315.867 357.835 314.953 358.288 314.14C358.755 313.313 359.408 312.667 360.248 312.2C361.088 311.72 362.061 311.48 363.168 311.48C364.275 311.48 365.248 311.72 366.088 312.2C366.928 312.667 367.575 313.313 368.028 314.14C368.495 314.953 368.728 315.867 368.728 316.88C368.728 317.893 368.495 318.813 368.028 319.64C367.575 320.453 366.928 321.1 366.088 321.58C365.248 322.047 364.275 322.28 363.168 322.28ZM363.168 319.28C363.835 319.28 364.361 319.067 364.748 318.64C365.135 318.2 365.328 317.613 365.328 316.88C365.328 316.147 365.135 315.567 364.748 315.14C364.361 314.7 363.835 314.48 363.168 314.48C362.501 314.48 361.975 314.7 361.588 315.14C361.201 315.567 361.008 316.147 361.008 316.88C361.008 317.613 361.201 318.2 361.588 318.64C361.975 319.067 362.501 319.28 363.168 319.28ZM377.51 311.56C377.804 311.56 378.084 311.6 378.35 311.68V314.94C377.897 314.847 377.43 314.8 376.95 314.8C376.137 314.8 375.557 314.98 375.21 315.34C374.864 315.7 374.69 316.313 374.69 317.18V322H371.33V311.76H374.61V313.32C374.877 312.773 375.264 312.347 375.77 312.04C376.277 311.72 376.857 311.56 377.51 311.56ZM384.845 318.1H384.065V322H380.705V307.36H384.065V315.18H384.905L387.345 311.76H391.305L387.685 316.62L391.385 322H387.425L384.845 318.1ZM395.04 310.54C394.427 310.54 393.934 310.367 393.56 310.02C393.187 309.66 393 309.187 393 308.6C393 308.013 393.187 307.547 393.56 307.2C393.934 306.84 394.427 306.66 395.04 306.66C395.654 306.66 396.147 306.84 396.52 307.2C396.894 307.547 397.08 308.013 397.08 308.6C397.08 309.187 396.894 309.66 396.52 310.02C396.147 310.367 395.654 310.54 395.04 310.54ZM393.36 311.76H396.72V322H393.36V311.76ZM406.283 311.48C407.35 311.48 408.19 311.813 408.803 312.48C409.43 313.133 409.743 314.053 409.743 315.24V322H406.383V316.12C406.383 315.587 406.263 315.187 406.023 314.92C405.783 314.653 405.41 314.52 404.903 314.52C403.783 314.52 403.223 315.133 403.223 316.36V322H399.863V311.76H403.143V313.14C403.436 312.633 403.85 312.233 404.383 311.94C404.93 311.633 405.563 311.48 406.283 311.48ZM423.252 311.76V320.8C423.252 322.507 422.745 323.847 421.732 324.82C420.732 325.793 419.305 326.28 417.452 326.28C416.465 326.28 415.539 326.14 414.672 325.86C413.805 325.58 413.092 325.2 412.532 324.72L413.972 322.3C414.479 322.647 415.012 322.907 415.572 323.08C416.132 323.267 416.679 323.36 417.212 323.36C418.079 323.36 418.759 323.127 419.252 322.66C419.745 322.207 419.992 321.587 419.992 320.8V320.1C419.712 320.633 419.292 321.053 418.732 321.36C418.172 321.653 417.525 321.8 416.792 321.8C415.925 321.8 415.145 321.587 414.452 321.16C413.772 320.733 413.239 320.133 412.852 319.36C412.465 318.587 412.272 317.7 412.272 316.7C412.272 315.7 412.465 314.807 412.852 314.02C413.252 313.22 413.792 312.6 414.472 312.16C415.165 311.707 415.945 311.48 416.812 311.48C417.505 311.48 418.132 311.627 418.692 311.92C419.252 312.2 419.679 312.607 419.972 313.14V311.76H423.252ZM417.852 318.88C418.519 318.88 419.045 318.673 419.432 318.26C419.819 317.847 420.012 317.313 420.012 316.66C420.012 316.007 419.819 315.473 419.432 315.06C419.045 314.647 418.519 314.44 417.852 314.44C417.185 314.44 416.659 314.647 416.272 315.06C415.885 315.473 415.692 316.007 415.692 316.66C415.692 317.313 415.885 317.847 416.272 318.26C416.659 318.673 417.185 318.88 417.852 318.88ZM344.9 350.14C343.553 350.14 342.587 349.867 342 349.32C341.413 348.773 341.12 347.86 341.12 346.58V342.72H339.36V339.76H341.12V336.76H344.48V339.76H347V342.72H344.48V346C344.48 346.427 344.573 346.727 344.76 346.9C344.947 347.06 345.28 347.14 345.76 347.14C346.2 347.14 346.627 347.093 347.04 347V349.86C346.4 350.047 345.687 350.14 344.9 350.14ZM351.371 338.54C350.758 338.54 350.264 338.367 349.891 338.02C349.518 337.66 349.331 337.187 349.331 336.6C349.331 336.013 349.518 335.547 349.891 335.2C350.264 334.84 350.758 334.66 351.371 334.66C351.984 334.66 352.478 334.84 352.851 335.2C353.224 335.547 353.411 336.013 353.411 336.6C353.411 337.187 353.224 337.66 352.851 338.02C352.478 338.367 351.984 338.54 351.371 338.54ZM349.691 339.76H353.051V350H349.691V339.76ZM362.374 339.56C362.667 339.56 362.947 339.6 363.214 339.68V342.94C362.76 342.847 362.294 342.8 361.814 342.8C361 342.8 360.42 342.98 360.074 343.34C359.727 343.7 359.554 344.313 359.554 345.18V350H356.194V339.76H359.474V341.32C359.74 340.773 360.127 340.347 360.634 340.04C361.14 339.72 361.72 339.56 362.374 339.56ZM375.135 344.86C375.135 345.18 375.115 345.513 375.075 345.86H368.135C368.282 346.42 368.549 346.833 368.935 347.1C369.335 347.353 369.855 347.48 370.495 347.48C371.482 347.48 372.282 347.18 372.895 346.58L374.715 348.58C374.235 349.127 373.622 349.547 372.875 349.84C372.142 350.133 371.309 350.28 370.375 350.28C369.242 350.28 368.249 350.067 367.395 349.64C366.542 349.2 365.882 348.58 365.415 347.78C364.962 346.98 364.735 346.033 364.735 344.94C364.735 343.873 364.955 342.927 365.395 342.1C365.835 341.273 366.455 340.633 367.255 340.18C368.055 339.713 368.982 339.48 370.035 339.48C371.062 339.48 371.955 339.7 372.715 340.14C373.489 340.58 374.082 341.207 374.495 342.02C374.922 342.833 375.135 343.78 375.135 344.86ZM370.055 342.26C368.962 342.26 368.309 342.78 368.095 343.82H371.815C371.735 342.78 371.149 342.26 370.055 342.26ZM377.696 335.36H381.056V350H377.696V335.36ZM394.06 344.86C394.06 345.18 394.04 345.513 394 345.86H387.06C387.206 346.42 387.473 346.833 387.86 347.1C388.26 347.353 388.78 347.48 389.42 347.48C390.406 347.48 391.206 347.18 391.82 346.58L393.64 348.58C393.16 349.127 392.546 349.547 391.8 349.84C391.066 350.133 390.233 350.28 389.3 350.28C388.166 350.28 387.173 350.067 386.32 349.64C385.466 349.2 384.806 348.58 384.34 347.78C383.886 346.98 383.66 346.033 383.66 344.94C383.66 343.873 383.88 342.927 384.32 342.1C384.76 341.273 385.38 340.633 386.18 340.18C386.98 339.713 387.906 339.48 388.96 339.48C389.986 339.48 390.88 339.7 391.64 340.14C392.413 340.58 393.006 341.207 393.42 342.02C393.846 342.833 394.06 343.78 394.06 344.86ZM388.98 342.26C387.886 342.26 387.233 342.78 387.02 343.82H390.74C390.66 342.78 390.073 342.26 388.98 342.26ZM400.7 350.28C399.727 350.28 398.813 350.14 397.96 349.86C397.12 349.567 396.433 349.16 395.9 348.64L397.34 346.34C397.78 346.687 398.307 346.973 398.92 347.2C399.547 347.427 400.153 347.54 400.74 347.54C401.127 347.54 401.42 347.493 401.62 347.4C401.82 347.293 401.92 347.153 401.92 346.98C401.92 346.807 401.84 346.667 401.68 346.56C401.533 346.453 401.293 346.36 400.96 346.28L399.22 345.86C398.18 345.607 397.427 345.233 396.96 344.74C396.507 344.247 396.28 343.64 396.28 342.92C396.28 341.88 396.673 341.047 397.46 340.42C398.26 339.793 399.347 339.48 400.72 339.48C401.613 339.48 402.447 339.613 403.22 339.88C404.007 340.147 404.647 340.507 405.14 340.96L403.66 343.24C402.607 342.573 401.62 342.24 400.7 342.24C400.34 342.24 400.067 342.293 399.88 342.4C399.707 342.493 399.62 342.62 399.62 342.78C399.62 342.927 399.687 343.047 399.82 343.14C399.967 343.233 400.207 343.32 400.54 343.4L402.28 343.82C403.36 344.087 404.133 344.467 404.6 344.96C405.067 345.44 405.3 346.053 405.3 346.8C405.3 347.88 404.893 348.733 404.08 349.36C403.267 349.973 402.14 350.28 400.7 350.28ZM411.852 350.28C410.878 350.28 409.965 350.14 409.112 349.86C408.272 349.567 407.585 349.16 407.052 348.64L408.492 346.34C408.932 346.687 409.458 346.973 410.072 347.2C410.698 347.427 411.305 347.54 411.892 347.54C412.278 347.54 412.572 347.493 412.772 347.4C412.972 347.293 413.072 347.153 413.072 346.98C413.072 346.807 412.992 346.667 412.832 346.56C412.685 346.453 412.445 346.36 412.112 346.28L410.372 345.86C409.332 345.607 408.578 345.233 408.112 344.74C407.658 344.247 407.432 343.64 407.432 342.92C407.432 341.88 407.825 341.047 408.612 340.42C409.412 339.793 410.498 339.48 411.872 339.48C412.765 339.48 413.598 339.613 414.372 339.88C415.158 340.147 415.798 340.507 416.292 340.96L414.812 343.24C413.758 342.573 412.772 342.24 411.852 342.24C411.492 342.24 411.218 342.293 411.032 342.4C410.858 342.493 410.772 342.62 410.772 342.78C410.772 342.927 410.838 343.047 410.972 343.14C411.118 343.233 411.358 343.32 411.692 343.4L413.432 343.82C414.512 344.087 415.285 344.467 415.752 344.96C416.218 345.44 416.452 346.053 416.452 346.8C416.452 347.88 416.045 348.733 415.232 349.36C414.418 349.973 413.292 350.28 411.852 350.28ZM418.962 335.36H422.322V350H418.962V335.36ZM434.986 339.76V348.92C434.986 350.64 434.499 351.96 433.526 352.88C432.553 353.813 431.153 354.28 429.326 354.28C428.433 354.28 427.593 354.167 426.806 353.94C426.033 353.727 425.393 353.413 424.886 353L426.166 350.48C426.593 350.76 427.059 350.973 427.566 351.12C428.086 351.28 428.586 351.36 429.066 351.36C429.893 351.36 430.539 351.14 431.006 350.7C431.473 350.273 431.706 349.68 431.706 348.92V348.2C431.413 348.693 430.999 349.087 430.466 349.38C429.946 349.66 429.346 349.8 428.666 349.8C427.626 349.8 426.799 349.473 426.186 348.82C425.573 348.153 425.266 347.227 425.266 346.04V339.76H428.626V345.16C428.626 345.693 428.739 346.093 428.966 346.36C429.206 346.627 429.566 346.76 430.046 346.76C431.126 346.76 431.666 346.147 431.666 344.92V339.76H434.986ZM449.736 339.48C450.603 339.48 451.376 339.707 452.056 340.16C452.749 340.613 453.289 341.253 453.676 342.08C454.063 342.893 454.256 343.827 454.256 344.88C454.256 345.933 454.063 346.873 453.676 347.7C453.289 348.513 452.749 349.147 452.056 349.6C451.376 350.053 450.603 350.28 449.736 350.28C449.043 350.28 448.416 350.14 447.856 349.86C447.296 349.567 446.869 349.153 446.576 348.62V350H443.296V335.36H446.656V341.02C446.963 340.527 447.389 340.147 447.936 339.88C448.483 339.613 449.083 339.48 449.736 339.48ZM448.696 347.28C449.363 347.28 449.889 347.067 450.276 346.64C450.663 346.2 450.856 345.613 450.856 344.88C450.856 344.147 450.663 343.567 450.276 343.14C449.889 342.7 449.363 342.48 448.696 342.48C448.029 342.48 447.503 342.7 447.116 343.14C446.729 343.567 446.536 344.147 446.536 344.88C446.536 345.613 446.729 346.2 447.116 346.64C447.503 347.067 448.029 347.28 448.696 347.28ZM461.53 350.28C459.997 350.28 458.803 349.907 457.95 349.16C457.11 348.4 456.69 347.353 456.69 346.02V339.76H460.05V345.54C460.05 346.7 460.543 347.28 461.53 347.28C462.517 347.28 463.01 346.7 463.01 345.54V339.76H466.37V346.02C466.37 347.353 465.943 348.4 465.09 349.16C464.25 349.907 463.063 350.28 461.53 350.28ZM474.07 350.14C472.723 350.14 471.756 349.867 471.17 349.32C470.583 348.773 470.29 347.86 470.29 346.58V342.72H468.53V339.76H470.29V336.76H473.65V339.76H476.17V342.72H473.65V346C473.65 346.427 473.743 346.727 473.93 346.9C474.116 347.06 474.45 347.14 474.93 347.14C475.37 347.14 475.796 347.093 476.21 347V349.86C475.57 350.047 474.856 350.14 474.07 350.14ZM344.24 378.28C343.267 378.28 342.353 378.14 341.5 377.86C340.66 377.567 339.973 377.16 339.44 376.64L340.88 374.34C341.32 374.687 341.847 374.973 342.46 375.2C343.087 375.427 343.693 375.54 344.28 375.54C344.667 375.54 344.96 375.493 345.16 375.4C345.36 375.293 345.46 375.153 345.46 374.98C345.46 374.807 345.38 374.667 345.22 374.56C345.073 374.453 344.833 374.36 344.5 374.28L342.76 373.86C341.72 373.607 340.967 373.233 340.5 372.74C340.047 372.247 339.82 371.64 339.82 370.92C339.82 369.88 340.213 369.047 341 368.42C341.8 367.793 342.887 367.48 344.26 367.48C345.153 367.48 345.987 367.613 346.76 367.88C347.547 368.147 348.187 368.507 348.68 368.96L347.2 371.24C346.147 370.573 345.16 370.24 344.24 370.24C343.88 370.24 343.607 370.293 343.42 370.4C343.247 370.493 343.16 370.62 343.16 370.78C343.16 370.927 343.227 371.047 343.36 371.14C343.507 371.233 343.747 371.32 344.08 371.4L345.82 371.82C346.9 372.087 347.673 372.467 348.14 372.96C348.607 373.44 348.84 374.053 348.84 374.8C348.84 375.88 348.433 376.733 347.62 377.36C346.807 377.973 345.68 378.28 344.24 378.28ZM356.052 378.14C354.705 378.14 353.738 377.867 353.152 377.32C352.565 376.773 352.272 375.86 352.272 374.58V370.72H350.512V367.76H352.272V364.76H355.632V367.76H358.152V370.72H355.632V374C355.632 374.427 355.725 374.727 355.912 374.9C356.098 375.06 356.432 375.14 356.912 375.14C357.352 375.14 357.778 375.093 358.192 375V377.86C357.552 378.047 356.838 378.14 356.052 378.14ZM362.523 366.54C361.909 366.54 361.416 366.367 361.043 366.02C360.669 365.66 360.483 365.187 360.483 364.6C360.483 364.013 360.669 363.547 361.043 363.2C361.416 362.84 361.909 362.66 362.523 362.66C363.136 362.66 363.629 362.84 364.003 363.2C364.376 363.547 364.563 364.013 364.563 364.6C364.563 365.187 364.376 365.66 364.003 366.02C363.629 366.367 363.136 366.54 362.523 366.54ZM360.843 367.76H364.203V378H360.843V367.76ZM367.345 363.36H370.705V378H367.345V363.36ZM373.829 363.36H377.189V378H373.829V363.36ZM389.587 378.28C388.614 378.28 387.7 378.14 386.847 377.86C386.007 377.567 385.32 377.16 384.787 376.64L386.227 374.34C386.667 374.687 387.194 374.973 387.807 375.2C388.434 375.427 389.04 375.54 389.627 375.54C390.014 375.54 390.307 375.493 390.507 375.4C390.707 375.293 390.807 375.153 390.807 374.98C390.807 374.807 390.727 374.667 390.567 374.56C390.42 374.453 390.18 374.36 389.847 374.28L388.107 373.86C387.067 373.607 386.314 373.233 385.847 372.74C385.394 372.247 385.167 371.64 385.167 370.92C385.167 369.88 385.56 369.047 386.347 368.42C387.147 367.793 388.234 367.48 389.607 367.48C390.5 367.48 391.334 367.613 392.107 367.88C392.894 368.147 393.534 368.507 394.027 368.96L392.547 371.24C391.494 370.573 390.507 370.24 389.587 370.24C389.227 370.24 388.954 370.293 388.767 370.4C388.594 370.493 388.507 370.62 388.507 370.78C388.507 370.927 388.574 371.047 388.707 371.14C388.854 371.233 389.094 371.32 389.427 371.4L391.167 371.82C392.247 372.087 393.02 372.467 393.487 372.96C393.954 373.44 394.187 374.053 394.187 374.8C394.187 375.88 393.78 376.733 392.967 377.36C392.154 377.973 391.027 378.28 389.587 378.28ZM401.398 378.14C400.052 378.14 399.085 377.867 398.498 377.32C397.912 376.773 397.618 375.86 397.618 374.58V370.72H395.858V367.76H397.618V364.76H400.978V367.76H403.498V370.72H400.978V374C400.978 374.427 401.072 374.727 401.258 374.9C401.445 375.06 401.778 375.14 402.258 375.14C402.698 375.14 403.125 375.093 403.538 375V377.86C402.898 378.047 402.185 378.14 401.398 378.14ZM410.849 378.28C409.316 378.28 408.123 377.907 407.269 377.16C406.429 376.4 406.009 375.353 406.009 374.02V367.76H409.369V373.54C409.369 374.7 409.863 375.28 410.849 375.28C411.836 375.28 412.329 374.7 412.329 373.54V367.76H415.689V374.02C415.689 375.353 415.263 376.4 414.409 377.16C413.569 377.907 412.383 378.28 410.849 378.28ZM423.529 378.28C422.462 378.28 421.516 378.053 420.689 377.6C419.876 377.147 419.242 376.513 418.789 375.7C418.349 374.873 418.129 373.933 418.129 372.88C418.129 371.827 418.349 370.893 418.789 370.08C419.242 369.253 419.876 368.613 420.689 368.16C421.516 367.707 422.462 367.48 423.529 367.48C424.569 367.48 425.489 367.693 426.289 368.12C427.102 368.547 427.722 369.14 428.149 369.9L425.689 371.64C425.169 370.893 424.489 370.52 423.649 370.52C423.009 370.52 422.496 370.733 422.109 371.16C421.722 371.587 421.529 372.16 421.529 372.88C421.529 373.6 421.722 374.173 422.109 374.6C422.496 375.027 423.009 375.24 423.649 375.24C424.489 375.24 425.169 374.867 425.689 374.12L428.149 375.86C427.722 376.62 427.102 377.213 426.289 377.64C425.489 378.067 424.569 378.28 423.529 378.28ZM434.448 374.1H433.668V378H430.308V363.36H433.668V371.18H434.508L436.948 367.76H440.908L437.288 372.62L440.988 378H437.028L434.448 374.1ZM444.507 372.06C444.507 371.593 444.547 371.227 444.627 370.96C444.707 370.68 444.854 370.413 445.067 370.16C445.281 369.907 445.627 369.58 446.107 369.18L446.967 368.46C447.394 368.1 447.607 367.753 447.607 367.42C447.607 367.167 447.514 366.973 447.327 366.84C447.154 366.707 446.907 366.64 446.587 366.64C445.707 366.64 444.934 367.18 444.267 368.26L441.867 366.64C442.321 365.747 442.954 365.04 443.767 364.52C444.594 363.987 445.554 363.72 446.647 363.72C447.447 363.72 448.167 363.867 448.807 364.16C449.447 364.453 449.947 364.873 450.307 365.42C450.667 365.967 450.847 366.6 450.847 367.32C450.847 367.867 450.721 368.373 450.467 368.84C450.214 369.307 449.767 369.807 449.127 370.34L448.387 370.96C448.067 371.227 447.867 371.433 447.787 371.58C447.707 371.727 447.667 371.96 447.667 372.28V373H444.507V372.06ZM446.087 378.28C445.434 378.28 444.914 378.087 444.527 377.7C444.141 377.313 443.947 376.793 443.947 376.14C443.947 375.473 444.141 374.953 444.527 374.58C444.914 374.193 445.434 374 446.087 374C446.754 374 447.274 374.193 447.647 374.58C448.034 374.953 448.227 375.473 448.227 376.14C448.227 376.793 448.034 377.313 447.647 377.7C447.274 378.087 446.754 378.28 446.087 378.28Z" fill="white"/>
<path d="M193.091 208.816C199.506 204.952 207.854 207.008 211.718 213.448C215.582 219.863 213.526 228.211 207.086 232.075C200.671 235.939 192.323 233.883 188.459 227.443C184.595 221.052 186.676 212.705 193.091 208.816Z" fill="#FCC9A7"/>
<path d="M208.473 209.782C208.027 209.435 184.199 181.446 184.199 181.446L174.464 193.236L195.965 220.458L208.473 209.782Z" fill="#FCC9A7"/>
<path d="M188.385 428.003L182.316 455.72L163.145 452.847L169.337 425.501L188.385 428.003Z" fill="#FCC9A7"/>
<path d="M274.336 425.526L274.559 453.912L255.263 455.348L255.214 427.309L274.336 425.526Z" fill="#FCC9A7"/>
<path d="M184.744 451.212C184.348 450.048 182.936 449.552 181.92 450.295C179.939 451.732 176.446 453.416 171.393 452.822C166.142 452.203 164.259 449.428 163.615 447.447C163.269 446.406 162.154 445.862 161.138 446.258L128.616 459.287C126.634 460.079 125.049 461.615 124.232 463.572C123.439 465.405 124.777 467.461 126.783 467.461L182.044 467.857C184.224 467.882 185.958 466.074 185.859 463.894L185.388 453.218C185.388 453.045 185.338 452.871 185.289 452.698L184.744 451.212Z" fill="#0C0C0C"/>
<path d="M253.306 451.212C253.703 450.048 255.139 449.552 256.13 450.295C258.112 451.732 261.604 453.416 266.657 452.822C271.908 452.203 273.766 449.428 274.435 447.447C274.782 446.406 275.896 445.862 276.912 446.258L309.434 459.287C311.416 460.079 313.001 461.615 313.819 463.572C314.611 465.405 313.274 467.461 311.267 467.461L256.006 467.857C253.827 467.882 252.093 466.074 252.192 463.894L252.662 453.218C252.662 453.045 252.712 452.871 252.761 452.698L253.306 451.212Z" fill="#0C0C0C"/>
<path d="M253.059 69.6601L235.893 71.1463L208.597 86.5282V195.911H281.445V86.5282L253.059 69.6601Z" fill="#54585A"/>
<path d="M248.352 80.6829H243.423C238.321 80.6829 234.184 76.5464 234.184 71.4438V52.9161H257.567V71.4438C257.592 76.5464 253.455 80.6829 248.352 80.6829Z" fill="#FCC9A7"/>
<path d="M234.184 62.3533C234.184 62.3533 237.825 69.6604 246.098 69.6604C254.371 69.6604 257.567 62.2047 257.567 62.2047L234.184 62.3533Z" fill="#F4BE9A"/>
<path d="M246.148 65.375H245.38C233.466 65.375 223.657 55.9626 223.186 44.0484L222.765 32.1837C222.27 19.576 232.351 9.09839 244.959 9.09839H246.569C256.105 9.09839 269.258 19.576 268.762 32.1837L268.341 44.0484C267.871 55.9626 258.062 65.375 246.148 65.375Z" fill="#FCC9A7"/>
<path d="M229.998 41.1751C230.271 45.1877 227.249 48.6555 223.236 48.928C219.223 49.2004 215.756 46.1785 215.483 42.1658C215.211 38.1532 218.233 34.6854 222.245 34.4129C226.258 34.1652 229.726 37.1871 229.998 41.1751Z" fill="#FCC9A7"/>
<path d="M276.02 41.1751C276.292 45.1877 273.27 48.6555 269.258 48.928C265.245 49.2004 261.777 46.1785 261.505 42.1658C261.232 38.1532 264.254 34.6854 268.267 34.4129C272.28 34.1652 275.748 37.1871 276.02 41.1751Z" fill="#FCC9A7"/>
<path d="M208.597 195.391L163.293 436.226L189.326 435.979L255.56 195.861L208.597 195.391Z" fill="#0C0C0C"/>
<path d="M281.445 195.911L278.596 436.474H251.077L240.104 197.422L281.445 195.911Z" fill="#0C0C0C"/>
<path d="M208.597 86.5284C208.597 86.5284 147.763 123.237 132.976 148.7C130.077 153.679 133.842 160.119 138.945 162.769C144.592 165.717 151.553 163.711 154.798 158.237L211.074 125.59C211.099 125.59 208.597 97.5509 208.597 86.5284Z" fill="#54585A"/>
<path d="M221.502 18.7091L223.211 36.9395H225.961L226.308 27.3784C226.308 27.3784 227.744 23.7125 234.16 15.8358C234.16 15.8358 238.346 26.5363 264.279 24.4556L265.79 36.5432L268.465 36.246L269.877 23.2667C270.819 18.8825 271.141 14.7955 270.348 10.3865C268.738 1.46939 261.48 -3.45977 240.525 2.83172C238.791 3.35188 242.334 3.00511 240.525 2.83172C234.531 2.16294 218.728 2.08863 221.502 18.7091Z" fill="#2E2A33"/>
<path d="M252.365 194.177L246.47 257.241C246.247 259.619 247.857 261.773 250.21 262.219L322.537 276.041C325.188 276.561 327.714 274.679 328.012 272.003L334.625 212.061C334.873 209.732 333.362 207.578 331.058 207.033L258.013 190.09C255.288 189.446 252.637 191.378 252.365 194.177Z" fill="#AFAFAF"/>
<path d="M256.378 195.292L250.483 258.355C250.26 260.733 251.869 262.888 254.223 263.334L326.55 277.155C329.2 277.651 331.727 275.793 332.024 273.118L338.638 213.175C338.885 210.847 337.374 208.692 335.071 208.147L262.025 191.205C259.325 190.561 256.65 192.493 256.378 195.292Z" fill="#D1D1D1"/>
<path d="M294.028 259.668C301.211 261.798 305.323 269.353 303.193 276.536C301.062 283.72 293.508 287.831 286.324 285.726C279.141 283.596 275.029 276.041 277.135 268.858C279.29 261.65 286.82 257.538 294.028 259.668Z" fill="#FCC9A7"/>
<path d="M303.713 271.657C303.663 271.087 301.335 233.289 301.335 233.289L288.479 235.617L290.188 267.842L303.713 271.657Z" fill="#FCC9A7"/>
<path d="M281.445 86.5284C281.445 86.5284 300.913 100.474 302.152 120.339L308.245 166.782C308.592 169.507 308.741 172.231 308.642 174.981L306.288 245.624H279.562L279.067 169.16L281.445 86.5284Z" fill="#54585A"/>
<path d="M237.949 69.6601C235.869 71.171 225.837 76.8185 225.837 76.8185C225.837 76.8185 226.109 90.9372 247.362 89.7978C266.063 88.807 265.939 77.3387 265.939 77.3387L253.034 69.6601H237.949Z" fill="#FCC9A7"/>
<path d="M162.947 139.536L199.308 197.645L182.069 213.968L133.074 156.775L162.947 139.536Z" fill="#54585A"/>
<path d="M279.042 195.143V169.135L272.998 121.701" stroke="#424647" stroke-width="0.7693" stroke-miterlimit="10" stroke-linecap="round" stroke-linejoin="round"/>
<defs>
<filter id="filter0_d" x="0" y="25" width="608" height="597.918" filterUnits="userSpaceOnUse" color-interpolation-filters="sRGB">
<feFlood flood-opacity="0" result="BackgroundImageFix"/>
<feColorMatrix in="SourceAlpha" type="matrix" values="0 0 0 0 0 0 0 0 0 0 0 0 0 0 0 0 0 0 127 0"/>
<feOffset dx="16" dy="16"/>
<feGaussianBlur stdDeviation="8"/>
<feColorMatrix type="matrix" values="0 0 0 0 0.227451 0 0 0 0 0.25098 0 0 0 0 0.356863 0 0 0 0.16 0"/>
<feBlend mode="normal" in2="BackgroundImageFix" result="effect1_dropShadow"/>
<feBlend mode="normal" in="SourceGraphic" in2="effect1_dropShadow" result="shape"/>
</filter>
</defs>
</svg>
