<svg width="576" height="591" viewBox="0 0 576 591" fill="none" xmlns="http://www.w3.org/2000/svg">
<g filter="url(#filter0_d)">
<path fill-rule="evenodd" clip-rule="evenodd" d="M404.94 151.635C459.578 190.744 509.392 240.796 517.146 301.412C524.303 357.367 483.653 400.122 441.1 434.315C404.454 463.762 356.669 472.022 305.285 471.652C238.517 471.171 154.463 486.591 114.46 431.962C74.5489 377.459 140.156 322.717 152.728 263.32C167.154 195.165 125.621 97.4259 191.438 68.2806C258.191 38.7209 339.409 104.73 404.94 151.635Z" fill="#08ADB8"/>
</g>
<path d="M315.14 288C316.487 288 317.68 288.28 318.72 288.84C319.773 289.387 320.593 290.187 321.18 291.24C321.767 292.293 322.06 293.547 322.06 295C322.06 296.453 321.767 297.707 321.18 298.76C320.593 299.813 319.773 300.62 318.72 301.18C317.68 301.727 316.487 302 315.14 302H309.36V288H315.14ZM315.14 298.78C316.207 298.78 317.02 298.467 317.58 297.84C318.14 297.213 318.42 296.267 318.42 295C318.42 293.733 318.14 292.787 317.58 292.16C317.02 291.533 316.207 291.22 315.14 291.22H312.84V298.78H315.14ZM329.824 302.28C328.718 302.28 327.744 302.047 326.904 301.58C326.064 301.1 325.411 300.453 324.944 299.64C324.491 298.813 324.264 297.893 324.264 296.88C324.264 295.867 324.491 294.953 324.944 294.14C325.411 293.313 326.064 292.667 326.904 292.2C327.744 291.72 328.718 291.48 329.824 291.48C330.931 291.48 331.904 291.72 332.744 292.2C333.584 292.667 334.231 293.313 334.684 294.14C335.151 294.953 335.384 295.867 335.384 296.88C335.384 297.893 335.151 298.813 334.684 299.64C334.231 300.453 333.584 301.1 332.744 301.58C331.904 302.047 330.931 302.28 329.824 302.28ZM329.824 299.28C330.491 299.28 331.018 299.067 331.404 298.64C331.791 298.2 331.984 297.613 331.984 296.88C331.984 296.147 331.791 295.567 331.404 295.14C331.018 294.7 330.491 294.48 329.824 294.48C329.158 294.48 328.631 294.7 328.244 295.14C327.858 295.567 327.664 296.147 327.664 296.88C327.664 297.613 327.858 298.2 328.244 298.64C328.631 299.067 329.158 299.28 329.824 299.28ZM352.721 291.76V300.92C352.721 302.64 352.234 303.96 351.261 304.88C350.288 305.813 348.888 306.28 347.061 306.28C346.168 306.28 345.328 306.167 344.541 305.94C343.768 305.727 343.128 305.413 342.621 305L343.901 302.48C344.328 302.76 344.794 302.973 345.301 303.12C345.821 303.28 346.321 303.36 346.801 303.36C347.628 303.36 348.274 303.14 348.741 302.7C349.208 302.273 349.441 301.68 349.441 300.92V300.2C349.148 300.693 348.734 301.087 348.201 301.38C347.681 301.66 347.081 301.8 346.401 301.8C345.361 301.8 344.534 301.473 343.921 300.82C343.308 300.153 343.001 299.227 343.001 298.04V291.76H346.361V297.16C346.361 297.693 346.474 298.093 346.701 298.36C346.941 298.627 347.301 298.76 347.781 298.76C348.861 298.76 349.401 298.147 349.401 296.92V291.76H352.721ZM360.877 302.28C359.77 302.28 358.797 302.047 357.957 301.58C357.117 301.1 356.463 300.453 355.997 299.64C355.543 298.813 355.317 297.893 355.317 296.88C355.317 295.867 355.543 294.953 355.997 294.14C356.463 293.313 357.117 292.667 357.957 292.2C358.797 291.72 359.77 291.48 360.877 291.48C361.983 291.48 362.957 291.72 363.797 292.2C364.637 292.667 365.283 293.313 365.737 294.14C366.203 294.953 366.437 295.867 366.437 296.88C366.437 297.893 366.203 298.813 365.737 299.64C365.283 300.453 364.637 301.1 363.797 301.58C362.957 302.047 361.983 302.28 360.877 302.28ZM360.877 299.28C361.543 299.28 362.07 299.067 362.457 298.64C362.843 298.2 363.037 297.613 363.037 296.88C363.037 296.147 362.843 295.567 362.457 295.14C362.07 294.7 361.543 294.48 360.877 294.48C360.21 294.48 359.683 294.7 359.297 295.14C358.91 295.567 358.717 296.147 358.717 296.88C358.717 297.613 358.91 298.2 359.297 298.64C359.683 299.067 360.21 299.28 360.877 299.28ZM373.719 302.28C372.186 302.28 370.992 301.907 370.139 301.16C369.299 300.4 368.879 299.353 368.879 298.02V291.76H372.239V297.54C372.239 298.7 372.732 299.28 373.719 299.28C374.706 299.28 375.199 298.7 375.199 297.54V291.76H378.559V298.02C378.559 299.353 378.132 300.4 377.279 301.16C376.439 301.907 375.252 302.28 373.719 302.28ZM387.46 294.72H385.66V291.76H387.46V290.7C387.46 288.353 388.807 287.18 391.5 287.18C392.1 287.18 392.7 287.24 393.3 287.36V290.2C392.873 290.133 392.52 290.1 392.24 290.1C391.733 290.1 391.367 290.187 391.14 290.36C390.927 290.52 390.82 290.767 390.82 291.1V291.76H393.3V294.72H390.82V302H387.46V294.72ZM405.225 296.86C405.225 297.18 405.205 297.513 405.165 297.86H398.225C398.372 298.42 398.638 298.833 399.025 299.1C399.425 299.353 399.945 299.48 400.585 299.48C401.572 299.48 402.372 299.18 402.985 298.58L404.805 300.58C404.325 301.127 403.712 301.547 402.965 301.84C402.232 302.133 401.398 302.28 400.465 302.28C399.332 302.28 398.338 302.067 397.485 301.64C396.632 301.2 395.972 300.58 395.505 299.78C395.052 298.98 394.825 298.033 394.825 296.94C394.825 295.873 395.045 294.927 395.485 294.1C395.925 293.273 396.545 292.633 397.345 292.18C398.145 291.713 399.072 291.48 400.125 291.48C401.152 291.48 402.045 291.7 402.805 292.14C403.578 292.58 404.172 293.207 404.585 294.02C405.012 294.833 405.225 295.78 405.225 296.86ZM400.145 294.26C399.052 294.26 398.398 294.78 398.185 295.82H401.905C401.825 294.78 401.238 294.26 400.145 294.26ZM417.666 296.86C417.666 297.18 417.646 297.513 417.606 297.86H410.666C410.812 298.42 411.079 298.833 411.466 299.1C411.866 299.353 412.386 299.48 413.026 299.48C414.012 299.48 414.812 299.18 415.426 298.58L417.246 300.58C416.766 301.127 416.152 301.547 415.406 301.84C414.672 302.133 413.839 302.28 412.906 302.28C411.772 302.28 410.779 302.067 409.926 301.64C409.072 301.2 408.412 300.58 407.946 299.78C407.492 298.98 407.266 298.033 407.266 296.94C407.266 295.873 407.486 294.927 407.926 294.1C408.366 293.273 408.986 292.633 409.786 292.18C410.586 291.713 411.512 291.48 412.566 291.48C413.592 291.48 414.486 291.7 415.246 292.14C416.019 292.58 416.612 293.207 417.026 294.02C417.452 294.833 417.666 295.78 417.666 296.86ZM412.586 294.26C411.492 294.26 410.839 294.78 410.626 295.82H414.346C414.266 294.78 413.679 294.26 412.586 294.26ZM420.226 287.36H423.586V302H420.226V287.36ZM431.905 287.36H435.265V302H431.905V287.36ZM440.088 290.54C439.475 290.54 438.981 290.367 438.608 290.02C438.235 289.66 438.048 289.187 438.048 288.6C438.048 288.013 438.235 287.547 438.608 287.2C438.981 286.84 439.475 286.66 440.088 286.66C440.701 286.66 441.195 286.84 441.568 287.2C441.941 287.547 442.128 288.013 442.128 288.6C442.128 289.187 441.941 289.66 441.568 290.02C441.195 290.367 440.701 290.54 440.088 290.54ZM438.408 291.76H441.768V302H438.408V291.76ZM449.051 298.1H448.271V302H444.911V287.36H448.271V295.18H449.111L451.551 291.76H455.511L451.891 296.62L455.591 302H451.631L449.051 298.1ZM466.88 296.86C466.88 297.18 466.86 297.513 466.82 297.86H459.88C460.027 298.42 460.293 298.833 460.68 299.1C461.08 299.353 461.6 299.48 462.24 299.48C463.227 299.48 464.027 299.18 464.64 298.58L466.46 300.58C465.98 301.127 465.367 301.547 464.62 301.84C463.887 302.133 463.053 302.28 462.12 302.28C460.987 302.28 459.993 302.067 459.14 301.64C458.287 301.2 457.627 300.58 457.16 299.78C456.707 298.98 456.48 298.033 456.48 296.94C456.48 295.873 456.7 294.927 457.14 294.1C457.58 293.273 458.2 292.633 459 292.18C459.8 291.713 460.727 291.48 461.78 291.48C462.807 291.48 463.7 291.7 464.46 292.14C465.233 292.58 465.827 293.207 466.24 294.02C466.667 294.833 466.88 295.78 466.88 296.86ZM461.8 294.26C460.707 294.26 460.053 294.78 459.84 295.82H463.56C463.48 294.78 462.893 294.26 461.8 294.26ZM318.7 319.76V328.92C318.7 330.64 318.213 331.96 317.24 332.88C316.267 333.813 314.867 334.28 313.04 334.28C312.147 334.28 311.307 334.167 310.52 333.94C309.747 333.727 309.107 333.413 308.6 333L309.88 330.48C310.307 330.76 310.773 330.973 311.28 331.12C311.8 331.28 312.3 331.36 312.78 331.36C313.607 331.36 314.253 331.14 314.72 330.7C315.187 330.273 315.42 329.68 315.42 328.92V328.2C315.127 328.693 314.713 329.087 314.18 329.38C313.66 329.66 313.06 329.8 312.38 329.8C311.34 329.8 310.513 329.473 309.9 328.82C309.287 328.153 308.98 327.227 308.98 326.04V319.76H312.34V325.16C312.34 325.693 312.453 326.093 312.68 326.36C312.92 326.627 313.28 326.76 313.76 326.76C314.84 326.76 315.38 326.147 315.38 324.92V319.76H318.7ZM326.855 330.28C325.749 330.28 324.775 330.047 323.935 329.58C323.095 329.1 322.442 328.453 321.975 327.64C321.522 326.813 321.295 325.893 321.295 324.88C321.295 323.867 321.522 322.953 321.975 322.14C322.442 321.313 323.095 320.667 323.935 320.2C324.775 319.72 325.749 319.48 326.855 319.48C327.962 319.48 328.935 319.72 329.775 320.2C330.615 320.667 331.262 321.313 331.715 322.14C332.182 322.953 332.415 323.867 332.415 324.88C332.415 325.893 332.182 326.813 331.715 327.64C331.262 328.453 330.615 329.1 329.775 329.58C328.935 330.047 327.962 330.28 326.855 330.28ZM326.855 327.28C327.522 327.28 328.049 327.067 328.435 326.64C328.822 326.2 329.015 325.613 329.015 324.88C329.015 324.147 328.822 323.567 328.435 323.14C328.049 322.7 327.522 322.48 326.855 322.48C326.189 322.48 325.662 322.7 325.275 323.14C324.889 323.567 324.695 324.147 324.695 324.88C324.695 325.613 324.889 326.2 325.275 326.64C325.662 327.067 326.189 327.28 326.855 327.28ZM339.698 330.28C338.164 330.28 336.971 329.907 336.118 329.16C335.278 328.4 334.858 327.353 334.858 326.02V319.76H338.218V325.54C338.218 326.7 338.711 327.28 339.698 327.28C340.684 327.28 341.178 326.7 341.178 325.54V319.76H344.538V326.02C344.538 327.353 344.111 328.4 343.258 329.16C342.418 329.907 341.231 330.28 339.698 330.28ZM353.678 319.56C353.971 319.56 354.251 319.6 354.518 319.68V322.94C354.064 322.847 353.598 322.8 353.118 322.8C352.304 322.8 351.724 322.98 351.378 323.34C351.031 323.7 350.858 324.313 350.858 325.18V330H347.498V319.76H350.778V321.32C351.044 320.773 351.431 320.347 351.938 320.04C352.444 319.72 353.024 319.56 353.678 319.56ZM368.506 319.48C369.373 319.48 370.146 319.707 370.826 320.16C371.52 320.613 372.06 321.253 372.446 322.08C372.833 322.893 373.026 323.827 373.026 324.88C373.026 325.933 372.833 326.873 372.446 327.7C372.06 328.513 371.52 329.147 370.826 329.6C370.146 330.053 369.373 330.28 368.506 330.28C367.853 330.28 367.253 330.147 366.706 329.88C366.16 329.613 365.733 329.233 365.426 328.74V334H362.066V319.76H365.346V321.14C365.64 320.607 366.066 320.2 366.626 319.92C367.186 319.627 367.813 319.48 368.506 319.48ZM367.466 327.28C368.133 327.28 368.66 327.067 369.046 326.64C369.433 326.2 369.626 325.613 369.626 324.88C369.626 324.147 369.433 323.567 369.046 323.14C368.66 322.7 368.133 322.48 367.466 322.48C366.8 322.48 366.273 322.7 365.886 323.14C365.5 323.567 365.306 324.147 365.306 324.88C365.306 325.613 365.5 326.2 365.886 326.64C366.273 327.067 366.8 327.28 367.466 327.28ZM381.8 319.56C382.093 319.56 382.373 319.6 382.64 319.68V322.94C382.187 322.847 381.72 322.8 381.24 322.8C380.427 322.8 379.847 322.98 379.5 323.34C379.153 323.7 378.98 324.313 378.98 325.18V330H375.62V319.76H378.9V321.32C379.167 320.773 379.553 320.347 380.06 320.04C380.567 319.72 381.147 319.56 381.8 319.56ZM394.562 324.86C394.562 325.18 394.542 325.513 394.502 325.86H387.562C387.709 326.42 387.975 326.833 388.362 327.1C388.762 327.353 389.282 327.48 389.922 327.48C390.909 327.48 391.709 327.18 392.322 326.58L394.142 328.58C393.662 329.127 393.049 329.547 392.302 329.84C391.569 330.133 390.735 330.28 389.802 330.28C388.669 330.28 387.675 330.067 386.822 329.64C385.969 329.2 385.309 328.58 384.842 327.78C384.389 326.98 384.162 326.033 384.162 324.94C384.162 323.873 384.382 322.927 384.822 322.1C385.262 321.273 385.882 320.633 386.682 320.18C387.482 319.713 388.409 319.48 389.462 319.48C390.489 319.48 391.382 319.7 392.142 320.14C392.915 320.58 393.509 321.207 393.922 322.02C394.349 322.833 394.562 323.78 394.562 324.86ZM389.482 322.26C388.389 322.26 387.735 322.78 387.522 323.82H391.242C391.162 322.78 390.575 322.26 389.482 322.26ZM401.203 330.28C400.229 330.28 399.316 330.14 398.463 329.86C397.623 329.567 396.936 329.16 396.403 328.64L397.843 326.34C398.283 326.687 398.809 326.973 399.423 327.2C400.049 327.427 400.656 327.54 401.243 327.54C401.629 327.54 401.923 327.493 402.123 327.4C402.323 327.293 402.423 327.153 402.423 326.98C402.423 326.807 402.343 326.667 402.183 326.56C402.036 326.453 401.796 326.36 401.463 326.28L399.723 325.86C398.683 325.607 397.929 325.233 397.463 324.74C397.009 324.247 396.783 323.64 396.783 322.92C396.783 321.88 397.176 321.047 397.963 320.42C398.763 319.793 399.849 319.48 401.223 319.48C402.116 319.48 402.949 319.613 403.723 319.88C404.509 320.147 405.149 320.507 405.643 320.96L404.163 323.24C403.109 322.573 402.123 322.24 401.203 322.24C400.843 322.24 400.569 322.293 400.383 322.4C400.209 322.493 400.123 322.62 400.123 322.78C400.123 322.927 400.189 323.047 400.323 323.14C400.469 323.233 400.709 323.32 401.043 323.4L402.783 323.82C403.863 324.087 404.636 324.467 405.103 324.96C405.569 325.44 405.803 326.053 405.803 326.8C405.803 327.88 405.396 328.733 404.583 329.36C403.769 329.973 402.643 330.28 401.203 330.28ZM418.193 324.86C418.193 325.18 418.173 325.513 418.133 325.86H411.193C411.34 326.42 411.606 326.833 411.993 327.1C412.393 327.353 412.913 327.48 413.553 327.48C414.54 327.48 415.34 327.18 415.953 326.58L417.773 328.58C417.293 329.127 416.68 329.547 415.933 329.84C415.2 330.133 414.366 330.28 413.433 330.28C412.3 330.28 411.306 330.067 410.453 329.64C409.6 329.2 408.94 328.58 408.473 327.78C408.02 326.98 407.793 326.033 407.793 324.94C407.793 323.873 408.013 322.927 408.453 322.1C408.893 321.273 409.513 320.633 410.313 320.18C411.113 319.713 412.04 319.48 413.093 319.48C414.12 319.48 415.013 319.7 415.773 320.14C416.546 320.58 417.14 321.207 417.553 322.02C417.98 322.833 418.193 323.78 418.193 324.86ZM413.113 322.26C412.02 322.26 411.366 322.78 411.153 323.82H414.873C414.793 322.78 414.206 322.26 413.113 322.26ZM427.174 319.48C428.24 319.48 429.08 319.813 429.694 320.48C430.32 321.133 430.634 322.053 430.634 323.24V330H427.274V324.12C427.274 323.587 427.154 323.187 426.914 322.92C426.674 322.653 426.3 322.52 425.794 322.52C424.674 322.52 424.114 323.133 424.114 324.36V330H420.754V319.76H424.034V321.14C424.327 320.633 424.74 320.233 425.274 319.94C425.82 319.633 426.454 319.48 427.174 319.48ZM438.305 330.14C436.959 330.14 435.992 329.867 435.405 329.32C434.819 328.773 434.525 327.86 434.525 326.58V322.72H432.765V319.76H434.525V316.76H437.885V319.76H440.405V322.72H437.885V326C437.885 326.427 437.979 326.727 438.165 326.9C438.352 327.06 438.685 327.14 439.165 327.14C439.605 327.14 440.032 327.093 440.445 327V329.86C439.805 330.047 439.092 330.14 438.305 330.14ZM314.04 358.28C312.973 358.28 312.027 358.053 311.2 357.6C310.387 357.147 309.753 356.513 309.3 355.7C308.86 354.873 308.64 353.933 308.64 352.88C308.64 351.827 308.86 350.893 309.3 350.08C309.753 349.253 310.387 348.613 311.2 348.16C312.027 347.707 312.973 347.48 314.04 347.48C315.08 347.48 316 347.693 316.8 348.12C317.613 348.547 318.233 349.14 318.66 349.9L316.2 351.64C315.68 350.893 315 350.52 314.16 350.52C313.52 350.52 313.007 350.733 312.62 351.16C312.233 351.587 312.04 352.16 312.04 352.88C312.04 353.6 312.233 354.173 312.62 354.6C313.007 355.027 313.52 355.24 314.16 355.24C315 355.24 315.68 354.867 316.2 354.12L318.66 355.86C318.233 356.62 317.613 357.213 316.8 357.64C316 358.067 315.08 358.28 314.04 358.28ZM331.181 347.76V358H327.901V356.62C327.608 357.153 327.181 357.567 326.621 357.86C326.061 358.14 325.435 358.28 324.741 358.28C323.875 358.28 323.095 358.053 322.401 357.6C321.721 357.147 321.188 356.513 320.801 355.7C320.415 354.873 320.221 353.933 320.221 352.88C320.221 351.827 320.415 350.893 320.801 350.08C321.188 349.253 321.721 348.613 322.401 348.16C323.095 347.707 323.875 347.48 324.741 347.48C325.435 347.48 326.061 347.627 326.621 347.92C327.181 348.2 327.608 348.607 327.901 349.14V347.76H331.181ZM325.781 355.28C326.448 355.28 326.975 355.067 327.361 354.64C327.748 354.2 327.941 353.613 327.941 352.88C327.941 352.147 327.748 351.567 327.361 351.14C326.975 350.7 326.448 350.48 325.781 350.48C325.115 350.48 324.588 350.7 324.201 351.14C323.815 351.567 323.621 352.147 323.621 352.88C323.621 353.613 323.815 354.2 324.201 354.64C324.588 355.067 325.115 355.28 325.781 355.28ZM340.475 347.56C340.768 347.56 341.048 347.6 341.315 347.68V350.94C340.862 350.847 340.395 350.8 339.915 350.8C339.102 350.8 338.522 350.98 338.175 351.34C337.828 351.7 337.655 352.313 337.655 353.18V358H334.295V347.76H337.575V349.32C337.842 348.773 338.228 348.347 338.735 348.04C339.242 347.72 339.822 347.56 340.475 347.56ZM353.237 352.86C353.237 353.18 353.217 353.513 353.177 353.86H346.237C346.384 354.42 346.65 354.833 347.037 355.1C347.437 355.353 347.957 355.48 348.597 355.48C349.584 355.48 350.384 355.18 350.997 354.58L352.817 356.58C352.337 357.127 351.724 357.547 350.977 357.84C350.244 358.133 349.41 358.28 348.477 358.28C347.344 358.28 346.35 358.067 345.497 357.64C344.644 357.2 343.984 356.58 343.517 355.78C343.064 354.98 342.837 354.033 342.837 352.94C342.837 351.873 343.057 350.927 343.497 350.1C343.937 349.273 344.557 348.633 345.357 348.18C346.157 347.713 347.084 347.48 348.137 347.48C349.164 347.48 350.057 347.7 350.817 348.14C351.59 348.58 352.184 349.207 352.597 350.02C353.024 350.833 353.237 351.78 353.237 352.86ZM348.157 350.26C347.064 350.26 346.41 350.78 346.197 351.82H349.917C349.837 350.78 349.25 350.26 348.157 350.26ZM365.678 352.86C365.678 353.18 365.658 353.513 365.618 353.86H358.678C358.824 354.42 359.091 354.833 359.478 355.1C359.878 355.353 360.398 355.48 361.038 355.48C362.024 355.48 362.824 355.18 363.438 354.58L365.258 356.58C364.778 357.127 364.164 357.547 363.418 357.84C362.684 358.133 361.851 358.28 360.918 358.28C359.784 358.28 358.791 358.067 357.938 357.64C357.084 357.2 356.424 356.58 355.958 355.78C355.504 354.98 355.278 354.033 355.278 352.94C355.278 351.873 355.498 350.927 355.938 350.1C356.378 349.273 356.998 348.633 357.798 348.18C358.598 347.713 359.524 347.48 360.578 347.48C361.604 347.48 362.498 347.7 363.258 348.14C364.031 348.58 364.624 349.207 365.038 350.02C365.464 350.833 365.678 351.78 365.678 352.86ZM360.598 350.26C359.504 350.26 358.851 350.78 358.638 351.82H362.358C362.278 350.78 361.691 350.26 360.598 350.26ZM374.418 347.56C374.711 347.56 374.991 347.6 375.258 347.68V350.94C374.805 350.847 374.338 350.8 373.858 350.8C373.045 350.8 372.465 350.98 372.118 351.34C371.771 351.7 371.598 352.313 371.598 353.18V358H368.238V347.76H371.518V349.32C371.785 348.773 372.171 348.347 372.678 348.04C373.185 347.72 373.765 347.56 374.418 347.56ZM387.254 358.14C385.907 358.14 384.941 357.867 384.354 357.32C383.767 356.773 383.474 355.86 383.474 354.58V350.72H381.714V347.76H383.474V344.76H386.834V347.76H389.354V350.72H386.834V354C386.834 354.427 386.927 354.727 387.114 354.9C387.301 355.06 387.634 355.14 388.114 355.14C388.554 355.14 388.981 355.093 389.394 355V357.86C388.754 358.047 388.041 358.14 387.254 358.14ZM398.205 347.56C398.498 347.56 398.778 347.6 399.045 347.68V350.94C398.592 350.847 398.125 350.8 397.645 350.8C396.832 350.8 396.252 350.98 395.905 351.34C395.558 351.7 395.385 352.313 395.385 353.18V358H392.025V347.76H395.305V349.32C395.572 348.773 395.958 348.347 396.465 348.04C396.972 347.72 397.552 347.56 398.205 347.56ZM411.527 347.76V358H408.247V356.62C407.953 357.153 407.527 357.567 406.967 357.86C406.407 358.14 405.78 358.28 405.087 358.28C404.22 358.28 403.44 358.053 402.747 357.6C402.067 357.147 401.533 356.513 401.147 355.7C400.76 354.873 400.567 353.933 400.567 352.88C400.567 351.827 400.76 350.893 401.147 350.08C401.533 349.253 402.067 348.613 402.747 348.16C403.44 347.707 404.22 347.48 405.087 347.48C405.78 347.48 406.407 347.627 406.967 347.92C407.527 348.2 407.953 348.607 408.247 349.14V347.76H411.527ZM406.127 355.28C406.793 355.28 407.32 355.067 407.707 354.64C408.093 354.2 408.287 353.613 408.287 352.88C408.287 352.147 408.093 351.567 407.707 351.14C407.32 350.7 406.793 350.48 406.127 350.48C405.46 350.48 404.933 350.7 404.547 351.14C404.16 351.567 403.967 352.147 403.967 352.88C403.967 353.613 404.16 354.2 404.547 354.64C404.933 355.067 405.46 355.28 406.127 355.28ZM419.52 358.28C418.454 358.28 417.507 358.053 416.68 357.6C415.867 357.147 415.234 356.513 414.78 355.7C414.34 354.873 414.12 353.933 414.12 352.88C414.12 351.827 414.34 350.893 414.78 350.08C415.234 349.253 415.867 348.613 416.68 348.16C417.507 347.707 418.454 347.48 419.52 347.48C420.56 347.48 421.48 347.693 422.28 348.12C423.094 348.547 423.714 349.14 424.14 349.9L421.68 351.64C421.16 350.893 420.48 350.52 419.64 350.52C419 350.52 418.487 350.733 418.1 351.16C417.714 351.587 417.52 352.16 417.52 352.88C417.52 353.6 417.714 354.173 418.1 354.6C418.487 355.027 419 355.24 419.64 355.24C420.48 355.24 421.16 354.867 421.68 354.12L424.14 355.86C423.714 356.62 423.094 357.213 422.28 357.64C421.48 358.067 420.56 358.28 419.52 358.28ZM430.44 354.1H429.66V358H426.3V343.36H429.66V351.18H430.5L432.94 347.76H436.9L433.28 352.62L436.98 358H433.02L430.44 354.1ZM313.84 386.28C312.307 386.28 311.113 385.907 310.26 385.16C309.42 384.4 309 383.353 309 382.02V375.76H312.36V381.54C312.36 382.7 312.853 383.28 313.84 383.28C314.827 383.28 315.32 382.7 315.32 381.54V375.76H318.68V382.02C318.68 383.353 318.253 384.4 317.4 385.16C316.56 385.907 315.373 386.28 313.84 386.28ZM328.06 375.48C329.126 375.48 329.966 375.813 330.58 376.48C331.206 377.133 331.52 378.053 331.52 379.24V386H328.16V380.12C328.16 379.587 328.04 379.187 327.8 378.92C327.56 378.653 327.186 378.52 326.68 378.52C325.56 378.52 325 379.133 325 380.36V386H321.64V375.76H324.92V377.14C325.213 376.633 325.626 376.233 326.16 375.94C326.706 375.633 327.34 375.48 328.06 375.48ZM345.009 371.36V386H341.729V384.62C341.435 385.153 341.009 385.567 340.449 385.86C339.889 386.14 339.262 386.28 338.569 386.28C337.702 386.28 336.922 386.053 336.229 385.6C335.549 385.147 335.015 384.513 334.629 383.7C334.242 382.873 334.049 381.933 334.049 380.88C334.049 379.827 334.242 378.893 334.629 378.08C335.015 377.253 335.549 376.613 336.229 376.16C336.922 375.707 337.702 375.48 338.569 375.48C339.222 375.48 339.822 375.613 340.369 375.88C340.915 376.147 341.342 376.527 341.649 377.02V371.36H345.009ZM339.609 383.28C340.275 383.28 340.802 383.067 341.189 382.64C341.575 382.2 341.769 381.613 341.769 380.88C341.769 380.147 341.575 379.567 341.189 379.14C340.802 378.7 340.275 378.48 339.609 378.48C338.942 378.48 338.415 378.7 338.029 379.14C337.642 379.567 337.449 380.147 337.449 380.88C337.449 381.613 337.642 382.2 338.029 382.64C338.415 383.067 338.942 383.28 339.609 383.28ZM358.003 380.86C358.003 381.18 357.983 381.513 357.943 381.86H351.003C351.149 382.42 351.416 382.833 351.803 383.1C352.203 383.353 352.723 383.48 353.363 383.48C354.349 383.48 355.149 383.18 355.763 382.58L357.583 384.58C357.103 385.127 356.489 385.547 355.743 385.84C355.009 386.133 354.176 386.28 353.243 386.28C352.109 386.28 351.116 386.067 350.263 385.64C349.409 385.2 348.749 384.58 348.283 383.78C347.829 382.98 347.603 382.033 347.603 380.94C347.603 379.873 347.823 378.927 348.263 378.1C348.703 377.273 349.323 376.633 350.123 376.18C350.923 375.713 351.849 375.48 352.903 375.48C353.929 375.48 354.823 375.7 355.583 376.14C356.356 376.58 356.949 377.207 357.363 378.02C357.789 378.833 358.003 379.78 358.003 380.86ZM352.923 378.26C351.829 378.26 351.176 378.78 350.963 379.82H354.683C354.603 378.78 354.016 378.26 352.923 378.26ZM366.743 375.56C367.036 375.56 367.316 375.6 367.583 375.68V378.94C367.13 378.847 366.663 378.8 366.183 378.8C365.37 378.8 364.79 378.98 364.443 379.34C364.096 379.7 363.923 380.313 363.923 381.18V386H360.563V375.76H363.843V377.32C364.11 376.773 364.496 376.347 365.003 376.04C365.51 375.72 366.09 375.56 366.743 375.56ZM382.617 375.48C383.671 375.48 384.497 375.813 385.097 376.48C385.711 377.133 386.017 378.053 386.017 379.24V386H382.657V380.08C382.657 379.56 382.544 379.173 382.317 378.92C382.104 378.653 381.757 378.52 381.277 378.52C380.757 378.52 380.357 378.673 380.077 378.98C379.797 379.287 379.657 379.733 379.657 380.32V386H376.297V380.08C376.297 379.56 376.184 379.173 375.957 378.92C375.744 378.653 375.397 378.52 374.917 378.52C374.397 378.52 373.997 378.673 373.717 378.98C373.437 379.287 373.297 379.733 373.297 380.32V386H369.937V375.76H373.217V377.14C373.497 376.633 373.911 376.233 374.457 375.94C375.004 375.633 375.617 375.48 376.297 375.48C376.991 375.48 377.597 375.64 378.117 375.96C378.651 376.28 379.037 376.733 379.277 377.32C379.544 376.76 379.977 376.313 380.577 375.98C381.177 375.647 381.857 375.48 382.617 375.48ZM390.758 374.54C390.144 374.54 389.651 374.367 389.278 374.02C388.904 373.66 388.718 373.187 388.718 372.6C388.718 372.013 388.904 371.547 389.278 371.2C389.651 370.84 390.144 370.66 390.758 370.66C391.371 370.66 391.864 370.84 392.238 371.2C392.611 371.547 392.798 372.013 392.798 372.6C392.798 373.187 392.611 373.66 392.238 374.02C391.864 374.367 391.371 374.54 390.758 374.54ZM389.078 375.76H392.438V386H389.078V375.76ZM402 375.48C403.067 375.48 403.907 375.813 404.52 376.48C405.147 377.133 405.46 378.053 405.46 379.24V386H402.1V380.12C402.1 379.587 401.98 379.187 401.74 378.92C401.5 378.653 401.127 378.52 400.62 378.52C399.5 378.52 398.94 379.133 398.94 380.36V386H395.58V375.76H398.86V377.14C399.154 376.633 399.567 376.233 400.1 375.94C400.647 375.633 401.28 375.48 402 375.48ZM418.389 380.86C418.389 381.18 418.369 381.513 418.329 381.86H411.389C411.536 382.42 411.803 382.833 412.189 383.1C412.589 383.353 413.109 383.48 413.749 383.48C414.736 383.48 415.536 383.18 416.149 382.58L417.969 384.58C417.489 385.127 416.876 385.547 416.129 385.84C415.396 386.133 414.563 386.28 413.629 386.28C412.496 386.28 411.503 386.067 410.649 385.64C409.796 385.2 409.136 384.58 408.669 383.78C408.216 382.98 407.989 382.033 407.989 380.94C407.989 379.873 408.209 378.927 408.649 378.1C409.089 377.273 409.709 376.633 410.509 376.18C411.309 375.713 412.236 375.48 413.289 375.48C414.316 375.48 415.209 375.7 415.969 376.14C416.743 376.58 417.336 377.207 417.749 378.02C418.176 378.833 418.389 379.78 418.389 380.86ZM413.309 378.26C412.216 378.26 411.563 378.78 411.349 379.82H415.069C414.989 378.78 414.403 378.26 413.309 378.26ZM425.03 386.28C424.057 386.28 423.143 386.14 422.29 385.86C421.45 385.567 420.763 385.16 420.23 384.64L421.67 382.34C422.11 382.687 422.637 382.973 423.25 383.2C423.877 383.427 424.483 383.54 425.07 383.54C425.457 383.54 425.75 383.493 425.95 383.4C426.15 383.293 426.25 383.153 426.25 382.98C426.25 382.807 426.17 382.667 426.01 382.56C425.863 382.453 425.623 382.36 425.29 382.28L423.55 381.86C422.51 381.607 421.757 381.233 421.29 380.74C420.837 380.247 420.61 379.64 420.61 378.92C420.61 377.88 421.003 377.047 421.79 376.42C422.59 375.793 423.677 375.48 425.05 375.48C425.943 375.48 426.777 375.613 427.55 375.88C428.337 376.147 428.977 376.507 429.47 376.96L427.99 379.24C426.937 378.573 425.95 378.24 425.03 378.24C424.67 378.24 424.397 378.293 424.21 378.4C424.037 378.493 423.95 378.62 423.95 378.78C423.95 378.927 424.017 379.047 424.15 379.14C424.297 379.233 424.537 379.32 424.87 379.4L426.61 379.82C427.69 380.087 428.463 380.467 428.93 380.96C429.397 381.44 429.63 382.053 429.63 382.8C429.63 383.88 429.223 384.733 428.41 385.36C427.597 385.973 426.47 386.28 425.03 386.28ZM446.875 375.76V384.92C446.875 386.64 446.388 387.96 445.415 388.88C444.442 389.813 443.042 390.28 441.215 390.28C440.322 390.28 439.482 390.167 438.695 389.94C437.922 389.727 437.282 389.413 436.775 389L438.055 386.48C438.482 386.76 438.948 386.973 439.455 387.12C439.975 387.28 440.475 387.36 440.955 387.36C441.782 387.36 442.428 387.14 442.895 386.7C443.362 386.273 443.595 385.68 443.595 384.92V384.2C443.302 384.693 442.888 385.087 442.355 385.38C441.835 385.66 441.235 385.8 440.555 385.8C439.515 385.8 438.688 385.473 438.075 384.82C437.462 384.153 437.155 383.227 437.155 382.04V375.76H440.515V381.16C440.515 381.693 440.628 382.093 440.855 382.36C441.095 382.627 441.455 382.76 441.935 382.76C443.015 382.76 443.555 382.147 443.555 380.92V375.76H446.875ZM455.03 386.28C453.924 386.28 452.95 386.047 452.11 385.58C451.27 385.1 450.617 384.453 450.15 383.64C449.697 382.813 449.47 381.893 449.47 380.88C449.47 379.867 449.697 378.953 450.15 378.14C450.617 377.313 451.27 376.667 452.11 376.2C452.95 375.72 453.924 375.48 455.03 375.48C456.137 375.48 457.11 375.72 457.95 376.2C458.79 376.667 459.437 377.313 459.89 378.14C460.357 378.953 460.59 379.867 460.59 380.88C460.59 381.893 460.357 382.813 459.89 383.64C459.437 384.453 458.79 385.1 457.95 385.58C457.11 386.047 456.137 386.28 455.03 386.28ZM455.03 383.28C455.697 383.28 456.224 383.067 456.61 382.64C456.997 382.2 457.19 381.613 457.19 380.88C457.19 380.147 456.997 379.567 456.61 379.14C456.224 378.7 455.697 378.48 455.03 378.48C454.364 378.48 453.837 378.7 453.45 379.14C453.064 379.567 452.87 380.147 452.87 380.88C452.87 381.613 453.064 382.2 453.45 382.64C453.837 383.067 454.364 383.28 455.03 383.28ZM467.873 386.28C466.339 386.28 465.146 385.907 464.293 385.16C463.453 384.4 463.033 383.353 463.033 382.02V375.76H466.393V381.54C466.393 382.7 466.886 383.28 467.873 383.28C468.859 383.28 469.353 382.7 469.353 381.54V375.76H472.713V382.02C472.713 383.353 472.286 384.4 471.433 385.16C470.593 385.907 469.406 386.28 467.873 386.28ZM481.852 375.56C482.146 375.56 482.426 375.6 482.692 375.68V378.94C482.239 378.847 481.772 378.8 481.292 378.8C480.479 378.8 479.899 378.98 479.552 379.34C479.206 379.7 479.032 380.313 479.032 381.18V386H475.672V375.76H478.952V377.32C479.219 376.773 479.606 376.347 480.112 376.04C480.619 375.72 481.199 375.56 481.852 375.56ZM315.6 403.48C316.467 403.48 317.24 403.707 317.92 404.16C318.613 404.613 319.153 405.253 319.54 406.08C319.927 406.893 320.12 407.827 320.12 408.88C320.12 409.933 319.927 410.873 319.54 411.7C319.153 412.513 318.613 413.147 317.92 413.6C317.24 414.053 316.467 414.28 315.6 414.28C314.947 414.28 314.347 414.147 313.8 413.88C313.253 413.613 312.827 413.233 312.52 412.74V418H309.16V403.76H312.44V405.14C312.733 404.607 313.16 404.2 313.72 403.92C314.28 403.627 314.907 403.48 315.6 403.48ZM314.56 411.28C315.227 411.28 315.753 411.067 316.14 410.64C316.527 410.2 316.72 409.613 316.72 408.88C316.72 408.147 316.527 407.567 316.14 407.14C315.753 406.7 315.227 406.48 314.56 406.48C313.893 406.48 313.367 406.7 312.98 407.14C312.593 407.567 312.4 408.147 312.4 408.88C312.4 409.613 312.593 410.2 312.98 410.64C313.367 411.067 313.893 411.28 314.56 411.28ZM327.754 414.28C326.647 414.28 325.674 414.047 324.834 413.58C323.994 413.1 323.341 412.453 322.874 411.64C322.421 410.813 322.194 409.893 322.194 408.88C322.194 407.867 322.421 406.953 322.874 406.14C323.341 405.313 323.994 404.667 324.834 404.2C325.674 403.72 326.647 403.48 327.754 403.48C328.861 403.48 329.834 403.72 330.674 404.2C331.514 404.667 332.161 405.313 332.614 406.14C333.081 406.953 333.314 407.867 333.314 408.88C333.314 409.893 333.081 410.813 332.614 411.64C332.161 412.453 331.514 413.1 330.674 413.58C329.834 414.047 328.861 414.28 327.754 414.28ZM327.754 411.28C328.421 411.28 328.947 411.067 329.334 410.64C329.721 410.2 329.914 409.613 329.914 408.88C329.914 408.147 329.721 407.567 329.334 407.14C328.947 406.7 328.421 406.48 327.754 406.48C327.087 406.48 326.561 406.7 326.174 407.14C325.787 407.567 325.594 408.147 325.594 408.88C325.594 409.613 325.787 410.2 326.174 410.64C326.561 411.067 327.087 411.28 327.754 411.28ZM340.5 414.14C339.153 414.14 338.187 413.867 337.6 413.32C337.013 412.773 336.72 411.86 336.72 410.58V406.72H334.96V403.76H336.72V400.76H340.08V403.76H342.6V406.72H340.08V410C340.08 410.427 340.173 410.727 340.36 410.9C340.547 411.06 340.88 411.14 341.36 411.14C341.8 411.14 342.227 411.093 342.64 411V413.86C342 414.047 341.287 414.14 340.5 414.14ZM354.995 408.86C354.995 409.18 354.975 409.513 354.935 409.86H347.995C348.141 410.42 348.408 410.833 348.795 411.1C349.195 411.353 349.715 411.48 350.355 411.48C351.341 411.48 352.141 411.18 352.755 410.58L354.575 412.58C354.095 413.127 353.481 413.547 352.735 413.84C352.001 414.133 351.168 414.28 350.235 414.28C349.101 414.28 348.108 414.067 347.255 413.64C346.401 413.2 345.741 412.58 345.275 411.78C344.821 410.98 344.595 410.033 344.595 408.94C344.595 407.873 344.815 406.927 345.255 406.1C345.695 405.273 346.315 404.633 347.115 404.18C347.915 403.713 348.841 403.48 349.895 403.48C350.921 403.48 351.815 403.7 352.575 404.14C353.348 404.58 353.941 405.207 354.355 406.02C354.781 406.833 354.995 407.78 354.995 408.86ZM349.915 406.26C348.821 406.26 348.168 406.78 347.955 407.82H351.675C351.595 406.78 351.008 406.26 349.915 406.26ZM363.975 403.48C365.042 403.48 365.882 403.813 366.495 404.48C367.122 405.133 367.435 406.053 367.435 407.24V414H364.075V408.12C364.075 407.587 363.955 407.187 363.715 406.92C363.475 406.653 363.102 406.52 362.595 406.52C361.475 406.52 360.915 407.133 360.915 408.36V414H357.555V403.76H360.835V405.14C361.129 404.633 361.542 404.233 362.075 403.94C362.622 403.633 363.255 403.48 363.975 403.48ZM375.107 414.14C373.76 414.14 372.794 413.867 372.207 413.32C371.62 412.773 371.327 411.86 371.327 410.58V406.72H369.567V403.76H371.327V400.76H374.687V403.76H377.207V406.72H374.687V410C374.687 410.427 374.78 410.727 374.967 410.9C375.154 411.06 375.487 411.14 375.967 411.14C376.407 411.14 376.834 411.093 377.247 411V413.86C376.607 414.047 375.894 414.14 375.107 414.14ZM381.578 402.54C380.965 402.54 380.471 402.367 380.098 402.02C379.725 401.66 379.538 401.187 379.538 400.6C379.538 400.013 379.725 399.547 380.098 399.2C380.471 398.84 380.965 398.66 381.578 398.66C382.191 398.66 382.685 398.84 383.058 399.2C383.431 399.547 383.618 400.013 383.618 400.6C383.618 401.187 383.431 401.66 383.058 402.02C382.685 402.367 382.191 402.54 381.578 402.54ZM379.898 403.76H383.258V414H379.898V403.76ZM396.841 403.76V414H393.561V412.62C393.267 413.153 392.841 413.567 392.281 413.86C391.721 414.14 391.094 414.28 390.401 414.28C389.534 414.28 388.754 414.053 388.061 413.6C387.381 413.147 386.847 412.513 386.461 411.7C386.074 410.873 385.881 409.933 385.881 408.88C385.881 407.827 386.074 406.893 386.461 406.08C386.847 405.253 387.381 404.613 388.061 404.16C388.754 403.707 389.534 403.48 390.401 403.48C391.094 403.48 391.721 403.627 392.281 403.92C392.841 404.2 393.267 404.607 393.561 405.14V403.76H396.841ZM391.441 411.28C392.107 411.28 392.634 411.067 393.021 410.64C393.407 410.2 393.601 409.613 393.601 408.88C393.601 408.147 393.407 407.567 393.021 407.14C392.634 406.7 392.107 406.48 391.441 406.48C390.774 406.48 390.247 406.7 389.861 407.14C389.474 407.567 389.281 408.147 389.281 408.88C389.281 409.613 389.474 410.2 389.861 410.64C390.247 411.067 390.774 411.28 391.441 411.28ZM399.955 399.36H403.315V414H399.955V399.36ZM408.118 408.06C408.118 407.593 408.158 407.227 408.238 406.96C408.318 406.68 408.465 406.413 408.678 406.16C408.891 405.907 409.238 405.58 409.718 405.18L410.578 404.46C411.005 404.1 411.218 403.753 411.218 403.42C411.218 403.167 411.125 402.973 410.938 402.84C410.765 402.707 410.518 402.64 410.198 402.64C409.318 402.64 408.545 403.18 407.878 404.26L405.478 402.64C405.931 401.747 406.565 401.04 407.378 400.52C408.205 399.987 409.165 399.72 410.258 399.72C411.058 399.72 411.778 399.867 412.418 400.16C413.058 400.453 413.558 400.873 413.918 401.42C414.278 401.967 414.458 402.6 414.458 403.32C414.458 403.867 414.331 404.373 414.078 404.84C413.825 405.307 413.378 405.807 412.738 406.34L411.998 406.96C411.678 407.227 411.478 407.433 411.398 407.58C411.318 407.727 411.278 407.96 411.278 408.28V409H408.118V408.06ZM409.698 414.28C409.045 414.28 408.525 414.087 408.138 413.7C407.751 413.313 407.558 412.793 407.558 412.14C407.558 411.473 407.751 410.953 408.138 410.58C408.525 410.193 409.045 410 409.698 410C410.365 410 410.885 410.193 411.258 410.58C411.645 410.953 411.838 411.473 411.838 412.14C411.838 412.793 411.645 413.313 411.258 413.7C410.885 414.087 410.365 414.28 409.698 414.28Z" fill="white"/>
<path d="M193.091 208.816C199.506 204.952 207.854 207.008 211.718 213.448C215.582 219.863 213.526 228.211 207.086 232.075C200.671 235.939 192.323 233.883 188.459 227.443C184.595 221.052 186.676 212.705 193.091 208.816Z" fill="#FCC9A7"/>
<path d="M208.473 209.782C208.027 209.435 184.199 181.446 184.199 181.446L174.464 193.236L195.965 220.458L208.473 209.782Z" fill="#FCC9A7"/>
<path d="M188.385 428.003L182.316 455.72L163.145 452.847L169.337 425.501L188.385 428.003Z" fill="#FCC9A7"/>
<path d="M274.336 425.526L274.559 453.912L255.263 455.348L255.214 427.309L274.336 425.526Z" fill="#FCC9A7"/>
<path d="M184.744 451.212C184.348 450.048 182.936 449.552 181.92 450.295C179.939 451.732 176.446 453.416 171.393 452.822C166.142 452.203 164.259 449.428 163.615 447.447C163.269 446.406 162.154 445.862 161.138 446.258L128.616 459.287C126.634 460.079 125.049 461.615 124.232 463.572C123.439 465.405 124.777 467.461 126.783 467.461L182.044 467.857C184.224 467.882 185.958 466.074 185.859 463.894L185.388 453.218C185.388 453.045 185.338 452.871 185.289 452.698L184.744 451.212Z" fill="#0C0C0C"/>
<path d="M253.306 451.212C253.703 450.048 255.139 449.552 256.13 450.295C258.112 451.732 261.604 453.416 266.657 452.822C271.908 452.203 273.766 449.428 274.435 447.447C274.782 446.406 275.896 445.862 276.912 446.258L309.434 459.287C311.416 460.079 313.001 461.615 313.819 463.572C314.611 465.405 313.274 467.461 311.267 467.461L256.006 467.857C253.827 467.882 252.093 466.074 252.192 463.894L252.662 453.218C252.662 453.045 252.712 452.871 252.761 452.698L253.306 451.212Z" fill="#0C0C0C"/>
<path d="M253.059 69.6601L235.893 71.1463L208.597 86.5282V195.911H281.445V86.5282L253.059 69.6601Z" fill="#54585A"/>
<path d="M248.352 80.6829H243.423C238.321 80.6829 234.184 76.5464 234.184 71.4438V52.9161H257.567V71.4438C257.592 76.5464 253.455 80.6829 248.352 80.6829Z" fill="#FCC9A7"/>
<path d="M234.184 62.3533C234.184 62.3533 237.825 69.6604 246.098 69.6604C254.371 69.6604 257.567 62.2047 257.567 62.2047L234.184 62.3533Z" fill="#F4BE9A"/>
<path d="M246.148 65.375H245.38C233.466 65.375 223.657 55.9626 223.186 44.0484L222.765 32.1837C222.27 19.576 232.351 9.09839 244.959 9.09839H246.569C256.105 9.09839 269.258 19.576 268.762 32.1837L268.341 44.0484C267.871 55.9626 258.062 65.375 246.148 65.375Z" fill="#FCC9A7"/>
<path d="M229.998 41.1751C230.271 45.1877 227.249 48.6555 223.236 48.928C219.223 49.2004 215.756 46.1785 215.483 42.1658C215.211 38.1532 218.233 34.6854 222.245 34.4129C226.258 34.1652 229.726 37.1871 229.998 41.1751Z" fill="#FCC9A7"/>
<path d="M276.02 41.1751C276.292 45.1877 273.27 48.6555 269.258 48.928C265.245 49.2004 261.777 46.1785 261.505 42.1658C261.232 38.1532 264.254 34.6854 268.267 34.4129C272.28 34.1652 275.748 37.1871 276.02 41.1751Z" fill="#FCC9A7"/>
<path d="M208.597 195.391L163.293 436.226L189.326 435.979L255.56 195.861L208.597 195.391Z" fill="#0C0C0C"/>
<path d="M281.445 195.911L278.596 436.474H251.077L240.104 197.422L281.445 195.911Z" fill="#0C0C0C"/>
<path d="M208.597 86.5284C208.597 86.5284 147.763 123.237 132.976 148.7C130.077 153.679 133.842 160.119 138.945 162.769C144.592 165.717 151.553 163.711 154.798 158.237L211.074 125.59C211.099 125.59 208.597 97.5509 208.597 86.5284Z" fill="#54585A"/>
<path d="M221.502 18.7091L223.211 36.9395H225.961L226.308 27.3784C226.308 27.3784 227.744 23.7125 234.16 15.8358C234.16 15.8358 238.346 26.5363 264.279 24.4556L265.79 36.5432L268.465 36.246L269.877 23.2667C270.819 18.8825 271.141 14.7955 270.348 10.3865C268.738 1.46939 261.48 -3.45977 240.525 2.83172C238.791 3.35188 242.334 3.00511 240.525 2.83172C234.531 2.16294 218.728 2.08863 221.502 18.7091Z" fill="#2E2A33"/>
<path d="M252.365 194.177L246.47 257.241C246.247 259.619 247.857 261.773 250.21 262.219L322.537 276.041C325.188 276.561 327.714 274.679 328.012 272.003L334.625 212.061C334.873 209.732 333.362 207.578 331.058 207.033L258.013 190.09C255.288 189.446 252.637 191.378 252.365 194.177Z" fill="#AFAFAF"/>
<path d="M256.378 195.292L250.483 258.355C250.26 260.733 251.869 262.888 254.223 263.334L326.55 277.155C329.2 277.651 331.727 275.793 332.024 273.118L338.638 213.175C338.885 210.847 337.374 208.692 335.071 208.147L262.025 191.205C259.325 190.561 256.65 192.493 256.378 195.292Z" fill="#D1D1D1"/>
<path d="M294.028 259.668C301.211 261.798 305.323 269.353 303.193 276.536C301.062 283.72 293.508 287.831 286.324 285.726C279.141 283.596 275.029 276.041 277.135 268.858C279.29 261.65 286.82 257.538 294.028 259.668Z" fill="#FCC9A7"/>
<path d="M303.713 271.657C303.663 271.087 301.335 233.289 301.335 233.289L288.479 235.617L290.188 267.842L303.713 271.657Z" fill="#FCC9A7"/>
<path d="M281.445 86.5284C281.445 86.5284 300.913 100.474 302.152 120.339L308.245 166.782C308.592 169.507 308.741 172.231 308.642 174.981L306.288 245.624H279.562L279.067 169.16L281.445 86.5284Z" fill="#54585A"/>
<path d="M237.949 69.6601C235.869 71.171 225.837 76.8185 225.837 76.8185C225.837 76.8185 226.109 90.9372 247.362 89.7978C266.063 88.807 265.939 77.3387 265.939 77.3387L253.034 69.6601H237.949Z" fill="#FCC9A7"/>
<path d="M162.947 139.536L199.308 197.645L182.069 213.968L133.074 156.775L162.947 139.536Z" fill="#54585A"/>
<path d="M279.042 195.143V169.135L272.998 121.701" stroke="#424647" stroke-width="0.7693" stroke-miterlimit="10" stroke-linecap="round" stroke-linejoin="round"/>
<defs>
<filter id="filter0_d" x="101.737" y="60.9261" width="448.232" height="444.38" filterUnits="userSpaceOnUse" color-interpolation-filters="sRGB">
<feFlood flood-opacity="0" result="BackgroundImageFix"/>
<feColorMatrix in="SourceAlpha" type="matrix" values="0 0 0 0 0 0 0 0 0 0 0 0 0 0 0 0 0 0 127 0"/>
<feOffset dx="16" dy="16"/>
<feGaussianBlur stdDeviation="8"/>
<feColorMatrix type="matrix" values="0 0 0 0 0.227451 0 0 0 0 0.25098 0 0 0 0 0.356863 0 0 0 0.16 0"/>
<feBlend mode="normal" in2="BackgroundImageFix" result="effect1_dropShadow"/>
<feBlend mode="normal" in="SourceGraphic" in2="effect1_dropShadow" result="shape"/>
</filter>
</defs>
</svg>
