<svg width="418" height="383" viewBox="0 0 418 383" fill="none" xmlns="http://www.w3.org/2000/svg">
<g filter="url(#filter0_d)">
<path fill-rule="evenodd" clip-rule="evenodd" d="M180.093 6.08235C238.029 3.16249 301.64 3.15646 340.576 46.2372C381.675 91.71 390.088 159.738 371.91 218.317C355.183 272.221 304.902 304.057 253.439 327.042C204.39 348.949 149.75 361.541 100.805 339.401C50.5136 316.652 16.8132 268.495 4.75075 214.549C-7.24929 160.883 3.2811 103.509 38.6542 61.4533C72.9706 20.6539 126.905 8.76285 180.093 6.08235Z" fill="#1BB978"/>
</g>
<path d="M32.14 113C33.4867 113 34.68 113.28 35.72 113.84C36.7733 114.387 37.5933 115.187 38.18 116.24C38.7667 117.293 39.06 118.547 39.06 120C39.06 121.453 38.7667 122.707 38.18 123.76C37.5933 124.813 36.7733 125.62 35.72 126.18C34.68 126.727 33.4867 127 32.14 127H26.36V113H32.14ZM32.14 123.78C33.2067 123.78 34.02 123.467 34.58 122.84C35.14 122.213 35.42 121.267 35.42 120C35.42 118.733 35.14 117.787 34.58 117.16C34.02 116.533 33.2067 116.22 32.14 116.22H29.84V123.78H32.14ZM46.8242 127.28C45.7176 127.28 44.7442 127.047 43.9042 126.58C43.0642 126.1 42.4109 125.453 41.9442 124.64C41.4909 123.813 41.2642 122.893 41.2642 121.88C41.2642 120.867 41.4909 119.953 41.9442 119.14C42.4109 118.313 43.0642 117.667 43.9042 117.2C44.7442 116.72 45.7176 116.48 46.8242 116.48C47.9309 116.48 48.9042 116.72 49.7442 117.2C50.5842 117.667 51.2309 118.313 51.6842 119.14C52.1509 119.953 52.3842 120.867 52.3842 121.88C52.3842 122.893 52.1509 123.813 51.6842 124.64C51.2309 125.453 50.5842 126.1 49.7442 126.58C48.9042 127.047 47.9309 127.28 46.8242 127.28ZM46.8242 124.28C47.4909 124.28 48.0176 124.067 48.4042 123.64C48.7909 123.2 48.9842 122.613 48.9842 121.88C48.9842 121.147 48.7909 120.567 48.4042 120.14C48.0176 119.7 47.4909 119.48 46.8242 119.48C46.1576 119.48 45.6309 119.7 45.2442 120.14C44.8576 120.567 44.6642 121.147 44.6642 121.88C44.6642 122.613 44.8576 123.2 45.2442 123.64C45.6309 124.067 46.1576 124.28 46.8242 124.28ZM64.8666 121.86C64.8666 122.18 64.8466 122.513 64.8066 122.86H57.8666C58.0132 123.42 58.2799 123.833 58.6666 124.1C59.0666 124.353 59.5866 124.48 60.2266 124.48C61.2132 124.48 62.0132 124.18 62.6266 123.58L64.4466 125.58C63.9666 126.127 63.3532 126.547 62.6066 126.84C61.8732 127.133 61.0399 127.28 60.1066 127.28C58.9732 127.28 57.9799 127.067 57.1266 126.64C56.2732 126.2 55.6132 125.58 55.1466 124.78C54.6932 123.98 54.4666 123.033 54.4666 121.94C54.4666 120.873 54.6866 119.927 55.1266 119.1C55.5666 118.273 56.1866 117.633 56.9866 117.18C57.7866 116.713 58.7132 116.48 59.7666 116.48C60.7932 116.48 61.6866 116.7 62.4466 117.14C63.2199 117.58 63.8132 118.207 64.2266 119.02C64.6532 119.833 64.8666 120.78 64.8666 121.86ZM59.7866 119.26C58.6932 119.26 58.0399 119.78 57.8266 120.82H61.5466C61.4666 119.78 60.8799 119.26 59.7866 119.26ZM71.5072 127.28C70.5339 127.28 69.6205 127.14 68.7672 126.86C67.9272 126.567 67.2405 126.16 66.7072 125.64L68.1472 123.34C68.5872 123.687 69.1139 123.973 69.7272 124.2C70.3539 124.427 70.9605 124.54 71.5472 124.54C71.9339 124.54 72.2272 124.493 72.4272 124.4C72.6272 124.293 72.7272 124.153 72.7272 123.98C72.7272 123.807 72.6472 123.667 72.4872 123.56C72.3405 123.453 72.1005 123.36 71.7672 123.28L70.0272 122.86C68.9872 122.607 68.2339 122.233 67.7672 121.74C67.3139 121.247 67.0872 120.64 67.0872 119.92C67.0872 118.88 67.4805 118.047 68.2672 117.42C69.0672 116.793 70.1539 116.48 71.5272 116.48C72.4205 116.48 73.2539 116.613 74.0272 116.88C74.8139 117.147 75.4539 117.507 75.9472 117.96L74.4672 120.24C73.4139 119.573 72.4272 119.24 71.5072 119.24C71.1472 119.24 70.8739 119.293 70.6872 119.4C70.5139 119.493 70.4272 119.62 70.4272 119.78C70.4272 119.927 70.4939 120.047 70.6272 120.14C70.7739 120.233 71.0139 120.32 71.3472 120.4L73.0872 120.82C74.1672 121.087 74.9405 121.467 75.4072 121.96C75.8739 122.44 76.1072 123.053 76.1072 123.8C76.1072 124.88 75.7005 125.733 74.8872 126.36C74.0739 126.973 72.9472 127.28 71.5072 127.28ZM93.3523 116.76V125.92C93.3523 127.64 92.8657 128.96 91.8923 129.88C90.919 130.813 89.519 131.28 87.6923 131.28C86.799 131.28 85.959 131.167 85.1723 130.94C84.399 130.727 83.759 130.413 83.2523 130L84.5323 127.48C84.959 127.76 85.4257 127.973 85.9323 128.12C86.4523 128.28 86.9523 128.36 87.4323 128.36C88.259 128.36 88.9057 128.14 89.3723 127.7C89.839 127.273 90.0723 126.68 90.0723 125.92V125.2C89.779 125.693 89.3657 126.087 88.8323 126.38C88.3123 126.66 87.7123 126.8 87.0323 126.8C85.9923 126.8 85.1657 126.473 84.5523 125.82C83.939 125.153 83.6323 124.227 83.6323 123.04V116.76H86.9923V122.16C86.9923 122.693 87.1057 123.093 87.3323 123.36C87.5723 123.627 87.9323 123.76 88.4123 123.76C89.4923 123.76 90.0323 123.147 90.0323 121.92V116.76H93.3523ZM101.508 127.28C100.401 127.28 99.4278 127.047 98.5878 126.58C97.7478 126.1 97.0945 125.453 96.6278 124.64C96.1745 123.813 95.9478 122.893 95.9478 121.88C95.9478 120.867 96.1745 119.953 96.6278 119.14C97.0945 118.313 97.7478 117.667 98.5878 117.2C99.4278 116.72 100.401 116.48 101.508 116.48C102.614 116.48 103.588 116.72 104.428 117.2C105.268 117.667 105.914 118.313 106.368 119.14C106.834 119.953 107.068 120.867 107.068 121.88C107.068 122.893 106.834 123.813 106.368 124.64C105.914 125.453 105.268 126.1 104.428 126.58C103.588 127.047 102.614 127.28 101.508 127.28ZM101.508 124.28C102.174 124.28 102.701 124.067 103.088 123.64C103.474 123.2 103.668 122.613 103.668 121.88C103.668 121.147 103.474 120.567 103.088 120.14C102.701 119.7 102.174 119.48 101.508 119.48C100.841 119.48 100.314 119.7 99.9278 120.14C99.5411 120.567 99.3478 121.147 99.3478 121.88C99.3478 122.613 99.5411 123.2 99.9278 123.64C100.314 124.067 100.841 124.28 101.508 124.28ZM114.35 127.28C112.817 127.28 111.623 126.907 110.77 126.16C109.93 125.4 109.51 124.353 109.51 123.02V116.76H112.87V122.54C112.87 123.7 113.363 124.28 114.35 124.28C115.337 124.28 115.83 123.7 115.83 122.54V116.76H119.19V123.02C119.19 124.353 118.763 125.4 117.91 126.16C117.07 126.907 115.883 127.28 114.35 127.28ZM128.33 116.56C128.623 116.56 128.903 116.6 129.17 116.68V119.94C128.717 119.847 128.25 119.8 127.77 119.8C126.957 119.8 126.377 119.98 126.03 120.34C125.683 120.7 125.51 121.313 125.51 122.18V127H122.15V116.76H125.43V118.32C125.697 117.773 126.083 117.347 126.59 117.04C127.097 116.72 127.677 116.56 128.33 116.56ZM143.619 127.28C142.192 127.28 140.925 126.973 139.819 126.36C138.712 125.733 137.852 124.873 137.239 123.78C136.625 122.673 136.319 121.42 136.319 120.02C136.319 118.633 136.619 117.387 137.219 116.28C137.819 115.173 138.672 114.307 139.779 113.68C140.885 113.04 142.165 112.72 143.619 112.72C145.085 112.72 146.372 113.06 147.479 113.74C148.585 114.407 149.419 115.373 149.979 116.64L146.959 118.18C146.639 117.46 146.185 116.92 145.599 116.56C145.025 116.187 144.372 116 143.639 116C142.919 116 142.279 116.173 141.719 116.52C141.159 116.853 140.719 117.327 140.399 117.94C140.092 118.54 139.939 119.227 139.939 120C139.939 120.773 140.092 121.467 140.399 122.08C140.719 122.68 141.159 123.153 141.719 123.5C142.279 123.833 142.919 124 143.639 124C144.372 124 145.025 123.82 145.599 123.46C146.185 123.087 146.639 122.54 146.959 121.82L149.979 123.36C149.419 124.627 148.585 125.6 147.479 126.28C146.372 126.947 145.085 127.28 143.619 127.28ZM162.509 116.76V127H159.229V125.62C158.936 126.153 158.509 126.567 157.949 126.86C157.389 127.14 156.763 127.28 156.069 127.28C155.203 127.28 154.423 127.053 153.729 126.6C153.049 126.147 152.516 125.513 152.129 124.7C151.743 123.873 151.549 122.933 151.549 121.88C151.549 120.827 151.743 119.893 152.129 119.08C152.516 118.253 153.049 117.613 153.729 117.16C154.423 116.707 155.203 116.48 156.069 116.48C156.763 116.48 157.389 116.627 157.949 116.92C158.509 117.2 158.936 117.607 159.229 118.14V116.76H162.509ZM157.109 124.28C157.776 124.28 158.303 124.067 158.689 123.64C159.076 123.2 159.269 122.613 159.269 121.88C159.269 121.147 159.076 120.567 158.689 120.14C158.303 119.7 157.776 119.48 157.109 119.48C156.443 119.48 155.916 119.7 155.529 120.14C155.143 120.567 154.949 121.147 154.949 121.88C154.949 122.613 155.143 123.2 155.529 123.64C155.916 124.067 156.443 124.28 157.109 124.28ZM171.803 116.56C172.097 116.56 172.377 116.6 172.643 116.68V119.94C172.19 119.847 171.723 119.8 171.243 119.8C170.43 119.8 169.85 119.98 169.503 120.34C169.157 120.7 168.983 121.313 168.983 122.18V127H165.623V116.76H168.903V118.32C169.17 117.773 169.557 117.347 170.063 117.04C170.57 116.72 171.15 116.56 171.803 116.56ZM184.565 121.86C184.565 122.18 184.545 122.513 184.505 122.86H177.565C177.712 123.42 177.978 123.833 178.365 124.1C178.765 124.353 179.285 124.48 179.925 124.48C180.912 124.48 181.712 124.18 182.325 123.58L184.145 125.58C183.665 126.127 183.052 126.547 182.305 126.84C181.572 127.133 180.738 127.28 179.805 127.28C178.672 127.28 177.678 127.067 176.825 126.64C175.972 126.2 175.312 125.58 174.845 124.78C174.392 123.98 174.165 123.033 174.165 121.94C174.165 120.873 174.385 119.927 174.825 119.1C175.265 118.273 175.885 117.633 176.685 117.18C177.485 116.713 178.412 116.48 179.465 116.48C180.492 116.48 181.385 116.7 182.145 117.14C182.918 117.58 183.512 118.207 183.925 119.02C184.352 119.833 184.565 120.78 184.565 121.86ZM179.485 119.26C178.392 119.26 177.738 119.78 177.525 120.82H181.245C181.165 119.78 180.578 119.26 179.485 119.26ZM197.006 121.86C197.006 122.18 196.986 122.513 196.946 122.86H190.006C190.152 123.42 190.419 123.833 190.806 124.1C191.206 124.353 191.726 124.48 192.366 124.48C193.352 124.48 194.152 124.18 194.766 123.58L196.586 125.58C196.106 126.127 195.492 126.547 194.746 126.84C194.012 127.133 193.179 127.28 192.246 127.28C191.112 127.28 190.119 127.067 189.266 126.64C188.412 126.2 187.752 125.58 187.286 124.78C186.832 123.98 186.606 123.033 186.606 121.94C186.606 120.873 186.826 119.927 187.266 119.1C187.706 118.273 188.326 117.633 189.126 117.18C189.926 116.713 190.852 116.48 191.906 116.48C192.932 116.48 193.826 116.7 194.586 117.14C195.359 117.58 195.952 118.207 196.366 119.02C196.792 119.833 197.006 120.78 197.006 121.86ZM191.926 119.26C190.832 119.26 190.179 119.78 189.966 120.82H193.686C193.606 119.78 193.019 119.26 191.926 119.26ZM205.746 116.56C206.04 116.56 206.32 116.6 206.586 116.68V119.94C206.133 119.847 205.666 119.8 205.186 119.8C204.373 119.8 203.793 119.98 203.446 120.34C203.1 120.7 202.926 121.313 202.926 122.18V127H199.566V116.76H202.846V118.32C203.113 117.773 203.5 117.347 204.006 117.04C204.513 116.72 205.093 116.56 205.746 116.56ZM223.535 127L222.755 126.1C221.648 126.887 220.335 127.28 218.815 127.28C217.788 127.28 216.895 127.107 216.135 126.76C215.388 126.413 214.815 125.94 214.415 125.34C214.015 124.727 213.815 124.04 213.815 123.28C213.815 121.707 214.735 120.373 216.575 119.28C215.668 118.213 215.215 117.18 215.215 116.18C215.215 115.54 215.375 114.96 215.695 114.44C216.028 113.907 216.502 113.487 217.115 113.18C217.742 112.873 218.475 112.72 219.315 112.72C220.528 112.72 221.502 113.027 222.235 113.64C222.968 114.253 223.335 115.06 223.335 116.06C223.335 116.78 223.122 117.46 222.695 118.1C222.268 118.74 221.622 119.313 220.755 119.82L222.455 121.76C222.655 121.187 222.782 120.573 222.835 119.92H225.835C225.635 121.573 225.195 122.973 224.515 124.12L227.035 127H223.535ZM219.295 115.4C218.988 115.4 218.735 115.493 218.535 115.68C218.348 115.853 218.255 116.08 218.255 116.36C218.255 116.787 218.502 117.273 218.995 117.82L219.115 117.94C219.928 117.46 220.335 116.94 220.335 116.38C220.335 116.087 220.235 115.853 220.035 115.68C219.848 115.493 219.602 115.4 219.295 115.4ZM217.215 123.02C217.215 123.42 217.368 123.747 217.675 124C217.995 124.24 218.462 124.36 219.075 124.36C219.688 124.36 220.228 124.233 220.695 123.98L218.335 121.3C217.988 121.5 217.715 121.753 217.515 122.06C217.315 122.367 217.215 122.687 217.215 123.02ZM36.24 151.78V155H26.36V141H29.84V151.78H36.24ZM40.3397 143.54C39.7264 143.54 39.233 143.367 38.8597 143.02C38.4864 142.66 38.2997 142.187 38.2997 141.6C38.2997 141.013 38.4864 140.547 38.8597 140.2C39.233 139.84 39.7264 139.66 40.3397 139.66C40.953 139.66 41.4464 139.84 41.8197 140.2C42.193 140.547 42.3797 141.013 42.3797 141.6C42.3797 142.187 42.193 142.66 41.8197 143.02C41.4464 143.367 40.953 143.54 40.3397 143.54ZM38.6597 144.76H42.0197V155H38.6597V144.76ZM46.2023 147.72H44.4023V144.76H46.2023V143.7C46.2023 141.353 47.549 140.18 50.2423 140.18C50.8423 140.18 51.4423 140.24 52.0423 140.36V143.2C51.6157 143.133 51.2623 143.1 50.9823 143.1C50.4757 143.1 50.109 143.187 49.8823 143.36C49.669 143.52 49.5623 143.767 49.5623 144.1V144.76H52.0423V147.72H49.5623V155H46.2023V147.72ZM63.9673 149.86C63.9673 150.18 63.9473 150.513 63.9073 150.86H56.9673C57.114 151.42 57.3807 151.833 57.7673 152.1C58.1673 152.353 58.6873 152.48 59.3273 152.48C60.314 152.48 61.114 152.18 61.7273 151.58L63.5473 153.58C63.0673 154.127 62.454 154.547 61.7073 154.84C60.974 155.133 60.1407 155.28 59.2073 155.28C58.074 155.28 57.0807 155.067 56.2273 154.64C55.374 154.2 54.714 153.58 54.2473 152.78C53.794 151.98 53.5673 151.033 53.5673 149.94C53.5673 148.873 53.7873 147.927 54.2273 147.1C54.6673 146.273 55.2873 145.633 56.0873 145.18C56.8873 144.713 57.814 144.48 58.8673 144.48C59.894 144.48 60.7873 144.7 61.5473 145.14C62.3207 145.58 62.914 146.207 63.3273 147.02C63.754 147.833 63.9673 148.78 63.9673 149.86ZM58.8873 147.26C57.794 147.26 57.1407 147.78 56.9273 148.82H60.6473C60.5673 147.78 59.9807 147.26 58.8873 147.26ZM78.6225 155.28C77.1958 155.28 75.9292 154.973 74.8225 154.36C73.7158 153.733 72.8558 152.873 72.2425 151.78C71.6292 150.673 71.3225 149.42 71.3225 148.02C71.3225 146.633 71.6225 145.387 72.2225 144.28C72.8225 143.173 73.6758 142.307 74.7825 141.68C75.8892 141.04 77.1692 140.72 78.6225 140.72C80.0892 140.72 81.3758 141.06 82.4825 141.74C83.5892 142.407 84.4225 143.373 84.9825 144.64L81.9625 146.18C81.6425 145.46 81.1892 144.92 80.6025 144.56C80.0292 144.187 79.3758 144 78.6425 144C77.9225 144 77.2825 144.173 76.7225 144.52C76.1625 144.853 75.7225 145.327 75.4025 145.94C75.0958 146.54 74.9425 147.227 74.9425 148C74.9425 148.773 75.0958 149.467 75.4025 150.08C75.7225 150.68 76.1625 151.153 76.7225 151.5C77.2825 151.833 77.9225 152 78.6425 152C79.3758 152 80.0292 151.82 80.6025 151.46C81.1892 151.087 81.6425 150.54 81.9625 149.82L84.9825 151.36C84.4225 152.627 83.5892 153.6 82.4825 154.28C81.3758 154.947 80.0892 155.28 78.6225 155.28ZM97.5133 144.76V155H94.2333V153.62C93.9399 154.153 93.5133 154.567 92.9533 154.86C92.3933 155.14 91.7666 155.28 91.0733 155.28C90.2066 155.28 89.4266 155.053 88.7333 154.6C88.0533 154.147 87.5199 153.513 87.1333 152.7C86.7466 151.873 86.5533 150.933 86.5533 149.88C86.5533 148.827 86.7466 147.893 87.1333 147.08C87.5199 146.253 88.0533 145.613 88.7333 145.16C89.4266 144.707 90.2066 144.48 91.0733 144.48C91.7666 144.48 92.3933 144.627 92.9533 144.92C93.5133 145.2 93.9399 145.607 94.2333 146.14V144.76H97.5133ZM92.1133 152.28C92.7799 152.28 93.3066 152.067 93.6933 151.64C94.0799 151.2 94.2733 150.613 94.2733 149.88C94.2733 149.147 94.0799 148.567 93.6933 148.14C93.3066 147.7 92.7799 147.48 92.1133 147.48C91.4466 147.48 90.9199 147.7 90.5333 148.14C90.1466 148.567 89.9533 149.147 89.9533 149.88C89.9533 150.613 90.1466 151.2 90.5333 151.64C90.9199 152.067 91.4466 152.28 92.1133 152.28ZM106.807 144.56C107.101 144.56 107.381 144.6 107.647 144.68V147.94C107.194 147.847 106.727 147.8 106.247 147.8C105.434 147.8 104.854 147.98 104.507 148.34C104.161 148.7 103.987 149.313 103.987 150.18V155H100.627V144.76H103.907V146.32C104.174 145.773 104.561 145.347 105.067 145.04C105.574 144.72 106.154 144.56 106.807 144.56ZM119.569 149.86C119.569 150.18 119.549 150.513 119.509 150.86H112.569C112.716 151.42 112.982 151.833 113.369 152.1C113.769 152.353 114.289 152.48 114.929 152.48C115.916 152.48 116.716 152.18 117.329 151.58L119.149 153.58C118.669 154.127 118.056 154.547 117.309 154.84C116.576 155.133 115.742 155.28 114.809 155.28C113.676 155.28 112.682 155.067 111.829 154.64C110.976 154.2 110.316 153.58 109.849 152.78C109.396 151.98 109.169 151.033 109.169 149.94C109.169 148.873 109.389 147.927 109.829 147.1C110.269 146.273 110.889 145.633 111.689 145.18C112.489 144.713 113.416 144.48 114.469 144.48C115.496 144.48 116.389 144.7 117.149 145.14C117.922 145.58 118.516 146.207 118.929 147.02C119.356 147.833 119.569 148.78 119.569 149.86ZM114.489 147.26C113.396 147.26 112.742 147.78 112.529 148.82H116.249C116.169 147.78 115.582 147.26 114.489 147.26ZM132.01 149.86C132.01 150.18 131.99 150.513 131.95 150.86H125.01C125.156 151.42 125.423 151.833 125.81 152.1C126.21 152.353 126.73 152.48 127.37 152.48C128.356 152.48 129.156 152.18 129.77 151.58L131.59 153.58C131.11 154.127 130.496 154.547 129.75 154.84C129.016 155.133 128.183 155.28 127.25 155.28C126.116 155.28 125.123 155.067 124.27 154.64C123.416 154.2 122.756 153.58 122.29 152.78C121.836 151.98 121.61 151.033 121.61 149.94C121.61 148.873 121.83 147.927 122.27 147.1C122.71 146.273 123.33 145.633 124.13 145.18C124.93 144.713 125.856 144.48 126.91 144.48C127.936 144.48 128.83 144.7 129.59 145.14C130.363 145.58 130.956 146.207 131.37 147.02C131.796 147.833 132.01 148.78 132.01 149.86ZM126.93 147.26C125.836 147.26 125.183 147.78 124.97 148.82H128.69C128.61 147.78 128.023 147.26 126.93 147.26ZM140.75 144.56C141.043 144.56 141.323 144.6 141.59 144.68V147.94C141.137 147.847 140.67 147.8 140.19 147.8C139.377 147.8 138.797 147.98 138.45 148.34C138.103 148.7 137.93 149.313 137.93 150.18V155H134.57V144.76H137.85V146.32C138.117 145.773 138.503 145.347 139.01 145.04C139.517 144.72 140.097 144.56 140.75 144.56ZM156.039 155.28C154.612 155.28 153.346 154.973 152.239 154.36C151.132 153.733 150.272 152.873 149.659 151.78C149.046 150.673 148.739 149.42 148.739 148.02C148.739 146.633 149.039 145.387 149.639 144.28C150.239 143.173 151.092 142.307 152.199 141.68C153.306 141.04 154.586 140.72 156.039 140.72C157.506 140.72 158.792 141.06 159.899 141.74C161.006 142.407 161.839 143.373 162.399 144.64L159.379 146.18C159.059 145.46 158.606 144.92 158.019 144.56C157.446 144.187 156.792 144 156.059 144C155.339 144 154.699 144.173 154.139 144.52C153.579 144.853 153.139 145.327 152.819 145.94C152.512 146.54 152.359 147.227 152.359 148C152.359 148.773 152.512 149.467 152.819 150.08C153.139 150.68 153.579 151.153 154.139 151.5C154.699 151.833 155.339 152 156.059 152C156.792 152 157.446 151.82 158.019 151.46C158.606 151.087 159.059 150.54 159.379 149.82L162.399 151.36C161.839 152.627 161.006 153.6 159.899 154.28C158.792 154.947 157.506 155.28 156.039 155.28ZM170.988 144.48C172.054 144.48 172.894 144.813 173.508 145.48C174.134 146.133 174.448 147.053 174.448 148.24V155H171.088V149.12C171.088 148.587 170.968 148.187 170.728 147.92C170.488 147.653 170.114 147.52 169.608 147.52C168.488 147.52 167.928 148.133 167.928 149.36V155H164.568V140.36H167.928V146.02C168.221 145.54 168.628 145.167 169.148 144.9C169.681 144.62 170.294 144.48 170.988 144.48ZM182.537 155.28C181.43 155.28 180.457 155.047 179.617 154.58C178.777 154.1 178.123 153.453 177.657 152.64C177.203 151.813 176.977 150.893 176.977 149.88C176.977 148.867 177.203 147.953 177.657 147.14C178.123 146.313 178.777 145.667 179.617 145.2C180.457 144.72 181.43 144.48 182.537 144.48C183.643 144.48 184.617 144.72 185.457 145.2C186.297 145.667 186.943 146.313 187.397 147.14C187.863 147.953 188.097 148.867 188.097 149.88C188.097 150.893 187.863 151.813 187.397 152.64C186.943 153.453 186.297 154.1 185.457 154.58C184.617 155.047 183.643 155.28 182.537 155.28ZM182.537 152.28C183.203 152.28 183.73 152.067 184.117 151.64C184.503 151.2 184.697 150.613 184.697 149.88C184.697 149.147 184.503 148.567 184.117 148.14C183.73 147.7 183.203 147.48 182.537 147.48C181.87 147.48 181.343 147.7 180.957 148.14C180.57 148.567 180.377 149.147 180.377 149.88C180.377 150.613 180.57 151.2 180.957 151.64C181.343 152.067 181.87 152.28 182.537 152.28ZM192.399 143.54C191.786 143.54 191.292 143.367 190.919 143.02C190.546 142.66 190.359 142.187 190.359 141.6C190.359 141.013 190.546 140.547 190.919 140.2C191.292 139.84 191.786 139.66 192.399 139.66C193.012 139.66 193.506 139.84 193.879 140.2C194.252 140.547 194.439 141.013 194.439 141.6C194.439 142.187 194.252 142.66 193.879 143.02C193.506 143.367 193.012 143.54 192.399 143.54ZM190.719 144.76H194.079V155H190.719V144.76ZM202.102 155.28C201.035 155.28 200.088 155.053 199.262 154.6C198.448 154.147 197.815 153.513 197.362 152.7C196.922 151.873 196.702 150.933 196.702 149.88C196.702 148.827 196.922 147.893 197.362 147.08C197.815 146.253 198.448 145.613 199.262 145.16C200.088 144.707 201.035 144.48 202.102 144.48C203.142 144.48 204.062 144.693 204.862 145.12C205.675 145.547 206.295 146.14 206.722 146.9L204.262 148.64C203.742 147.893 203.062 147.52 202.222 147.52C201.582 147.52 201.068 147.733 200.682 148.16C200.295 148.587 200.102 149.16 200.102 149.88C200.102 150.6 200.295 151.173 200.682 151.6C201.068 152.027 201.582 152.24 202.222 152.24C203.062 152.24 203.742 151.867 204.262 151.12L206.722 152.86C206.295 153.62 205.675 154.213 204.862 154.64C204.062 155.067 203.142 155.28 202.102 155.28ZM218.683 149.86C218.683 150.18 218.663 150.513 218.623 150.86H211.683C211.83 151.42 212.096 151.833 212.483 152.1C212.883 152.353 213.403 152.48 214.043 152.48C215.03 152.48 215.83 152.18 216.443 151.58L218.263 153.58C217.783 154.127 217.17 154.547 216.423 154.84C215.69 155.133 214.856 155.28 213.923 155.28C212.79 155.28 211.796 155.067 210.943 154.64C210.09 154.2 209.43 153.58 208.963 152.78C208.51 151.98 208.283 151.033 208.283 149.94C208.283 148.873 208.503 147.927 208.943 147.1C209.383 146.273 210.003 145.633 210.803 145.18C211.603 144.713 212.53 144.48 213.583 144.48C214.61 144.48 215.503 144.7 216.263 145.14C217.036 145.58 217.63 146.207 218.043 147.02C218.47 147.833 218.683 148.78 218.683 149.86ZM213.603 147.26C212.51 147.26 211.856 147.78 211.643 148.82H215.363C215.283 147.78 214.696 147.26 213.603 147.26ZM225.324 155.28C224.35 155.28 223.437 155.14 222.584 154.86C221.744 154.567 221.057 154.16 220.524 153.64L221.964 151.34C222.404 151.687 222.93 151.973 223.544 152.2C224.17 152.427 224.777 152.54 225.364 152.54C225.75 152.54 226.044 152.493 226.244 152.4C226.444 152.293 226.544 152.153 226.544 151.98C226.544 151.807 226.464 151.667 226.304 151.56C226.157 151.453 225.917 151.36 225.584 151.28L223.844 150.86C222.804 150.607 222.05 150.233 221.584 149.74C221.13 149.247 220.904 148.64 220.904 147.92C220.904 146.88 221.297 146.047 222.084 145.42C222.884 144.793 223.97 144.48 225.344 144.48C226.237 144.48 227.07 144.613 227.844 144.88C228.63 145.147 229.27 145.507 229.764 145.96L228.284 148.24C227.23 147.573 226.244 147.24 225.324 147.24C224.964 147.24 224.69 147.293 224.504 147.4C224.33 147.493 224.244 147.62 224.244 147.78C224.244 147.927 224.31 148.047 224.444 148.14C224.59 148.233 224.83 148.32 225.164 148.4L226.904 148.82C227.984 149.087 228.757 149.467 229.224 149.96C229.69 150.44 229.924 151.053 229.924 151.8C229.924 152.88 229.517 153.733 228.704 154.36C227.89 154.973 226.764 155.28 225.324 155.28ZM26.16 168.36H29.52V183H26.16V168.36ZM42.5236 177.86C42.5236 178.18 42.5036 178.513 42.4636 178.86H35.5236C35.6703 179.42 35.9369 179.833 36.3236 180.1C36.7236 180.353 37.2436 180.48 37.8836 180.48C38.8703 180.48 39.6703 180.18 40.2836 179.58L42.1036 181.58C41.6236 182.127 41.0103 182.547 40.2636 182.84C39.5303 183.133 38.6969 183.28 37.7636 183.28C36.6303 183.28 35.6369 183.067 34.7836 182.64C33.9303 182.2 33.2703 181.58 32.8036 180.78C32.3503 179.98 32.1236 179.033 32.1236 177.94C32.1236 176.873 32.3436 175.927 32.7836 175.1C33.2236 174.273 33.8436 173.633 34.6436 173.18C35.4436 172.713 36.3703 172.48 37.4236 172.48C38.4503 172.48 39.3436 172.7 40.1036 173.14C40.8769 173.58 41.4703 174.207 41.8836 175.02C42.3103 175.833 42.5236 176.78 42.5236 177.86ZM37.4436 175.26C36.3503 175.26 35.6969 175.78 35.4836 176.82H39.2036C39.1236 175.78 38.5369 175.26 37.4436 175.26ZM55.5242 172.76V183H52.2442V181.62C51.9509 182.153 51.5242 182.567 50.9642 182.86C50.4042 183.14 49.7776 183.28 49.0842 183.28C48.2176 183.28 47.4376 183.053 46.7442 182.6C46.0642 182.147 45.5309 181.513 45.1442 180.7C44.7576 179.873 44.5642 178.933 44.5642 177.88C44.5642 176.827 44.7576 175.893 45.1442 175.08C45.5309 174.253 46.0642 173.613 46.7442 173.16C47.4376 172.707 48.2176 172.48 49.0842 172.48C49.7776 172.48 50.4042 172.627 50.9642 172.92C51.5242 173.2 51.9509 173.607 52.2442 174.14V172.76H55.5242ZM50.1242 180.28C50.7909 180.28 51.3176 180.067 51.7042 179.64C52.0909 179.2 52.2842 178.613 52.2842 177.88C52.2842 177.147 52.0909 176.567 51.7042 176.14C51.3176 175.7 50.7909 175.48 50.1242 175.48C49.4576 175.48 48.9309 175.7 48.5442 176.14C48.1576 176.567 47.9642 177.147 47.9642 177.88C47.9642 178.613 48.1576 179.2 48.5442 179.64C48.9309 180.067 49.4576 180.28 50.1242 180.28ZM68.7181 172.76L64.9981 183H61.3181L57.5981 172.76H61.1981L63.1581 178.94L65.1181 172.76H68.7181ZM80.3728 177.86C80.3728 178.18 80.3528 178.513 80.3128 178.86H73.3728C73.5195 179.42 73.7861 179.833 74.1728 180.1C74.5728 180.353 75.0928 180.48 75.7328 180.48C76.7195 180.48 77.5195 180.18 78.1328 179.58L79.9528 181.58C79.4728 182.127 78.8595 182.547 78.1128 182.84C77.3795 183.133 76.5461 183.28 75.6128 183.28C74.4795 183.28 73.4861 183.067 72.6328 182.64C71.7795 182.2 71.1195 181.58 70.6528 180.78C70.1995 179.98 69.9728 179.033 69.9728 177.94C69.9728 176.873 70.1928 175.927 70.6328 175.1C71.0728 174.273 71.6928 173.633 72.4928 173.18C73.2928 172.713 74.2195 172.48 75.2728 172.48C76.2995 172.48 77.1928 172.7 77.9528 173.14C78.7261 173.58 79.3195 174.207 79.7328 175.02C80.1595 175.833 80.3728 176.78 80.3728 177.86ZM75.2928 175.26C74.1995 175.26 73.5461 175.78 73.3328 176.82H77.0528C76.9728 175.78 76.3861 175.26 75.2928 175.26ZM97.668 172.76V181.92C97.668 183.64 97.1813 184.96 96.208 185.88C95.2346 186.813 93.8346 187.28 92.008 187.28C91.1146 187.28 90.2746 187.167 89.488 186.94C88.7146 186.727 88.0746 186.413 87.568 186L88.848 183.48C89.2746 183.76 89.7413 183.973 90.248 184.12C90.768 184.28 91.268 184.36 91.748 184.36C92.5746 184.36 93.2213 184.14 93.688 183.7C94.1546 183.273 94.388 182.68 94.388 181.92V181.2C94.0946 181.693 93.6813 182.087 93.148 182.38C92.628 182.66 92.028 182.8 91.348 182.8C90.308 182.8 89.4813 182.473 88.868 181.82C88.2546 181.153 87.948 180.227 87.948 179.04V172.76H91.308V178.16C91.308 178.693 91.4213 179.093 91.648 179.36C91.888 179.627 92.248 179.76 92.728 179.76C93.808 179.76 94.348 179.147 94.348 177.92V172.76H97.668ZM105.823 183.28C104.717 183.28 103.743 183.047 102.903 182.58C102.063 182.1 101.41 181.453 100.943 180.64C100.49 179.813 100.263 178.893 100.263 177.88C100.263 176.867 100.49 175.953 100.943 175.14C101.41 174.313 102.063 173.667 102.903 173.2C103.743 172.72 104.717 172.48 105.823 172.48C106.93 172.48 107.903 172.72 108.743 173.2C109.583 173.667 110.23 174.313 110.683 175.14C111.15 175.953 111.383 176.867 111.383 177.88C111.383 178.893 111.15 179.813 110.683 180.64C110.23 181.453 109.583 182.1 108.743 182.58C107.903 183.047 106.93 183.28 105.823 183.28ZM105.823 180.28C106.49 180.28 107.017 180.067 107.403 179.64C107.79 179.2 107.983 178.613 107.983 177.88C107.983 177.147 107.79 176.567 107.403 176.14C107.017 175.7 106.49 175.48 105.823 175.48C105.157 175.48 104.63 175.7 104.243 176.14C103.857 176.567 103.663 177.147 103.663 177.88C103.663 178.613 103.857 179.2 104.243 179.64C104.63 180.067 105.157 180.28 105.823 180.28ZM118.666 183.28C117.132 183.28 115.939 182.907 115.086 182.16C114.246 181.4 113.826 180.353 113.826 179.02V172.76H117.186V178.54C117.186 179.7 117.679 180.28 118.666 180.28C119.652 180.28 120.146 179.7 120.146 178.54V172.76H123.506V179.02C123.506 180.353 123.079 181.4 122.226 182.16C121.386 182.907 120.199 183.28 118.666 183.28ZM136.34 183.28C134.807 183.28 133.613 182.907 132.76 182.16C131.92 181.4 131.5 180.353 131.5 179.02V172.76H134.86V178.54C134.86 179.7 135.353 180.28 136.34 180.28C137.327 180.28 137.82 179.7 137.82 178.54V172.76H141.18V179.02C141.18 180.353 140.753 181.4 139.9 182.16C139.06 182.907 137.873 183.28 136.34 183.28ZM150.56 172.48C151.626 172.48 152.466 172.813 153.08 173.48C153.706 174.133 154.02 175.053 154.02 176.24V183H150.66V177.12C150.66 176.587 150.54 176.187 150.3 175.92C150.06 175.653 149.686 175.52 149.18 175.52C148.06 175.52 147.5 176.133 147.5 177.36V183H144.14V172.76H147.42V174.14C147.713 173.633 148.126 173.233 148.66 172.94C149.206 172.633 149.84 172.48 150.56 172.48ZM161.149 183.28C160.175 183.28 159.262 183.14 158.409 182.86C157.569 182.567 156.882 182.16 156.349 181.64L157.789 179.34C158.229 179.687 158.755 179.973 159.369 180.2C159.995 180.427 160.602 180.54 161.189 180.54C161.575 180.54 161.869 180.493 162.069 180.4C162.269 180.293 162.369 180.153 162.369 179.98C162.369 179.807 162.289 179.667 162.129 179.56C161.982 179.453 161.742 179.36 161.409 179.28L159.669 178.86C158.629 178.607 157.875 178.233 157.409 177.74C156.955 177.247 156.729 176.64 156.729 175.92C156.729 174.88 157.122 174.047 157.909 173.42C158.709 172.793 159.795 172.48 161.169 172.48C162.062 172.48 162.895 172.613 163.669 172.88C164.455 173.147 165.095 173.507 165.589 173.96L164.109 176.24C163.055 175.573 162.069 175.24 161.149 175.24C160.789 175.24 160.515 175.293 160.329 175.4C160.155 175.493 160.069 175.62 160.069 175.78C160.069 175.927 160.135 176.047 160.269 176.14C160.415 176.233 160.655 176.32 160.989 176.4L162.729 176.82C163.809 177.087 164.582 177.467 165.049 177.96C165.515 178.44 165.749 179.053 165.749 179.8C165.749 180.88 165.342 181.733 164.529 182.36C163.715 182.973 162.589 183.28 161.149 183.28ZM172.939 183.28C171.406 183.28 170.213 182.907 169.359 182.16C168.519 181.4 168.099 180.353 168.099 179.02V172.76H171.459V178.54C171.459 179.7 171.953 180.28 172.939 180.28C173.926 180.28 174.419 179.7 174.419 178.54V172.76H177.779V179.02C177.779 180.353 177.353 181.4 176.499 182.16C175.659 182.907 174.473 183.28 172.939 183.28ZM186.919 172.56C187.212 172.56 187.492 172.6 187.759 172.68V175.94C187.306 175.847 186.839 175.8 186.359 175.8C185.546 175.8 184.966 175.98 184.619 176.34C184.272 176.7 184.099 177.313 184.099 178.18V183H180.739V172.76H184.019V174.32C184.286 173.773 184.672 173.347 185.179 173.04C185.686 172.72 186.266 172.56 186.919 172.56ZM199.681 177.86C199.681 178.18 199.661 178.513 199.621 178.86H192.681C192.827 179.42 193.094 179.833 193.481 180.1C193.881 180.353 194.401 180.48 195.041 180.48C196.027 180.48 196.827 180.18 197.441 179.58L199.261 181.58C198.781 182.127 198.167 182.547 197.421 182.84C196.687 183.133 195.854 183.28 194.921 183.28C193.787 183.28 192.794 183.067 191.941 182.64C191.087 182.2 190.427 181.58 189.961 180.78C189.507 179.98 189.281 179.033 189.281 177.94C189.281 176.873 189.501 175.927 189.941 175.1C190.381 174.273 191.001 173.633 191.801 173.18C192.601 172.713 193.527 172.48 194.581 172.48C195.607 172.48 196.501 172.7 197.261 173.14C198.034 173.58 198.627 174.207 199.041 175.02C199.467 175.833 199.681 176.78 199.681 177.86ZM194.601 175.26C193.507 175.26 192.854 175.78 192.641 176.82H196.361C196.281 175.78 195.694 175.26 194.601 175.26ZM202.132 180.02H205.492L203.752 186.18H201.032L202.132 180.02ZM36.6 200.76V211H33.32V209.62C33.0267 210.153 32.6 210.567 32.04 210.86C31.48 211.14 30.8533 211.28 30.16 211.28C29.2933 211.28 28.5133 211.053 27.82 210.6C27.14 210.147 26.6067 209.513 26.22 208.7C25.8333 207.873 25.64 206.933 25.64 205.88C25.64 204.827 25.8333 203.893 26.22 203.08C26.6067 202.253 27.14 201.613 27.82 201.16C28.5133 200.707 29.2933 200.48 30.16 200.48C30.8533 200.48 31.48 200.627 32.04 200.92C32.6 201.2 33.0267 201.607 33.32 202.14V200.76H36.6ZM31.2 208.28C31.8667 208.28 32.3933 208.067 32.78 207.64C33.1667 207.2 33.36 206.613 33.36 205.88C33.36 205.147 33.1667 204.567 32.78 204.14C32.3933 203.7 31.8667 203.48 31.2 203.48C30.5333 203.48 30.0067 203.7 29.62 204.14C29.2333 204.567 29.04 205.147 29.04 205.88C29.04 206.613 29.2333 207.2 29.62 207.64C30.0067 208.067 30.5333 208.28 31.2 208.28ZM46.1339 200.48C47.2006 200.48 48.0406 200.813 48.6539 201.48C49.2806 202.133 49.5939 203.053 49.5939 204.24V211H46.2339V205.12C46.2339 204.587 46.1139 204.187 45.8739 203.92C45.6339 203.653 45.2606 203.52 44.7539 203.52C43.6339 203.52 43.0739 204.133 43.0739 205.36V211H39.7139V200.76H42.9939V202.14C43.2872 201.633 43.7006 201.233 44.2339 200.94C44.7806 200.633 45.4139 200.48 46.1339 200.48ZM58.9047 211L57.1247 208.04L55.3247 211H51.5647L54.9647 205.78L51.7647 200.76H55.4847L57.1247 203.52L58.7447 200.76H62.4647L59.2647 205.78L62.6647 211H58.9047ZM66.4905 199.54C65.8771 199.54 65.3838 199.367 65.0105 199.02C64.6371 198.66 64.4505 198.187 64.4505 197.6C64.4505 197.013 64.6371 196.547 65.0105 196.2C65.3838 195.84 65.8771 195.66 66.4905 195.66C67.1038 195.66 67.5971 195.84 67.9705 196.2C68.3438 196.547 68.5305 197.013 68.5305 197.6C68.5305 198.187 68.3438 198.66 67.9705 199.02C67.5971 199.367 67.1038 199.54 66.4905 199.54ZM64.8105 200.76H68.1705V211H64.8105V200.76ZM76.3531 211.28C75.2465 211.28 74.2731 211.047 73.4331 210.58C72.5931 210.1 71.9398 209.453 71.4731 208.64C71.0198 207.813 70.7931 206.893 70.7931 205.88C70.7931 204.867 71.0198 203.953 71.4731 203.14C71.9398 202.313 72.5931 201.667 73.4331 201.2C74.2731 200.72 75.2465 200.48 76.3531 200.48C77.4598 200.48 78.4331 200.72 79.2731 201.2C80.1131 201.667 80.7598 202.313 81.2131 203.14C81.6798 203.953 81.9131 204.867 81.9131 205.88C81.9131 206.893 81.6798 207.813 81.2131 208.64C80.7598 209.453 80.1131 210.1 79.2731 210.58C78.4331 211.047 77.4598 211.28 76.3531 211.28ZM76.3531 208.28C77.0198 208.28 77.5465 208.067 77.9331 207.64C78.3198 207.2 78.5131 206.613 78.5131 205.88C78.5131 205.147 78.3198 204.567 77.9331 204.14C77.5465 203.7 77.0198 203.48 76.3531 203.48C75.6865 203.48 75.1598 203.7 74.7731 204.14C74.3865 204.567 74.1931 205.147 74.1931 205.88C74.1931 206.613 74.3865 207.2 74.7731 207.64C75.1598 208.067 75.6865 208.28 76.3531 208.28ZM89.1955 211.28C87.6621 211.28 86.4688 210.907 85.6155 210.16C84.7755 209.4 84.3555 208.353 84.3555 207.02V200.76H87.7155V206.54C87.7155 207.7 88.2088 208.28 89.1955 208.28C90.1821 208.28 90.6755 207.7 90.6755 206.54V200.76H94.0355V207.02C94.0355 208.353 93.6088 209.4 92.7555 210.16C91.9155 210.907 90.7288 211.28 89.1955 211.28ZM101.075 211.28C100.102 211.28 99.1885 211.14 98.3352 210.86C97.4952 210.567 96.8085 210.16 96.2752 209.64L97.7152 207.34C98.1552 207.687 98.6818 207.973 99.2952 208.2C99.9218 208.427 100.528 208.54 101.115 208.54C101.502 208.54 101.795 208.493 101.995 208.4C102.195 208.293 102.295 208.153 102.295 207.98C102.295 207.807 102.215 207.667 102.055 207.56C101.908 207.453 101.668 207.36 101.335 207.28L99.5952 206.86C98.5552 206.607 97.8018 206.233 97.3352 205.74C96.8818 205.247 96.6552 204.64 96.6552 203.92C96.6552 202.88 97.0485 202.047 97.8352 201.42C98.6352 200.793 99.7218 200.48 101.095 200.48C101.988 200.48 102.822 200.613 103.595 200.88C104.382 201.147 105.022 201.507 105.515 201.96L104.035 204.24C102.982 203.573 101.995 203.24 101.075 203.24C100.715 203.24 100.442 203.293 100.255 203.4C100.082 203.493 99.9952 203.62 99.9952 203.78C99.9952 203.927 100.062 204.047 100.195 204.14C100.342 204.233 100.582 204.32 100.915 204.4L102.655 204.82C103.735 205.087 104.508 205.467 104.975 205.96C105.442 206.44 105.675 207.053 105.675 207.8C105.675 208.88 105.268 209.733 104.455 210.36C103.642 210.973 102.515 211.28 101.075 211.28ZM118.42 211.28C117.314 211.28 116.34 211.047 115.5 210.58C114.66 210.1 114.007 209.453 113.54 208.64C113.087 207.813 112.86 206.893 112.86 205.88C112.86 204.867 113.087 203.953 113.54 203.14C114.007 202.313 114.66 201.667 115.5 201.2C116.34 200.72 117.314 200.48 118.42 200.48C119.527 200.48 120.5 200.72 121.34 201.2C122.18 201.667 122.827 202.313 123.28 203.14C123.747 203.953 123.98 204.867 123.98 205.88C123.98 206.893 123.747 207.813 123.28 208.64C122.827 209.453 122.18 210.1 121.34 210.58C120.5 211.047 119.527 211.28 118.42 211.28ZM118.42 208.28C119.087 208.28 119.614 208.067 120 207.64C120.387 207.2 120.58 206.613 120.58 205.88C120.58 205.147 120.387 204.567 120 204.14C119.614 203.7 119.087 203.48 118.42 203.48C117.754 203.48 117.227 203.7 116.84 204.14C116.454 204.567 116.26 205.147 116.26 205.88C116.26 206.613 116.454 207.2 116.84 207.64C117.227 208.067 117.754 208.28 118.42 208.28ZM132.763 200.56C133.056 200.56 133.336 200.6 133.603 200.68V203.94C133.149 203.847 132.683 203.8 132.203 203.8C131.389 203.8 130.809 203.98 130.463 204.34C130.116 204.7 129.943 205.313 129.943 206.18V211H126.583V200.76H129.863V202.32C130.129 201.773 130.516 201.347 131.023 201.04C131.529 200.72 132.109 200.56 132.763 200.56ZM36.6 224.36V239H33.32V237.62C33.0267 238.153 32.6 238.567 32.04 238.86C31.48 239.14 30.8533 239.28 30.16 239.28C29.2933 239.28 28.5133 239.053 27.82 238.6C27.14 238.147 26.6067 237.513 26.22 236.7C25.8333 235.873 25.64 234.933 25.64 233.88C25.64 232.827 25.8333 231.893 26.22 231.08C26.6067 230.253 27.14 229.613 27.82 229.16C28.5133 228.707 29.2933 228.48 30.16 228.48C30.8133 228.48 31.4133 228.613 31.96 228.88C32.5067 229.147 32.9333 229.527 33.24 230.02V224.36H36.6ZM31.2 236.28C31.8667 236.28 32.3933 236.067 32.78 235.64C33.1667 235.2 33.36 234.613 33.36 233.88C33.36 233.147 33.1667 232.567 32.78 232.14C32.3933 231.7 31.8667 231.48 31.2 231.48C30.5333 231.48 30.0067 231.7 29.62 232.14C29.2333 232.567 29.04 233.147 29.04 233.88C29.04 234.613 29.2333 235.2 29.62 235.64C30.0067 236.067 30.5333 236.28 31.2 236.28ZM41.4139 227.54C40.8006 227.54 40.3072 227.367 39.9339 227.02C39.5606 226.66 39.3739 226.187 39.3739 225.6C39.3739 225.013 39.5606 224.547 39.9339 224.2C40.3072 223.84 40.8006 223.66 41.4139 223.66C42.0272 223.66 42.5206 223.84 42.8939 224.2C43.2672 224.547 43.4539 225.013 43.4539 225.6C43.4539 226.187 43.2672 226.66 42.8939 227.02C42.5206 227.367 42.0272 227.54 41.4139 227.54ZM39.7339 228.76H43.0939V239H39.7339V228.76ZM50.3166 239.28C49.3432 239.28 48.4299 239.14 47.5766 238.86C46.7366 238.567 46.0499 238.16 45.5166 237.64L46.9566 235.34C47.3966 235.687 47.9232 235.973 48.5366 236.2C49.1632 236.427 49.7699 236.54 50.3566 236.54C50.7432 236.54 51.0366 236.493 51.2366 236.4C51.4366 236.293 51.5366 236.153 51.5366 235.98C51.5366 235.807 51.4566 235.667 51.2966 235.56C51.1499 235.453 50.9099 235.36 50.5766 235.28L48.8366 234.86C47.7966 234.607 47.0432 234.233 46.5766 233.74C46.1232 233.247 45.8966 232.64 45.8966 231.92C45.8966 230.88 46.2899 230.047 47.0766 229.42C47.8766 228.793 48.9632 228.48 50.3366 228.48C51.2299 228.48 52.0632 228.613 52.8366 228.88C53.6232 229.147 54.2632 229.507 54.7566 229.96L53.2766 232.24C52.2232 231.573 51.2366 231.24 50.3166 231.24C49.9566 231.24 49.6832 231.293 49.4966 231.4C49.3232 231.493 49.2366 231.62 49.2366 231.78C49.2366 231.927 49.3032 232.047 49.4366 232.14C49.5832 232.233 49.8232 232.32 50.1566 232.4L51.8966 232.82C52.9766 233.087 53.7499 233.467 54.2166 233.96C54.6832 234.44 54.9166 235.053 54.9166 235.8C54.9166 236.88 54.5099 237.733 53.6966 238.36C52.8832 238.973 51.7566 239.28 50.3166 239.28ZM61.4681 239.28C60.4948 239.28 59.5815 239.14 58.7281 238.86C57.8881 238.567 57.2015 238.16 56.6681 237.64L58.1081 235.34C58.5481 235.687 59.0748 235.973 59.6881 236.2C60.3148 236.427 60.9215 236.54 61.5081 236.54C61.8948 236.54 62.1881 236.493 62.3881 236.4C62.5881 236.293 62.6881 236.153 62.6881 235.98C62.6881 235.807 62.6081 235.667 62.4481 235.56C62.3015 235.453 62.0615 235.36 61.7281 235.28L59.9881 234.86C58.9481 234.607 58.1948 234.233 57.7281 233.74C57.2748 233.247 57.0481 232.64 57.0481 231.92C57.0481 230.88 57.4415 230.047 58.2281 229.42C59.0281 228.793 60.1148 228.48 61.4881 228.48C62.3815 228.48 63.2148 228.613 63.9881 228.88C64.7748 229.147 65.4148 229.507 65.9081 229.96L64.4281 232.24C63.3748 231.573 62.3881 231.24 61.4681 231.24C61.1081 231.24 60.8348 231.293 60.6481 231.4C60.4748 231.493 60.3881 231.62 60.3881 231.78C60.3881 231.927 60.4548 232.047 60.5881 232.14C60.7348 232.233 60.9748 232.32 61.3081 232.4L63.0481 232.82C64.1281 233.087 64.9015 233.467 65.3681 233.96C65.8348 234.44 66.0681 235.053 66.0681 235.8C66.0681 236.88 65.6615 237.733 64.8481 238.36C64.0348 238.973 62.9081 239.28 61.4681 239.28ZM79.0188 228.76V239H75.7388V237.62C75.4454 238.153 75.0188 238.567 74.4588 238.86C73.8988 239.14 73.2721 239.28 72.5788 239.28C71.7121 239.28 70.9321 239.053 70.2388 238.6C69.5588 238.147 69.0254 237.513 68.6388 236.7C68.2521 235.873 68.0588 234.933 68.0588 233.88C68.0588 232.827 68.2521 231.893 68.6388 231.08C69.0254 230.253 69.5588 229.613 70.2388 229.16C70.9321 228.707 71.7121 228.48 72.5788 228.48C73.2721 228.48 73.8988 228.627 74.4588 228.92C75.0188 229.2 75.4454 229.607 75.7388 230.14V228.76H79.0188ZM73.6188 236.28C74.2854 236.28 74.8121 236.067 75.1988 235.64C75.5854 235.2 75.7788 234.613 75.7788 233.88C75.7788 233.147 75.5854 232.567 75.1988 232.14C74.8121 231.7 74.2854 231.48 73.6188 231.48C72.9521 231.48 72.4254 231.7 72.0388 232.14C71.6521 232.567 71.4588 233.147 71.4588 233.88C71.4588 234.613 71.6521 235.2 72.0388 235.64C72.4254 236.067 72.9521 236.28 73.6188 236.28ZM86.8727 239.14C85.526 239.14 84.5593 238.867 83.9727 238.32C83.386 237.773 83.0927 236.86 83.0927 235.58V231.72H81.3327V228.76H83.0927V225.76H86.4527V228.76H88.9727V231.72H86.4527V235C86.4527 235.427 86.546 235.727 86.7327 235.9C86.9193 236.06 87.2527 236.14 87.7327 236.14C88.1727 236.14 88.5993 236.093 89.0127 236V238.86C88.3727 239.047 87.6593 239.14 86.8727 239.14ZM93.3436 227.54C92.7303 227.54 92.2369 227.367 91.8636 227.02C91.4903 226.66 91.3036 226.187 91.3036 225.6C91.3036 225.013 91.4903 224.547 91.8636 224.2C92.2369 223.84 92.7303 223.66 93.3436 223.66C93.9569 223.66 94.4503 223.84 94.8236 224.2C95.1969 224.547 95.3836 225.013 95.3836 225.6C95.3836 226.187 95.1969 226.66 94.8236 227.02C94.4503 227.367 93.9569 227.54 93.3436 227.54ZM91.6636 228.76H95.0236V239H91.6636V228.76ZM102.246 239.28C101.273 239.28 100.36 239.14 99.5062 238.86C98.6662 238.567 97.9796 238.16 97.4462 237.64L98.8862 235.34C99.3262 235.687 99.8529 235.973 100.466 236.2C101.093 236.427 101.7 236.54 102.286 236.54C102.673 236.54 102.966 236.493 103.166 236.4C103.366 236.293 103.466 236.153 103.466 235.98C103.466 235.807 103.386 235.667 103.226 235.56C103.08 235.453 102.84 235.36 102.506 235.28L100.766 234.86C99.7262 234.607 98.9729 234.233 98.5062 233.74C98.0529 233.247 97.8262 232.64 97.8262 231.92C97.8262 230.88 98.2196 230.047 99.0062 229.42C99.8062 228.793 100.893 228.48 102.266 228.48C103.16 228.48 103.993 228.613 104.766 228.88C105.553 229.147 106.193 229.507 106.686 229.96L105.206 232.24C104.153 231.573 103.166 231.24 102.246 231.24C101.886 231.24 101.613 231.293 101.426 231.4C101.253 231.493 101.166 231.62 101.166 231.78C101.166 231.927 101.233 232.047 101.366 232.14C101.513 232.233 101.753 232.32 102.086 232.4L103.826 232.82C104.906 233.087 105.68 233.467 106.146 233.96C106.613 234.44 106.846 235.053 106.846 235.8C106.846 236.88 106.44 237.733 105.626 238.36C104.813 238.973 103.686 239.28 102.246 239.28ZM110.397 231.72H108.597V228.76H110.397V227.7C110.397 225.353 111.744 224.18 114.437 224.18C115.037 224.18 115.637 224.24 116.237 224.36V227.2C115.81 227.133 115.457 227.1 115.177 227.1C114.67 227.1 114.304 227.187 114.077 227.36C113.864 227.52 113.757 227.767 113.757 228.1V228.76H116.237V231.72H113.757V239H110.397V231.72ZM120.216 227.54C119.603 227.54 119.11 227.367 118.736 227.02C118.363 226.66 118.176 226.187 118.176 225.6C118.176 225.013 118.363 224.547 118.736 224.2C119.11 223.84 119.603 223.66 120.216 223.66C120.83 223.66 121.323 223.84 121.696 224.2C122.07 224.547 122.256 225.013 122.256 225.6C122.256 226.187 122.07 226.66 121.696 227.02C121.323 227.367 120.83 227.54 120.216 227.54ZM118.536 228.76H121.896V239H118.536V228.76ZM134.919 233.86C134.919 234.18 134.899 234.513 134.859 234.86H127.919C128.066 235.42 128.332 235.833 128.719 236.1C129.119 236.353 129.639 236.48 130.279 236.48C131.266 236.48 132.066 236.18 132.679 235.58L134.499 237.58C134.019 238.127 133.406 238.547 132.659 238.84C131.926 239.133 131.092 239.28 130.159 239.28C129.026 239.28 128.032 239.067 127.179 238.64C126.326 238.2 125.666 237.58 125.199 236.78C124.746 235.98 124.519 235.033 124.519 233.94C124.519 232.873 124.739 231.927 125.179 231.1C125.619 230.273 126.239 229.633 127.039 229.18C127.839 228.713 128.766 228.48 129.819 228.48C130.846 228.48 131.739 228.7 132.499 229.14C133.272 229.58 133.866 230.207 134.279 231.02C134.706 231.833 134.919 232.78 134.919 233.86ZM129.839 231.26C128.746 231.26 128.092 231.78 127.879 232.82H131.599C131.519 231.78 130.932 231.26 129.839 231.26ZM147.92 224.36V239H144.64V237.62C144.346 238.153 143.92 238.567 143.36 238.86C142.8 239.14 142.173 239.28 141.48 239.28C140.613 239.28 139.833 239.053 139.14 238.6C138.46 238.147 137.926 237.513 137.54 236.7C137.153 235.873 136.96 234.933 136.96 233.88C136.96 232.827 137.153 231.893 137.54 231.08C137.926 230.253 138.46 229.613 139.14 229.16C139.833 228.707 140.613 228.48 141.48 228.48C142.133 228.48 142.733 228.613 143.28 228.88C143.826 229.147 144.253 229.527 144.56 230.02V224.36H147.92ZM142.52 236.28C143.186 236.28 143.713 236.067 144.1 235.64C144.486 235.2 144.68 234.613 144.68 233.88C144.68 233.147 144.486 232.567 144.1 232.14C143.713 231.7 143.186 231.48 142.52 231.48C141.853 231.48 141.326 231.7 140.94 232.14C140.553 232.567 140.36 233.147 140.36 233.88C140.36 234.613 140.553 235.2 140.94 235.64C141.326 236.067 141.853 236.28 142.52 236.28ZM152.713 233.06C152.713 232.593 152.753 232.227 152.833 231.96C152.913 231.68 153.06 231.413 153.273 231.16C153.487 230.907 153.833 230.58 154.313 230.18L155.173 229.46C155.6 229.1 155.813 228.753 155.813 228.42C155.813 228.167 155.72 227.973 155.533 227.84C155.36 227.707 155.113 227.64 154.793 227.64C153.913 227.64 153.14 228.18 152.473 229.26L150.073 227.64C150.527 226.747 151.16 226.04 151.973 225.52C152.8 224.987 153.76 224.72 154.853 224.72C155.653 224.72 156.373 224.867 157.013 225.16C157.653 225.453 158.153 225.873 158.513 226.42C158.873 226.967 159.053 227.6 159.053 228.32C159.053 228.867 158.927 229.373 158.673 229.84C158.42 230.307 157.973 230.807 157.333 231.34L156.593 231.96C156.273 232.227 156.073 232.433 155.993 232.58C155.913 232.727 155.873 232.96 155.873 233.28V234H152.713V233.06ZM154.293 239.28C153.64 239.28 153.12 239.087 152.733 238.7C152.347 238.313 152.153 237.793 152.153 237.14C152.153 236.473 152.347 235.953 152.733 235.58C153.12 235.193 153.64 235 154.293 235C154.96 235 155.48 235.193 155.853 235.58C156.24 235.953 156.433 236.473 156.433 237.14C156.433 237.793 156.24 238.313 155.853 238.7C155.48 239.087 154.96 239.28 154.293 239.28Z" fill="white"/>
<path d="M403.923 184.014H346.815V274.629H403.923V184.014Z" fill="#B2B2B2"/>
<path d="M347.038 184.014H289.93V274.629H347.038V184.014Z" fill="#D1D1D1"/>
<path d="M317.118 74.1275L314.683 122.836L303.236 158.554H323.845L334.549 127.779L337.895 92.8043L317.118 74.1275Z" fill="#F7EBE7"/>
<path d="M316.542 244.374L320.686 263.683L306.767 265.337L302.808 246.325L316.542 244.374Z" fill="#FCC9A7"/>
<path d="M321.522 261.936C321.169 260.895 320.054 260.523 319.292 261.192C317.806 262.512 315.13 264.129 311.171 263.738C307.064 263.33 305.522 260.914 304.927 259.167C304.611 258.256 303.738 257.792 302.957 258.182L278.036 270.707C276.531 271.469 275.342 272.882 274.747 274.647C274.189 276.301 275.304 278.085 276.865 278.048L319.924 276.859C321.615 276.821 322.916 275.149 322.767 273.216L322.061 263.738C322.043 263.59 322.024 263.422 321.968 263.274L321.522 261.936Z" fill="#1F252A"/>
<path d="M316.3 151.009H283.983C283.983 151.009 264.303 149.912 263.132 166.062C261.961 182.211 291.993 228.411 296.694 253.09L323.715 250.86L304.258 183.754L352.65 184.032C356.237 184.051 359.805 183.531 363.187 182.36C372.609 179.089 386.993 174.406 379.151 148.463L316.3 151.009Z" fill="#092330"/>
<path d="M341.24 244.448L347.819 267.53L333.899 269.184L327.506 246.4L341.24 244.448Z" fill="#FCC9A7"/>
<path d="M348.655 265.783C348.302 264.742 347.187 264.37 346.425 265.039C344.938 266.359 342.262 267.976 338.304 267.585C334.197 267.177 332.654 264.761 332.059 263.014C331.743 262.103 330.87 261.639 330.089 262.029L305.169 274.554C303.663 275.316 302.474 276.729 301.879 278.494C301.322 280.148 302.437 281.932 303.998 281.895L347.8 280.706C349.491 280.668 350.792 278.996 350.643 277.063L349.175 267.585C349.156 267.437 349.138 267.269 349.082 267.121L348.655 265.783Z" fill="#1F252A"/>
<path d="M354.918 54.9862C355.642 55.6924 388.071 63.9622 388.071 63.9622L381.139 82.3788L345.681 79.7027L354.918 54.9862Z" fill="#F7EBE7"/>
<path d="M341.537 59.4278C341.537 59.4278 320.408 67.1401 317.118 74.1276C318.252 83.9956 321.727 93.492 327.451 101.613C334.475 111.574 343.154 128.69 341.556 151.009H402.641C402.641 151.009 399.352 88.2142 381.27 64.1109L341.537 59.4278Z" fill="#F7EBE7"/>
<path d="M348.469 69.3887C354.471 68.1622 358.337 62.3083 357.11 56.3057L353.523 38.744L331.799 43.1855L335.386 60.7472C336.612 66.7498 342.466 70.6152 348.469 69.3887Z" fill="#FCC9A7"/>
<path d="M355.01 44.8766C355.01 44.8766 352.724 59.1119 341.648 59.9667C331.948 60.7101 332.877 46.6793 332.877 46.6793L355.01 44.8766Z" fill="#F4BE9A"/>
<path d="M342.522 52.1615L344.436 51.7155C354.044 49.4854 360.028 39.8961 357.798 30.3069L355.27 19.361C353.04 9.75317 343.451 3.76917 333.862 5.99923L331.948 6.44525C322.34 8.67531 316.356 18.2646 318.586 27.8538L321.113 38.7997C323.343 48.4076 332.933 54.3915 342.522 52.1615Z" fill="#FCC9A7"/>
<path d="M351.777 34.8599C351.331 35.6218 350.903 36.774 350.755 38.5209C350.587 40.7324 349.472 42.8324 347.614 44.0589C342.28 47.5898 338.211 38.651 330.331 40.2306C330.331 40.2306 327.246 40.6952 326.633 44.1332C326.02 47.5527 321.727 41.5687 320.779 37.4802C319.831 33.3918 319.348 57.718 338.75 55.6552C338.75 55.6552 348.543 55.3393 355.14 45.3598C355.865 44.2633 356.293 42.981 356.33 41.6616C356.385 39.7103 356.107 36.7554 354.248 34.6369C353.598 33.8564 352.297 33.9679 351.777 34.8599Z" fill="#1C2226"/>
<path d="M351.795 29.3405C351.795 29.3405 343.414 26.5715 344.826 14.3248C344.826 14.3248 324.013 34.0237 308.588 19.5654C308.588 19.5654 315.483 17.7256 318.326 13.0053C323.511 4.40103 338.415 -7.45545 350.346 6.25942C350.346 6.25942 364.86 4.01077 360.697 26.3671L351.795 29.3405Z" fill="#1C2226"/>
<path d="M351.795 29.3405C352.594 32.7599 356.014 34.897 359.433 34.1165C362.871 33.3174 364.99 29.898 364.209 26.4785C363.41 23.0591 359.991 20.922 356.571 21.7025C353.133 22.5016 350.996 25.921 351.795 29.3405Z" fill="#FCC9A7"/>
<path d="M341.203 68.701L350.179 68.8683L343.897 81.877L337.114 69.4072L341.203 68.701Z" fill="#0C2C40"/>
<path d="M357.872 55.5623L346.313 69.0542L353.84 77.6957L367.685 58.6658C367.685 58.6658 364.135 52.9606 357.872 55.5623Z" fill="#FFF7F3"/>
<path d="M341.203 68.7011L334.55 76.209L329.866 64.5012C329.866 64.5012 331.093 59.2419 334.921 60.2455L341.203 68.7011Z" fill="#FFF7F3"/>
<path d="M343.656 77.677C343.656 77.677 334.977 100.312 337.133 132.425L345.681 140.23L355.661 130.622L344.901 76.2089L343.656 77.677Z" fill="#0C2C40"/>
<path d="M359.879 131.422L341.296 137.536L340.069 148.444L364.711 141.085L359.879 131.422Z" fill="#FCC9A7"/>
<path d="M344.064 144.746C344.064 151.12 338.898 156.305 332.505 156.305C326.131 156.305 320.946 151.139 320.946 144.746C320.946 138.372 326.112 133.187 332.505 133.187C338.88 133.187 344.064 138.353 344.064 144.746Z" fill="#FCC9A7"/>
<path d="M341.537 151.009H309.239C309.239 151.009 289.558 149.912 288.388 166.062C287.217 182.211 319.46 231.384 324.161 256.045L351.182 253.815L329.514 183.735L377.906 184.014C381.493 184.032 385.061 183.512 388.443 182.341C397.865 179.07 412.249 174.387 404.406 148.444L341.537 151.009Z" fill="#0C2C40"/>
<path d="M244.102 93.9008H299.947C301.786 93.9008 303.366 95.183 303.756 96.9857L314.275 146.307C314.795 148.723 312.937 151.009 310.465 151.009H253.691C251.833 151.009 250.235 149.689 249.882 147.868L240.292 98.5467C239.809 96.1308 241.649 93.9008 244.102 93.9008Z" fill="#B2B2B2"/>
<path d="M240.887 93.9008H296.713C298.553 93.9008 300.132 95.183 300.523 96.9857L311.041 146.307C311.561 148.723 309.722 151.009 307.231 151.009H250.476C248.618 151.009 247.02 149.689 246.667 147.868L237.077 98.5467C236.594 96.1308 238.434 93.9008 240.887 93.9008Z" fill="#D1D1D1"/>
<path d="M312.751 146.79H350.903C352.074 146.79 353.003 147.738 353.003 148.89C353.003 150.061 352.056 150.99 350.903 150.99H312.007L312.751 146.79Z" fill="#B2B2B2"/>
<path d="M275.453 121.163C275.453 124.527 272.74 127.24 269.376 127.24C266.012 127.24 263.299 124.508 263.299 121.163C263.299 117.8 266.031 115.086 269.376 115.086C272.74 115.086 275.453 117.8 275.453 121.163Z" fill="white"/>
<path d="M374.746 81.5054L395.151 114.455L346.313 131.886L353.003 146.344C353.003 146.344 394.761 141.661 414.943 126.107C416.802 124.676 417.731 122.353 417.415 120.03C416.467 112.596 412.416 94.5512 395.151 68.9055C391.639 63.6835 384.651 62.1039 379.206 65.2631C373.538 68.5339 371.55 75.7816 374.746 81.5054Z" fill="#F7EBE7"/>
<path d="M359.303 127.24L395.151 114.455L377.218 85.4824" stroke="#EADDD8" stroke-width="0.7599" stroke-miterlimit="10" stroke-linecap="round" stroke-linejoin="round"/>
<path d="M335.033 116.332L326.206 93.0274" stroke="#EADDD8" stroke-width="0.7599" stroke-miterlimit="10" stroke-linecap="round" stroke-linejoin="round"/>
<path d="M359.88 145.359C359.88 145.359 387.309 141.921 401.136 134.005" stroke="#EADDD8" stroke-width="0.7599" stroke-miterlimit="10" stroke-linecap="round" stroke-linejoin="round"/>
<defs>
<filter id="filter0_d" x="0" y="5" width="413" height="378" filterUnits="userSpaceOnUse" color-interpolation-filters="sRGB">
<feFlood flood-opacity="0" result="BackgroundImageFix"/>
<feColorMatrix in="SourceAlpha" type="matrix" values="0 0 0 0 0 0 0 0 0 0 0 0 0 0 0 0 0 0 127 0"/>
<feOffset dx="16" dy="16"/>
<feGaussianBlur stdDeviation="8"/>
<feColorMatrix type="matrix" values="0 0 0 0 0.227451 0 0 0 0 0.25098 0 0 0 0 0.356863 0 0 0 0.16 0"/>
<feBlend mode="normal" in2="BackgroundImageFix" result="effect1_dropShadow"/>
<feBlend mode="normal" in="SourceGraphic" in2="effect1_dropShadow" result="shape"/>
</filter>
</defs>
</svg>
