<svg width="692" height="683" viewBox="0 0 692 683" fill="none" xmlns="http://www.w3.org/2000/svg">
<g filter="url(#filter0_d)">
<path fill-rule="evenodd" clip-rule="evenodd" d="M444.585 155.435C488.187 183.033 544.939 200.084 567.577 244.24C590.234 288.43 567.526 334.344 559.072 378.736C551.187 420.143 548.009 464.399 519.882 494.686C491.505 525.242 448.367 540.041 403.735 546.001C360.332 551.796 315.149 542.71 270.937 527.925C225.215 512.635 176.853 495.799 144.943 459.456C113.035 423.113 107.022 376.176 98.8901 331.972C90.8008 287.999 81.6016 242.417 97.9328 203.908C114.502 164.837 150.912 139.231 189.281 118.826C227.989 98.242 270.953 79.7775 318.523 86.5987C365.32 93.3088 403.225 129.255 444.585 155.435Z" fill="#1B4C8E"/>
</g>
<path d="M367.3 341C370.913 341 372.72 342.6 372.72 345.8C372.72 349 370.913 350.6 367.3 350.6H364.84V355H361.36V341H367.3ZM367.14 347.46C367.833 347.46 368.333 347.327 368.64 347.06C368.947 346.793 369.1 346.373 369.1 345.8C369.1 345.24 368.947 344.833 368.64 344.58C368.333 344.327 367.833 344.2 367.14 344.2H364.84V347.46H367.14ZM385.408 344.76V355H382.128V353.62C381.834 354.153 381.408 354.567 380.848 354.86C380.288 355.14 379.661 355.28 378.968 355.28C378.101 355.28 377.321 355.053 376.628 354.6C375.948 354.147 375.414 353.513 375.028 352.7C374.641 351.873 374.448 350.933 374.448 349.88C374.448 348.827 374.641 347.893 375.028 347.08C375.414 346.253 375.948 345.613 376.628 345.16C377.321 344.707 378.101 344.48 378.968 344.48C379.661 344.48 380.288 344.627 380.848 344.92C381.408 345.2 381.834 345.607 382.128 346.14V344.76H385.408ZM380.008 352.28C380.674 352.28 381.201 352.067 381.588 351.64C381.974 351.2 382.168 350.613 382.168 349.88C382.168 349.147 381.974 348.567 381.588 348.14C381.201 347.7 380.674 347.48 380.008 347.48C379.341 347.48 378.814 347.7 378.428 348.14C378.041 348.567 377.848 349.147 377.848 349.88C377.848 350.613 378.041 351.2 378.428 351.64C378.814 352.067 379.341 352.28 380.008 352.28ZM392.602 355.28C391.628 355.28 390.715 355.14 389.862 354.86C389.022 354.567 388.335 354.16 387.802 353.64L389.242 351.34C389.682 351.687 390.208 351.973 390.822 352.2C391.448 352.427 392.055 352.54 392.642 352.54C393.028 352.54 393.322 352.493 393.522 352.4C393.722 352.293 393.822 352.153 393.822 351.98C393.822 351.807 393.742 351.667 393.582 351.56C393.435 351.453 393.195 351.36 392.862 351.28L391.122 350.86C390.082 350.607 389.328 350.233 388.862 349.74C388.408 349.247 388.182 348.64 388.182 347.92C388.182 346.88 388.575 346.047 389.362 345.42C390.162 344.793 391.248 344.48 392.622 344.48C393.515 344.48 394.348 344.613 395.122 344.88C395.908 345.147 396.548 345.507 397.042 345.96L395.562 348.24C394.508 347.573 393.522 347.24 392.602 347.24C392.242 347.24 391.968 347.293 391.782 347.4C391.608 347.493 391.522 347.62 391.522 347.78C391.522 347.927 391.588 348.047 391.722 348.14C391.868 348.233 392.108 348.32 392.442 348.4L394.182 348.82C395.262 349.087 396.035 349.467 396.502 349.96C396.968 350.44 397.202 351.053 397.202 351.8C397.202 352.88 396.795 353.733 395.982 354.36C395.168 354.973 394.042 355.28 392.602 355.28ZM403.753 355.28C402.78 355.28 401.867 355.14 401.013 354.86C400.173 354.567 399.487 354.16 398.953 353.64L400.393 351.34C400.833 351.687 401.36 351.973 401.973 352.2C402.6 352.427 403.207 352.54 403.793 352.54C404.18 352.54 404.473 352.493 404.673 352.4C404.873 352.293 404.973 352.153 404.973 351.98C404.973 351.807 404.893 351.667 404.733 351.56C404.587 351.453 404.347 351.36 404.013 351.28L402.273 350.86C401.233 350.607 400.48 350.233 400.013 349.74C399.56 349.247 399.333 348.64 399.333 347.92C399.333 346.88 399.727 346.047 400.513 345.42C401.313 344.793 402.4 344.48 403.773 344.48C404.667 344.48 405.5 344.613 406.273 344.88C407.06 345.147 407.7 345.507 408.193 345.96L406.713 348.24C405.66 347.573 404.673 347.24 403.753 347.24C403.393 347.24 403.12 347.293 402.933 347.4C402.76 347.493 402.673 347.62 402.673 347.78C402.673 347.927 402.74 348.047 402.873 348.14C403.02 348.233 403.26 348.32 403.593 348.4L405.333 348.82C406.413 349.087 407.187 349.467 407.653 349.96C408.12 350.44 408.353 351.053 408.353 351.8C408.353 352.88 407.947 353.733 407.133 354.36C406.32 354.973 405.193 355.28 403.753 355.28ZM412.564 343.54C411.951 343.54 411.457 343.367 411.084 343.02C410.711 342.66 410.524 342.187 410.524 341.6C410.524 341.013 410.711 340.547 411.084 340.2C411.457 339.84 411.951 339.66 412.564 339.66C413.177 339.66 413.671 339.84 414.044 340.2C414.417 340.547 414.604 341.013 414.604 341.6C414.604 342.187 414.417 342.66 414.044 343.02C413.671 343.367 413.177 343.54 412.564 343.54ZM410.884 344.76H414.244V355H410.884V344.76ZM422.427 355.28C421.32 355.28 420.347 355.047 419.507 354.58C418.667 354.1 418.013 353.453 417.547 352.64C417.093 351.813 416.867 350.893 416.867 349.88C416.867 348.867 417.093 347.953 417.547 347.14C418.013 346.313 418.667 345.667 419.507 345.2C420.347 344.72 421.32 344.48 422.427 344.48C423.533 344.48 424.507 344.72 425.347 345.2C426.187 345.667 426.833 346.313 427.287 347.14C427.753 347.953 427.987 348.867 427.987 349.88C427.987 350.893 427.753 351.813 427.287 352.64C426.833 353.453 426.187 354.1 425.347 354.58C424.507 355.047 423.533 355.28 422.427 355.28ZM422.427 352.28C423.093 352.28 423.62 352.067 424.007 351.64C424.393 351.2 424.587 350.613 424.587 349.88C424.587 349.147 424.393 348.567 424.007 348.14C423.62 347.7 423.093 347.48 422.427 347.48C421.76 347.48 421.233 347.7 420.847 348.14C420.46 348.567 420.267 349.147 420.267 349.88C420.267 350.613 420.46 351.2 420.847 351.64C421.233 352.067 421.76 352.28 422.427 352.28ZM437.009 344.48C438.076 344.48 438.916 344.813 439.529 345.48C440.156 346.133 440.469 347.053 440.469 348.24V355H437.109V349.12C437.109 348.587 436.989 348.187 436.749 347.92C436.509 347.653 436.136 347.52 435.629 347.52C434.509 347.52 433.949 348.133 433.949 349.36V355H430.589V344.76H433.869V346.14C434.162 345.633 434.576 345.233 435.109 344.94C435.656 344.633 436.289 344.48 437.009 344.48ZM453.958 344.76V355H450.678V353.62C450.384 354.153 449.958 354.567 449.398 354.86C448.838 355.14 448.211 355.28 447.518 355.28C446.651 355.28 445.871 355.053 445.178 354.6C444.498 354.147 443.964 353.513 443.578 352.7C443.191 351.873 442.998 350.933 442.998 349.88C442.998 348.827 443.191 347.893 443.578 347.08C443.964 346.253 444.498 345.613 445.178 345.16C445.871 344.707 446.651 344.48 447.518 344.48C448.211 344.48 448.838 344.627 449.398 344.92C449.958 345.2 450.384 345.607 450.678 346.14V344.76H453.958ZM448.558 352.28C449.224 352.28 449.751 352.067 450.138 351.64C450.524 351.2 450.718 350.613 450.718 349.88C450.718 349.147 450.524 348.567 450.138 348.14C449.751 347.7 449.224 347.48 448.558 347.48C447.891 347.48 447.364 347.7 446.978 348.14C446.591 348.567 446.398 349.147 446.398 349.88C446.398 350.613 446.591 351.2 446.978 351.64C447.364 352.067 447.891 352.28 448.558 352.28ZM461.812 355.14C460.465 355.14 459.498 354.867 458.912 354.32C458.325 353.773 458.032 352.86 458.032 351.58V347.72H456.272V344.76H458.032V341.76H461.392V344.76H463.912V347.72H461.392V351C461.392 351.427 461.485 351.727 461.672 351.9C461.858 352.06 462.192 352.14 462.672 352.14C463.112 352.14 463.538 352.093 463.952 352V354.86C463.312 355.047 462.598 355.14 461.812 355.14ZM476.306 349.86C476.306 350.18 476.286 350.513 476.246 350.86H469.306C469.453 351.42 469.72 351.833 470.106 352.1C470.506 352.353 471.026 352.48 471.666 352.48C472.653 352.48 473.453 352.18 474.066 351.58L475.886 353.58C475.406 354.127 474.793 354.547 474.046 354.84C473.313 355.133 472.48 355.28 471.546 355.28C470.413 355.28 469.42 355.067 468.566 354.64C467.713 354.2 467.053 353.58 466.586 352.78C466.133 351.98 465.906 351.033 465.906 349.94C465.906 348.873 466.126 347.927 466.566 347.1C467.006 346.273 467.626 345.633 468.426 345.18C469.226 344.713 470.153 344.48 471.206 344.48C472.233 344.48 473.126 344.7 473.886 345.14C474.66 345.58 475.253 346.207 475.666 347.02C476.093 347.833 476.306 348.78 476.306 349.86ZM471.226 347.26C470.133 347.26 469.48 347.78 469.266 348.82H472.986C472.906 347.78 472.32 347.26 471.226 347.26ZM494.502 344.76V355H491.222V353.62C490.928 354.153 490.502 354.567 489.942 354.86C489.382 355.14 488.755 355.28 488.062 355.28C487.195 355.28 486.415 355.053 485.722 354.6C485.042 354.147 484.508 353.513 484.122 352.7C483.735 351.873 483.542 350.933 483.542 349.88C483.542 348.827 483.735 347.893 484.122 347.08C484.508 346.253 485.042 345.613 485.722 345.16C486.415 344.707 487.195 344.48 488.062 344.48C488.755 344.48 489.382 344.627 489.942 344.92C490.502 345.2 490.928 345.607 491.222 346.14V344.76H494.502ZM489.102 352.28C489.768 352.28 490.295 352.067 490.682 351.64C491.068 351.2 491.262 350.613 491.262 349.88C491.262 349.147 491.068 348.567 490.682 348.14C490.295 347.7 489.768 347.48 489.102 347.48C488.435 347.48 487.908 347.7 487.522 348.14C487.135 348.567 486.942 349.147 486.942 349.88C486.942 350.613 487.135 351.2 487.522 351.64C487.908 352.067 488.435 352.28 489.102 352.28ZM504.055 344.48C504.922 344.48 505.695 344.707 506.375 345.16C507.069 345.613 507.609 346.253 507.995 347.08C508.382 347.893 508.575 348.827 508.575 349.88C508.575 350.933 508.382 351.873 507.995 352.7C507.609 353.513 507.069 354.147 506.375 354.6C505.695 355.053 504.922 355.28 504.055 355.28C503.362 355.28 502.735 355.14 502.175 354.86C501.615 354.567 501.189 354.153 500.895 353.62V355H497.615V340.36H500.975V346.02C501.282 345.527 501.709 345.147 502.255 344.88C502.802 344.613 503.402 344.48 504.055 344.48ZM503.015 352.28C503.682 352.28 504.209 352.067 504.595 351.64C504.982 351.2 505.175 350.613 505.175 349.88C505.175 349.147 504.982 348.567 504.595 348.14C504.209 347.7 503.682 347.48 503.015 347.48C502.349 347.48 501.822 347.7 501.435 348.14C501.049 348.567 500.855 349.147 500.855 349.88C500.855 350.613 501.049 351.2 501.435 351.64C501.822 352.067 502.349 352.28 503.015 352.28ZM516.209 355.28C515.103 355.28 514.129 355.047 513.289 354.58C512.449 354.1 511.796 353.453 511.329 352.64C510.876 351.813 510.649 350.893 510.649 349.88C510.649 348.867 510.876 347.953 511.329 347.14C511.796 346.313 512.449 345.667 513.289 345.2C514.129 344.72 515.103 344.48 516.209 344.48C517.316 344.48 518.289 344.72 519.129 345.2C519.969 345.667 520.616 346.313 521.069 347.14C521.536 347.953 521.769 348.867 521.769 349.88C521.769 350.893 521.536 351.813 521.069 352.64C520.616 353.453 519.969 354.1 519.129 354.58C518.289 355.047 517.316 355.28 516.209 355.28ZM516.209 352.28C516.876 352.28 517.403 352.067 517.789 351.64C518.176 351.2 518.369 350.613 518.369 349.88C518.369 349.147 518.176 348.567 517.789 348.14C517.403 347.7 516.876 347.48 516.209 347.48C515.543 347.48 515.016 347.7 514.629 348.14C514.243 348.567 514.049 349.147 514.049 349.88C514.049 350.613 514.243 351.2 514.629 351.64C515.016 352.067 515.543 352.28 516.209 352.28ZM529.052 355.28C527.518 355.28 526.325 354.907 525.472 354.16C524.632 353.4 524.212 352.353 524.212 351.02V344.76H527.572V350.54C527.572 351.7 528.065 352.28 529.052 352.28C530.038 352.28 530.532 351.7 530.532 350.54V344.76H533.892V351.02C533.892 352.353 533.465 353.4 532.612 354.16C531.772 354.907 530.585 355.28 529.052 355.28ZM541.591 355.14C540.245 355.14 539.278 354.867 538.691 354.32C538.105 353.773 537.811 352.86 537.811 351.58V347.72H536.051V344.76H537.811V341.76H541.171V344.76H543.691V347.72H541.171V351C541.171 351.427 541.265 351.727 541.451 351.9C541.638 352.06 541.971 352.14 542.451 352.14C542.891 352.14 543.318 352.093 543.731 352V354.86C543.091 355.047 542.378 355.14 541.591 355.14ZM373.84 372.48C374.893 372.48 375.72 372.813 376.32 373.48C376.933 374.133 377.24 375.053 377.24 376.24V383H373.88V377.08C373.88 376.56 373.767 376.173 373.54 375.92C373.327 375.653 372.98 375.52 372.5 375.52C371.98 375.52 371.58 375.673 371.3 375.98C371.02 376.287 370.88 376.733 370.88 377.32V383H367.52V377.08C367.52 376.56 367.407 376.173 367.18 375.92C366.967 375.653 366.62 375.52 366.14 375.52C365.62 375.52 365.22 375.673 364.94 375.98C364.66 376.287 364.52 376.733 364.52 377.32V383H361.16V372.76H364.44V374.14C364.72 373.633 365.133 373.233 365.68 372.94C366.227 372.633 366.84 372.48 367.52 372.48C368.213 372.48 368.82 372.64 369.34 372.96C369.873 373.28 370.26 373.733 370.5 374.32C370.767 373.76 371.2 373.313 371.8 372.98C372.4 372.647 373.08 372.48 373.84 372.48ZM384.96 383.28C383.427 383.28 382.234 382.907 381.38 382.16C380.54 381.4 380.12 380.353 380.12 379.02V372.76H383.48V378.54C383.48 379.7 383.974 380.28 384.96 380.28C385.947 380.28 386.44 379.7 386.44 378.54V372.76H389.8V379.02C389.8 380.353 389.374 381.4 388.52 382.16C387.68 382.907 386.494 383.28 384.96 383.28ZM392.76 368.36H396.12V383H392.76V368.36ZM403.984 383.14C402.637 383.14 401.67 382.867 401.084 382.32C400.497 381.773 400.204 380.86 400.204 379.58V375.72H398.444V372.76H400.204V369.76H403.564V372.76H406.084V375.72H403.564V379C403.564 379.427 403.657 379.727 403.844 379.9C404.03 380.06 404.364 380.14 404.844 380.14C405.284 380.14 405.71 380.093 406.124 380V382.86C405.484 383.047 404.77 383.14 403.984 383.14ZM410.455 371.54C409.841 371.54 409.348 371.367 408.975 371.02C408.601 370.66 408.415 370.187 408.415 369.6C408.415 369.013 408.601 368.547 408.975 368.2C409.348 367.84 409.841 367.66 410.455 367.66C411.068 367.66 411.561 367.84 411.935 368.2C412.308 368.547 412.495 369.013 412.495 369.6C412.495 370.187 412.308 370.66 411.935 371.02C411.561 371.367 411.068 371.54 410.455 371.54ZM408.775 372.76H412.135V383H408.775V372.76ZM421.717 372.48C422.584 372.48 423.357 372.707 424.037 373.16C424.731 373.613 425.271 374.253 425.657 375.08C426.044 375.893 426.237 376.827 426.237 377.88C426.237 378.933 426.044 379.873 425.657 380.7C425.271 381.513 424.731 382.147 424.037 382.6C423.357 383.053 422.584 383.28 421.717 383.28C421.064 383.28 420.464 383.147 419.917 382.88C419.371 382.613 418.944 382.233 418.637 381.74V387H415.277V372.76H418.557V374.14C418.851 373.607 419.277 373.2 419.837 372.92C420.397 372.627 421.024 372.48 421.717 372.48ZM420.677 380.28C421.344 380.28 421.871 380.067 422.257 379.64C422.644 379.2 422.837 378.613 422.837 377.88C422.837 377.147 422.644 376.567 422.257 376.14C421.871 375.7 421.344 375.48 420.677 375.48C420.011 375.48 419.484 375.7 419.097 376.14C418.711 376.567 418.517 377.147 418.517 377.88C418.517 378.613 418.711 379.2 419.097 379.64C419.484 380.067 420.011 380.28 420.677 380.28ZM428.831 368.36H432.191V383H428.831V368.36ZM445.195 377.86C445.195 378.18 445.175 378.513 445.135 378.86H438.195C438.341 379.42 438.608 379.833 438.995 380.1C439.395 380.353 439.915 380.48 440.555 380.48C441.541 380.48 442.341 380.18 442.955 379.58L444.775 381.58C444.295 382.127 443.681 382.547 442.935 382.84C442.201 383.133 441.368 383.28 440.435 383.28C439.301 383.28 438.308 383.067 437.455 382.64C436.601 382.2 435.941 381.58 435.475 380.78C435.021 379.98 434.795 379.033 434.795 377.94C434.795 376.873 435.015 375.927 435.455 375.1C435.895 374.273 436.515 373.633 437.315 373.18C438.115 372.713 439.041 372.48 440.095 372.48C441.121 372.48 442.015 372.7 442.775 373.14C443.548 373.58 444.141 374.207 444.555 375.02C444.981 375.833 445.195 376.78 445.195 377.86ZM440.115 375.26C439.021 375.26 438.368 375.78 438.155 376.82H441.875C441.795 375.78 441.208 375.26 440.115 375.26ZM457.397 383.14C456.05 383.14 455.084 382.867 454.497 382.32C453.91 381.773 453.617 380.86 453.617 379.58V375.72H451.857V372.76H453.617V369.76H456.977V372.76H459.497V375.72H456.977V379C456.977 379.427 457.07 379.727 457.257 379.9C457.444 380.06 457.777 380.14 458.257 380.14C458.697 380.14 459.124 380.093 459.537 380V382.86C458.897 383.047 458.184 383.14 457.397 383.14ZM468.588 372.48C469.654 372.48 470.494 372.813 471.108 373.48C471.734 374.133 472.048 375.053 472.048 376.24V383H468.688V377.12C468.688 376.587 468.568 376.187 468.328 375.92C468.088 375.653 467.714 375.52 467.208 375.52C466.088 375.52 465.528 376.133 465.528 377.36V383H462.168V368.36H465.528V374.02C465.821 373.54 466.228 373.167 466.748 372.9C467.281 372.62 467.894 372.48 468.588 372.48ZM476.797 371.54C476.183 371.54 475.69 371.367 475.317 371.02C474.943 370.66 474.757 370.187 474.757 369.6C474.757 369.013 474.943 368.547 475.317 368.2C475.69 367.84 476.183 367.66 476.797 367.66C477.41 367.66 477.903 367.84 478.277 368.2C478.65 368.547 478.837 369.013 478.837 369.6C478.837 370.187 478.65 370.66 478.277 371.02C477.903 371.367 477.41 371.54 476.797 371.54ZM475.117 372.76H478.477V383H475.117V372.76ZM488.039 372.48C489.106 372.48 489.946 372.813 490.559 373.48C491.186 374.133 491.499 375.053 491.499 376.24V383H488.139V377.12C488.139 376.587 488.019 376.187 487.779 375.92C487.539 375.653 487.166 375.52 486.659 375.52C485.539 375.52 484.979 376.133 484.979 377.36V383H481.619V372.76H484.899V374.14C485.193 373.633 485.606 373.233 486.139 372.94C486.686 372.633 487.319 372.48 488.039 372.48ZM505.008 372.76V381.8C505.008 383.507 504.502 384.847 503.488 385.82C502.488 386.793 501.062 387.28 499.208 387.28C498.222 387.28 497.295 387.14 496.428 386.86C495.562 386.58 494.848 386.2 494.288 385.72L495.728 383.3C496.235 383.647 496.768 383.907 497.328 384.08C497.888 384.267 498.435 384.36 498.968 384.36C499.835 384.36 500.515 384.127 501.008 383.66C501.502 383.207 501.748 382.587 501.748 381.8V381.1C501.468 381.633 501.048 382.053 500.488 382.36C499.928 382.653 499.282 382.8 498.548 382.8C497.682 382.8 496.902 382.587 496.208 382.16C495.528 381.733 494.995 381.133 494.608 380.36C494.222 379.587 494.028 378.7 494.028 377.7C494.028 376.7 494.222 375.807 494.608 375.02C495.008 374.22 495.548 373.6 496.228 373.16C496.922 372.707 497.702 372.48 498.568 372.48C499.262 372.48 499.888 372.627 500.448 372.92C501.008 373.2 501.435 373.607 501.728 374.14V372.76H505.008ZM499.608 379.88C500.275 379.88 500.802 379.673 501.188 379.26C501.575 378.847 501.768 378.313 501.768 377.66C501.768 377.007 501.575 376.473 501.188 376.06C500.802 375.647 500.275 375.44 499.608 375.44C498.942 375.44 498.415 375.647 498.028 376.06C497.642 376.473 497.448 377.007 497.448 377.66C497.448 378.313 497.642 378.847 498.028 379.26C498.415 379.673 498.942 379.88 499.608 379.88ZM512.202 383.28C511.228 383.28 510.315 383.14 509.462 382.86C508.622 382.567 507.935 382.16 507.402 381.64L508.842 379.34C509.282 379.687 509.808 379.973 510.422 380.2C511.048 380.427 511.655 380.54 512.242 380.54C512.628 380.54 512.922 380.493 513.122 380.4C513.322 380.293 513.422 380.153 513.422 379.98C513.422 379.807 513.342 379.667 513.182 379.56C513.035 379.453 512.795 379.36 512.462 379.28L510.722 378.86C509.682 378.607 508.928 378.233 508.462 377.74C508.008 377.247 507.782 376.64 507.782 375.92C507.782 374.88 508.175 374.047 508.962 373.42C509.762 372.793 510.848 372.48 512.222 372.48C513.115 372.48 513.948 372.613 514.722 372.88C515.508 373.147 516.148 373.507 516.642 373.96L515.162 376.24C514.108 375.573 513.122 375.24 512.202 375.24C511.842 375.24 511.568 375.293 511.382 375.4C511.208 375.493 511.122 375.62 511.122 375.78C511.122 375.927 511.188 376.047 511.322 376.14C511.468 376.233 511.708 376.32 512.042 376.4L513.782 376.82C514.862 377.087 515.635 377.467 516.102 377.96C516.568 378.44 516.802 379.053 516.802 379.8C516.802 380.88 516.395 381.733 515.582 382.36C514.768 382.973 513.642 383.28 512.202 383.28ZM367.6 400.48C368.467 400.48 369.24 400.707 369.92 401.16C370.613 401.613 371.153 402.253 371.54 403.08C371.927 403.893 372.12 404.827 372.12 405.88C372.12 406.933 371.927 407.873 371.54 408.7C371.153 409.513 370.613 410.147 369.92 410.6C369.24 411.053 368.467 411.28 367.6 411.28C366.907 411.28 366.28 411.14 365.72 410.86C365.16 410.567 364.733 410.153 364.44 409.62V411H361.16V396.36H364.52V402.02C364.827 401.527 365.253 401.147 365.8 400.88C366.347 400.613 366.947 400.48 367.6 400.48ZM366.56 408.28C367.227 408.28 367.753 408.067 368.14 407.64C368.527 407.2 368.72 406.613 368.72 405.88C368.72 405.147 368.527 404.567 368.14 404.14C367.753 403.7 367.227 403.48 366.56 403.48C365.893 403.48 365.367 403.7 364.98 404.14C364.593 404.567 364.4 405.147 364.4 405.88C364.4 406.613 364.593 407.2 364.98 407.64C365.367 408.067 365.893 408.28 366.56 408.28ZM379.394 411.28C377.861 411.28 376.667 410.907 375.814 410.16C374.974 409.4 374.554 408.353 374.554 407.02V400.76H377.914V406.54C377.914 407.7 378.407 408.28 379.394 408.28C380.381 408.28 380.874 407.7 380.874 406.54V400.76H384.234V407.02C384.234 408.353 383.807 409.4 382.954 410.16C382.114 410.907 380.927 411.28 379.394 411.28ZM391.934 411.14C390.587 411.14 389.62 410.867 389.034 410.32C388.447 409.773 388.154 408.86 388.154 407.58V403.72H386.394V400.76H388.154V397.76H391.514V400.76H394.034V403.72H391.514V407C391.514 407.427 391.607 407.727 391.794 407.9C391.98 408.06 392.314 408.14 392.794 408.14C393.234 408.14 393.66 408.093 394.074 408V410.86C393.434 411.047 392.72 411.14 391.934 411.14ZM408.319 400.48C409.386 400.48 410.226 400.813 410.839 401.48C411.466 402.133 411.779 403.053 411.779 404.24V411H408.419V405.12C408.419 404.587 408.299 404.187 408.059 403.92C407.819 403.653 407.446 403.52 406.939 403.52C405.819 403.52 405.259 404.133 405.259 405.36V411H401.899V396.36H405.259V402.02C405.552 401.54 405.959 401.167 406.479 400.9C407.012 400.62 407.626 400.48 408.319 400.48ZM425.268 400.76V411H421.988V409.62C421.695 410.153 421.268 410.567 420.708 410.86C420.148 411.14 419.521 411.28 418.828 411.28C417.961 411.28 417.181 411.053 416.488 410.6C415.808 410.147 415.275 409.513 414.888 408.7C414.501 407.873 414.308 406.933 414.308 405.88C414.308 404.827 414.501 403.893 414.888 403.08C415.275 402.253 415.808 401.613 416.488 401.16C417.181 400.707 417.961 400.48 418.828 400.48C419.521 400.48 420.148 400.627 420.708 400.92C421.268 401.2 421.695 401.607 421.988 402.14V400.76H425.268ZM419.868 408.28C420.535 408.28 421.061 408.067 421.448 407.64C421.835 407.2 422.028 406.613 422.028 405.88C422.028 405.147 421.835 404.567 421.448 404.14C421.061 403.7 420.535 403.48 419.868 403.48C419.201 403.48 418.675 403.7 418.288 404.14C417.901 404.567 417.708 405.147 417.708 405.88C417.708 406.613 417.901 407.2 418.288 407.64C418.675 408.067 419.201 408.28 419.868 408.28ZM438.462 400.76L434.742 411H431.062L427.342 400.76H430.942L432.902 406.94L434.862 400.76H438.462ZM450.117 405.86C450.117 406.18 450.097 406.513 450.057 406.86H443.117C443.263 407.42 443.53 407.833 443.917 408.1C444.317 408.353 444.837 408.48 445.477 408.48C446.463 408.48 447.263 408.18 447.877 407.58L449.697 409.58C449.217 410.127 448.603 410.547 447.857 410.84C447.123 411.133 446.29 411.28 445.357 411.28C444.223 411.28 443.23 411.067 442.377 410.64C441.523 410.2 440.863 409.58 440.397 408.78C439.943 407.98 439.717 407.033 439.717 405.94C439.717 404.873 439.937 403.927 440.377 403.1C440.817 402.273 441.437 401.633 442.237 401.18C443.037 400.713 443.963 400.48 445.017 400.48C446.043 400.48 446.937 400.7 447.697 401.14C448.47 401.58 449.063 402.207 449.477 403.02C449.903 403.833 450.117 404.78 450.117 405.86ZM445.037 403.26C443.943 403.26 443.29 403.78 443.077 404.82H446.797C446.717 403.78 446.13 403.26 445.037 403.26ZM464.292 400.48C465.358 400.48 466.198 400.813 466.812 401.48C467.438 402.133 467.752 403.053 467.752 404.24V411H464.392V405.12C464.392 404.587 464.272 404.187 464.032 403.92C463.792 403.653 463.418 403.52 462.912 403.52C461.792 403.52 461.232 404.133 461.232 405.36V411H457.872V400.76H461.152V402.14C461.445 401.633 461.858 401.233 462.392 400.94C462.938 400.633 463.572 400.48 464.292 400.48ZM475.841 411.28C474.734 411.28 473.761 411.047 472.921 410.58C472.081 410.1 471.427 409.453 470.961 408.64C470.507 407.813 470.281 406.893 470.281 405.88C470.281 404.867 470.507 403.953 470.961 403.14C471.427 402.313 472.081 401.667 472.921 401.2C473.761 400.72 474.734 400.48 475.841 400.48C476.947 400.48 477.921 400.72 478.761 401.2C479.601 401.667 480.247 402.313 480.701 403.14C481.167 403.953 481.401 404.867 481.401 405.88C481.401 406.893 481.167 407.813 480.701 408.64C480.247 409.453 479.601 410.1 478.761 410.58C477.921 411.047 476.947 411.28 475.841 411.28ZM475.841 408.28C476.507 408.28 477.034 408.067 477.421 407.64C477.807 407.2 478.001 406.613 478.001 405.88C478.001 405.147 477.807 404.567 477.421 404.14C477.034 403.7 476.507 403.48 475.841 403.48C475.174 403.48 474.647 403.7 474.261 404.14C473.874 404.567 473.681 405.147 473.681 405.88C473.681 406.613 473.874 407.2 474.261 407.64C474.647 408.067 475.174 408.28 475.841 408.28ZM494.078 411.28C493.011 411.28 492.064 411.053 491.238 410.6C490.424 410.147 489.791 409.513 489.338 408.7C488.898 407.873 488.678 406.933 488.678 405.88C488.678 404.827 488.898 403.893 489.338 403.08C489.791 402.253 490.424 401.613 491.238 401.16C492.064 400.707 493.011 400.48 494.078 400.48C495.118 400.48 496.038 400.693 496.838 401.12C497.651 401.547 498.271 402.14 498.698 402.9L496.238 404.64C495.718 403.893 495.038 403.52 494.198 403.52C493.558 403.52 493.044 403.733 492.658 404.16C492.271 404.587 492.078 405.16 492.078 405.88C492.078 406.6 492.271 407.173 492.658 407.6C493.044 408.027 493.558 408.24 494.198 408.24C495.038 408.24 495.718 407.867 496.238 407.12L498.698 408.86C498.271 409.62 497.651 410.213 496.838 410.64C496.038 411.067 495.118 411.28 494.078 411.28ZM500.857 396.36H504.217V411H500.857V396.36ZM512.02 411.28C510.487 411.28 509.294 410.907 508.44 410.16C507.6 409.4 507.18 408.353 507.18 407.02V400.76H510.54V406.54C510.54 407.7 511.034 408.28 512.02 408.28C513.007 408.28 513.5 407.7 513.5 406.54V400.76H516.86V407.02C516.86 408.353 516.434 409.4 515.58 410.16C514.74 410.907 513.554 411.28 512.02 411.28ZM529.7 405.86C529.7 406.18 529.68 406.513 529.64 406.86H522.7C522.847 407.42 523.113 407.833 523.5 408.1C523.9 408.353 524.42 408.48 525.06 408.48C526.047 408.48 526.847 408.18 527.46 407.58L529.28 409.58C528.8 410.127 528.187 410.547 527.44 410.84C526.707 411.133 525.873 411.28 524.94 411.28C523.807 411.28 522.813 411.067 521.96 410.64C521.107 410.2 520.447 409.58 519.98 408.78C519.527 407.98 519.3 407.033 519.3 405.94C519.3 404.873 519.52 403.927 519.96 403.1C520.4 402.273 521.02 401.633 521.82 401.18C522.62 400.713 523.547 400.48 524.6 400.48C525.627 400.48 526.52 400.7 527.28 401.14C528.053 401.58 528.647 402.207 529.06 403.02C529.487 403.833 529.7 404.78 529.7 405.86ZM524.62 403.26C523.527 403.26 522.873 403.78 522.66 404.82H526.38C526.3 403.78 525.713 403.26 524.62 403.26ZM377.2 428.76L374.16 439H370.42L368.7 433.14L366.98 439H363.24L360.2 428.76H363.64L365.28 435.04L367.16 428.76H370.24L372.12 435.04L373.76 428.76H377.2ZM385.782 428.48C386.849 428.48 387.689 428.813 388.302 429.48C388.929 430.133 389.242 431.053 389.242 432.24V439H385.882V433.12C385.882 432.587 385.762 432.187 385.522 431.92C385.282 431.653 384.909 431.52 384.402 431.52C383.282 431.52 382.722 432.133 382.722 433.36V439H379.362V424.36H382.722V430.02C383.016 429.54 383.422 429.167 383.942 428.9C384.476 428.62 385.089 428.48 385.782 428.48ZM402.731 428.76V439H399.451V437.62C399.158 438.153 398.731 438.567 398.171 438.86C397.611 439.14 396.985 439.28 396.291 439.28C395.425 439.28 394.645 439.053 393.951 438.6C393.271 438.147 392.738 437.513 392.351 436.7C391.965 435.873 391.771 434.933 391.771 433.88C391.771 432.827 391.965 431.893 392.351 431.08C392.738 430.253 393.271 429.613 393.951 429.16C394.645 428.707 395.425 428.48 396.291 428.48C396.985 428.48 397.611 428.627 398.171 428.92C398.731 429.2 399.158 429.607 399.451 430.14V428.76H402.731ZM397.331 436.28C397.998 436.28 398.525 436.067 398.911 435.64C399.298 435.2 399.491 434.613 399.491 433.88C399.491 433.147 399.298 432.567 398.911 432.14C398.525 431.7 397.998 431.48 397.331 431.48C396.665 431.48 396.138 431.7 395.751 432.14C395.365 432.567 395.171 433.147 395.171 433.88C395.171 434.613 395.365 435.2 395.751 435.64C396.138 436.067 396.665 436.28 397.331 436.28ZM410.585 439.14C409.238 439.14 408.272 438.867 407.685 438.32C407.098 437.773 406.805 436.86 406.805 435.58V431.72H405.045V428.76H406.805V425.76H410.165V428.76H412.685V431.72H410.165V435C410.165 435.427 410.258 435.727 410.445 435.9C410.632 436.06 410.965 436.14 411.445 436.14C411.885 436.14 412.312 436.093 412.725 436V438.86C412.085 439.047 411.372 439.14 410.585 439.14ZM424.998 439.14C423.651 439.14 422.684 438.867 422.098 438.32C421.511 437.773 421.218 436.86 421.218 435.58V431.72H419.458V428.76H421.218V425.76H424.578V428.76H427.098V431.72H424.578V435C424.578 435.427 424.671 435.727 424.858 435.9C425.044 436.06 425.378 436.14 425.858 436.14C426.298 436.14 426.724 436.093 427.138 436V438.86C426.498 439.047 425.784 439.14 424.998 439.14ZM434.652 439.28C433.546 439.28 432.572 439.047 431.732 438.58C430.892 438.1 430.239 437.453 429.772 436.64C429.319 435.813 429.092 434.893 429.092 433.88C429.092 432.867 429.319 431.953 429.772 431.14C430.239 430.313 430.892 429.667 431.732 429.2C432.572 428.72 433.546 428.48 434.652 428.48C435.759 428.48 436.732 428.72 437.572 429.2C438.412 429.667 439.059 430.313 439.512 431.14C439.979 431.953 440.212 432.867 440.212 433.88C440.212 434.893 439.979 435.813 439.512 436.64C439.059 437.453 438.412 438.1 437.572 438.58C436.732 439.047 435.759 439.28 434.652 439.28ZM434.652 436.28C435.319 436.28 435.846 436.067 436.232 435.64C436.619 435.2 436.812 434.613 436.812 433.88C436.812 433.147 436.619 432.567 436.232 432.14C435.846 431.7 435.319 431.48 434.652 431.48C433.986 431.48 433.459 431.7 433.072 432.14C432.686 432.567 432.492 433.147 432.492 433.88C432.492 434.613 432.686 435.2 433.072 435.64C433.459 436.067 433.986 436.28 434.652 436.28ZM458.449 424.36V439H455.169V437.62C454.876 438.153 454.449 438.567 453.889 438.86C453.329 439.14 452.703 439.28 452.009 439.28C451.143 439.28 450.363 439.053 449.669 438.6C448.989 438.147 448.456 437.513 448.069 436.7C447.683 435.873 447.489 434.933 447.489 433.88C447.489 432.827 447.683 431.893 448.069 431.08C448.456 430.253 448.989 429.613 449.669 429.16C450.363 428.707 451.143 428.48 452.009 428.48C452.663 428.48 453.263 428.613 453.809 428.88C454.356 429.147 454.783 429.527 455.089 430.02V424.36H458.449ZM453.049 436.28C453.716 436.28 454.243 436.067 454.629 435.64C455.016 435.2 455.209 434.613 455.209 433.88C455.209 433.147 455.016 432.567 454.629 432.14C454.243 431.7 453.716 431.48 453.049 431.48C452.383 431.48 451.856 431.7 451.469 432.14C451.083 432.567 450.889 433.147 450.889 433.88C450.889 434.613 451.083 435.2 451.469 435.64C451.856 436.067 452.383 436.28 453.049 436.28ZM466.603 439.28C465.496 439.28 464.523 439.047 463.683 438.58C462.843 438.1 462.19 437.453 461.723 436.64C461.27 435.813 461.043 434.893 461.043 433.88C461.043 432.867 461.27 431.953 461.723 431.14C462.19 430.313 462.843 429.667 463.683 429.2C464.523 428.72 465.496 428.48 466.603 428.48C467.71 428.48 468.683 428.72 469.523 429.2C470.363 429.667 471.01 430.313 471.463 431.14C471.93 431.953 472.163 432.867 472.163 433.88C472.163 434.893 471.93 435.813 471.463 436.64C471.01 437.453 470.363 438.1 469.523 438.58C468.683 439.047 467.71 439.28 466.603 439.28ZM466.603 436.28C467.27 436.28 467.796 436.067 468.183 435.64C468.57 435.2 468.763 434.613 468.763 433.88C468.763 433.147 468.57 432.567 468.183 432.14C467.796 431.7 467.27 431.48 466.603 431.48C465.936 431.48 465.41 431.7 465.023 432.14C464.636 432.567 464.443 433.147 464.443 433.88C464.443 434.613 464.636 435.2 465.023 435.64C465.41 436.067 465.936 436.28 466.603 436.28ZM475.918 433.06C475.918 432.593 475.958 432.227 476.038 431.96C476.118 431.68 476.265 431.413 476.478 431.16C476.691 430.907 477.038 430.58 477.518 430.18L478.378 429.46C478.805 429.1 479.018 428.753 479.018 428.42C479.018 428.167 478.925 427.973 478.738 427.84C478.565 427.707 478.318 427.64 477.998 427.64C477.118 427.64 476.345 428.18 475.678 429.26L473.278 427.64C473.731 426.747 474.365 426.04 475.178 425.52C476.005 424.987 476.965 424.72 478.058 424.72C478.858 424.72 479.578 424.867 480.218 425.16C480.858 425.453 481.358 425.873 481.718 426.42C482.078 426.967 482.258 427.6 482.258 428.32C482.258 428.867 482.131 429.373 481.878 429.84C481.625 430.307 481.178 430.807 480.538 431.34L479.798 431.96C479.478 432.227 479.278 432.433 479.198 432.58C479.118 432.727 479.078 432.96 479.078 433.28V434H475.918V433.06ZM477.498 439.28C476.845 439.28 476.325 439.087 475.938 438.7C475.551 438.313 475.358 437.793 475.358 437.14C475.358 436.473 475.551 435.953 475.938 435.58C476.325 435.193 476.845 435 477.498 435C478.165 435 478.685 435.193 479.058 435.58C479.445 435.953 479.638 436.473 479.638 437.14C479.638 437.793 479.445 438.313 479.058 438.7C478.685 439.087 478.165 439.28 477.498 439.28Z" fill="white"/>
<path d="M197.761 488.386L202.607 516.749L216.655 518.105L211.787 486.43L197.761 488.386Z" fill="#FCC9A7"/>
<path d="M200.673 514.793C200.962 513.793 202.007 513.415 202.763 514.015C204.207 515.215 206.808 516.66 210.52 516.149C214.388 515.638 215.766 513.281 216.277 511.637C216.544 510.77 217.366 510.303 218.1 510.636L244.395 521.661C245.862 522.328 247.018 523.639 247.618 525.284C248.196 526.84 247.196 528.552 245.729 528.574L202.651 528.841C201.051 528.841 199.762 527.329 199.851 525.484L200.229 516.504C200.229 516.349 200.251 516.215 200.295 516.06L200.673 514.793Z" fill="#1F252A"/>
<path d="M140.97 357.888H135.235V525.106H140.97V357.888Z" fill="#2A272D"/>
<path d="M128.544 323.502L169.621 398.943L195.605 503.746H219.189L202.362 387.273L128.544 323.502Z" fill="#232322"/>
<path d="M162.442 355.421H111.096C103.738 355.421 97.7592 349.464 97.7592 342.084C97.7592 334.727 103.716 328.748 111.096 328.748H162.442C169.799 328.748 175.778 334.727 175.778 342.084C175.778 349.464 169.799 355.421 162.442 355.421Z" fill="#FFEEE3"/>
<path d="M162.753 355.421H113.407V360.355H162.753V355.421Z" fill="#2A272D"/>
<path d="M162.753 484.519H113.407V489.453H162.753V484.519Z" fill="#2A272D"/>
<path d="M135.435 186.869C125.544 185.668 116.164 191.648 112.385 200.85C109.184 208.607 106.517 219.854 109.362 232.902C118.031 272.845 112.852 300.474 112.852 300.474H159.819L159.641 246.083C159.641 246.083 162.886 239.748 164.642 231.457C167.109 219.854 166.176 218.343 159.396 208.074L144.971 190.469C144.993 190.469 141.77 187.624 135.435 186.869Z" fill="#FFD686"/>
<path d="M220.856 225.411C223.99 219.143 231.592 216.609 237.86 219.743C244.128 222.877 246.662 230.479 243.528 236.747C240.394 243.016 232.792 245.55 226.524 242.415C220.256 239.304 217.722 231.68 220.856 225.411Z" fill="#FCC9A7"/>
<path d="M223.634 221.744L199.762 244.416L208.831 254.507L227.435 238.57L223.634 221.744Z" fill="#FCC9A7"/>
<path d="M119.342 222.055L162.531 287.693C164.198 290.205 167.621 290.805 170.044 288.982L222.167 248.039L211.609 229.924L171.288 260.731L143.104 208.607C139.347 200.783 129.367 198.405 122.476 203.65C116.742 208.007 115.386 216.053 119.342 222.055Z" fill="#FFD686"/>
<path d="M138.147 196.804C135.413 196.782 132.501 195.648 130.345 194.537C128.211 193.448 126.877 191.203 126.9 188.802L127.344 144.703L146.615 144.792L146.171 188.336C146.149 193.337 142.548 196.827 138.147 196.804Z" fill="#FCC9A7"/>
<path d="M146.304 176.11L138.347 164.841C138.347 164.841 133.479 177.711 146.26 181.667L146.304 176.11Z" fill="#F2C09E"/>
<path d="M163.664 144.88C163.597 158.017 152.906 168.597 139.769 168.531C126.633 168.464 116.052 157.773 116.119 144.636C116.186 131.499 126.877 120.919 140.014 120.986C153.128 121.052 163.709 131.744 163.664 144.88Z" fill="#FCC9A7"/>
<path d="M147.994 176.244C141.77 176.221 136.724 171.131 136.769 164.908L136.835 148.637L163.642 144.88L163.575 160.818C163.531 169.375 156.573 176.288 147.994 176.244Z" fill="#FCC9A7"/>
<path d="M162.931 150.193L168.087 157.861C168.821 159.106 167.865 160.64 166.331 160.64L160.308 161.751L162.931 150.193Z" fill="#FCC9A7"/>
<path d="M136.858 155.15L146.971 154.794C146.971 154.794 147.838 146.014 149.816 143.903C151.794 141.791 152.795 132.411 152.795 132.411C152.795 132.411 148.016 138.257 146.615 144.303L167.798 143.769C167.798 143.769 170.955 118.074 138.88 116.829C106.784 115.585 107.673 145.948 113.985 151.971C119.009 156.772 127.144 168.553 127.144 168.553C127.144 168.553 126.766 155.505 136.858 155.15Z" fill="#4C1827"/>
<path d="M144.193 152.038C144.326 155.795 141.392 158.929 137.658 159.062C133.901 159.195 130.767 156.261 130.612 152.527C130.478 148.771 133.412 145.637 137.146 145.481C140.903 145.348 144.037 148.282 144.193 152.038Z" fill="#FCC9A7"/>
<path d="M124.588 113.54C125.61 121.964 119.631 129.61 111.229 130.655C102.805 131.677 95.1585 125.698 94.1138 117.274C93.0914 108.85 99.0706 101.203 107.495 100.181C115.919 99.1362 123.565 105.115 124.588 113.54Z" fill="#4C1827"/>
<path d="M127.655 191.847C127.655 191.847 129.5 197.604 155.24 202.961L143.281 186.691L127.655 191.847Z" fill="#FCC9A7"/>
<path d="M138.102 516.66L103.605 528.463H172.555L138.102 516.66Z" fill="#2A272D"/>
<path d="M140.703 445.954L121.832 468.648L135.391 473.805L154.329 449.777L140.703 445.954Z" fill="#FCC9A7"/>
<path d="M122.476 465.559C123.143 464.781 124.254 464.825 124.699 465.692C125.544 467.381 127.322 469.737 130.945 470.76C134.701 471.827 138.813 468.537 139.925 467.226C140.503 466.537 141.459 466.425 141.992 467.048L165.086 483.252C166.153 484.452 166.687 486.119 166.598 487.875C166.509 489.52 164.909 490.698 163.553 490.12L117.853 478.562C116.386 477.917 115.808 476.006 116.63 474.361L121.387 466.937C121.454 466.803 121.543 466.67 121.631 466.559L122.476 465.559Z" fill="#1F252A"/>
<path d="M111.496 300.474C111.496 300.474 97.3591 332.66 147.594 349.797L182.313 382.049L128.567 454.022L152.595 462.713L217.855 393.274C222.678 387.651 222.879 379.026 218.322 373.158L159.841 300.452H111.496V300.474Z" fill="#383635"/>
<path d="M384.851 272.045H213.232V281.603H384.851V272.045Z" fill="#FFEEE3"/>
<path d="M255.442 528.507V281.603" stroke="#2A272D" stroke-width="2.2811" stroke-miterlimit="10"/>
<path d="M341.263 528.507V281.603" stroke="#2A272D" stroke-width="2.2811" stroke-miterlimit="10"/>
<path d="M320.991 266.844H249.596V271.467H320.991V266.844Z" fill="#2A272D"/>
<path d="M320.991 271.489L344.108 204.006L339.262 202.85L316.612 267.666L320.991 271.489Z" fill="#2A272D"/>
<path d="M159.218 282.67L124.743 230.257" stroke="#EFC375" stroke-width="0.7847" stroke-miterlimit="10" stroke-linecap="round" stroke-linejoin="round"/>
<path d="M161.308 241.549L148.149 220.744" stroke="#EFC375" stroke-width="0.7847" stroke-miterlimit="10" stroke-linecap="round" stroke-linejoin="round"/>
<defs>
<filter id="filter0_d" x="-10.9077" y="0.514038" width="702.815" height="681.846" filterUnits="userSpaceOnUse" color-interpolation-filters="sRGB">
<feFlood flood-opacity="0" result="BackgroundImageFix"/>
<feColorMatrix in="SourceAlpha" type="matrix" values="0 0 0 0 0 0 0 0 0 0 0 0 0 0 0 0 0 0 127 0"/>
<feOffset dx="16" dy="16"/>
<feGaussianBlur stdDeviation="8"/>
<feColorMatrix type="matrix" values="0 0 0 0 0.227451 0 0 0 0 0.25098 0 0 0 0 0.356863 0 0 0 0.16 0"/>
<feBlend mode="normal" in2="BackgroundImageFix" result="effect1_dropShadow"/>
<feBlend mode="normal" in="SourceGraphic" in2="effect1_dropShadow" result="shape"/>
</filter>
</defs>
</svg>
