<svg width="413" height="407" viewBox="0 0 413 407" fill="none" xmlns="http://www.w3.org/2000/svg">
<g filter="url(#filter0_d)">
<path fill-rule="evenodd" clip-rule="evenodd" d="M371.347 180.215C370.491 219.942 350.346 254.853 324.048 284.825C292.832 320.403 258.589 356.713 211.36 362.557C156.079 369.398 95.9563 357.364 56.9763 317.875C16.7542 277.127 5.98137 216.527 11.2185 159.8C16.2674 105.112 37.3735 47.7816 84.5661 19.0279C127.653 -7.22432 181.239 14.4076 230.426 26.2404C267.792 35.2296 302.668 49.4799 328.507 77.712C354.574 106.195 372.174 141.794 371.347 180.215Z" fill="#5E1F60"/>
</g>
<path d="M202.598 313.331L193.448 298.581" stroke="#EFC375" stroke-width="0.7847" stroke-miterlimit="10" stroke-linecap="round" stroke-linejoin="round"/>
<path d="M35.8497 117.921C37.1963 117.921 38.3897 118.201 39.4297 118.761C40.483 119.308 41.303 120.108 41.8897 121.161C42.4763 122.214 42.7697 123.468 42.7697 124.921C42.7697 126.374 42.4763 127.628 41.8897 128.681C41.303 129.734 40.483 130.541 39.4297 131.101C38.3897 131.648 37.1963 131.921 35.8497 131.921H30.0697V117.921H35.8497ZM35.8497 128.701C36.9163 128.701 37.7297 128.388 38.2897 127.761C38.8497 127.134 39.1297 126.188 39.1297 124.921C39.1297 123.654 38.8497 122.708 38.2897 122.081C37.7297 121.454 36.9163 121.141 35.8497 121.141H33.5497V128.701H35.8497ZM50.5339 132.201C49.4272 132.201 48.4539 131.968 47.6139 131.501C46.7739 131.021 46.1206 130.374 45.6539 129.561C45.2006 128.734 44.9739 127.814 44.9739 126.801C44.9739 125.788 45.2006 124.874 45.6539 124.061C46.1206 123.234 46.7739 122.588 47.6139 122.121C48.4539 121.641 49.4272 121.401 50.5339 121.401C51.6406 121.401 52.6139 121.641 53.4539 122.121C54.2939 122.588 54.9406 123.234 55.3939 124.061C55.8606 124.874 56.0939 125.788 56.0939 126.801C56.0939 127.814 55.8606 128.734 55.3939 129.561C54.9406 130.374 54.2939 131.021 53.4539 131.501C52.6139 131.968 51.6406 132.201 50.5339 132.201ZM50.5339 129.201C51.2006 129.201 51.7272 128.988 52.1139 128.561C52.5006 128.121 52.6939 127.534 52.6939 126.801C52.6939 126.068 52.5006 125.488 52.1139 125.061C51.7272 124.621 51.2006 124.401 50.5339 124.401C49.8672 124.401 49.3406 124.621 48.9539 125.061C48.5672 125.488 48.3739 126.068 48.3739 126.801C48.3739 127.534 48.5672 128.121 48.9539 128.561C49.3406 128.988 49.8672 129.201 50.5339 129.201ZM73.4308 121.681V130.841C73.4308 132.561 72.9441 133.881 71.9708 134.801C70.9974 135.734 69.5974 136.201 67.7708 136.201C66.8774 136.201 66.0374 136.088 65.2508 135.861C64.4774 135.648 63.8374 135.334 63.3308 134.921L64.6108 132.401C65.0374 132.681 65.5041 132.894 66.0108 133.041C66.5308 133.201 67.0308 133.281 67.5108 133.281C68.3374 133.281 68.9841 133.061 69.4508 132.621C69.9174 132.194 70.1508 131.601 70.1508 130.841V130.121C69.8574 130.614 69.4441 131.008 68.9108 131.301C68.3908 131.581 67.7908 131.721 67.1108 131.721C66.0708 131.721 65.2441 131.394 64.6308 130.741C64.0174 130.074 63.7108 129.148 63.7108 127.961V121.681H67.0708V127.081C67.0708 127.614 67.1841 128.014 67.4108 128.281C67.6508 128.548 68.0108 128.681 68.4908 128.681C69.5708 128.681 70.1108 128.068 70.1108 126.841V121.681H73.4308ZM81.5862 132.201C80.4796 132.201 79.5062 131.968 78.6662 131.501C77.8262 131.021 77.1729 130.374 76.7062 129.561C76.2529 128.734 76.0262 127.814 76.0262 126.801C76.0262 125.788 76.2529 124.874 76.7062 124.061C77.1729 123.234 77.8262 122.588 78.6662 122.121C79.5062 121.641 80.4796 121.401 81.5862 121.401C82.6929 121.401 83.6662 121.641 84.5062 122.121C85.3462 122.588 85.9929 123.234 86.4462 124.061C86.9129 124.874 87.1462 125.788 87.1462 126.801C87.1462 127.814 86.9129 128.734 86.4462 129.561C85.9929 130.374 85.3462 131.021 84.5062 131.501C83.6662 131.968 82.6929 132.201 81.5862 132.201ZM81.5862 129.201C82.2529 129.201 82.7796 128.988 83.1662 128.561C83.5529 128.121 83.7462 127.534 83.7462 126.801C83.7462 126.068 83.5529 125.488 83.1662 125.061C82.7796 124.621 82.2529 124.401 81.5862 124.401C80.9196 124.401 80.3929 124.621 80.0062 125.061C79.6196 125.488 79.4262 126.068 79.4262 126.801C79.4262 127.534 79.6196 128.121 80.0062 128.561C80.3929 128.988 80.9196 129.201 81.5862 129.201ZM94.4286 132.201C92.8952 132.201 91.7019 131.828 90.8486 131.081C90.0086 130.321 89.5886 129.274 89.5886 127.941V121.681H92.9486V127.461C92.9486 128.621 93.4419 129.201 94.4286 129.201C95.4152 129.201 95.9086 128.621 95.9086 127.461V121.681H99.2686V127.941C99.2686 129.274 98.8419 130.321 97.9886 131.081C97.1486 131.828 95.9619 132.201 94.4286 132.201ZM108.17 124.641H106.37V121.681H108.17V120.621C108.17 118.274 109.516 117.101 112.21 117.101C112.81 117.101 113.41 117.161 114.01 117.281V120.121C113.583 120.054 113.23 120.021 112.95 120.021C112.443 120.021 112.076 120.108 111.85 120.281C111.636 120.441 111.53 120.688 111.53 121.021V121.681H114.01V124.641H111.53V131.921H108.17V124.641ZM117.989 120.461C117.376 120.461 116.883 120.288 116.509 119.941C116.136 119.581 115.949 119.108 115.949 118.521C115.949 117.934 116.136 117.468 116.509 117.121C116.883 116.761 117.376 116.581 117.989 116.581C118.603 116.581 119.096 116.761 119.469 117.121C119.843 117.468 120.029 117.934 120.029 118.521C120.029 119.108 119.843 119.581 119.469 119.941C119.096 120.288 118.603 120.461 117.989 120.461ZM116.309 121.681H119.669V131.921H116.309V121.681ZM129.232 121.401C130.299 121.401 131.139 121.734 131.752 122.401C132.379 123.054 132.692 123.974 132.692 125.161V131.921H129.332V126.041C129.332 125.508 129.212 125.108 128.972 124.841C128.732 124.574 128.359 124.441 127.852 124.441C126.732 124.441 126.172 125.054 126.172 126.281V131.921H122.812V121.681H126.092V123.061C126.385 122.554 126.799 122.154 127.332 121.861C127.879 121.554 128.512 121.401 129.232 121.401ZM146.181 117.281V131.921H142.901V130.541C142.607 131.074 142.181 131.488 141.621 131.781C141.061 132.061 140.434 132.201 139.741 132.201C138.874 132.201 138.094 131.974 137.401 131.521C136.721 131.068 136.187 130.434 135.801 129.621C135.414 128.794 135.221 127.854 135.221 126.801C135.221 125.748 135.414 124.814 135.801 124.001C136.187 123.174 136.721 122.534 137.401 122.081C138.094 121.628 138.874 121.401 139.741 121.401C140.394 121.401 140.994 121.534 141.541 121.801C142.087 122.068 142.514 122.448 142.821 122.941V117.281H146.181ZM140.781 129.201C141.447 129.201 141.974 128.988 142.361 128.561C142.747 128.121 142.941 127.534 142.941 126.801C142.941 126.068 142.747 125.488 142.361 125.061C141.974 124.621 141.447 124.401 140.781 124.401C140.114 124.401 139.587 124.621 139.201 125.061C138.814 125.488 138.621 126.068 138.621 126.801C138.621 127.534 138.814 128.121 139.201 128.561C139.587 128.988 140.114 129.201 140.781 129.201ZM164.029 121.681V130.841C164.029 132.561 163.543 133.881 162.569 134.801C161.596 135.734 160.196 136.201 158.369 136.201C157.476 136.201 156.636 136.088 155.849 135.861C155.076 135.648 154.436 135.334 153.929 134.921L155.209 132.401C155.636 132.681 156.103 132.894 156.609 133.041C157.129 133.201 157.629 133.281 158.109 133.281C158.936 133.281 159.583 133.061 160.049 132.621C160.516 132.194 160.749 131.601 160.749 130.841V130.121C160.456 130.614 160.043 131.008 159.509 131.301C158.989 131.581 158.389 131.721 157.709 131.721C156.669 131.721 155.843 131.394 155.229 130.741C154.616 130.074 154.309 129.148 154.309 127.961V121.681H157.669V127.081C157.669 127.614 157.783 128.014 158.009 128.281C158.249 128.548 158.609 128.681 159.089 128.681C160.169 128.681 160.709 128.068 160.709 126.841V121.681H164.029ZM172.185 132.201C171.078 132.201 170.105 131.968 169.265 131.501C168.425 131.021 167.771 130.374 167.305 129.561C166.851 128.734 166.625 127.814 166.625 126.801C166.625 125.788 166.851 124.874 167.305 124.061C167.771 123.234 168.425 122.588 169.265 122.121C170.105 121.641 171.078 121.401 172.185 121.401C173.291 121.401 174.265 121.641 175.105 122.121C175.945 122.588 176.591 123.234 177.045 124.061C177.511 124.874 177.745 125.788 177.745 126.801C177.745 127.814 177.511 128.734 177.045 129.561C176.591 130.374 175.945 131.021 175.105 131.501C174.265 131.968 173.291 132.201 172.185 132.201ZM172.185 129.201C172.851 129.201 173.378 128.988 173.765 128.561C174.151 128.121 174.345 127.534 174.345 126.801C174.345 126.068 174.151 125.488 173.765 125.061C173.378 124.621 172.851 124.401 172.185 124.401C171.518 124.401 170.991 124.621 170.605 125.061C170.218 125.488 170.025 126.068 170.025 126.801C170.025 127.534 170.218 128.121 170.605 128.561C170.991 128.988 171.518 129.201 172.185 129.201ZM185.027 132.201C183.494 132.201 182.3 131.828 181.447 131.081C180.607 130.321 180.187 129.274 180.187 127.941V121.681H183.547V127.461C183.547 128.621 184.04 129.201 185.027 129.201C186.014 129.201 186.507 128.621 186.507 127.461V121.681H189.867V127.941C189.867 129.274 189.44 130.321 188.587 131.081C187.747 131.828 186.56 132.201 185.027 132.201ZM199.007 121.481C199.3 121.481 199.58 121.521 199.847 121.601V124.861C199.393 124.768 198.927 124.721 198.447 124.721C197.633 124.721 197.053 124.901 196.707 125.261C196.36 125.621 196.187 126.234 196.187 127.101V131.921H192.827V121.681H196.107V123.241C196.373 122.694 196.76 122.268 197.267 121.961C197.773 121.641 198.353 121.481 199.007 121.481ZM206.203 132.201C205.229 132.201 204.316 132.061 203.463 131.781C202.623 131.488 201.936 131.081 201.403 130.561L202.843 128.261C203.283 128.608 203.809 128.894 204.423 129.121C205.049 129.348 205.656 129.461 206.243 129.461C206.629 129.461 206.923 129.414 207.123 129.321C207.323 129.214 207.423 129.074 207.423 128.901C207.423 128.728 207.343 128.588 207.183 128.481C207.036 128.374 206.796 128.281 206.463 128.201L204.723 127.781C203.683 127.528 202.929 127.154 202.463 126.661C202.009 126.168 201.783 125.561 201.783 124.841C201.783 123.801 202.176 122.968 202.963 122.341C203.763 121.714 204.849 121.401 206.223 121.401C207.116 121.401 207.949 121.534 208.723 121.801C209.509 122.068 210.149 122.428 210.643 122.881L209.163 125.161C208.109 124.494 207.123 124.161 206.203 124.161C205.843 124.161 205.569 124.214 205.383 124.321C205.209 124.414 205.123 124.541 205.123 124.701C205.123 124.848 205.189 124.968 205.323 125.061C205.469 125.154 205.709 125.241 206.043 125.321L207.783 125.741C208.863 126.008 209.636 126.388 210.103 126.881C210.569 127.361 210.803 127.974 210.803 128.721C210.803 129.801 210.396 130.654 209.583 131.281C208.769 131.894 207.643 132.201 206.203 132.201ZM223.193 126.781C223.193 127.101 223.173 127.434 223.133 127.781H216.193C216.34 128.341 216.607 128.754 216.993 129.021C217.393 129.274 217.913 129.401 218.553 129.401C219.54 129.401 220.34 129.101 220.953 128.501L222.773 130.501C222.293 131.048 221.68 131.468 220.933 131.761C220.2 132.054 219.367 132.201 218.433 132.201C217.3 132.201 216.307 131.988 215.453 131.561C214.6 131.121 213.94 130.501 213.473 129.701C213.02 128.901 212.793 127.954 212.793 126.861C212.793 125.794 213.013 124.848 213.453 124.021C213.893 123.194 214.513 122.554 215.313 122.101C216.113 121.634 217.04 121.401 218.093 121.401C219.12 121.401 220.013 121.621 220.773 122.061C221.547 122.501 222.14 123.128 222.553 123.941C222.98 124.754 223.193 125.701 223.193 126.781ZM218.113 124.181C217.02 124.181 216.367 124.701 216.153 125.741H219.873C219.793 124.701 219.207 124.181 218.113 124.181ZM225.754 117.281H229.114V131.921H225.754V117.281ZM233.278 124.641H231.478V121.681H233.278V120.621C233.278 118.274 234.624 117.101 237.318 117.101C237.918 117.101 238.518 117.161 239.118 117.281V120.121C238.691 120.054 238.338 120.021 238.058 120.021C237.551 120.021 237.184 120.108 236.958 120.281C236.744 120.441 236.638 120.688 236.638 121.021V121.681H239.118V124.641H236.638V131.921H233.278V124.641ZM262.28 121.681L259.24 131.921H255.5L253.78 126.061L252.06 131.921H248.32L245.28 121.681H248.72L250.36 127.961L252.24 121.681H255.32L257.2 127.961L258.84 121.681H262.28ZM269.248 132.201C268.141 132.201 267.168 131.968 266.328 131.501C265.488 131.021 264.835 130.374 264.368 129.561C263.915 128.734 263.688 127.814 263.688 126.801C263.688 125.788 263.915 124.874 264.368 124.061C264.835 123.234 265.488 122.588 266.328 122.121C267.168 121.641 268.141 121.401 269.248 121.401C270.355 121.401 271.328 121.641 272.168 122.121C273.008 122.588 273.655 123.234 274.108 124.061C274.575 124.874 274.808 125.788 274.808 126.801C274.808 127.814 274.575 128.734 274.108 129.561C273.655 130.374 273.008 131.021 272.168 131.501C271.328 131.968 270.355 132.201 269.248 132.201ZM269.248 129.201C269.915 129.201 270.441 128.988 270.828 128.561C271.215 128.121 271.408 127.534 271.408 126.801C271.408 126.068 271.215 125.488 270.828 125.061C270.441 124.621 269.915 124.401 269.248 124.401C268.581 124.401 268.055 124.621 267.668 125.061C267.281 125.488 267.088 126.068 267.088 126.801C267.088 127.534 267.281 128.121 267.668 128.561C268.055 128.988 268.581 129.201 269.248 129.201ZM283.59 121.481C283.884 121.481 284.164 121.521 284.43 121.601V124.861C283.977 124.768 283.51 124.721 283.03 124.721C282.217 124.721 281.637 124.901 281.29 125.261C280.944 125.621 280.77 126.234 280.77 127.101V131.921H277.41V121.681H280.69V123.241C280.957 122.694 281.344 122.268 281.85 121.961C282.357 121.641 282.937 121.481 283.59 121.481ZM290.925 128.021H290.145V131.921H286.785V117.281H290.145V125.101H290.985L293.425 121.681H297.385L293.765 126.541L297.465 131.921H293.505L290.925 128.021ZM301.12 120.461C300.507 120.461 300.014 120.288 299.64 119.941C299.267 119.581 299.08 119.108 299.08 118.521C299.08 117.934 299.267 117.468 299.64 117.121C300.014 116.761 300.507 116.581 301.12 116.581C301.734 116.581 302.227 116.761 302.6 117.121C302.974 117.468 303.16 117.934 303.16 118.521C303.16 119.108 302.974 119.581 302.6 119.941C302.227 120.288 301.734 120.461 301.12 120.461ZM299.44 121.681H302.8V131.921H299.44V121.681ZM312.363 121.401C313.43 121.401 314.27 121.734 314.883 122.401C315.51 123.054 315.823 123.974 315.823 125.161V131.921H312.463V126.041C312.463 125.508 312.343 125.108 312.103 124.841C311.863 124.574 311.49 124.441 310.983 124.441C309.863 124.441 309.303 125.054 309.303 126.281V131.921H305.943V121.681H309.223V123.061C309.516 122.554 309.93 122.154 310.463 121.861C311.01 121.554 311.643 121.401 312.363 121.401ZM329.332 121.681V130.721C329.332 132.428 328.825 133.768 327.812 134.741C326.812 135.714 325.385 136.201 323.532 136.201C322.545 136.201 321.619 136.061 320.752 135.781C319.885 135.501 319.172 135.121 318.612 134.641L320.052 132.221C320.559 132.568 321.092 132.828 321.652 133.001C322.212 133.188 322.759 133.281 323.292 133.281C324.159 133.281 324.839 133.048 325.332 132.581C325.825 132.128 326.072 131.508 326.072 130.721V130.021C325.792 130.554 325.372 130.974 324.812 131.281C324.252 131.574 323.605 131.721 322.872 131.721C322.005 131.721 321.225 131.508 320.532 131.081C319.852 130.654 319.319 130.054 318.932 129.281C318.545 128.508 318.352 127.621 318.352 126.621C318.352 125.621 318.545 124.728 318.932 123.941C319.332 123.141 319.872 122.521 320.552 122.081C321.245 121.628 322.025 121.401 322.892 121.401C323.585 121.401 324.212 121.548 324.772 121.841C325.332 122.121 325.759 122.528 326.052 123.061V121.681H329.332ZM323.932 128.801C324.599 128.801 325.125 128.594 325.512 128.181C325.899 127.768 326.092 127.234 326.092 126.581C326.092 125.928 325.899 125.394 325.512 124.981C325.125 124.568 324.599 124.361 323.932 124.361C323.265 124.361 322.739 124.568 322.352 124.981C321.965 125.394 321.772 125.928 321.772 126.581C321.772 127.234 321.965 127.768 322.352 128.181C322.739 128.594 323.265 128.801 323.932 128.801ZM52.6956 160.061C51.3489 160.061 50.3823 159.788 49.7956 159.241C49.2089 158.694 48.9156 157.781 48.9156 156.501V152.641H47.1556V149.681H48.9156V146.681H52.2756V149.681H54.7956V152.641H52.2756V155.921C52.2756 156.348 52.3689 156.648 52.5556 156.821C52.7423 156.981 53.0756 157.061 53.5556 157.061C53.9956 157.061 54.4223 157.014 54.8356 156.921V159.781C54.1956 159.968 53.4823 160.061 52.6956 160.061ZM59.1665 148.461C58.5532 148.461 58.0599 148.288 57.6865 147.941C57.3132 147.581 57.1265 147.108 57.1265 146.521C57.1265 145.934 57.3132 145.468 57.6865 145.121C58.0599 144.761 58.5532 144.581 59.1665 144.581C59.7799 144.581 60.2732 144.761 60.6465 145.121C61.0199 145.468 61.2065 145.934 61.2065 146.521C61.2065 147.108 61.0199 147.581 60.6465 147.941C60.2732 148.288 59.7799 148.461 59.1665 148.461ZM57.4865 149.681H60.8465V159.921H57.4865V149.681ZM70.1692 149.481C70.4625 149.481 70.7425 149.521 71.0092 149.601V152.861C70.5559 152.768 70.0892 152.721 69.6092 152.721C68.7959 152.721 68.2159 152.901 67.8692 153.261C67.5225 153.621 67.3492 154.234 67.3492 155.101V159.921H63.9892V149.681H67.2692V151.241C67.5359 150.694 67.9225 150.268 68.4292 149.961C68.9359 149.641 69.5159 149.481 70.1692 149.481ZM82.9309 154.781C82.9309 155.101 82.9109 155.434 82.8709 155.781H75.9309C76.0776 156.341 76.3443 156.754 76.7309 157.021C77.1309 157.274 77.6509 157.401 78.2909 157.401C79.2776 157.401 80.0776 157.101 80.6909 156.501L82.5109 158.501C82.0309 159.048 81.4176 159.468 80.6709 159.761C79.9376 160.054 79.1043 160.201 78.1709 160.201C77.0376 160.201 76.0443 159.988 75.1909 159.561C74.3376 159.121 73.6776 158.501 73.2109 157.701C72.7576 156.901 72.5309 155.954 72.5309 154.861C72.5309 153.794 72.7509 152.848 73.1909 152.021C73.6309 151.194 74.2509 150.554 75.0509 150.101C75.8509 149.634 76.7776 149.401 77.8309 149.401C78.8576 149.401 79.7509 149.621 80.5109 150.061C81.2843 150.501 81.8776 151.128 82.2909 151.941C82.7176 152.754 82.9309 153.701 82.9309 154.781ZM77.8509 152.181C76.7576 152.181 76.1043 152.701 75.8909 153.741H79.6109C79.5309 152.701 78.9443 152.181 77.8509 152.181ZM85.4915 145.281H88.8515V159.921H85.4915V145.281ZM101.855 154.781C101.855 155.101 101.835 155.434 101.795 155.781H94.8551C95.0018 156.341 95.2685 156.754 95.6551 157.021C96.0551 157.274 96.5751 157.401 97.2151 157.401C98.2018 157.401 99.0018 157.101 99.6151 156.501L101.435 158.501C100.955 159.048 100.342 159.468 99.5951 159.761C98.8618 160.054 98.0285 160.201 97.0951 160.201C95.9618 160.201 94.9685 159.988 94.1151 159.561C93.2618 159.121 92.6018 158.501 92.1351 157.701C91.6818 156.901 91.4551 155.954 91.4551 154.861C91.4551 153.794 91.6751 152.848 92.1151 152.021C92.5551 151.194 93.1751 150.554 93.9751 150.101C94.7751 149.634 95.7018 149.401 96.7551 149.401C97.7818 149.401 98.6751 149.621 99.4351 150.061C100.208 150.501 100.802 151.128 101.215 151.941C101.642 152.754 101.855 153.701 101.855 154.781ZM96.7751 152.181C95.6818 152.181 95.0285 152.701 94.8151 153.741H98.5351C98.4551 152.701 97.8685 152.181 96.7751 152.181ZM108.496 160.201C107.522 160.201 106.609 160.061 105.756 159.781C104.916 159.488 104.229 159.081 103.696 158.561L105.136 156.261C105.576 156.608 106.102 156.894 106.716 157.121C107.342 157.348 107.949 157.461 108.536 157.461C108.922 157.461 109.216 157.414 109.416 157.321C109.616 157.214 109.716 157.074 109.716 156.901C109.716 156.728 109.636 156.588 109.476 156.481C109.329 156.374 109.089 156.281 108.756 156.201L107.016 155.781C105.976 155.528 105.222 155.154 104.756 154.661C104.302 154.168 104.076 153.561 104.076 152.841C104.076 151.801 104.469 150.968 105.256 150.341C106.056 149.714 107.142 149.401 108.516 149.401C109.409 149.401 110.242 149.534 111.016 149.801C111.802 150.068 112.442 150.428 112.936 150.881L111.456 153.161C110.402 152.494 109.416 152.161 108.496 152.161C108.136 152.161 107.862 152.214 107.676 152.321C107.502 152.414 107.416 152.541 107.416 152.701C107.416 152.848 107.482 152.968 107.616 153.061C107.762 153.154 108.002 153.241 108.336 153.321L110.076 153.741C111.156 154.008 111.929 154.388 112.396 154.881C112.862 155.361 113.096 155.974 113.096 156.721C113.096 157.801 112.689 158.654 111.876 159.281C111.062 159.894 109.936 160.201 108.496 160.201ZM119.647 160.201C118.674 160.201 117.761 160.061 116.907 159.781C116.067 159.488 115.381 159.081 114.847 158.561L116.287 156.261C116.727 156.608 117.254 156.894 117.867 157.121C118.494 157.348 119.101 157.461 119.687 157.461C120.074 157.461 120.367 157.414 120.567 157.321C120.767 157.214 120.867 157.074 120.867 156.901C120.867 156.728 120.787 156.588 120.627 156.481C120.481 156.374 120.241 156.281 119.907 156.201L118.167 155.781C117.127 155.528 116.374 155.154 115.907 154.661C115.454 154.168 115.227 153.561 115.227 152.841C115.227 151.801 115.621 150.968 116.407 150.341C117.207 149.714 118.294 149.401 119.667 149.401C120.561 149.401 121.394 149.534 122.167 149.801C122.954 150.068 123.594 150.428 124.087 150.881L122.607 153.161C121.554 152.494 120.567 152.161 119.647 152.161C119.287 152.161 119.014 152.214 118.827 152.321C118.654 152.414 118.567 152.541 118.567 152.701C118.567 152.848 118.634 152.968 118.767 153.061C118.914 153.154 119.154 153.241 119.487 153.321L121.227 153.741C122.307 154.008 123.081 154.388 123.547 154.881C124.014 155.361 124.247 155.974 124.247 156.721C124.247 157.801 123.841 158.654 123.027 159.281C122.214 159.894 121.087 160.201 119.647 160.201ZM126.758 145.281H130.118V159.921H126.758V145.281ZM142.782 149.681V158.841C142.782 160.561 142.295 161.881 141.322 162.801C140.348 163.734 138.948 164.201 137.122 164.201C136.228 164.201 135.388 164.088 134.602 163.861C133.828 163.648 133.188 163.334 132.682 162.921L133.962 160.401C134.388 160.681 134.855 160.894 135.362 161.041C135.882 161.201 136.382 161.281 136.862 161.281C137.688 161.281 138.335 161.061 138.802 160.621C139.268 160.194 139.502 159.601 139.502 158.841V158.121C139.208 158.614 138.795 159.008 138.262 159.301C137.742 159.581 137.142 159.721 136.462 159.721C135.422 159.721 134.595 159.394 133.982 158.741C133.368 158.074 133.062 157.148 133.062 155.961V149.681H136.422V155.081C136.422 155.614 136.535 156.014 136.762 156.281C137.002 156.548 137.362 156.681 137.842 156.681C138.922 156.681 139.462 156.068 139.462 154.841V149.681H142.782ZM157.532 149.401C158.398 149.401 159.172 149.628 159.852 150.081C160.545 150.534 161.085 151.174 161.472 152.001C161.858 152.814 162.052 153.748 162.052 154.801C162.052 155.854 161.858 156.794 161.472 157.621C161.085 158.434 160.545 159.068 159.852 159.521C159.172 159.974 158.398 160.201 157.532 160.201C156.838 160.201 156.212 160.061 155.652 159.781C155.092 159.488 154.665 159.074 154.372 158.541V159.921H151.092V145.281H154.452V150.941C154.758 150.448 155.185 150.068 155.732 149.801C156.278 149.534 156.878 149.401 157.532 149.401ZM156.492 157.201C157.158 157.201 157.685 156.988 158.072 156.561C158.458 156.121 158.652 155.534 158.652 154.801C158.652 154.068 158.458 153.488 158.072 153.061C157.685 152.621 157.158 152.401 156.492 152.401C155.825 152.401 155.298 152.621 154.912 153.061C154.525 153.488 154.332 154.068 154.332 154.801C154.332 155.534 154.525 156.121 154.912 156.561C155.298 156.988 155.825 157.201 156.492 157.201ZM169.325 160.201C167.792 160.201 166.599 159.828 165.745 159.081C164.905 158.321 164.485 157.274 164.485 155.941V149.681H167.845V155.461C167.845 156.621 168.339 157.201 169.325 157.201C170.312 157.201 170.805 156.621 170.805 155.461V149.681H174.165V155.941C174.165 157.274 173.739 158.321 172.885 159.081C172.045 159.828 170.859 160.201 169.325 160.201ZM181.865 160.061C180.518 160.061 179.552 159.788 178.965 159.241C178.378 158.694 178.085 157.781 178.085 156.501V152.641H176.325V149.681H178.085V146.681H181.445V149.681H183.965V152.641H181.445V155.921C181.445 156.348 181.538 156.648 181.725 156.821C181.912 156.981 182.245 157.061 182.725 157.061C183.165 157.061 183.592 157.014 184.005 156.921V159.781C183.365 159.968 182.652 160.061 181.865 160.061ZM195.911 160.201C194.937 160.201 194.024 160.061 193.171 159.781C192.331 159.488 191.644 159.081 191.111 158.561L192.551 156.261C192.991 156.608 193.517 156.894 194.131 157.121C194.757 157.348 195.364 157.461 195.951 157.461C196.337 157.461 196.631 157.414 196.831 157.321C197.031 157.214 197.131 157.074 197.131 156.901C197.131 156.728 197.051 156.588 196.891 156.481C196.744 156.374 196.504 156.281 196.171 156.201L194.431 155.781C193.391 155.528 192.637 155.154 192.171 154.661C191.717 154.168 191.491 153.561 191.491 152.841C191.491 151.801 191.884 150.968 192.671 150.341C193.471 149.714 194.557 149.401 195.931 149.401C196.824 149.401 197.657 149.534 198.431 149.801C199.217 150.068 199.857 150.428 200.351 150.881L198.871 153.161C197.817 152.494 196.831 152.161 195.911 152.161C195.551 152.161 195.277 152.214 195.091 152.321C194.917 152.414 194.831 152.541 194.831 152.701C194.831 152.848 194.897 152.968 195.031 153.061C195.177 153.154 195.417 153.241 195.751 153.321L197.491 153.741C198.571 154.008 199.344 154.388 199.811 154.881C200.277 155.361 200.511 155.974 200.511 156.721C200.511 157.801 200.104 158.654 199.291 159.281C198.477 159.894 197.351 160.201 195.911 160.201ZM207.722 160.061C206.376 160.061 205.409 159.788 204.822 159.241C204.236 158.694 203.942 157.781 203.942 156.501V152.641H202.182V149.681H203.942V146.681H207.302V149.681H209.822V152.641H207.302V155.921C207.302 156.348 207.396 156.648 207.582 156.821C207.769 156.981 208.102 157.061 208.582 157.061C209.022 157.061 209.449 157.014 209.862 156.921V159.781C209.222 159.968 208.509 160.061 207.722 160.061ZM214.193 148.461C213.58 148.461 213.086 148.288 212.713 147.941C212.34 147.581 212.153 147.108 212.153 146.521C212.153 145.934 212.34 145.468 212.713 145.121C213.086 144.761 213.58 144.581 214.193 144.581C214.806 144.581 215.3 144.761 215.673 145.121C216.046 145.468 216.233 145.934 216.233 146.521C216.233 147.108 216.046 147.581 215.673 147.941C215.3 148.288 214.806 148.461 214.193 148.461ZM212.513 149.681H215.873V159.921H212.513V149.681ZM219.016 145.281H222.376V159.921H219.016V145.281ZM225.499 145.281H228.859V159.921H225.499V145.281ZM241.257 160.201C240.284 160.201 239.371 160.061 238.517 159.781C237.677 159.488 236.991 159.081 236.457 158.561L237.897 156.261C238.337 156.608 238.864 156.894 239.477 157.121C240.104 157.348 240.711 157.461 241.297 157.461C241.684 157.461 241.977 157.414 242.177 157.321C242.377 157.214 242.477 157.074 242.477 156.901C242.477 156.728 242.397 156.588 242.237 156.481C242.091 156.374 241.851 156.281 241.517 156.201L239.777 155.781C238.737 155.528 237.984 155.154 237.517 154.661C237.064 154.168 236.837 153.561 236.837 152.841C236.837 151.801 237.231 150.968 238.017 150.341C238.817 149.714 239.904 149.401 241.277 149.401C242.171 149.401 243.004 149.534 243.777 149.801C244.564 150.068 245.204 150.428 245.697 150.881L244.217 153.161C243.164 152.494 242.177 152.161 241.257 152.161C240.897 152.161 240.624 152.214 240.437 152.321C240.264 152.414 240.177 152.541 240.177 152.701C240.177 152.848 240.244 152.968 240.377 153.061C240.524 153.154 240.764 153.241 241.097 153.321L242.837 153.741C243.917 154.008 244.691 154.388 245.157 154.881C245.624 155.361 245.857 155.974 245.857 156.721C245.857 157.801 245.451 158.654 244.637 159.281C243.824 159.894 242.697 160.201 241.257 160.201ZM253.069 160.061C251.722 160.061 250.756 159.788 250.169 159.241C249.582 158.694 249.289 157.781 249.289 156.501V152.641H247.529V149.681H249.289V146.681H252.649V149.681H255.169V152.641H252.649V155.921C252.649 156.348 252.742 156.648 252.929 156.821C253.116 156.981 253.449 157.061 253.929 157.061C254.369 157.061 254.796 157.014 255.209 156.921V159.781C254.569 159.968 253.856 160.061 253.069 160.061ZM262.52 160.201C260.987 160.201 259.793 159.828 258.94 159.081C258.1 158.321 257.68 157.274 257.68 155.941V149.681H261.04V155.461C261.04 156.621 261.533 157.201 262.52 157.201C263.507 157.201 264 156.621 264 155.461V149.681H267.36V155.941C267.36 157.274 266.933 158.321 266.08 159.081C265.24 159.828 264.053 160.201 262.52 160.201ZM275.2 160.201C274.133 160.201 273.186 159.974 272.36 159.521C271.546 159.068 270.913 158.434 270.46 157.621C270.02 156.794 269.8 155.854 269.8 154.801C269.8 153.748 270.02 152.814 270.46 152.001C270.913 151.174 271.546 150.534 272.36 150.081C273.186 149.628 274.133 149.401 275.2 149.401C276.24 149.401 277.16 149.614 277.96 150.041C278.773 150.468 279.393 151.061 279.82 151.821L277.36 153.561C276.84 152.814 276.16 152.441 275.32 152.441C274.68 152.441 274.166 152.654 273.78 153.081C273.393 153.508 273.2 154.081 273.2 154.801C273.2 155.521 273.393 156.094 273.78 156.521C274.166 156.948 274.68 157.161 275.32 157.161C276.16 157.161 276.84 156.788 277.36 156.041L279.82 157.781C279.393 158.541 278.773 159.134 277.96 159.561C277.16 159.988 276.24 160.201 275.2 160.201ZM286.119 156.021H285.339V159.921H281.979V145.281H285.339V153.101H286.179L288.619 149.681H292.579L288.959 154.541L292.659 159.921H288.699L286.119 156.021ZM296.178 153.981C296.178 153.514 296.218 153.148 296.298 152.881C296.378 152.601 296.524 152.334 296.738 152.081C296.951 151.828 297.298 151.501 297.778 151.101L298.638 150.381C299.064 150.021 299.278 149.674 299.278 149.341C299.278 149.088 299.184 148.894 298.998 148.761C298.824 148.628 298.578 148.561 298.258 148.561C297.378 148.561 296.604 149.101 295.938 150.181L293.538 148.561C293.991 147.668 294.624 146.961 295.438 146.441C296.264 145.908 297.224 145.641 298.318 145.641C299.118 145.641 299.838 145.788 300.478 146.081C301.118 146.374 301.618 146.794 301.978 147.341C302.338 147.888 302.518 148.521 302.518 149.241C302.518 149.788 302.391 150.294 302.138 150.761C301.884 151.228 301.438 151.728 300.798 152.261L300.058 152.881C299.738 153.148 299.538 153.354 299.458 153.501C299.378 153.648 299.338 153.881 299.338 154.201V154.921H296.178V153.981ZM297.758 160.201C297.104 160.201 296.584 160.008 296.198 159.621C295.811 159.234 295.618 158.714 295.618 158.061C295.618 157.394 295.811 156.874 296.198 156.501C296.584 156.114 297.104 155.921 297.758 155.921C298.424 155.921 298.944 156.114 299.318 156.501C299.704 156.874 299.898 157.394 299.898 158.061C299.898 158.714 299.704 159.234 299.318 159.621C298.944 160.008 298.424 160.201 297.758 160.201Z" fill="white"/>
<path d="M204.72 277.255V378.225" stroke="#2A272D" stroke-width="1.9882" stroke-miterlimit="10"/>
<path d="M277.756 277.255V378.225" stroke="#2A272D" stroke-width="1.9882" stroke-miterlimit="10"/>
<path d="M161.537 308.438C161.537 308.438 175.552 305.261 177.662 314.384C179.484 322.213 160.422 321.913 160.422 321.913L118.509 322.165C118.509 322.165 102.72 323.987 94.9152 305.777C87.1105 287.566 79.5936 239.874 79.5936 239.874C79.5936 239.874 78.4667 233.317 83.9335 232.357C90.3595 231.231 91.6183 245.114 91.6183 245.114C91.6183 245.114 101.329 303.978 115.428 306.856C117.598 307.299 119.324 308.942 121.542 308.918L161.537 308.438Z" fill="#FFEEE3"/>
<path d="M198.786 260.891L212.021 259.98C213.1 259.908 214.131 260.399 214.743 261.274L222.14 272.46L215.846 272.76L212.297 267.305C212.297 267.305 202.071 269.858 198.294 267.305L198.786 260.891Z" fill="#F2C09E"/>
<path d="M145.472 224.649L163.155 257.51L199.901 258.685V270.769L161.093 272.472C155.962 272.7 151.094 270.242 148.217 265.986L130.558 234.276L145.472 224.649Z" fill="#EFC375"/>
<path d="M199.901 258.673V270.757L195.8 270.937V258.541L199.901 258.673Z" fill="#F7E5DA"/>
<path d="M180.647 356.081L182.721 370.612L193.175 369.964L191.676 354.966L180.647 356.081Z" fill="#FCC9A7"/>
<path d="M180.383 369.137C180.611 368.454 181.426 368.178 182.013 368.598C183.164 369.413 185.19 370.384 188.104 370.012C191.137 369.629 192.204 368.01 192.576 366.871C192.767 366.272 193.415 365.948 194.002 366.176L212.848 373.561C213.999 374.005 214.911 374.892 215.402 376.019C215.858 377.074 215.102 378.261 213.939 378.285L182.025 378.752C180.767 378.776 179.76 377.733 179.807 376.474L180.035 370.312C180.035 370.204 180.059 370.108 180.095 370.012L180.383 369.137Z" fill="#1F252A"/>
<path d="M148.889 221.831L151.886 226.639C152.078 227.094 152.162 228.197 151.334 228.605L150.171 229.444L147.678 225.632L148.889 221.831Z" fill="#FFEEE3"/>
<path d="M143.302 226.915L142.355 226.459C139.238 224.936 137.943 221.172 139.465 218.055L149.584 197.338L160.817 202.829L149.128 226.027C147.882 228.605 145.879 228.173 143.302 226.915Z" fill="#FCC9A7"/>
<path d="M169.198 206.917C165.901 213.655 157.76 216.46 151.023 213.164C144.285 209.867 141.48 201.738 144.776 194.989C148.073 188.251 156.202 185.446 162.951 188.742C169.701 192.039 172.494 200.18 169.198 206.917Z" fill="#FCC9A7"/>
<path d="M152.797 220.321C149.596 218.762 148.265 214.89 149.836 211.689L155.542 200L169.306 206.726L164.654 216.257C162.496 220.644 157.185 222.479 152.797 220.321Z" fill="#FCC9A7"/>
<path d="M167.519 209.471L168.262 214.698C168.322 215.525 167.447 216.065 166.68 215.693L163.299 214.77L167.519 209.471Z" fill="#FCC9A7"/>
<path d="M155.602 206.857C155.602 206.857 160.362 207.169 161.141 199.82C161.141 199.82 169.413 205.095 172.782 202.997C172.782 202.997 173.813 182.209 156.633 182.94C139.454 183.671 138.111 202.218 138.111 202.218L147.75 210.922L155.602 206.857Z" fill="#1C2226"/>
<path d="M156.286 207.157C155.387 209.015 153.145 209.783 151.286 208.872C149.44 207.96 148.661 205.73 149.572 203.872C150.471 202.014 152.713 201.247 154.571 202.158C156.418 203.069 157.185 205.299 156.286 207.157Z" fill="#FCC9A7"/>
<path d="M145.795 204.4L143.242 210.358C143.242 210.358 148.853 214.854 151.682 209.063L147.606 207.912L145.795 204.4Z" fill="#1C2226"/>
<path d="M161.141 199.82C161.141 199.82 172.351 208.476 176.774 201.223C180.299 195.432 176.379 191.68 170.72 192.615C168.274 193.022 167.064 191.368 165.145 190.061L161.141 199.82Z" fill="#1C2226"/>
<path d="M151.071 232.345C151.071 232.345 150.819 227.058 149.14 225.224C147.462 223.39 138.518 218.331 138.518 218.331C138.518 218.331 125.654 222.059 117.754 236.757C111.604 248.207 105.813 277.183 105.813 277.183L142.93 282.566C146.131 260.915 152.126 251.048 151.071 232.345Z" fill="#FFD686"/>
<path d="M139.142 217.312L137.595 218.007C137.044 218.259 136.924 219.002 137.379 219.41L147.186 228.137C147.582 228.497 148.205 228.389 148.481 227.934L149.584 226.027C149.788 225.668 149.704 225.212 149.38 224.948L140.005 217.443C139.765 217.228 139.429 217.18 139.142 217.312Z" fill="#FFEEE3"/>
<path d="M194.698 262.857L207.933 261.946C209.012 261.874 210.043 262.365 210.655 263.24L217.44 272.891L211.098 273.707L208.209 269.259C208.209 269.259 197.983 271.812 194.206 269.259L194.698 262.857Z" fill="#FCC9A7"/>
<path d="M137.955 227.094L157.928 260.795L195.813 261.838V272.736L154.931 274.522C151.095 274.69 147.438 272.855 145.28 269.666L123.041 236.721L137.955 227.094Z" fill="#FFD686"/>
<path d="M195.813 261.838V272.724L191.713 272.903V261.838H195.813Z" fill="#FFEEE3"/>
<path d="M105.813 277.183L178.824 287.769C184.411 288.585 188.727 293.104 189.267 298.727L194.71 360.913L178.405 361.968L170.564 308.066L124.719 309.253C112.275 309.253 102.732 298.2 104.542 285.887L105.813 277.183Z" fill="#54585A"/>
<path d="M235.22 272.472H196.712V274.965H235.22V272.472Z" fill="#2A272D"/>
<path d="M235.232 274.965L247.688 238.58L245.074 237.956L232.858 272.903L235.232 274.965Z" fill="#2A272D"/>
<path d="M152.185 219.985C152.185 219.985 148.721 217.935 148.721 213.619C148.721 213.619 146.563 218.295 150.963 222.407L152.185 219.985Z" fill="#F2C09E"/>
<path d="M95.3468 380.574C95.9223 380.574 96.4498 380.179 96.6056 379.591L115.668 304.434C117.25 298.212 122.825 293.86 129.251 293.86C135.485 293.86 141.024 298.044 142.726 304.038C149.392 327.524 164.905 378.764 165.061 379.28C165.265 379.963 165.996 380.359 166.68 380.143C167.363 379.939 167.759 379.208 167.543 378.524C167.387 378.009 151.874 326.793 145.22 303.331C143.206 296.222 136.636 291.258 129.239 291.258C121.626 291.258 115.008 296.413 113.138 303.786L94.076 378.956C93.8962 379.651 94.3158 380.359 95.0111 380.538C95.131 380.562 95.2389 380.574 95.3468 380.574Z" fill="#1F252A"/>
<path d="M145.292 269.654L133.843 252.714" stroke="#EFC375" stroke-width="0.7847" stroke-miterlimit="10" stroke-linecap="round" stroke-linejoin="round"/>
<path d="M290.368 274.965H190.609V279.461H290.368V274.965Z" fill="#FFEEE3"/>
<path d="M204.72 290.383H277.756" stroke="#2A272D" stroke-width="1.9882" stroke-miterlimit="10"/>
<defs>
<filter id="filter0_d" x="0" y="0" width="412.48" height="406.842" filterUnits="userSpaceOnUse" color-interpolation-filters="sRGB">
<feFlood flood-opacity="0" result="BackgroundImageFix"/>
<feColorMatrix in="SourceAlpha" type="matrix" values="0 0 0 0 0 0 0 0 0 0 0 0 0 0 0 0 0 0 127 0"/>
<feOffset dx="16" dy="16"/>
<feGaussianBlur stdDeviation="8"/>
<feColorMatrix type="matrix" values="0 0 0 0 0.227451 0 0 0 0 0.25098 0 0 0 0 0.356863 0 0 0 0.16 0"/>
<feBlend mode="normal" in2="BackgroundImageFix" result="effect1_dropShadow"/>
<feBlend mode="normal" in="SourceGraphic" in2="effect1_dropShadow" result="shape"/>
</filter>
</defs>
</svg>
