<svg width="609" height="622" viewBox="0 0 609 622" fill="none" xmlns="http://www.w3.org/2000/svg">
<g filter="url(#filter0_d)">
<path fill-rule="evenodd" clip-rule="evenodd" d="M436.218 469.132C378.05 510.599 303.161 452.229 237.638 423.772C169.067 393.991 70.3583 379.832 60.1 305.78C49.9436 232.464 147.493 199.999 199.319 147.155C238.216 107.493 262.822 46.0407 318.264 42.5409C375.344 38.9376 425.835 81.9629 455.278 130.997C480.238 172.565 457.122 220.842 454.394 269.252C450.432 339.527 493.533 428.274 436.218 469.132Z" fill="#EB5757"/>
</g>
<path d="M349.613 424.811L340.843 445.881L326.545 438.288L335.27 417.618L349.613 424.811Z" fill="#FCC9A7"/>
<path d="M345.661 444.637C345.661 443.372 344.573 442.55 343.485 443.017C341.354 443.927 337.846 444.704 333.65 442.817C329.298 440.863 328.499 437.644 328.477 435.535C328.477 434.425 327.677 433.581 326.678 433.736L294.774 438.332C292.843 438.621 291.022 439.731 289.734 441.462C288.513 443.083 289.091 445.437 290.8 445.969L338.423 460.445C340.288 461.022 342.33 459.668 342.886 457.492L345.572 446.835C345.616 446.658 345.639 446.48 345.639 446.302L345.661 444.637Z" fill="#1F252A"/>
<path d="M478.894 373.703L498.875 384.715L489.795 398.103L470.191 387.179L478.894 373.703Z" fill="#FCC9A7"/>
<path d="M498.165 379.786C496.899 379.653 495.967 380.652 496.3 381.762C496.966 383.96 497.366 387.557 495.034 391.509C492.614 395.616 489.328 396.082 487.219 395.838C486.109 395.727 485.199 396.415 485.221 397.414L486.309 429.629C486.376 431.583 487.286 433.514 488.862 434.98C490.328 436.356 492.747 436.068 493.458 434.403L513.018 388.645C513.795 386.846 512.663 384.671 510.576 383.893L500.274 380.053C500.096 379.986 499.919 379.942 499.741 379.919L498.165 379.786Z" fill="#1F252A"/>
<path d="M360.181 221.265L367.885 270.687L406.827 340.689L473.876 398.991L489.506 371.349L436.333 321.751L405.139 222.109L360.181 221.265Z" fill="#092330"/>
<path d="M423.456 218.446C423.456 218.446 431.204 233.099 419.171 256.5L381.805 327.812L353.32 435.89L325.035 426.01L345.35 316.711L381.361 231.412L360.181 221.265L423.456 218.446Z" fill="#0C2C40"/>
<path d="M341.998 79.3961C346.926 84.7911 355.296 85.1685 360.669 80.2619C366.064 75.3331 366.442 66.9631 361.535 61.5681C356.606 56.173 348.258 55.7956 342.841 60.7022C337.446 65.6531 337.069 74.001 341.998 79.3961Z" fill="#FCC9A7"/>
<path d="M331.429 86.1899L342.93 72.3361L352.099 81.5498L341.309 94.7599L331.429 86.1899Z" fill="#FCC9A7"/>
<path d="M357.383 53.7531L346.837 67.8734C345.461 69.7161 345.505 72.2693 346.949 74.0455L355.496 84.5913C357.494 87.0557 361.224 87.0779 363.245 84.6579L375.167 70.471C376.81 68.5173 376.721 65.631 374.967 63.766L365.043 53.2868C362.912 51.0444 359.248 51.2443 357.383 53.7531Z" fill="#1C2226"/>
<path d="M368.284 103.53L326.478 124.51L349.435 89.0984L334.293 75.9994L286.426 141.583C282.075 147.223 283.762 155.437 290.001 158.879C293.176 160.633 296.994 160.81 300.325 159.345L362.312 134.723L368.284 103.53Z" fill="#F7ECE7"/>
<path d="M353.32 123.666C353.32 123.666 360.714 181.635 360.181 221.265C360.181 221.265 382.36 231.034 429.384 216.758L417.75 108.969L395.104 101.354L368.284 103.529L353.32 123.666Z" fill="#F7ECE7"/>
<path d="M375.878 97.8901L376.455 101.664C376.499 101.931 376.41 102.219 376.211 102.419L370.416 108.569C369.883 109.124 368.951 108.813 368.862 108.059L368.262 103.529C368.218 103.241 368.329 102.952 368.551 102.752L374.346 97.3573C374.901 96.8689 375.789 97.1575 375.878 97.8901Z" fill="#FCF3F0"/>
<path d="M383.626 107.637C390.509 107.081 395.637 101.02 395.082 94.1378L393.417 73.9786L368.462 76.0212L373.613 103.884C374.434 107.437 376.721 108.192 383.626 107.637Z" fill="#FCC9A7"/>
<path d="M394.261 81.0389C394.261 81.0389 388.888 96.3137 377.987 94.4266C367.974 92.6948 368.462 76.0214 368.462 76.0214L394.261 81.0389Z" fill="#F4BE9A"/>
<path d="M379.718 88.876L381.939 88.6318C392.995 87.4329 401.01 77.4865 399.811 66.4301L398.457 53.8195C397.258 42.763 387.311 34.7481 376.255 35.947L374.035 36.1912C362.978 37.3901 354.963 47.3366 356.162 58.393L357.517 71.0036C358.716 82.0823 368.662 90.0749 379.718 88.876Z" fill="#FCC9A7"/>
<path d="M379.718 88.876L381.939 88.6318C392.995 87.4329 401.01 77.4865 399.811 66.4301L398.457 53.8195C397.258 42.763 387.311 34.7481 376.255 35.947L374.035 36.1912C362.978 37.3901 354.963 47.3366 356.162 58.393L357.517 71.0036C358.716 82.0823 368.662 90.0749 379.718 88.876Z" fill="#FCC9A7"/>
<path d="M399.367 62.4337C397.857 62.2783 391.53 67.074 389.887 64.987C387.622 62.1008 385.558 56.8389 388.488 51.3773C388.977 50.467 389.11 49.4014 388.799 48.4023C388.222 46.6039 386.668 44.517 382.383 46.0267C375.522 48.4467 360.092 56.2173 355.63 45.0942C349.99 31.0848 394.349 34.9924 394.349 34.9924L404.451 49.6011L400.122 70.4264L399.367 62.4337Z" fill="#1C2226"/>
<path d="M393.195 64.5429C393.617 68.4948 397.169 71.3588 401.121 70.9148C405.073 70.4929 407.937 66.9406 407.493 62.9887C407.071 59.0368 403.519 56.1728 399.567 56.6168C395.615 57.0608 392.773 60.5909 393.195 64.5429Z" fill="#FCC9A7"/>
<path d="M381.361 111.922L387.023 199.197L376.477 209.099L370.216 199.508L376.477 110.19L381.361 111.922Z" fill="#0C2C40"/>
<path d="M372.925 105.905L373.791 104.706L373.569 103.662H386.046L387.023 106.926L378.719 114.253L372.925 105.905Z" fill="#0C2C40"/>
<path d="M394.283 92.9611L382.471 100.998C381.139 101.908 380.962 103.818 382.116 104.95L391.397 114.075C392.44 115.096 394.15 115.052 395.126 113.942L404.473 103.44C405.384 102.419 405.339 100.843 404.362 99.8881L397.524 93.2054C396.658 92.3839 395.304 92.2729 394.283 92.9611Z" fill="#FCF3F0"/>
<path d="M344.24 97.1132L326.567 86.4563" stroke="#EADDD8" stroke-width="0.7599" stroke-miterlimit="10" stroke-linecap="round" stroke-linejoin="round"/>
<path d="M376.432 180.814L370.238 247.042C369.994 249.528 371.703 251.793 374.168 252.281L450.12 266.801C452.917 267.334 455.559 265.38 455.87 262.561L462.819 199.619C463.086 197.177 461.487 194.912 459.09 194.335L382.382 176.551C379.518 175.863 376.721 177.883 376.432 180.814Z" fill="#AFAFAF"/>
<path d="M381.827 181.991L375.633 248.218C375.411 250.705 377.098 252.97 379.563 253.458L455.515 267.978C458.313 268.511 460.955 266.557 461.265 263.737L468.215 200.795C468.481 198.353 466.882 196.089 464.485 195.511L387.777 177.706C384.891 177.04 382.094 179.06 381.827 181.991Z" fill="#D1D1D1"/>
<path d="M410.49 242.934C404.384 237.34 394.882 237.761 389.287 243.867C383.692 249.972 384.114 259.475 390.22 265.07C396.325 270.664 405.828 270.243 411.422 264.137C417.017 258.009 416.595 248.529 410.49 242.934Z" fill="#FCC9A7"/>
<path d="M421.746 234.187L410.157 251.016L398.878 241.513L409.713 225.506L421.746 234.187Z" fill="#FCC9A7"/>
<path d="M417.772 108.969C417.772 108.969 434.756 110.678 439.685 138.453L459.223 179.038C459.756 180.814 460.111 182.634 460.288 184.455L419.193 243.489L400.654 232.5L433.89 179.215L413.709 147.267L417.772 108.969Z" fill="#F7ECE7"/>
<path d="M406.693 224.529L425.41 234.564" stroke="#EADDD8" stroke-width="0.7599" stroke-miterlimit="10" stroke-linecap="round" stroke-linejoin="round"/>
<path d="M423.589 162.919L411.622 142.094" stroke="#EADDD8" stroke-width="0.7599" stroke-miterlimit="10" stroke-linecap="round" stroke-linejoin="round"/>
<path d="M360.203 50.0453C351.722 46.2044 353.498 36.3024 355.43 33.172C355.43 33.172 355.807 38.7446 359.603 37.4569C359.603 37.4569 359.093 29.1535 370.216 26.9999C370.216 26.9999 366.109 34.4597 380.74 33.0388C398.701 31.2848 399.744 42.6521 398.745 56.7725L393.239 52.8206L388.976 42.9852H374.434L360.203 50.0453Z" fill="#1C2226"/>
<path d="M138.14 227C139.487 227 140.68 227.28 141.72 227.84C142.773 228.386 143.593 229.186 144.18 230.24C144.767 231.293 145.06 232.546 145.06 234C145.06 235.453 144.767 236.706 144.18 237.76C143.593 238.813 142.773 239.62 141.72 240.18C140.68 240.726 139.487 241 138.14 241H132.36V227H138.14ZM138.14 237.78C139.207 237.78 140.02 237.466 140.58 236.84C141.14 236.213 141.42 235.266 141.42 234C141.42 232.733 141.14 231.786 140.58 231.16C140.02 230.533 139.207 230.22 138.14 230.22H135.84V237.78H138.14ZM152.824 241.28C151.718 241.28 150.744 241.046 149.904 240.58C149.064 240.1 148.411 239.453 147.944 238.64C147.491 237.813 147.264 236.893 147.264 235.88C147.264 234.866 147.491 233.953 147.944 233.14C148.411 232.313 149.064 231.666 149.904 231.2C150.744 230.72 151.718 230.48 152.824 230.48C153.931 230.48 154.904 230.72 155.744 231.2C156.584 231.666 157.231 232.313 157.684 233.14C158.151 233.953 158.384 234.866 158.384 235.88C158.384 236.893 158.151 237.813 157.684 238.64C157.231 239.453 156.584 240.1 155.744 240.58C154.904 241.046 153.931 241.28 152.824 241.28ZM152.824 238.28C153.491 238.28 154.018 238.066 154.404 237.64C154.791 237.2 154.984 236.613 154.984 235.88C154.984 235.146 154.791 234.566 154.404 234.14C154.018 233.7 153.491 233.48 152.824 233.48C152.158 233.48 151.631 233.7 151.244 234.14C150.858 234.566 150.664 235.146 150.664 235.88C150.664 236.613 150.858 237.2 151.244 237.64C151.631 238.066 152.158 238.28 152.824 238.28ZM175.721 230.76V239.92C175.721 241.64 175.234 242.96 174.261 243.88C173.288 244.813 171.888 245.28 170.061 245.28C169.168 245.28 168.328 245.166 167.541 244.94C166.768 244.726 166.128 244.413 165.621 244L166.901 241.48C167.328 241.76 167.794 241.973 168.301 242.12C168.821 242.28 169.321 242.36 169.801 242.36C170.628 242.36 171.274 242.14 171.741 241.7C172.208 241.273 172.441 240.68 172.441 239.92V239.2C172.148 239.693 171.734 240.086 171.201 240.38C170.681 240.66 170.081 240.8 169.401 240.8C168.361 240.8 167.534 240.473 166.921 239.82C166.308 239.153 166.001 238.226 166.001 237.04V230.76H169.361V236.16C169.361 236.693 169.474 237.093 169.701 237.36C169.941 237.626 170.301 237.76 170.781 237.76C171.861 237.76 172.401 237.146 172.401 235.92V230.76H175.721ZM183.877 241.28C182.77 241.28 181.797 241.046 180.957 240.58C180.117 240.1 179.463 239.453 178.997 238.64C178.543 237.813 178.317 236.893 178.317 235.88C178.317 234.866 178.543 233.953 178.997 233.14C179.463 232.313 180.117 231.666 180.957 231.2C181.797 230.72 182.77 230.48 183.877 230.48C184.983 230.48 185.957 230.72 186.797 231.2C187.637 231.666 188.283 232.313 188.737 233.14C189.203 233.953 189.437 234.866 189.437 235.88C189.437 236.893 189.203 237.813 188.737 238.64C188.283 239.453 187.637 240.1 186.797 240.58C185.957 241.046 184.983 241.28 183.877 241.28ZM183.877 238.28C184.543 238.28 185.07 238.066 185.457 237.64C185.843 237.2 186.037 236.613 186.037 235.88C186.037 235.146 185.843 234.566 185.457 234.14C185.07 233.7 184.543 233.48 183.877 233.48C183.21 233.48 182.683 233.7 182.297 234.14C181.91 234.566 181.717 235.146 181.717 235.88C181.717 236.613 181.91 237.2 182.297 237.64C182.683 238.066 183.21 238.28 183.877 238.28ZM196.719 241.28C195.186 241.28 193.992 240.906 193.139 240.16C192.299 239.4 191.879 238.353 191.879 237.02V230.76H195.239V236.54C195.239 237.7 195.732 238.28 196.719 238.28C197.706 238.28 198.199 237.7 198.199 236.54V230.76H201.559V237.02C201.559 238.353 201.132 239.4 200.279 240.16C199.439 240.906 198.252 241.28 196.719 241.28ZM214.593 241.28C213.526 241.28 212.58 241.053 211.753 240.6C210.94 240.146 210.306 239.513 209.853 238.7C209.413 237.873 209.193 236.933 209.193 235.88C209.193 234.826 209.413 233.893 209.853 233.08C210.306 232.253 210.94 231.613 211.753 231.16C212.58 230.706 213.526 230.48 214.593 230.48C215.633 230.48 216.553 230.693 217.353 231.12C218.166 231.546 218.786 232.14 219.213 232.9L216.753 234.64C216.233 233.893 215.553 233.52 214.713 233.52C214.073 233.52 213.56 233.733 213.173 234.16C212.786 234.586 212.593 235.16 212.593 235.88C212.593 236.6 212.786 237.173 213.173 237.6C213.56 238.026 214.073 238.24 214.713 238.24C215.553 238.24 216.233 237.866 216.753 237.12L219.213 238.86C218.786 239.62 218.166 240.213 217.353 240.64C216.553 241.066 215.633 241.28 214.593 241.28ZM226.334 241.28C225.228 241.28 224.254 241.046 223.414 240.58C222.574 240.1 221.921 239.453 221.454 238.64C221.001 237.813 220.774 236.893 220.774 235.88C220.774 234.866 221.001 233.953 221.454 233.14C221.921 232.313 222.574 231.666 223.414 231.2C224.254 230.72 225.228 230.48 226.334 230.48C227.441 230.48 228.414 230.72 229.254 231.2C230.094 231.666 230.741 232.313 231.194 233.14C231.661 233.953 231.894 234.866 231.894 235.88C231.894 236.893 231.661 237.813 231.194 238.64C230.741 239.453 230.094 240.1 229.254 240.58C228.414 241.046 227.441 241.28 226.334 241.28ZM226.334 238.28C227.001 238.28 227.528 238.066 227.914 237.64C228.301 237.2 228.494 236.613 228.494 235.88C228.494 235.146 228.301 234.566 227.914 234.14C227.528 233.7 227.001 233.48 226.334 233.48C225.668 233.48 225.141 233.7 224.754 234.14C224.368 234.566 224.174 235.146 224.174 235.88C224.174 236.613 224.368 237.2 224.754 237.64C225.141 238.066 225.668 238.28 226.334 238.28ZM240.917 230.48C241.983 230.48 242.823 230.813 243.437 231.48C244.063 232.133 244.377 233.053 244.377 234.24V241H241.017V235.12C241.017 234.586 240.897 234.186 240.657 233.92C240.417 233.653 240.043 233.52 239.537 233.52C238.417 233.52 237.857 234.133 237.857 235.36V241H234.497V230.76H237.777V232.14C238.07 231.633 238.483 231.233 239.017 230.94C239.563 230.633 240.197 230.48 240.917 230.48ZM251.506 241.28C250.532 241.28 249.619 241.14 248.766 240.86C247.926 240.566 247.239 240.16 246.706 239.64L248.146 237.34C248.586 237.686 249.112 237.973 249.726 238.2C250.352 238.426 250.959 238.54 251.546 238.54C251.932 238.54 252.226 238.493 252.426 238.4C252.626 238.293 252.726 238.153 252.726 237.98C252.726 237.806 252.646 237.666 252.486 237.56C252.339 237.453 252.099 237.36 251.766 237.28L250.026 236.86C248.986 236.606 248.232 236.233 247.766 235.74C247.312 235.246 247.086 234.64 247.086 233.92C247.086 232.88 247.479 232.046 248.266 231.42C249.066 230.793 250.152 230.48 251.526 230.48C252.419 230.48 253.252 230.613 254.026 230.88C254.812 231.146 255.452 231.506 255.946 231.96L254.466 234.24C253.412 233.573 252.426 233.24 251.506 233.24C251.146 233.24 250.872 233.293 250.686 233.4C250.512 233.493 250.426 233.62 250.426 233.78C250.426 233.926 250.492 234.046 250.626 234.14C250.772 234.233 251.012 234.32 251.346 234.4L253.086 234.82C254.166 235.086 254.939 235.466 255.406 235.96C255.872 236.44 256.106 237.053 256.106 237.8C256.106 238.88 255.699 239.733 254.886 240.36C254.072 240.973 252.946 241.28 251.506 241.28ZM263.317 241.14C261.971 241.14 261.004 240.866 260.417 240.32C259.831 239.773 259.537 238.86 259.537 237.58V233.72H257.777V230.76H259.537V227.76H262.897V230.76H265.417V233.72H262.897V237C262.897 237.426 262.991 237.726 263.177 237.9C263.364 238.06 263.697 238.14 264.177 238.14C264.617 238.14 265.044 238.093 265.457 238V240.86C264.817 241.046 264.104 241.14 263.317 241.14ZM278.372 230.76V241H275.092V239.62C274.799 240.153 274.372 240.566 273.812 240.86C273.252 241.14 272.625 241.28 271.932 241.28C271.065 241.28 270.285 241.053 269.592 240.6C268.912 240.146 268.379 239.513 267.992 238.7C267.605 237.873 267.412 236.933 267.412 235.88C267.412 234.826 267.605 233.893 267.992 233.08C268.379 232.253 268.912 231.613 269.592 231.16C270.285 230.706 271.065 230.48 271.932 230.48C272.625 230.48 273.252 230.626 273.812 230.92C274.372 231.2 274.799 231.606 275.092 232.14V230.76H278.372ZM272.972 238.28C273.639 238.28 274.165 238.066 274.552 237.64C274.939 237.2 275.132 236.613 275.132 235.88C275.132 235.146 274.939 234.566 274.552 234.14C274.165 233.7 273.639 233.48 272.972 233.48C272.305 233.48 271.779 233.7 271.392 234.14C271.005 234.566 270.812 235.146 270.812 235.88C270.812 236.613 271.005 237.2 271.392 237.64C271.779 238.066 272.305 238.28 272.972 238.28ZM287.906 230.48C288.972 230.48 289.812 230.813 290.426 231.48C291.052 232.133 291.366 233.053 291.366 234.24V241H288.006V235.12C288.006 234.586 287.886 234.186 287.646 233.92C287.406 233.653 287.032 233.52 286.526 233.52C285.406 233.52 284.846 234.133 284.846 235.36V241H281.486V230.76H284.766V232.14C285.059 231.633 285.472 231.233 286.006 230.94C286.552 230.633 287.186 230.48 287.906 230.48ZM299.037 241.14C297.691 241.14 296.724 240.866 296.137 240.32C295.551 239.773 295.257 238.86 295.257 237.58V233.72H293.497V230.76H295.257V227.76H298.617V230.76H301.137V233.72H298.617V237C298.617 237.426 298.711 237.726 298.897 237.9C299.084 238.06 299.417 238.14 299.897 238.14C300.337 238.14 300.764 238.093 301.177 238V240.86C300.537 241.046 299.824 241.14 299.037 241.14ZM303.808 226.36H307.168V241H303.808V226.36ZM319.832 230.76V239.92C319.832 241.64 319.345 242.96 318.372 243.88C317.399 244.813 315.999 245.28 314.172 245.28C313.279 245.28 312.439 245.166 311.652 244.94C310.879 244.726 310.239 244.413 309.732 244L311.012 241.48C311.439 241.76 311.905 241.973 312.412 242.12C312.932 242.28 313.432 242.36 313.912 242.36C314.739 242.36 315.385 242.14 315.852 241.7C316.319 241.273 316.552 240.68 316.552 239.92V239.2C316.259 239.693 315.845 240.086 315.312 240.38C314.792 240.66 314.192 240.8 313.512 240.8C312.472 240.8 311.645 240.473 311.032 239.82C310.419 239.153 310.112 238.226 310.112 237.04V230.76H313.472V236.16C313.472 236.693 313.585 237.093 313.812 237.36C314.052 237.626 314.412 237.76 314.892 237.76C315.972 237.76 316.512 237.146 316.512 235.92V230.76H319.832ZM142.6 254.36V269H139.32V267.62C139.027 268.153 138.6 268.566 138.04 268.86C137.48 269.14 136.853 269.28 136.16 269.28C135.293 269.28 134.513 269.053 133.82 268.6C133.14 268.146 132.607 267.513 132.22 266.7C131.833 265.873 131.64 264.933 131.64 263.88C131.64 262.826 131.833 261.893 132.22 261.08C132.607 260.253 133.14 259.613 133.82 259.16C134.513 258.706 135.293 258.48 136.16 258.48C136.813 258.48 137.413 258.613 137.96 258.88C138.507 259.146 138.933 259.526 139.24 260.02V254.36H142.6ZM137.2 266.28C137.867 266.28 138.393 266.066 138.78 265.64C139.167 265.2 139.36 264.613 139.36 263.88C139.36 263.146 139.167 262.566 138.78 262.14C138.393 261.7 137.867 261.48 137.2 261.48C136.533 261.48 136.007 261.7 135.62 262.14C135.233 262.566 135.04 263.146 135.04 263.88C135.04 264.613 135.233 265.2 135.62 265.64C136.007 266.066 136.533 266.28 137.2 266.28ZM155.594 263.86C155.594 264.18 155.574 264.513 155.534 264.86H148.594C148.741 265.42 149.007 265.833 149.394 266.1C149.794 266.353 150.314 266.48 150.954 266.48C151.941 266.48 152.741 266.18 153.354 265.58L155.174 267.58C154.694 268.126 154.081 268.546 153.334 268.84C152.601 269.133 151.767 269.28 150.834 269.28C149.701 269.28 148.707 269.066 147.854 268.64C147.001 268.2 146.341 267.58 145.874 266.78C145.421 265.98 145.194 265.033 145.194 263.94C145.194 262.873 145.414 261.926 145.854 261.1C146.294 260.273 146.914 259.633 147.714 259.18C148.514 258.713 149.441 258.48 150.494 258.48C151.521 258.48 152.414 258.7 153.174 259.14C153.947 259.58 154.541 260.206 154.954 261.02C155.381 261.833 155.594 262.78 155.594 263.86ZM150.514 261.26C149.421 261.26 148.767 261.78 148.554 262.82H152.274C152.194 261.78 151.607 261.26 150.514 261.26ZM168.595 258.76V269H165.315V267.62C165.021 268.153 164.595 268.566 164.035 268.86C163.475 269.14 162.848 269.28 162.155 269.28C161.288 269.28 160.508 269.053 159.815 268.6C159.135 268.146 158.601 267.513 158.215 266.7C157.828 265.873 157.635 264.933 157.635 263.88C157.635 262.826 157.828 261.893 158.215 261.08C158.601 260.253 159.135 259.613 159.815 259.16C160.508 258.706 161.288 258.48 162.155 258.48C162.848 258.48 163.475 258.626 164.035 258.92C164.595 259.2 165.021 259.606 165.315 260.14V258.76H168.595ZM163.195 266.28C163.861 266.28 164.388 266.066 164.775 265.64C165.161 265.2 165.355 264.613 165.355 263.88C165.355 263.146 165.161 262.566 164.775 262.14C164.388 261.7 163.861 261.48 163.195 261.48C162.528 261.48 162.001 261.7 161.615 262.14C161.228 262.566 161.035 263.146 161.035 263.88C161.035 264.613 161.228 265.2 161.615 265.64C162.001 266.066 162.528 266.28 163.195 266.28ZM171.708 254.36H175.068V269H171.708V254.36ZM199.27 258.76L196.23 269H192.49L190.77 263.14L189.05 269H185.31L182.27 258.76H185.71L187.35 265.04L189.23 258.76H192.31L194.19 265.04L195.83 258.76H199.27ZM203.133 257.54C202.519 257.54 202.026 257.366 201.653 257.02C201.279 256.66 201.093 256.186 201.093 255.6C201.093 255.013 201.279 254.546 201.653 254.2C202.026 253.84 202.519 253.66 203.133 253.66C203.746 253.66 204.239 253.84 204.613 254.2C204.986 254.546 205.173 255.013 205.173 255.6C205.173 256.186 204.986 256.66 204.613 257.02C204.239 257.366 203.746 257.54 203.133 257.54ZM201.453 258.76H204.813V269H201.453V258.76ZM212.695 269.14C211.349 269.14 210.382 268.866 209.795 268.32C209.209 267.773 208.915 266.86 208.915 265.58V261.72H207.155V258.76H208.915V255.76H212.275V258.76H214.795V261.72H212.275V265C212.275 265.426 212.369 265.726 212.555 265.9C212.742 266.06 213.075 266.14 213.555 266.14C213.995 266.14 214.422 266.093 214.835 266V268.86C214.195 269.046 213.482 269.14 212.695 269.14ZM223.886 258.48C224.953 258.48 225.793 258.813 226.406 259.48C227.033 260.133 227.346 261.053 227.346 262.24V269H223.986V263.12C223.986 262.586 223.866 262.186 223.626 261.92C223.386 261.653 223.013 261.52 222.506 261.52C221.386 261.52 220.826 262.133 220.826 263.36V269H217.466V254.36H220.826V260.02C221.12 259.54 221.526 259.166 222.046 258.9C222.58 258.62 223.193 258.48 223.886 258.48ZM236.337 261.72H234.537V258.76H236.337V257.7C236.337 255.353 237.683 254.18 240.377 254.18C240.977 254.18 241.577 254.24 242.177 254.36V257.2C241.75 257.133 241.397 257.1 241.117 257.1C240.61 257.1 240.243 257.186 240.017 257.36C239.803 257.52 239.697 257.766 239.697 258.1V258.76H242.177V261.72H239.697V269H236.337V261.72ZM254.662 258.76V269H251.382V267.62C251.088 268.153 250.662 268.566 250.102 268.86C249.542 269.14 248.915 269.28 248.222 269.28C247.355 269.28 246.575 269.053 245.882 268.6C245.202 268.146 244.668 267.513 244.282 266.7C243.895 265.873 243.702 264.933 243.702 263.88C243.702 262.826 243.895 261.893 244.282 261.08C244.668 260.253 245.202 259.613 245.882 259.16C246.575 258.706 247.355 258.48 248.222 258.48C248.915 258.48 249.542 258.626 250.102 258.92C250.662 259.2 251.088 259.606 251.382 260.14V258.76H254.662ZM249.262 266.28C249.928 266.28 250.455 266.066 250.842 265.64C251.228 265.2 251.422 264.613 251.422 263.88C251.422 263.146 251.228 262.566 250.842 262.14C250.455 261.7 249.928 261.48 249.262 261.48C248.595 261.48 248.068 261.7 247.682 262.14C247.295 262.566 247.102 263.146 247.102 263.88C247.102 264.613 247.295 265.2 247.682 265.64C248.068 266.066 248.595 266.28 249.262 266.28ZM259.476 257.54C258.862 257.54 258.369 257.366 257.996 257.02C257.622 256.66 257.436 256.186 257.436 255.6C257.436 255.013 257.622 254.546 257.996 254.2C258.369 253.84 258.862 253.66 259.476 253.66C260.089 253.66 260.582 253.84 260.956 254.2C261.329 254.546 261.516 255.013 261.516 255.6C261.516 256.186 261.329 256.66 260.956 257.02C260.582 257.366 260.089 257.54 259.476 257.54ZM257.796 258.76H261.156V269H257.796V258.76ZM264.298 254.36H267.658V269H264.298V254.36ZM275.462 269.28C273.929 269.28 272.735 268.906 271.882 268.16C271.042 267.4 270.622 266.353 270.622 265.02V258.76H273.982V264.54C273.982 265.7 274.475 266.28 275.462 266.28C276.449 266.28 276.942 265.7 276.942 264.54V258.76H280.302V265.02C280.302 266.353 279.875 267.4 279.022 268.16C278.182 268.906 276.995 269.28 275.462 269.28ZM289.442 258.56C289.735 258.56 290.015 258.6 290.282 258.68V261.94C289.828 261.846 289.362 261.8 288.882 261.8C288.068 261.8 287.488 261.98 287.142 262.34C286.795 262.7 286.622 263.313 286.622 264.18V269H283.262V258.76H286.542V260.32C286.808 259.773 287.195 259.346 287.702 259.04C288.208 258.72 288.788 258.56 289.442 258.56ZM302.203 263.86C302.203 264.18 302.183 264.513 302.143 264.86H295.203C295.35 265.42 295.617 265.833 296.003 266.1C296.403 266.353 296.923 266.48 297.563 266.48C298.55 266.48 299.35 266.18 299.963 265.58L301.783 267.58C301.303 268.126 300.69 268.546 299.943 268.84C299.21 269.133 298.377 269.28 297.443 269.28C296.31 269.28 295.317 269.066 294.463 268.64C293.61 268.2 292.95 267.58 292.483 266.78C292.03 265.98 291.803 265.033 291.803 263.94C291.803 262.873 292.023 261.926 292.463 261.1C292.903 260.273 293.523 259.633 294.323 259.18C295.123 258.713 296.05 258.48 297.103 258.48C298.13 258.48 299.023 258.7 299.783 259.14C300.557 259.58 301.15 260.206 301.563 261.02C301.99 261.833 302.203 262.78 302.203 263.86ZM297.123 261.26C296.03 261.26 295.377 261.78 295.163 262.82H298.883C298.803 261.78 298.217 261.26 297.123 261.26ZM142.6 286.76V297H139.32V295.62C139.027 296.153 138.6 296.566 138.04 296.86C137.48 297.14 136.853 297.28 136.16 297.28C135.293 297.28 134.513 297.053 133.82 296.6C133.14 296.146 132.607 295.513 132.22 294.7C131.833 293.873 131.64 292.933 131.64 291.88C131.64 290.826 131.833 289.893 132.22 289.08C132.607 288.253 133.14 287.613 133.82 287.16C134.513 286.706 135.293 286.48 136.16 286.48C136.853 286.48 137.48 286.626 138.04 286.92C138.6 287.2 139.027 287.606 139.32 288.14V286.76H142.6ZM137.2 294.28C137.867 294.28 138.393 294.066 138.78 293.64C139.167 293.2 139.36 292.613 139.36 291.88C139.36 291.146 139.167 290.566 138.78 290.14C138.393 289.7 137.867 289.48 137.2 289.48C136.533 289.48 136.007 289.7 135.62 290.14C135.233 290.566 135.04 291.146 135.04 291.88C135.04 292.613 135.233 293.2 135.62 293.64C136.007 294.066 136.533 294.28 137.2 294.28ZM152.134 286.48C153.201 286.48 154.041 286.813 154.654 287.48C155.281 288.133 155.594 289.053 155.594 290.24V297H152.234V291.12C152.234 290.586 152.114 290.186 151.874 289.92C151.634 289.653 151.261 289.52 150.754 289.52C149.634 289.52 149.074 290.133 149.074 291.36V297H145.714V286.76H148.994V288.14C149.287 287.633 149.701 287.233 150.234 286.94C150.781 286.633 151.414 286.48 152.134 286.48ZM169.083 282.36V297H165.803V295.62C165.509 296.153 165.083 296.566 164.523 296.86C163.963 297.14 163.336 297.28 162.643 297.28C161.776 297.28 160.996 297.053 160.303 296.6C159.623 296.146 159.089 295.513 158.703 294.7C158.316 293.873 158.123 292.933 158.123 291.88C158.123 290.826 158.316 289.893 158.703 289.08C159.089 288.253 159.623 287.613 160.303 287.16C160.996 286.706 161.776 286.48 162.643 286.48C163.296 286.48 163.896 286.613 164.443 286.88C164.989 287.146 165.416 287.526 165.723 288.02V282.36H169.083ZM163.683 294.28C164.349 294.28 164.876 294.066 165.263 293.64C165.649 293.2 165.843 292.613 165.843 291.88C165.843 291.146 165.649 290.566 165.263 290.14C164.876 289.7 164.349 289.48 163.683 289.48C163.016 289.48 162.489 289.7 162.103 290.14C161.716 290.566 161.523 291.146 161.523 291.88C161.523 292.613 161.716 293.2 162.103 293.64C162.489 294.066 163.016 294.28 163.683 294.28ZM187.851 286.76V295.8C187.851 297.506 187.345 298.846 186.331 299.82C185.331 300.793 183.905 301.28 182.051 301.28C181.065 301.28 180.138 301.14 179.271 300.86C178.405 300.58 177.691 300.2 177.131 299.72L178.571 297.3C179.078 297.646 179.611 297.906 180.171 298.08C180.731 298.266 181.278 298.36 181.811 298.36C182.678 298.36 183.358 298.126 183.851 297.66C184.345 297.206 184.591 296.586 184.591 295.8V295.1C184.311 295.633 183.891 296.053 183.331 296.36C182.771 296.653 182.125 296.8 181.391 296.8C180.525 296.8 179.745 296.586 179.051 296.16C178.371 295.733 177.838 295.133 177.451 294.36C177.065 293.586 176.871 292.7 176.871 291.7C176.871 290.7 177.065 289.806 177.451 289.02C177.851 288.22 178.391 287.6 179.071 287.16C179.765 286.706 180.545 286.48 181.411 286.48C182.105 286.48 182.731 286.626 183.291 286.92C183.851 287.2 184.278 287.606 184.571 288.14V286.76H187.851ZM182.451 293.88C183.118 293.88 183.645 293.673 184.031 293.26C184.418 292.846 184.611 292.313 184.611 291.66C184.611 291.006 184.418 290.473 184.031 290.06C183.645 289.646 183.118 289.44 182.451 289.44C181.785 289.44 181.258 289.646 180.871 290.06C180.485 290.473 180.291 291.006 180.291 291.66C180.291 292.313 180.485 292.846 180.871 293.26C181.258 293.673 181.785 293.88 182.451 293.88ZM200.845 291.86C200.845 292.18 200.825 292.513 200.785 292.86H193.845C193.991 293.42 194.258 293.833 194.645 294.1C195.045 294.353 195.565 294.48 196.205 294.48C197.191 294.48 197.991 294.18 198.605 293.58L200.425 295.58C199.945 296.126 199.331 296.546 198.585 296.84C197.851 297.133 197.018 297.28 196.085 297.28C194.951 297.28 193.958 297.066 193.105 296.64C192.251 296.2 191.591 295.58 191.125 294.78C190.671 293.98 190.445 293.033 190.445 291.94C190.445 290.873 190.665 289.926 191.105 289.1C191.545 288.273 192.165 287.633 192.965 287.18C193.765 286.713 194.691 286.48 195.745 286.48C196.771 286.48 197.665 286.7 198.425 287.14C199.198 287.58 199.791 288.206 200.205 289.02C200.631 289.833 200.845 290.78 200.845 291.86ZM195.765 289.26C194.671 289.26 194.018 289.78 193.805 290.82H197.525C197.445 289.78 196.858 289.26 195.765 289.26ZM207.989 297.14C206.642 297.14 205.676 296.866 205.089 296.32C204.502 295.773 204.209 294.86 204.209 293.58V289.72H202.449V286.76H204.209V283.76H207.569V286.76H210.089V289.72H207.569V293C207.569 293.426 207.662 293.726 207.849 293.9C208.036 294.06 208.369 294.14 208.849 294.14C209.289 294.14 209.716 294.093 210.129 294V296.86C209.489 297.046 208.776 297.14 207.989 297.14ZM224.135 286.56C224.428 286.56 224.708 286.6 224.975 286.68V289.94C224.521 289.846 224.055 289.8 223.575 289.8C222.761 289.8 222.181 289.98 221.835 290.34C221.488 290.7 221.315 291.313 221.315 292.18V297H217.955V286.76H221.235V288.32C221.501 287.773 221.888 287.346 222.395 287.04C222.901 286.72 223.481 286.56 224.135 286.56ZM236.896 291.86C236.896 292.18 236.876 292.513 236.836 292.86H229.896C230.043 293.42 230.31 293.833 230.696 294.1C231.096 294.353 231.616 294.48 232.256 294.48C233.243 294.48 234.043 294.18 234.656 293.58L236.476 295.58C235.996 296.126 235.383 296.546 234.636 296.84C233.903 297.133 233.07 297.28 232.136 297.28C231.003 297.28 230.01 297.066 229.156 296.64C228.303 296.2 227.643 295.58 227.176 294.78C226.723 293.98 226.496 293.033 226.496 291.94C226.496 290.873 226.716 289.926 227.156 289.1C227.596 288.273 228.216 287.633 229.016 287.18C229.816 286.713 230.743 286.48 231.796 286.48C232.823 286.48 233.716 286.7 234.476 287.14C235.25 287.58 235.843 288.206 236.256 289.02C236.683 289.833 236.896 290.78 236.896 291.86ZM231.816 289.26C230.723 289.26 230.07 289.78 229.856 290.82H233.576C233.496 289.78 232.91 289.26 231.816 289.26ZM241.157 285.54C240.544 285.54 240.05 285.366 239.677 285.02C239.304 284.66 239.117 284.186 239.117 283.6C239.117 283.013 239.304 282.546 239.677 282.2C240.05 281.84 240.544 281.66 241.157 281.66C241.77 281.66 242.264 281.84 242.637 282.2C243.01 282.546 243.197 283.013 243.197 283.6C243.197 284.186 243.01 284.66 242.637 285.02C242.264 285.366 241.77 285.54 241.157 285.54ZM237.377 298.28C237.737 298.333 238.03 298.36 238.257 298.36C238.71 298.36 239.024 298.266 239.197 298.08C239.384 297.893 239.477 297.586 239.477 297.16V286.76H242.837V297.8C242.837 298.986 242.537 299.866 241.937 300.44C241.337 301.013 240.357 301.3 238.997 301.3C238.397 301.3 237.857 301.246 237.377 301.14V298.28ZM255.86 291.86C255.86 292.18 255.84 292.513 255.8 292.86H248.86C249.006 293.42 249.273 293.833 249.66 294.1C250.06 294.353 250.58 294.48 251.22 294.48C252.206 294.48 253.006 294.18 253.62 293.58L255.44 295.58C254.96 296.126 254.346 296.546 253.6 296.84C252.866 297.133 252.033 297.28 251.1 297.28C249.966 297.28 248.973 297.066 248.12 296.64C247.266 296.2 246.606 295.58 246.14 294.78C245.686 293.98 245.46 293.033 245.46 291.94C245.46 290.873 245.68 289.926 246.12 289.1C246.56 288.273 247.18 287.633 247.98 287.18C248.78 286.713 249.706 286.48 250.76 286.48C251.786 286.48 252.68 286.7 253.44 287.14C254.213 287.58 254.806 288.206 255.22 289.02C255.646 289.833 255.86 290.78 255.86 291.86ZM250.78 289.26C249.686 289.26 249.033 289.78 248.82 290.82H252.54C252.46 289.78 251.873 289.26 250.78 289.26ZM263.3 297.28C262.233 297.28 261.287 297.053 260.46 296.6C259.647 296.146 259.013 295.513 258.56 294.7C258.12 293.873 257.9 292.933 257.9 291.88C257.9 290.826 258.12 289.893 258.56 289.08C259.013 288.253 259.647 287.613 260.46 287.16C261.287 286.706 262.233 286.48 263.3 286.48C264.34 286.48 265.26 286.693 266.06 287.12C266.873 287.546 267.493 288.14 267.92 288.9L265.46 290.64C264.94 289.893 264.26 289.52 263.42 289.52C262.78 289.52 262.267 289.733 261.88 290.16C261.493 290.586 261.3 291.16 261.3 291.88C261.3 292.6 261.493 293.173 261.88 293.6C262.267 294.026 262.78 294.24 263.42 294.24C264.26 294.24 264.94 293.866 265.46 293.12L267.92 294.86C267.493 295.62 266.873 296.213 266.06 296.64C265.26 297.066 264.34 297.28 263.3 297.28ZM274.995 297.14C273.649 297.14 272.682 296.866 272.095 296.32C271.509 295.773 271.215 294.86 271.215 293.58V289.72H269.455V286.76H271.215V283.76H274.575V286.76H277.095V289.72H274.575V293C274.575 293.426 274.669 293.726 274.855 293.9C275.042 294.06 275.375 294.14 275.855 294.14C276.295 294.14 276.722 294.093 277.135 294V296.86C276.495 297.046 275.782 297.14 274.995 297.14ZM289.49 291.86C289.49 292.18 289.47 292.513 289.43 292.86H282.49C282.637 293.42 282.903 293.833 283.29 294.1C283.69 294.353 284.21 294.48 284.85 294.48C285.837 294.48 286.637 294.18 287.25 293.58L289.07 295.58C288.59 296.126 287.977 296.546 287.23 296.84C286.497 297.133 285.663 297.28 284.73 297.28C283.597 297.28 282.603 297.066 281.75 296.64C280.897 296.2 280.237 295.58 279.77 294.78C279.317 293.98 279.09 293.033 279.09 291.94C279.09 290.873 279.31 289.926 279.75 289.1C280.19 288.273 280.81 287.633 281.61 287.18C282.41 286.713 283.337 286.48 284.39 286.48C285.417 286.48 286.31 286.7 287.07 287.14C287.843 287.58 288.437 288.206 288.85 289.02C289.277 289.833 289.49 290.78 289.49 291.86ZM284.41 289.26C283.317 289.26 282.663 289.78 282.45 290.82H286.17C286.09 289.78 285.503 289.26 284.41 289.26ZM302.491 282.36V297H299.211V295.62C298.917 296.153 298.491 296.566 297.931 296.86C297.371 297.14 296.744 297.28 296.051 297.28C295.184 297.28 294.404 297.053 293.711 296.6C293.031 296.146 292.497 295.513 292.111 294.7C291.724 293.873 291.531 292.933 291.531 291.88C291.531 290.826 291.724 289.893 292.111 289.08C292.497 288.253 293.031 287.613 293.711 287.16C294.404 286.706 295.184 286.48 296.051 286.48C296.704 286.48 297.304 286.613 297.851 286.88C298.397 287.146 298.824 287.526 299.131 288.02V282.36H302.491ZM297.091 294.28C297.757 294.28 298.284 294.066 298.671 293.64C299.057 293.2 299.251 292.613 299.251 291.88C299.251 291.146 299.057 290.566 298.671 290.14C298.284 289.7 297.757 289.48 297.091 289.48C296.424 289.48 295.897 289.7 295.511 290.14C295.124 290.566 294.931 291.146 294.931 291.88C294.931 292.613 295.124 293.2 295.511 293.64C295.897 294.066 296.424 294.28 297.091 294.28ZM133.2 317.72H131.4V314.76H133.2V313.7C133.2 311.353 134.547 310.18 137.24 310.18C137.84 310.18 138.44 310.24 139.04 310.36V313.2C138.613 313.133 138.26 313.1 137.98 313.1C137.473 313.1 137.107 313.186 136.88 313.36C136.667 313.52 136.56 313.766 136.56 314.1V314.76H139.04V317.72H136.56V325H133.2V317.72ZM147.499 314.56C147.793 314.56 148.073 314.6 148.339 314.68V317.94C147.886 317.846 147.419 317.8 146.939 317.8C146.126 317.8 145.546 317.98 145.199 318.34C144.853 318.7 144.679 319.313 144.679 320.18V325H141.319V314.76H144.599V316.32C144.866 315.773 145.253 315.346 145.759 315.04C146.266 314.72 146.846 314.56 147.499 314.56ZM155.421 325.28C154.314 325.28 153.341 325.046 152.501 324.58C151.661 324.1 151.008 323.453 150.541 322.64C150.088 321.813 149.861 320.893 149.861 319.88C149.861 318.866 150.088 317.953 150.541 317.14C151.008 316.313 151.661 315.666 152.501 315.2C153.341 314.72 154.314 314.48 155.421 314.48C156.528 314.48 157.501 314.72 158.341 315.2C159.181 315.666 159.828 316.313 160.281 317.14C160.748 317.953 160.981 318.866 160.981 319.88C160.981 320.893 160.748 321.813 160.281 322.64C159.828 323.453 159.181 324.1 158.341 324.58C157.501 325.046 156.528 325.28 155.421 325.28ZM155.421 322.28C156.088 322.28 156.614 322.066 157.001 321.64C157.388 321.2 157.581 320.613 157.581 319.88C157.581 319.146 157.388 318.566 157.001 318.14C156.614 317.7 156.088 317.48 155.421 317.48C154.754 317.48 154.228 317.7 153.841 318.14C153.454 318.566 153.261 319.146 153.261 319.88C153.261 320.613 153.454 321.2 153.841 321.64C154.228 322.066 154.754 322.28 155.421 322.28ZM176.263 314.48C177.317 314.48 178.143 314.813 178.743 315.48C179.357 316.133 179.663 317.053 179.663 318.24V325H176.303V319.08C176.303 318.56 176.19 318.173 175.963 317.92C175.75 317.653 175.403 317.52 174.923 317.52C174.403 317.52 174.003 317.673 173.723 317.98C173.443 318.286 173.303 318.733 173.303 319.32V325H169.943V319.08C169.943 318.56 169.83 318.173 169.603 317.92C169.39 317.653 169.043 317.52 168.563 317.52C168.043 317.52 167.643 317.673 167.363 317.98C167.083 318.286 166.943 318.733 166.943 319.32V325H163.583V314.76H166.863V316.14C167.143 315.633 167.557 315.233 168.103 314.94C168.65 314.633 169.263 314.48 169.943 314.48C170.637 314.48 171.243 314.64 171.763 314.96C172.297 315.28 172.683 315.733 172.923 316.32C173.19 315.76 173.623 315.313 174.223 314.98C174.823 314.646 175.503 314.48 176.263 314.48ZM137.2 353.28C136.093 353.28 135.12 353.046 134.28 352.58C133.44 352.1 132.787 351.453 132.32 350.64C131.867 349.813 131.64 348.893 131.64 347.88C131.64 346.866 131.867 345.953 132.32 345.14C132.787 344.313 133.44 343.666 134.28 343.2C135.12 342.72 136.093 342.48 137.2 342.48C138.307 342.48 139.28 342.72 140.12 343.2C140.96 343.666 141.607 344.313 142.06 345.14C142.527 345.953 142.76 346.866 142.76 347.88C142.76 348.893 142.527 349.813 142.06 350.64C141.607 351.453 140.96 352.1 140.12 352.58C139.28 353.046 138.307 353.28 137.2 353.28ZM137.2 350.28C137.867 350.28 138.393 350.066 138.78 349.64C139.167 349.2 139.36 348.613 139.36 347.88C139.36 347.146 139.167 346.566 138.78 346.14C138.393 345.7 137.867 345.48 137.2 345.48C136.533 345.48 136.007 345.7 135.62 346.14C135.233 346.566 135.04 347.146 135.04 347.88C135.04 348.613 135.233 349.2 135.62 349.64C136.007 350.066 136.533 350.28 137.2 350.28ZM151.802 342.48C152.669 342.48 153.442 342.706 154.122 343.16C154.816 343.613 155.356 344.253 155.742 345.08C156.129 345.893 156.322 346.826 156.322 347.88C156.322 348.933 156.129 349.873 155.742 350.7C155.356 351.513 154.816 352.146 154.122 352.6C153.442 353.053 152.669 353.28 151.802 353.28C151.149 353.28 150.549 353.146 150.002 352.88C149.456 352.613 149.029 352.233 148.722 351.74V357H145.362V342.76H148.642V344.14C148.936 343.606 149.362 343.2 149.922 342.92C150.482 342.626 151.109 342.48 151.802 342.48ZM150.762 350.28C151.429 350.28 151.956 350.066 152.342 349.64C152.729 349.2 152.922 348.613 152.922 347.88C152.922 347.146 152.729 346.566 152.342 346.14C151.956 345.7 151.429 345.48 150.762 345.48C150.096 345.48 149.569 345.7 149.182 346.14C148.796 346.566 148.602 347.146 148.602 347.88C148.602 348.613 148.796 349.2 149.182 349.64C149.569 350.066 150.096 350.28 150.762 350.28ZM165.356 342.48C166.223 342.48 166.996 342.706 167.676 343.16C168.37 343.613 168.91 344.253 169.296 345.08C169.683 345.893 169.876 346.826 169.876 347.88C169.876 348.933 169.683 349.873 169.296 350.7C168.91 351.513 168.37 352.146 167.676 352.6C166.996 353.053 166.223 353.28 165.356 353.28C164.703 353.28 164.103 353.146 163.556 352.88C163.01 352.613 162.583 352.233 162.276 351.74V357H158.916V342.76H162.196V344.14C162.49 343.606 162.916 343.2 163.476 342.92C164.036 342.626 164.663 342.48 165.356 342.48ZM164.316 350.28C164.983 350.28 165.51 350.066 165.896 349.64C166.283 349.2 166.476 348.613 166.476 347.88C166.476 347.146 166.283 346.566 165.896 346.14C165.51 345.7 164.983 345.48 164.316 345.48C163.65 345.48 163.123 345.7 162.736 346.14C162.35 346.566 162.156 347.146 162.156 347.88C162.156 348.613 162.35 349.2 162.736 349.64C163.123 350.066 163.65 350.28 164.316 350.28ZM177.51 353.28C176.403 353.28 175.43 353.046 174.59 352.58C173.75 352.1 173.097 351.453 172.63 350.64C172.177 349.813 171.95 348.893 171.95 347.88C171.95 346.866 172.177 345.953 172.63 345.14C173.097 344.313 173.75 343.666 174.59 343.2C175.43 342.72 176.403 342.48 177.51 342.48C178.617 342.48 179.59 342.72 180.43 343.2C181.27 343.666 181.917 344.313 182.37 345.14C182.837 345.953 183.07 346.866 183.07 347.88C183.07 348.893 182.837 349.813 182.37 350.64C181.917 351.453 181.27 352.1 180.43 352.58C179.59 353.046 178.617 353.28 177.51 353.28ZM177.51 350.28C178.177 350.28 178.703 350.066 179.09 349.64C179.477 349.2 179.67 348.613 179.67 347.88C179.67 347.146 179.477 346.566 179.09 346.14C178.703 345.7 178.177 345.48 177.51 345.48C176.843 345.48 176.317 345.7 175.93 346.14C175.543 346.566 175.35 347.146 175.35 347.88C175.35 348.613 175.543 349.2 175.93 349.64C176.317 350.066 176.843 350.28 177.51 350.28ZM191.853 342.56C192.146 342.56 192.426 342.6 192.693 342.68V345.94C192.239 345.846 191.773 345.8 191.293 345.8C190.479 345.8 189.899 345.98 189.553 346.34C189.206 346.7 189.033 347.313 189.033 348.18V353H185.673V342.76H188.953V344.32C189.219 343.773 189.606 343.346 190.113 343.04C190.619 342.72 191.199 342.56 191.853 342.56ZM200.138 353.14C198.792 353.14 197.825 352.866 197.238 352.32C196.652 351.773 196.358 350.86 196.358 349.58V345.72H194.598V342.76H196.358V339.76H199.718V342.76H202.238V345.72H199.718V349C199.718 349.426 199.812 349.726 199.998 349.9C200.185 350.06 200.518 350.14 200.998 350.14C201.438 350.14 201.865 350.093 202.278 350V352.86C201.638 353.046 200.925 353.14 200.138 353.14ZM209.589 353.28C208.056 353.28 206.863 352.906 206.009 352.16C205.169 351.4 204.749 350.353 204.749 349.02V342.76H208.109V348.54C208.109 349.7 208.603 350.28 209.589 350.28C210.576 350.28 211.069 349.7 211.069 348.54V342.76H214.429V349.02C214.429 350.353 214.003 351.4 213.149 352.16C212.309 352.906 211.123 353.28 209.589 353.28ZM223.809 342.48C224.876 342.48 225.716 342.813 226.329 343.48C226.956 344.133 227.269 345.053 227.269 346.24V353H223.909V347.12C223.909 346.586 223.789 346.186 223.549 345.92C223.309 345.653 222.936 345.52 222.429 345.52C221.309 345.52 220.749 346.133 220.749 347.36V353H217.389V342.76H220.669V344.14C220.962 343.633 221.376 343.233 221.909 342.94C222.456 342.633 223.089 342.48 223.809 342.48ZM232.018 341.54C231.404 341.54 230.911 341.366 230.538 341.02C230.164 340.66 229.978 340.186 229.978 339.6C229.978 339.013 230.164 338.546 230.538 338.2C230.911 337.84 231.404 337.66 232.018 337.66C232.631 337.66 233.124 337.84 233.498 338.2C233.871 338.546 234.058 339.013 234.058 339.6C234.058 340.186 233.871 340.66 233.498 341.02C233.124 341.366 232.631 341.54 232.018 341.54ZM230.338 342.76H233.698V353H230.338V342.76ZM241.58 353.14C240.234 353.14 239.267 352.866 238.68 352.32C238.094 351.773 237.8 350.86 237.8 349.58V345.72H236.04V342.76H237.8V339.76H241.16V342.76H243.68V345.72H241.16V349C241.16 349.426 241.254 349.726 241.44 349.9C241.627 350.06 241.96 350.14 242.44 350.14C242.88 350.14 243.307 350.093 243.72 350V352.86C243.08 353.046 242.367 353.14 241.58 353.14ZM248.051 341.54C247.438 341.54 246.945 341.366 246.571 341.02C246.198 340.66 246.011 340.186 246.011 339.6C246.011 339.013 246.198 338.546 246.571 338.2C246.945 337.84 247.438 337.66 248.051 337.66C248.665 337.66 249.158 337.84 249.531 338.2C249.905 338.546 250.091 339.013 250.091 339.6C250.091 340.186 249.905 340.66 249.531 341.02C249.158 341.366 248.665 341.54 248.051 341.54ZM246.371 342.76H249.731V353H246.371V342.76ZM262.754 347.86C262.754 348.18 262.734 348.513 262.694 348.86H255.754C255.901 349.42 256.167 349.833 256.554 350.1C256.954 350.353 257.474 350.48 258.114 350.48C259.101 350.48 259.901 350.18 260.514 349.58L262.334 351.58C261.854 352.126 261.241 352.546 260.494 352.84C259.761 353.133 258.927 353.28 257.994 353.28C256.861 353.28 255.867 353.066 255.014 352.64C254.161 352.2 253.501 351.58 253.034 350.78C252.581 349.98 252.354 349.033 252.354 347.94C252.354 346.873 252.574 345.926 253.014 345.1C253.454 344.273 254.074 343.633 254.874 343.18C255.674 342.713 256.601 342.48 257.654 342.48C258.681 342.48 259.574 342.7 260.334 343.14C261.107 343.58 261.701 344.206 262.114 345.02C262.541 345.833 262.754 346.78 262.754 347.86ZM257.674 345.26C256.581 345.26 255.927 345.78 255.714 346.82H259.434C259.354 345.78 258.767 345.26 257.674 345.26ZM269.395 353.28C268.421 353.28 267.508 353.14 266.655 352.86C265.815 352.566 265.128 352.16 264.595 351.64L266.035 349.34C266.475 349.686 267.001 349.973 267.615 350.2C268.241 350.426 268.848 350.54 269.435 350.54C269.821 350.54 270.115 350.493 270.315 350.4C270.515 350.293 270.615 350.153 270.615 349.98C270.615 349.806 270.535 349.666 270.375 349.56C270.228 349.453 269.988 349.36 269.655 349.28L267.915 348.86C266.875 348.606 266.121 348.233 265.655 347.74C265.201 347.246 264.975 346.64 264.975 345.92C264.975 344.88 265.368 344.046 266.155 343.42C266.955 342.793 268.041 342.48 269.415 342.48C270.308 342.48 271.141 342.613 271.915 342.88C272.701 343.146 273.341 343.506 273.835 343.96L272.355 346.24C271.301 345.573 270.315 345.24 269.395 345.24C269.035 345.24 268.761 345.293 268.575 345.4C268.401 345.493 268.315 345.62 268.315 345.78C268.315 345.926 268.381 346.046 268.515 346.14C268.661 346.233 268.901 346.32 269.235 346.4L270.975 346.82C272.055 347.086 272.828 347.466 273.295 347.96C273.761 348.44 273.995 349.053 273.995 349.8C273.995 350.88 273.588 351.733 272.775 352.36C271.961 352.973 270.835 353.28 269.395 353.28ZM278.146 347.06C278.146 346.593 278.186 346.226 278.266 345.96C278.346 345.68 278.493 345.413 278.706 345.16C278.92 344.906 279.266 344.58 279.746 344.18L280.606 343.46C281.033 343.1 281.246 342.753 281.246 342.42C281.246 342.166 281.153 341.973 280.966 341.84C280.793 341.706 280.546 341.64 280.226 341.64C279.346 341.64 278.573 342.18 277.906 343.26L275.506 341.64C275.96 340.746 276.593 340.04 277.406 339.52C278.233 338.986 279.193 338.72 280.286 338.72C281.086 338.72 281.806 338.866 282.446 339.16C283.086 339.453 283.586 339.873 283.946 340.42C284.306 340.966 284.486 341.6 284.486 342.32C284.486 342.866 284.36 343.373 284.106 343.84C283.853 344.306 283.406 344.806 282.766 345.34L282.026 345.96C281.706 346.226 281.506 346.433 281.426 346.58C281.346 346.726 281.306 346.96 281.306 347.28V348H278.146V347.06ZM279.726 353.28C279.073 353.28 278.553 353.086 278.166 352.7C277.78 352.313 277.586 351.793 277.586 351.14C277.586 350.473 277.78 349.953 278.166 349.58C278.553 349.193 279.073 349 279.726 349C280.393 349 280.913 349.193 281.286 349.58C281.673 349.953 281.866 350.473 281.866 351.14C281.866 351.793 281.673 352.313 281.286 352.7C280.913 353.086 280.393 353.28 279.726 353.28Z" fill="white"/>
<defs>
<filter id="filter0_d" x="0" y="0" width="619.769" height="621.924" filterUnits="userSpaceOnUse" color-interpolation-filters="sRGB">
<feFlood flood-opacity="0" result="BackgroundImageFix"/>
<feColorMatrix in="SourceAlpha" type="matrix" values="0 0 0 0 0 0 0 0 0 0 0 0 0 0 0 0 0 0 127 0"/>
<feOffset dx="16" dy="16"/>
<feGaussianBlur stdDeviation="8"/>
<feColorMatrix type="matrix" values="0 0 0 0 0.227451 0 0 0 0 0.25098 0 0 0 0 0.356863 0 0 0 0.16 0"/>
<feBlend mode="normal" in2="BackgroundImageFix" result="effect1_dropShadow"/>
<feBlend mode="normal" in="SourceGraphic" in2="effect1_dropShadow" result="shape"/>
</filter>
</defs>
</svg>
