<svg width="472" height="452" viewBox="0 0 472 452" fill="none" xmlns="http://www.w3.org/2000/svg">
<g filter="url(#filter0_d)">
<path fill-rule="evenodd" clip-rule="evenodd" d="M223.994 396.397C185.905 398.695 148.071 392.049 114.676 373.59C73.8013 350.996 24.1021 326.305 14.5031 280.599C4.90288 234.886 39.8998 191.84 68.7996 155.144C92.5423 124.996 126.062 105.558 162.3 92.9311C193.421 82.0873 226.044 93.653 258.668 88.9865C308.467 81.8633 361.32 29.9511 402.71 58.543C442.193 85.8167 416.894 150.278 416.863 198.265C416.84 235.668 422.399 275.086 402.552 306.79C383.779 336.777 346.282 345.655 314.662 361.523C284.994 376.411 257.127 394.398 223.994 396.397Z" fill="#F2994A"/>
</g>
<path d="M401.574 365.306H331.342V247.972H401.574V365.306Z" fill="#B2B2B2"/>
<path d="M331.62 365.306H261.387V247.972H331.62V365.306Z" fill="#D1D1D1"/>
<path d="M325.31 137.019L316.851 177.521L343.271 180.923C343.271 180.923 345.561 138.833 343.271 138.606C340.981 138.402 325.31 137.019 325.31 137.019Z" fill="#A8754B"/>
<path d="M350.029 96.3353C350.029 96.3353 323.632 100.054 318.892 140.217C318.892 140.217 327.306 149.265 338.032 146.476L350.029 96.3353Z" fill="#FFD686"/>
<path d="M361.481 94.9519C361.481 94.9519 387.198 92.4119 396.246 110.531C405.317 128.651 378.875 147.519 387.946 189.041L330.934 186.025V149.401C330.934 149.401 320.548 134.252 335.266 118.015C335.266 118.015 336.15 93.3417 361.481 94.9519Z" fill="#FFD686"/>
<path d="M276.666 194.915C276.666 194.915 258.184 188.066 253.218 206.004C248.251 223.92 227.66 341.05 227.66 341.05H244.169L253.875 294.493C253.875 294.493 267.573 279.231 271.768 246.824L329.369 239.953L276.666 194.915Z" fill="#B5845B"/>
<path d="M314.448 237.776C314.448 237.776 304.651 237.504 287.257 231.97C269.863 226.414 257.459 232.288 264.307 251.881C271.156 271.452 305.762 362.163 305.762 362.163L318.87 358.239L307.554 299.504C307.554 299.504 304.9 270.363 292.609 253.287C292.609 253.287 318.462 254.58 327.306 253.219C336.105 251.881 314.448 237.776 314.448 237.776Z" fill="#A8754B"/>
<path d="M387.946 189.042C387.946 189.042 408.855 215.325 383.705 241.132C383.705 241.132 370.756 256.213 313.677 253.854C313.677 253.854 298.709 203.329 266.87 189.745L332.771 180.923L387.946 189.042Z" fill="#0C2C40"/>
<path d="M360.075 27.8486C360.075 27.8486 353.272 0.159204 376.834 0.000460734C394.273 -0.112928 399.466 20.7278 378.081 34.6746L360.075 27.8486Z" fill="#190D08"/>
<path d="M378.875 39.7092C378.875 39.7092 383.138 28.824 370.983 23.3133C358.828 17.8026 354.95 30.8422 354.95 30.8422L378.875 39.7092Z" fill="#FD6C75"/>
<path d="M332.703 64.4731C332.703 64.4731 315.151 54.0868 334.132 33.2233C345.992 20.1837 366.765 20.9093 378.331 33.8356C389.896 46.7619 378.988 69.5529 378.988 69.5529L371.119 56.4679L364.225 46.3083L354.36 42.3624L346.627 42.9067L340.073 43.7457L334.79 45.9682L332.703 64.4731Z" fill="#27160C"/>
<path d="M347.04 72.8656L366.767 70.3318L370.76 101.418L351.033 103.952L347.04 72.8656Z" fill="#B5845B"/>
<path d="M368.829 79.5764C368.829 79.5764 366.697 90.8926 357.603 93.183C354.769 93.886 351.685 93.0696 349.961 90.7338C349.485 90.0988 349.145 89.3731 349.031 88.5568C348.6 85.2912 357.218 79.5764 357.218 79.5764H368.829Z" fill="#A8754B"/>
<path d="M354.927 87.627L355.948 87.4909C367.264 86.0395 375.269 75.6758 373.818 64.3597L372.661 55.3793C371.21 44.0632 360.846 36.0579 349.53 37.5093L348.51 37.6454C337.193 39.0967 329.188 49.4605 330.64 60.7766L331.796 69.757C333.247 81.0731 343.611 89.0783 354.927 87.627Z" fill="#B5845B"/>
<path d="M371.595 62.1147C371.595 62.1147 357.399 57.4884 357.762 41.546C357.762 41.546 356.855 29.663 369.282 40.6616C381.71 51.6603 371.595 62.1147 371.595 62.1147Z" fill="#27160C"/>
<path d="M368.466 66.4688C368.965 70.2786 372.435 72.9772 376.267 72.4783C380.077 71.9794 382.776 68.5098 382.277 64.6999C381.778 60.8901 378.308 58.1914 374.476 58.6903C370.666 59.1665 367.967 62.6589 368.466 66.4688Z" fill="#B5845B"/>
<path d="M363.908 54.1321L364.543 59.1665C365.994 66.2646 368.988 64.1102 370.076 61.0487L363.908 54.1321Z" fill="#27160C"/>
<path d="M328.462 51.5697C328.462 51.5697 342.953 62.4323 364.202 46.3311C378.852 35.2417 356.696 31.2505 356.696 31.2505L336.037 35.5138L328.462 51.5697Z" fill="#27160C"/>
<path d="M370.734 101.392C370.734 101.392 358.329 123.526 349.53 116.722C340.028 109.375 361.481 94.9519 361.481 94.9519L370.734 101.392Z" fill="#B5845B"/>
<path d="M365.246 146.476C365.246 146.476 357.581 160.604 352.342 171.693L296.464 168.473C296.464 168.473 285.375 159.402 276.689 167.067L285.262 177.363L355.222 192.851C357.898 193.441 360.687 192.67 362.66 190.81C368.851 184.96 382.322 171.33 388.853 157.429L365.246 146.476Z" fill="#B5845B"/>
<path d="M210.153 124.682H278.821C281.088 124.682 283.039 126.27 283.492 128.47L296.419 189.132C297.054 192.103 294.786 194.915 291.747 194.915H221.922C219.632 194.915 217.659 193.282 217.228 191.037L205.436 130.374C204.892 127.426 207.159 124.682 210.153 124.682Z" fill="#B2B2B2"/>
<path d="M206.207 124.682H274.875C277.143 124.682 279.093 126.27 279.547 128.47L292.473 189.132C293.108 192.103 290.84 194.915 287.801 194.915H217.977C215.686 194.915 213.713 193.282 213.282 191.037L201.49 130.374C200.946 127.426 203.191 124.682 206.207 124.682Z" fill="#D1D1D1"/>
<path d="M294.605 189.745H341.525C342.953 189.745 344.11 190.901 344.11 192.33C344.11 193.758 342.953 194.915 341.525 194.915H293.697L294.605 189.745Z" fill="#B2B2B2"/>
<path d="M248.728 158.223C248.728 162.35 245.371 165.706 241.244 165.706C237.117 165.706 233.76 162.35 233.76 158.223C233.76 154.095 237.117 150.739 241.244 150.739C245.371 150.739 248.728 154.073 248.728 158.223Z" fill="white"/>
<path d="M388.853 101.71C389.783 102.118 420.556 117.244 390.282 164.119C390.282 164.119 370.938 164.436 359.735 150.036C359.712 150.036 363.431 90.5524 388.853 101.71Z" fill="#FFD686"/>
<path d="M322.43 355.677C322.022 354.452 320.684 353.999 319.777 354.793C318.008 356.357 314.833 358.285 310.162 357.809C305.286 357.332 303.472 354.452 302.769 352.389C302.406 351.3 301.363 350.756 300.433 351.209L270.907 366.041C269.115 366.948 267.709 368.626 267.029 370.712C266.371 372.685 267.686 374.794 269.546 374.749L320.548 373.343C322.566 373.297 324.086 371.325 323.927 369.034L323.088 357.786C323.065 357.605 323.043 357.423 322.975 357.242L322.43 355.677Z" fill="#FD6C75"/>
<path d="M247.979 336.265C247.889 334.972 246.732 334.179 245.666 334.723C243.557 335.766 239.997 336.787 235.597 335.108C231.039 333.362 230.019 330.119 229.883 327.942C229.815 326.808 228.953 325.992 227.932 326.196L195.549 332.795C193.576 333.204 191.784 334.451 190.559 336.288C189.403 338.011 190.129 340.392 191.92 340.823L241.516 352.82C243.467 353.296 245.462 351.799 245.893 349.531L248.025 338.465C248.07 338.283 248.07 338.102 248.07 337.898L247.979 336.265Z" fill="#FD6C75"/>
<path d="M50.14 222C51.4867 222 52.68 222.28 53.72 222.84C54.7733 223.387 55.5933 224.187 56.18 225.24C56.7667 226.293 57.06 227.547 57.06 229C57.06 230.453 56.7667 231.707 56.18 232.76C55.5933 233.813 54.7733 234.62 53.72 235.18C52.68 235.727 51.4867 236 50.14 236H44.36V222H50.14ZM50.14 232.78C51.2067 232.78 52.02 232.467 52.58 231.84C53.14 231.213 53.42 230.267 53.42 229C53.42 227.733 53.14 226.787 52.58 226.16C52.02 225.533 51.2067 225.22 50.14 225.22H47.84V232.78H50.14ZM64.8242 236.28C63.7176 236.28 62.7442 236.047 61.9042 235.58C61.0642 235.1 60.4109 234.453 59.9442 233.64C59.4909 232.813 59.2642 231.893 59.2642 230.88C59.2642 229.867 59.4909 228.953 59.9442 228.14C60.4109 227.313 61.0642 226.667 61.9042 226.2C62.7442 225.72 63.7176 225.48 64.8242 225.48C65.9309 225.48 66.9042 225.72 67.7442 226.2C68.5842 226.667 69.2309 227.313 69.6842 228.14C70.1509 228.953 70.3842 229.867 70.3842 230.88C70.3842 231.893 70.1509 232.813 69.6842 233.64C69.2309 234.453 68.5842 235.1 67.7442 235.58C66.9042 236.047 65.9309 236.28 64.8242 236.28ZM64.8242 233.28C65.4909 233.28 66.0176 233.067 66.4042 232.64C66.7909 232.2 66.9842 231.613 66.9842 230.88C66.9842 230.147 66.7909 229.567 66.4042 229.14C66.0176 228.7 65.4909 228.48 64.8242 228.48C64.1576 228.48 63.6309 228.7 63.2442 229.14C62.8576 229.567 62.6642 230.147 62.6642 230.88C62.6642 231.613 62.8576 232.2 63.2442 232.64C63.6309 233.067 64.1576 233.28 64.8242 233.28ZM82.8666 230.86C82.8666 231.18 82.8466 231.513 82.8066 231.86H75.8666C76.0132 232.42 76.2799 232.833 76.6666 233.1C77.0666 233.353 77.5866 233.48 78.2266 233.48C79.2132 233.48 80.0132 233.18 80.6266 232.58L82.4466 234.58C81.9666 235.127 81.3532 235.547 80.6066 235.84C79.8732 236.133 79.0399 236.28 78.1066 236.28C76.9732 236.28 75.9799 236.067 75.1266 235.64C74.2732 235.2 73.6132 234.58 73.1466 233.78C72.6932 232.98 72.4666 232.033 72.4666 230.94C72.4666 229.873 72.6866 228.927 73.1266 228.1C73.5666 227.273 74.1866 226.633 74.9866 226.18C75.7866 225.713 76.7132 225.48 77.7666 225.48C78.7932 225.48 79.6866 225.7 80.4466 226.14C81.2199 226.58 81.8132 227.207 82.2266 228.02C82.6532 228.833 82.8666 229.78 82.8666 230.86ZM77.7866 228.26C76.6932 228.26 76.0399 228.78 75.8266 229.82H79.5466C79.4666 228.78 78.8799 228.26 77.7866 228.26ZM89.5072 236.28C88.5339 236.28 87.6205 236.14 86.7672 235.86C85.9272 235.567 85.2405 235.16 84.7072 234.64L86.1472 232.34C86.5872 232.687 87.1139 232.973 87.7272 233.2C88.3539 233.427 88.9605 233.54 89.5472 233.54C89.9339 233.54 90.2272 233.493 90.4272 233.4C90.6272 233.293 90.7272 233.153 90.7272 232.98C90.7272 232.807 90.6472 232.667 90.4872 232.56C90.3405 232.453 90.1005 232.36 89.7672 232.28L88.0272 231.86C86.9872 231.607 86.2339 231.233 85.7672 230.74C85.3139 230.247 85.0872 229.64 85.0872 228.92C85.0872 227.88 85.4805 227.047 86.2672 226.42C87.0672 225.793 88.1539 225.48 89.5272 225.48C90.4205 225.48 91.2539 225.613 92.0272 225.88C92.8139 226.147 93.4539 226.507 93.9472 226.96L92.4672 229.24C91.4139 228.573 90.4272 228.24 89.5072 228.24C89.1472 228.24 88.8739 228.293 88.6872 228.4C88.5139 228.493 88.4272 228.62 88.4272 228.78C88.4272 228.927 88.4939 229.047 88.6272 229.14C88.7739 229.233 89.0139 229.32 89.3472 229.4L91.0872 229.82C92.1672 230.087 92.9405 230.467 93.4072 230.96C93.8739 231.44 94.1072 232.053 94.1072 232.8C94.1072 233.88 93.7005 234.733 92.8872 235.36C92.0739 235.973 90.9472 236.28 89.5072 236.28ZM111.352 225.76V234.92C111.352 236.64 110.866 237.96 109.892 238.88C108.919 239.813 107.519 240.28 105.692 240.28C104.799 240.28 103.959 240.167 103.172 239.94C102.399 239.727 101.759 239.413 101.252 239L102.532 236.48C102.959 236.76 103.426 236.973 103.932 237.12C104.452 237.28 104.952 237.36 105.432 237.36C106.259 237.36 106.906 237.14 107.372 236.7C107.839 236.273 108.072 235.68 108.072 234.92V234.2C107.779 234.693 107.366 235.087 106.832 235.38C106.312 235.66 105.712 235.8 105.032 235.8C103.992 235.8 103.166 235.473 102.552 234.82C101.939 234.153 101.632 233.227 101.632 232.04V225.76H104.992V231.16C104.992 231.693 105.106 232.093 105.332 232.36C105.572 232.627 105.932 232.76 106.412 232.76C107.492 232.76 108.032 232.147 108.032 230.92V225.76H111.352ZM119.508 236.28C118.401 236.28 117.428 236.047 116.588 235.58C115.748 235.1 115.094 234.453 114.628 233.64C114.174 232.813 113.948 231.893 113.948 230.88C113.948 229.867 114.174 228.953 114.628 228.14C115.094 227.313 115.748 226.667 116.588 226.2C117.428 225.72 118.401 225.48 119.508 225.48C120.614 225.48 121.588 225.72 122.428 226.2C123.268 226.667 123.914 227.313 124.368 228.14C124.834 228.953 125.068 229.867 125.068 230.88C125.068 231.893 124.834 232.813 124.368 233.64C123.914 234.453 123.268 235.1 122.428 235.58C121.588 236.047 120.614 236.28 119.508 236.28ZM119.508 233.28C120.174 233.28 120.701 233.067 121.088 232.64C121.474 232.2 121.668 231.613 121.668 230.88C121.668 230.147 121.474 229.567 121.088 229.14C120.701 228.7 120.174 228.48 119.508 228.48C118.841 228.48 118.314 228.7 117.928 229.14C117.541 229.567 117.348 230.147 117.348 230.88C117.348 231.613 117.541 232.2 117.928 232.64C118.314 233.067 118.841 233.28 119.508 233.28ZM132.35 236.28C130.817 236.28 129.623 235.907 128.77 235.16C127.93 234.4 127.51 233.353 127.51 232.02V225.76H130.87V231.54C130.87 232.7 131.363 233.28 132.35 233.28C133.337 233.28 133.83 232.7 133.83 231.54V225.76H137.19V232.02C137.19 233.353 136.763 234.4 135.91 235.16C135.07 235.907 133.883 236.28 132.35 236.28ZM146.33 225.56C146.623 225.56 146.903 225.6 147.17 225.68V228.94C146.717 228.847 146.25 228.8 145.77 228.8C144.957 228.8 144.377 228.98 144.03 229.34C143.683 229.7 143.51 230.313 143.51 231.18V236H140.15V225.76H143.43V227.32C143.697 226.773 144.083 226.347 144.59 226.04C145.097 225.72 145.677 225.56 146.33 225.56ZM60.2 253.76L57.16 264H53.42L51.7 258.14L49.98 264H46.24L43.2 253.76H46.64L48.28 260.04L50.16 253.76H53.24L55.12 260.04L56.76 253.76H60.2ZM67.168 264.28C66.0613 264.28 65.088 264.047 64.248 263.58C63.408 263.1 62.7546 262.453 62.288 261.64C61.8346 260.813 61.608 259.893 61.608 258.88C61.608 257.867 61.8346 256.953 62.288 256.14C62.7546 255.313 63.408 254.667 64.248 254.2C65.088 253.72 66.0613 253.48 67.168 253.48C68.2746 253.48 69.248 253.72 70.088 254.2C70.928 254.667 71.5746 255.313 72.028 256.14C72.4946 256.953 72.728 257.867 72.728 258.88C72.728 259.893 72.4946 260.813 72.028 261.64C71.5746 262.453 70.928 263.1 70.088 263.58C69.248 264.047 68.2746 264.28 67.168 264.28ZM67.168 261.28C67.8346 261.28 68.3613 261.067 68.748 260.64C69.1346 260.2 69.328 259.613 69.328 258.88C69.328 258.147 69.1346 257.567 68.748 257.14C68.3613 256.7 67.8346 256.48 67.168 256.48C66.5013 256.48 65.9746 256.7 65.588 257.14C65.2013 257.567 65.008 258.147 65.008 258.88C65.008 259.613 65.2013 260.2 65.588 260.64C65.9746 261.067 66.5013 261.28 67.168 261.28ZM81.5103 253.56C81.8036 253.56 82.0836 253.6 82.3503 253.68V256.94C81.897 256.847 81.4303 256.8 80.9503 256.8C80.137 256.8 79.557 256.98 79.2103 257.34C78.8636 257.7 78.6903 258.313 78.6903 259.18V264H75.3303V253.76H78.6103V255.32C78.877 254.773 79.2636 254.347 79.7703 254.04C80.277 253.72 80.857 253.56 81.5103 253.56ZM88.8445 260.1H88.0645V264H84.7045V249.36H88.0645V257.18H88.9045L91.3445 253.76H95.3045L91.6845 258.62L95.3845 264H91.4245L88.8445 260.1ZM95.5891 256.82H101.589V259.7H95.5891V256.82ZM104.156 249.36H107.516V264H104.156V249.36ZM112.34 252.54C111.726 252.54 111.233 252.367 110.86 252.02C110.486 251.66 110.3 251.187 110.3 250.6C110.3 250.013 110.486 249.547 110.86 249.2C111.233 248.84 111.726 248.66 112.34 248.66C112.953 248.66 113.446 248.84 113.82 249.2C114.193 249.547 114.38 250.013 114.38 250.6C114.38 251.187 114.193 251.66 113.82 252.02C113.446 252.367 112.953 252.54 112.34 252.54ZM110.66 253.76H114.02V264H110.66V253.76ZM118.202 256.72H116.402V253.76H118.202V252.7C118.202 250.353 119.549 249.18 122.242 249.18C122.842 249.18 123.442 249.24 124.042 249.36V252.2C123.616 252.133 123.262 252.1 122.982 252.1C122.476 252.1 122.109 252.187 121.882 252.36C121.669 252.52 121.562 252.767 121.562 253.1V253.76H124.042V256.72H121.562V264H118.202V256.72ZM135.967 258.86C135.967 259.18 135.947 259.513 135.907 259.86H128.967C129.114 260.42 129.381 260.833 129.767 261.1C130.167 261.353 130.687 261.48 131.327 261.48C132.314 261.48 133.114 261.18 133.727 260.58L135.547 262.58C135.067 263.127 134.454 263.547 133.707 263.84C132.974 264.133 132.141 264.28 131.207 264.28C130.074 264.28 129.081 264.067 128.227 263.64C127.374 263.2 126.714 262.58 126.247 261.78C125.794 260.98 125.567 260.033 125.567 258.94C125.567 257.873 125.787 256.927 126.227 256.1C126.667 255.273 127.287 254.633 128.087 254.18C128.887 253.713 129.814 253.48 130.867 253.48C131.894 253.48 132.787 253.7 133.547 254.14C134.321 254.58 134.914 255.207 135.327 256.02C135.754 256.833 135.967 257.78 135.967 258.86ZM130.887 256.26C129.794 256.26 129.141 256.78 128.927 257.82H132.647C132.567 256.78 131.981 256.26 130.887 256.26ZM147.803 264.28C146.829 264.28 145.916 264.14 145.062 263.86C144.223 263.567 143.536 263.16 143.003 262.64L144.443 260.34C144.883 260.687 145.409 260.973 146.023 261.2C146.649 261.427 147.256 261.54 147.842 261.54C148.229 261.54 148.523 261.493 148.723 261.4C148.923 261.293 149.023 261.153 149.023 260.98C149.023 260.807 148.943 260.667 148.783 260.56C148.636 260.453 148.396 260.36 148.063 260.28L146.323 259.86C145.283 259.607 144.529 259.233 144.063 258.74C143.609 258.247 143.383 257.64 143.383 256.92C143.383 255.88 143.776 255.047 144.563 254.42C145.363 253.793 146.449 253.48 147.823 253.48C148.716 253.48 149.549 253.613 150.323 253.88C151.109 254.147 151.749 254.507 152.243 254.96L150.763 257.24C149.709 256.573 148.723 256.24 147.803 256.24C147.443 256.24 147.169 256.293 146.983 256.4C146.809 256.493 146.723 256.62 146.723 256.78C146.723 256.927 146.789 257.047 146.923 257.14C147.069 257.233 147.309 257.32 147.643 257.4L149.383 257.82C150.463 258.087 151.236 258.467 151.703 258.96C152.169 259.44 152.403 260.053 152.403 260.8C152.403 261.88 151.996 262.733 151.183 263.36C150.369 263.973 149.243 264.28 147.803 264.28ZM165.353 253.76V264H162.073V262.62C161.78 263.153 161.353 263.567 160.793 263.86C160.233 264.14 159.606 264.28 158.913 264.28C158.046 264.28 157.266 264.053 156.573 263.6C155.893 263.147 155.36 262.513 154.973 261.7C154.586 260.873 154.393 259.933 154.393 258.88C154.393 257.827 154.586 256.893 154.973 256.08C155.36 255.253 155.893 254.613 156.573 254.16C157.266 253.707 158.046 253.48 158.913 253.48C159.606 253.48 160.233 253.627 160.793 253.92C161.353 254.2 161.78 254.607 162.073 255.14V253.76H165.353ZM159.953 261.28C160.62 261.28 161.146 261.067 161.533 260.64C161.92 260.2 162.113 259.613 162.113 258.88C162.113 258.147 161.92 257.567 161.533 257.14C161.146 256.7 160.62 256.48 159.953 256.48C159.286 256.48 158.76 256.7 158.373 257.14C157.986 257.567 157.793 258.147 157.793 258.88C157.793 259.613 157.986 260.2 158.373 260.64C158.76 261.067 159.286 261.28 159.953 261.28ZM174.907 253.48C175.774 253.48 176.547 253.707 177.227 254.16C177.92 254.613 178.46 255.253 178.847 256.08C179.234 256.893 179.427 257.827 179.427 258.88C179.427 259.933 179.234 260.873 178.847 261.7C178.46 262.513 177.92 263.147 177.227 263.6C176.547 264.053 175.774 264.28 174.907 264.28C174.254 264.28 173.654 264.147 173.107 263.88C172.56 263.613 172.134 263.233 171.827 262.74V268H168.467V253.76H171.747V255.14C172.04 254.607 172.467 254.2 173.027 253.92C173.587 253.627 174.214 253.48 174.907 253.48ZM173.867 261.28C174.534 261.28 175.06 261.067 175.447 260.64C175.834 260.2 176.027 259.613 176.027 258.88C176.027 258.147 175.834 257.567 175.447 257.14C175.06 256.7 174.534 256.48 173.867 256.48C173.2 256.48 172.674 256.7 172.287 257.14C171.9 257.567 171.707 258.147 171.707 258.88C171.707 259.613 171.9 260.2 172.287 260.64C172.674 261.067 173.2 261.28 173.867 261.28ZM54.04 286.86C54.04 287.18 54.02 287.513 53.98 287.86H47.04C47.1867 288.42 47.4533 288.833 47.84 289.1C48.24 289.353 48.76 289.48 49.4 289.48C50.3867 289.48 51.1867 289.18 51.8 288.58L53.62 290.58C53.14 291.127 52.5267 291.547 51.78 291.84C51.0467 292.133 50.2133 292.28 49.28 292.28C48.1467 292.28 47.1533 292.067 46.3 291.64C45.4467 291.2 44.7867 290.58 44.32 289.78C43.8667 288.98 43.64 288.033 43.64 286.94C43.64 285.873 43.86 284.927 44.3 284.1C44.74 283.273 45.36 282.633 46.16 282.18C46.96 281.713 47.8867 281.48 48.94 281.48C49.9667 281.48 50.86 281.7 51.62 282.14C52.3933 282.58 52.9867 283.207 53.4 284.02C53.8267 284.833 54.04 285.78 54.04 286.86ZM48.96 284.26C47.8667 284.26 47.2133 284.78 47 285.82H50.72C50.64 284.78 50.0533 284.26 48.96 284.26ZM63.0206 281.48C64.0873 281.48 64.9273 281.813 65.5406 282.48C66.1673 283.133 66.4806 284.053 66.4806 285.24V292H63.1206V286.12C63.1206 285.587 63.0006 285.187 62.7606 284.92C62.5206 284.653 62.1473 284.52 61.6406 284.52C60.5206 284.52 59.9606 285.133 59.9606 286.36V292H56.6006V281.76H59.8806V283.14C60.174 282.633 60.5873 282.233 61.1206 281.94C61.6673 281.633 62.3006 281.48 63.0206 281.48ZM79.4095 286.86C79.4095 287.18 79.3895 287.513 79.3495 287.86H72.4095C72.5562 288.42 72.8229 288.833 73.2095 289.1C73.6095 289.353 74.1295 289.48 74.7695 289.48C75.7562 289.48 76.5562 289.18 77.1695 288.58L78.9895 290.58C78.5095 291.127 77.8962 291.547 77.1495 291.84C76.4162 292.133 75.5829 292.28 74.6495 292.28C73.5162 292.28 72.5229 292.067 71.6695 291.64C70.8162 291.2 70.1562 290.58 69.6895 289.78C69.2362 288.98 69.0095 288.033 69.0095 286.94C69.0095 285.873 69.2295 284.927 69.6695 284.1C70.1095 283.273 70.7295 282.633 71.5295 282.18C72.3295 281.713 73.2562 281.48 74.3095 281.48C75.3362 281.48 76.2295 281.7 76.9895 282.14C77.7629 282.58 78.3562 283.207 78.7695 284.02C79.1962 284.833 79.4095 285.78 79.4095 286.86ZM74.3295 284.26C73.2362 284.26 72.5829 284.78 72.3695 285.82H76.0895C76.0095 284.78 75.4229 284.26 74.3295 284.26ZM88.1502 281.56C88.4435 281.56 88.7235 281.6 88.9902 281.68V284.94C88.5368 284.847 88.0702 284.8 87.5902 284.8C86.7768 284.8 86.1968 284.98 85.8502 285.34C85.5035 285.7 85.3302 286.313 85.3302 287.18V292H81.9702V281.76H85.2502V283.32C85.5168 282.773 85.9035 282.347 86.4102 282.04C86.9168 281.72 87.4968 281.56 88.1502 281.56ZM101.492 281.76V290.8C101.492 292.507 100.985 293.847 99.9719 294.82C98.9719 295.793 97.5452 296.28 95.6919 296.28C94.7052 296.28 93.7785 296.14 92.9119 295.86C92.0452 295.58 91.3319 295.2 90.7719 294.72L92.2119 292.3C92.7185 292.647 93.2519 292.907 93.8119 293.08C94.3719 293.267 94.9185 293.36 95.4519 293.36C96.3185 293.36 96.9985 293.127 97.4919 292.66C97.9852 292.207 98.2319 291.587 98.2319 290.8V290.1C97.9519 290.633 97.5319 291.053 96.9719 291.36C96.4119 291.653 95.7652 291.8 95.0319 291.8C94.1652 291.8 93.3852 291.587 92.6919 291.16C92.0119 290.733 91.4785 290.133 91.0919 289.36C90.7052 288.587 90.5119 287.7 90.5119 286.7C90.5119 285.7 90.7052 284.807 91.0919 284.02C91.4919 283.22 92.0319 282.6 92.7119 282.16C93.4052 281.707 94.1852 281.48 95.0519 281.48C95.7452 281.48 96.3719 281.627 96.9319 281.92C97.4919 282.2 97.9185 282.607 98.2119 283.14V281.76H101.492ZM96.0919 288.88C96.7585 288.88 97.2852 288.673 97.6719 288.26C98.0585 287.847 98.2519 287.313 98.2519 286.66C98.2519 286.007 98.0585 285.473 97.6719 285.06C97.2852 284.647 96.7585 284.44 96.0919 284.44C95.4252 284.44 94.8985 284.647 94.5119 285.06C94.1252 285.473 93.9319 286.007 93.9319 286.66C93.9319 287.313 94.1252 287.847 94.5119 288.26C94.8985 288.673 95.4252 288.88 96.0919 288.88ZM114.145 281.76V290.92C114.145 292.64 113.659 293.96 112.685 294.88C111.712 295.813 110.312 296.28 108.485 296.28C107.592 296.28 106.752 296.167 105.965 295.94C105.192 295.727 104.552 295.413 104.045 295L105.325 292.48C105.752 292.76 106.219 292.973 106.725 293.12C107.245 293.28 107.745 293.36 108.225 293.36C109.052 293.36 109.699 293.14 110.165 292.7C110.632 292.273 110.865 291.68 110.865 290.92V290.2C110.572 290.693 110.159 291.087 109.625 291.38C109.105 291.66 108.505 291.8 107.825 291.8C106.785 291.8 105.959 291.473 105.345 290.82C104.732 290.153 104.425 289.227 104.425 288.04V281.76H107.785V287.16C107.785 287.693 107.899 288.093 108.125 288.36C108.365 288.627 108.725 288.76 109.205 288.76C110.285 288.76 110.825 288.147 110.825 286.92V281.76H114.145ZM127.495 292.28C126.389 292.28 125.415 292.047 124.575 291.58C123.735 291.1 123.082 290.453 122.615 289.64C122.162 288.813 121.935 287.893 121.935 286.88C121.935 285.867 122.162 284.953 122.615 284.14C123.082 283.313 123.735 282.667 124.575 282.2C125.415 281.72 126.389 281.48 127.495 281.48C128.602 281.48 129.575 281.72 130.415 282.2C131.255 282.667 131.902 283.313 132.355 284.14C132.822 284.953 133.055 285.867 133.055 286.88C133.055 287.893 132.822 288.813 132.355 289.64C131.902 290.453 131.255 291.1 130.415 291.58C129.575 292.047 128.602 292.28 127.495 292.28ZM127.495 289.28C128.162 289.28 128.689 289.067 129.075 288.64C129.462 288.2 129.655 287.613 129.655 286.88C129.655 286.147 129.462 285.567 129.075 285.14C128.689 284.7 128.162 284.48 127.495 284.48C126.829 284.48 126.302 284.7 125.915 285.14C125.529 285.567 125.335 286.147 125.335 286.88C125.335 287.613 125.529 288.2 125.915 288.64C126.302 289.067 126.829 289.28 127.495 289.28ZM140.338 292.28C138.804 292.28 137.611 291.907 136.758 291.16C135.918 290.4 135.498 289.353 135.498 288.02V281.76H138.858V287.54C138.858 288.7 139.351 289.28 140.338 289.28C141.324 289.28 141.818 288.7 141.818 287.54V281.76H145.178V288.02C145.178 289.353 144.751 290.4 143.898 291.16C143.058 291.907 141.871 292.28 140.338 292.28ZM152.877 292.14C151.531 292.14 150.564 291.867 149.977 291.32C149.391 290.773 149.097 289.86 149.097 288.58V284.72H147.337V281.76H149.097V278.76H152.457V281.76H154.977V284.72H152.457V288C152.457 288.427 152.551 288.727 152.737 288.9C152.924 289.06 153.257 289.14 153.737 289.14C154.177 289.14 154.604 289.093 155.017 289V291.86C154.377 292.047 153.664 292.14 152.877 292.14ZM167.883 292.28C166.776 292.28 165.803 292.047 164.963 291.58C164.123 291.1 163.469 290.453 163.003 289.64C162.549 288.813 162.323 287.893 162.323 286.88C162.323 285.867 162.549 284.953 163.003 284.14C163.469 283.313 164.123 282.667 164.963 282.2C165.803 281.72 166.776 281.48 167.883 281.48C168.989 281.48 169.963 281.72 170.803 282.2C171.643 282.667 172.289 283.313 172.743 284.14C173.209 284.953 173.443 285.867 173.443 286.88C173.443 287.893 173.209 288.813 172.743 289.64C172.289 290.453 171.643 291.1 170.803 291.58C169.963 292.047 168.989 292.28 167.883 292.28ZM167.883 289.28C168.549 289.28 169.076 289.067 169.463 288.64C169.849 288.2 170.043 287.613 170.043 286.88C170.043 286.147 169.849 285.567 169.463 285.14C169.076 284.7 168.549 284.48 167.883 284.48C167.216 284.48 166.689 284.7 166.303 285.14C165.916 285.567 165.723 286.147 165.723 286.88C165.723 287.613 165.916 288.2 166.303 288.64C166.689 289.067 167.216 289.28 167.883 289.28ZM176.968 284.72H175.168V281.76H176.968V280.7C176.968 278.353 178.315 277.18 181.008 277.18C181.608 277.18 182.208 277.24 182.808 277.36V280.2C182.381 280.133 182.028 280.1 181.748 280.1C181.241 280.1 180.875 280.187 180.648 280.36C180.435 280.52 180.328 280.767 180.328 281.1V281.76H182.808V284.72H180.328V292H176.968V284.72ZM199.627 281.76V290.92C199.627 292.64 199.14 293.96 198.167 294.88C197.193 295.813 195.793 296.28 193.967 296.28C193.073 296.28 192.233 296.167 191.447 295.94C190.673 295.727 190.033 295.413 189.527 295L190.807 292.48C191.233 292.76 191.7 292.973 192.207 293.12C192.727 293.28 193.227 293.36 193.707 293.36C194.533 293.36 195.18 293.14 195.647 292.7C196.113 292.273 196.347 291.68 196.347 290.92V290.2C196.053 290.693 195.64 291.087 195.107 291.38C194.587 291.66 193.987 291.8 193.307 291.8C192.267 291.8 191.44 291.473 190.827 290.82C190.213 290.153 189.907 289.227 189.907 288.04V281.76H193.267V287.16C193.267 287.693 193.38 288.093 193.607 288.36C193.847 288.627 194.207 288.76 194.687 288.76C195.767 288.76 196.307 288.147 196.307 286.92V281.76H199.627ZM207.782 292.28C206.675 292.28 205.702 292.047 204.862 291.58C204.022 291.1 203.369 290.453 202.902 289.64C202.449 288.813 202.222 287.893 202.222 286.88C202.222 285.867 202.449 284.953 202.902 284.14C203.369 283.313 204.022 282.667 204.862 282.2C205.702 281.72 206.675 281.48 207.782 281.48C208.889 281.48 209.862 281.72 210.702 282.2C211.542 282.667 212.189 283.313 212.642 284.14C213.109 284.953 213.342 285.867 213.342 286.88C213.342 287.893 213.109 288.813 212.642 289.64C212.189 290.453 211.542 291.1 210.702 291.58C209.862 292.047 208.889 292.28 207.782 292.28ZM207.782 289.28C208.449 289.28 208.975 289.067 209.362 288.64C209.749 288.2 209.942 287.613 209.942 286.88C209.942 286.147 209.749 285.567 209.362 285.14C208.975 284.7 208.449 284.48 207.782 284.48C207.115 284.48 206.589 284.7 206.202 285.14C205.815 285.567 205.622 286.147 205.622 286.88C205.622 287.613 205.815 288.2 206.202 288.64C206.589 289.067 207.115 289.28 207.782 289.28ZM220.624 292.28C219.091 292.28 217.898 291.907 217.044 291.16C216.204 290.4 215.784 289.353 215.784 288.02V281.76H219.144V287.54C219.144 288.7 219.638 289.28 220.624 289.28C221.611 289.28 222.104 288.7 222.104 287.54V281.76H225.464V288.02C225.464 289.353 225.038 290.4 224.184 291.16C223.344 291.907 222.158 292.28 220.624 292.28ZM230.104 286.06C230.104 285.593 230.144 285.227 230.224 284.96C230.304 284.68 230.451 284.413 230.664 284.16C230.877 283.907 231.224 283.58 231.704 283.18L232.564 282.46C232.991 282.1 233.204 281.753 233.204 281.42C233.204 281.167 233.111 280.973 232.924 280.84C232.751 280.707 232.504 280.64 232.184 280.64C231.304 280.64 230.531 281.18 229.864 282.26L227.464 280.64C227.917 279.747 228.551 279.04 229.364 278.52C230.191 277.987 231.151 277.72 232.244 277.72C233.044 277.72 233.764 277.867 234.404 278.16C235.044 278.453 235.544 278.873 235.904 279.42C236.264 279.967 236.444 280.6 236.444 281.32C236.444 281.867 236.317 282.373 236.064 282.84C235.811 283.307 235.364 283.807 234.724 284.34L233.984 284.96C233.664 285.227 233.464 285.433 233.384 285.58C233.304 285.727 233.264 285.96 233.264 286.28V287H230.104V286.06ZM231.684 292.28C231.031 292.28 230.511 292.087 230.124 291.7C229.737 291.313 229.544 290.793 229.544 290.14C229.544 289.473 229.737 288.953 230.124 288.58C230.511 288.193 231.031 288 231.684 288C232.351 288 232.871 288.193 233.244 288.58C233.631 288.953 233.824 289.473 233.824 290.14C233.824 290.793 233.631 291.313 233.244 291.7C232.871 292.087 232.351 292.28 231.684 292.28Z" fill="white"/>
<defs>
<filter id="filter0_d" x="0" y="11.9999" width="471.703" height="439.598" filterUnits="userSpaceOnUse" color-interpolation-filters="sRGB">
<feFlood flood-opacity="0" result="BackgroundImageFix"/>
<feColorMatrix in="SourceAlpha" type="matrix" values="0 0 0 0 0 0 0 0 0 0 0 0 0 0 0 0 0 0 127 0"/>
<feOffset dx="16" dy="16"/>
<feGaussianBlur stdDeviation="8"/>
<feColorMatrix type="matrix" values="0 0 0 0 0.227451 0 0 0 0 0.25098 0 0 0 0 0.356863 0 0 0 0.16 0"/>
<feBlend mode="normal" in2="BackgroundImageFix" result="effect1_dropShadow"/>
<feBlend mode="normal" in="SourceGraphic" in2="effect1_dropShadow" result="shape"/>
</filter>
</defs>
</svg>
