<svg width="612" height="383" viewBox="0 0 612 383" fill="none" xmlns="http://www.w3.org/2000/svg">
<path d="M147.493 224.58C158.7 216.797 200.396 202.779 219.844 196.743H241.687C254.651 199.957 283.775 207.681 296.566 212.867C309.357 218.052 332.676 248.757 342.039 263.017L331.851 282.524C305.924 308.105 326.814 330.691 340.642 339.045C319.9 339.045 310.97 331.267 309.098 327.378C311.172 339.131 312.843 367.997 313.419 380.96H160.881V357.4H102.702C97.3405 298.738 133.484 234.308 147.493 224.58Z" fill="url(#paint0_linear)"/>
<ellipse cx="232.414" cy="215.251" rx="25.9725" ry="18.5082" fill="#001833"/>
<path d="M213.131 213.34C216.502 193.956 215.314 176.019 214.788 169.83C215.525 164.036 246.184 174.888 260.933 180.682C252.61 184.896 250.354 205.966 250.266 215.974C250.53 219.266 248.475 226.246 238.151 227.826C220.874 229.827 214.272 219.003 213.131 213.34Z" fill="url(#paint1_linear)"/>
<mask id="mask0" mask-type="alpha" maskUnits="userSpaceOnUse" x="213" y="168" width="48" height="61">
<path d="M213.131 213.34C216.502 193.956 215.314 176.019 214.788 169.83C215.525 164.036 246.184 174.888 260.933 180.682C252.61 184.896 250.354 205.966 250.266 215.974C250.53 219.266 248.475 226.246 238.151 227.826C220.874 229.827 214.272 219.003 213.131 213.34Z" fill="#BABABA"/>
</mask>
<g mask="url(#mask0)">
<path opacity="0.1" d="M255.83 200.793C235.067 197.553 219.674 179.299 214.572 170.577C226.423 168.132 253.069 164.709 264.849 170.577C276.63 176.444 263.745 193.165 255.83 200.793Z" fill="black"/>
</g>
<path d="M249.505 184.231C283.607 182.749 284.582 136.112 280.806 112.979C219.192 60.7555 194.453 101.791 189.785 128.836C195.483 147.919 215.403 185.714 249.505 184.231Z" fill="url(#paint2_linear)"/>
<path d="M205.486 66.3655C195.676 63.2729 175.222 61.7266 171.895 80.2822C171.895 92.2793 200.848 89.24 205.486 66.3655Z" fill="#30235B"/>
<path d="M217.299 127.989L231.195 139.923L229.686 146.883L216.727 135.509L217.299 127.989Z" fill="#111111"/>
<path d="M203.169 138.721C215.031 148.77 215.8 164.462 214.702 171.052C210.858 170.022 200.122 163.35 187.93 144.899C168.491 105.195 191.912 75.4999 206.052 65.6153C243.943 43.5807 294.602 77.7651 285.747 103.918C276.892 130.072 234.539 124.031 218.82 114.009C222.115 123.894 219.095 133.641 217.173 137.279C209.759 119.981 188.342 126.159 203.169 138.721Z" fill="#30235B"/>
<path d="M228.562 60.5125C253.794 53.2651 269.161 66.3284 273.691 73.766C268.602 71.0258 254.498 67.1896 238.795 73.766C213.966 85.174 208.542 109.5 208.933 120.237L192.492 119.063V113.023C194.002 98.5393 203.33 67.76 228.562 60.5125Z" fill="white"/>
<ellipse cx="199.225" cy="134.958" rx="19.2976" ry="23.6088" fill="white"/>
<ellipse cx="199.225" cy="134.958" rx="19.2976" ry="23.6088" fill="white"/>
<ellipse cx="199.227" cy="134.958" rx="9.21133" ry="11.2692" fill="#24C28A"/>
<path opacity="0.5" d="M283.545 131.355C276.392 129.144 268.688 133.857 265.731 136.49C260.353 141.625 268.508 154.683 277.936 148.668C285.479 143.856 284.818 135.121 283.545 131.355Z" fill="#E6FCFF"/>
<path fill-rule="evenodd" clip-rule="evenodd" d="M262.698 134.94C273.044 125.383 282.855 127.017 286.468 129.029C288.558 134.564 286.468 150.739 274.93 152.173C265.699 153.321 262.536 146.184 262.108 142.473C260.353 141.056 259.188 142.277 258.825 143.065C259.128 153.38 250.836 160.358 241.936 158.74C234.817 157.445 231.718 150.331 231.058 146.936H229.586V140.9C238.857 131.823 251.665 134.048 256.91 136.295C258.289 135.211 261.344 134.94 262.698 134.94ZM283 132.003C275.847 129.792 269.312 133.58 266.354 136.213C260.976 141.348 268.04 153.928 277.909 148.668C283.819 145.518 284.273 135.769 283 132.003ZM242.555 138.734C246.46 137.463 254.425 136.612 255.035 143.379C255.798 151.838 248.101 158.078 241.376 154.75C236.506 152.341 234.512 147.401 234.512 144.281C234.512 141.785 239.874 139.543 242.555 138.734Z" fill="#111111"/>
<path opacity="0.5" d="M255.062 143.38C254.452 136.613 246.488 137.463 242.582 138.734C239.901 139.543 234.539 141.785 234.539 144.281C234.539 147.401 236.534 152.341 241.403 154.751C248.129 158.079 255.825 151.838 255.062 143.38Z" fill="#E6FCFF"/>
<path d="M102.653 357.476C108.652 384.212 144.279 384.266 161.342 380.951L292.868 361.949C294.563 363.421 298.624 367.304 301.301 371.055C303.978 374.806 306.432 372.169 307.324 370.382C311.179 374.558 314.017 372.571 314.954 371.055C318.274 375.235 321.067 373.776 322.049 372.524C326.653 375.951 327.816 372.973 327.821 371.055C321.539 357.753 310.269 344.42 305.419 339.416L272.625 342.418L166.07 331.555C145.854 317.371 95.1536 324.055 102.653 357.476Z" fill="url(#paint3_linear)"/>
<path d="M357.491 317.023C351.55 336.21 343.36 339.562 340.007 338.84C304.721 315.228 319.873 291.032 331.86 281.885L363.105 217.554C358.581 214.017 353.541 202.95 354.058 195.971C354.472 190.388 358.28 190.201 360.132 190.805C360.649 185.02 364.828 185.204 366.853 186.02C368.611 179.713 373.703 181.065 376.029 182.53C376.339 173.845 382.362 175.034 385.334 176.714L390.552 190.805C392.684 191.101 397.628 191.786 400.351 192.157C403.755 192.622 408.088 193.24 405.921 198.037C404.189 201.874 395.4 215.006 391.222 221.092C382.454 245.075 363.433 297.837 357.491 317.023Z" fill="url(#paint4_linear)"/>
<path d="M267.551 374.058H336.357C336.357 377.87 333.266 380.961 329.454 380.961H274.453C270.641 380.961 267.551 377.87 267.551 374.058Z" fill="#B4B4B4"/>
<path d="M358.294 289.109C358.775 287.955 359.903 287.203 361.153 287.203H477.353C479.563 287.203 481.062 289.452 480.212 291.492L443.707 379.055C443.226 380.209 442.099 380.96 440.849 380.96H324.648C322.438 380.96 320.939 378.712 321.79 376.672L358.294 289.109Z" fill="url(#paint5_linear)"/>
<path d="M166.111 331.523L169.197 307.234" stroke="#30235B" stroke-width="0.619401"/>
<path d="M309.004 327.522C308.541 324.67 307.755 317.779 308.31 313.025" stroke="#30235B" stroke-width="0.619401"/>
<path d="M308.166 318.342L305.512 312.963" stroke="#30235B" stroke-width="0.619401"/>
<path d="M307.227 370.16L298.609 359.282" stroke="#30235B" stroke-width="0.619401"/>
<path d="M314.854 370.698L301.404 353.242" stroke="#30235B" stroke-width="0.619401"/>
<path d="M321.926 372.297L305.207 348.209" stroke="#30235B" stroke-width="0.619401"/>
<path d="M360.129 190.91C360.59 193.305 362.092 198.968 364.418 202.457" stroke="#30235B" stroke-width="0.619401"/>
<path d="M376.059 182.581C376.763 185.053 378.597 190.628 380.296 193.153" stroke="#30235B" stroke-width="0.619401"/>
<path d="M366.76 186.173C367.589 188.864 369.649 194.78 371.252 196.916" stroke="#30235B" stroke-width="0.619401"/>
<path d="M390.486 190.797L393.05 198.299" stroke="#30235B" stroke-width="0.619401"/>
<ellipse cx="405.219" cy="336.314" rx="7.86131" ry="11.3813" transform="rotate(19.8998 405.219 336.314)" fill="white"/>
<rect x="608.379" y="260.895" width="126.405" height="10.3543" transform="rotate(117.371 608.379 260.895)" fill="#E0E0E0"/>
<rect x="519.074" y="365.337" width="58.4432" height="15.6235" rx="3.09701" fill="#30235B"/>
<rect x="601.689" y="261.91" width="67.8967" height="10.3543" transform="rotate(-139.766 601.689 261.91)" fill="#E0E0E0"/>
<rect x="550.961" y="213.544" width="20.0325" height="3.56661" transform="rotate(162.128 550.961 213.544)" fill="#E0E0E0"/>
<circle cx="604.007" cy="257.74" r="7.23339" fill="#30235B"/>
<path d="M546.436 208.317L556.57 210.199L549.874 218.034L546.436 208.317Z" fill="#30235B"/>
<path d="M514.875 204.94C517.209 199.077 523.855 196.217 529.718 198.551C535.581 200.885 538.442 207.53 536.107 213.393L529.653 229.605L508.421 221.152L514.875 204.94Z" fill="#30235B"/>
<path d="M521.607 221.482C498.043 212.229 482.366 232.956 476.831 243.933C493.191 267.259 523.162 269.655 536.744 268.48C541.516 256.669 545.171 230.734 521.607 221.482Z" fill="#30235B"/>
<path d="M45.2326 309.332C30.0706 318.612 25.2996 310.149 24.8093 304.757C24.8093 296.915 24.8093 290.379 14.5162 278.779C-10.3182 251.33 -2.47578 207.543 31.835 204.766C66.1458 201.988 56.1793 223.718 44.0889 237.769C32.0223 251.793 39.6472 256.052 57.7058 266.138L57.8132 266.198C81.3406 280.413 61.7344 293.157 50.1341 295.444C38.5338 297.732 48.5003 304.757 45.2326 309.332Z" fill="url(#paint6_linear)"/>
<path d="M195.33 157.374C189.958 156.246 179.3 149.199 180.262 133.009" stroke="#30235B" stroke-width="0.949425"/>
<path d="M271.022 70.5478C268.097 66.2061 261.186 59.789 247.256 59.1309" stroke="#30235B" stroke-width="0.949425"/>
<path d="M79.623 348.389C80.9057 333.697 67.3268 330.16 59.0211 330.161C58.0225 330.161 57.1702 330.844 56.8807 331.8C56.4074 333.362 57.6052 334.937 59.2326 335.06C66.567 335.611 76.4569 338.731 74.6326 348.389C72.8622 357.762 64.7389 359.529 58.9878 359.131C57.4032 359.021 55.918 360.201 55.918 361.79C55.918 362.973 56.7548 364 57.9317 364.124C65.6905 364.938 78.3669 362.779 79.623 348.389Z" fill="url(#paint7_linear)"/>
<path d="M58.3206 324.985V377.863C58.3206 379.574 56.934 380.96 55.2236 380.96H13.4759C11.7655 380.96 10.3789 379.574 10.3789 377.863L10.3789 324.985C10.3789 323.274 11.7655 321.888 13.4759 321.888H55.2236C56.934 321.888 58.3206 323.274 58.3206 324.985Z" fill="url(#paint8_linear)"/>
<path d="M331.818 281.829L341.409 262.162" stroke="#30235B" stroke-width="0.949425"/>
<path d="M251.671 340.173C248.482 350.934 250.342 363.09 251.671 367.822L260.536 366.566C258.688 352.464 259.766 343.748 260.536 341.152L251.671 340.173Z" fill="#30235B"/>
<rect x="248.158" y="335.565" width="16.7668" height="4.34698" rx="2.17349" transform="rotate(6.01694 248.158 335.565)" fill="url(#paint9_linear)"/>
<rect opacity="0.5" x="322.875" y="1.06661" width="73.8938" height="57.2037" rx="2.54344" stroke="#F0F0F0" stroke-width="1.89885"/>
<path d="M370.613 27.6685C372.152 28.5574 372.152 30.7795 370.613 31.6683L351.34 42.7958C349.8 43.6846 347.876 42.5736 347.876 40.7959V18.5409C347.876 16.7633 349.8 15.6522 351.34 16.541L370.613 27.6685Z" fill="#9C1258"/>
<rect opacity="0.5" x="337.713" y="8.46094" width="42.583" height="39.2283" fill="white"/>
<rect opacity="0.5" x="46.9494" y="123.949" width="99.9827" height="77.5477" rx="3.7977" stroke="#F0F0F0" stroke-width="1.89885"/>
<path d="M108.328 162.723C109.537 162.723 110.695 163.203 111.55 164.058C112.404 164.912 112.884 166.071 112.884 167.279V180.945C112.884 182.153 112.404 183.312 111.55 184.166C110.695 185.02 109.537 185.5 108.328 185.5H85.5515C84.3433 185.5 83.1846 185.02 82.3303 184.166C81.476 183.312 80.9961 182.153 80.9961 180.945V167.279C80.9961 166.071 81.476 164.912 82.3303 164.058C83.1846 163.203 84.3433 162.723 85.5515 162.723V151.335C85.5515 148.314 86.7513 145.418 88.8871 143.282C91.0228 141.146 93.9195 139.946 96.94 139.946C99.9604 139.946 102.857 141.146 104.993 143.282C107.129 145.418 108.328 148.314 108.328 151.335V162.723ZM96.94 178.667C98.1481 178.667 99.3068 178.187 100.161 177.333C101.015 176.479 101.495 175.32 101.495 174.112C101.495 172.904 101.015 171.745 100.161 170.891C99.3068 170.036 98.1481 169.556 96.94 169.556C95.7318 169.556 94.5731 170.036 93.7188 170.891C92.8645 171.745 92.3846 172.904 92.3846 174.112C92.3846 175.32 92.8645 176.479 93.7188 177.333C94.5731 178.187 95.7318 178.667 96.94 178.667ZM103.773 162.723V151.335C103.773 149.523 103.053 147.785 101.772 146.503C100.49 145.222 98.7522 144.502 96.94 144.502C95.1277 144.502 93.3897 145.222 92.1082 146.503C90.8268 147.785 90.1069 149.523 90.1069 151.335V162.723H103.773Z" fill="#9C1258"/>
<rect opacity="0.5" x="66.8926" y="131.042" width="60.7536" height="58.4305" fill="white"/>
<rect opacity="0.5" x="436.998" y="67.0041" width="111.022" height="80.4669" rx="3.7977" stroke="#F7F7F7" stroke-width="1.89885"/>
<rect x="454.559" y="102.062" width="18.9885" height="26.5653" rx="2.58027" fill="#FF7979"/>
<rect x="483.014" y="85.8474" width="18.9885" height="42.7804" rx="2.58027" fill="#9EFFAE"/>
<rect x="511.471" y="92.7475" width="18.9885" height="35.8803" rx="2.58027" fill="#FFDEAD"/>
<rect opacity="0.5" x="442.762" y="79.4468" width="96.4972" height="58.4137" fill="white"/>
<defs>
<linearGradient id="paint0_linear" x1="234.501" y1="166.454" x2="222.101" y2="414.791" gradientUnits="userSpaceOnUse">
<stop stop-color="#9C1258"/>
<stop offset="1" stop-color="#18214D"/>
</linearGradient>
<linearGradient id="paint1_linear" x1="234.367" y1="99.2344" x2="232.15" y2="209.535" gradientUnits="userSpaceOnUse">
<stop stop-color="#FFEFE0"/>
<stop offset="1" stop-color="#FFBE99"/>
</linearGradient>
<linearGradient id="paint2_linear" x1="236.049" y1="87.8186" x2="236.049" y2="184.274" gradientUnits="userSpaceOnUse">
<stop stop-color="#FFEFE0"/>
<stop offset="1" stop-color="#FFBE99"/>
</linearGradient>
<linearGradient id="paint3_linear" x1="214.862" y1="288.526" x2="214.862" y2="372.392" gradientUnits="userSpaceOnUse">
<stop offset="0.0677966" stop-color="#FFEFE0"/>
<stop offset="1" stop-color="#FFBE99"/>
</linearGradient>
<linearGradient id="paint4_linear" x1="331.747" y1="165.436" x2="413.133" y2="260.684" gradientUnits="userSpaceOnUse">
<stop stop-color="#FFEFE0"/>
<stop offset="1" stop-color="#FFBE99"/>
</linearGradient>
<linearGradient id="paint5_linear" x1="434.451" y1="216.839" x2="388.806" y2="406.183" gradientUnits="userSpaceOnUse">
<stop offset="0.0171777" stop-color="white"/>
<stop offset="1" stop-color="#D7D7D7"/>
</linearGradient>
<linearGradient id="paint6_linear" x1="-23.4501" y1="321.279" x2="68.8627" y2="204.523" gradientUnits="userSpaceOnUse">
<stop stop-color="#ECECEC"/>
<stop offset="1" stop-color="#F5F5F5" stop-opacity="0"/>
</linearGradient>
<linearGradient id="paint7_linear" x1="87.754" y1="337.313" x2="55.918" y2="338.012" gradientUnits="userSpaceOnUse">
<stop stop-color="white"/>
<stop offset="1" stop-color="#CCCCCC"/>
</linearGradient>
<linearGradient id="paint8_linear" x1="34.3497" y1="304.055" x2="34.3497" y2="399.279" gradientUnits="userSpaceOnUse">
<stop stop-color="white"/>
<stop offset="1" stop-color="#CCCCCC"/>
</linearGradient>
<linearGradient id="paint9_linear" x1="256.223" y1="334.715" x2="256.111" y2="339.983" gradientUnits="userSpaceOnUse">
<stop stop-color="#7F67CE"/>
<stop offset="1" stop-color="#30235B"/>
</linearGradient>
</defs>
</svg>
