<svg width="277" height="588" viewBox="0 0 277 588" fill="none" xmlns="http://www.w3.org/2000/svg">
<path fill-rule="evenodd" clip-rule="evenodd" d="M127.306 138.578C150.101 168.897 135.55 211.234 142.007 248.613C150.159 295.798 186.128 340.82 170.036 385.92C152.961 433.774 108.024 474.397 58.0906 483.794C9.51824 492.936 -30.9706 450.1 -77.1324 432.439C-118.785 416.502 -165.72 415.261 -198.906 385.467C-236.656 351.575 -279.243 307.049 -272.852 256.722C-266.429 206.139 -207.53 182.955 -168.957 149.608C-140.867 125.324 -114.483 99.1879 -78.7886 88.9522C-44.4568 79.1071 -9.10011 85.4493 25.623 93.8102C62.531 102.697 104.493 108.234 127.306 138.578Z" fill="#FCC9A7" fill-opacity="0.32"/>
</svg>
