<svg width="30" height="30" viewBox="0 0 30 30" fill="none" xmlns="http://www.w3.org/2000/svg">
<path d="M21.6665 2.99999C22.0167 2.64979 22.4324 2.37201 22.89 2.18248C23.3475 1.99296 23.8379 1.89542 24.3332 1.89542C24.8284 1.89542 25.3188 1.99296 25.7764 2.18248C26.2339 2.37201 26.6496 2.64979 26.9998 2.99999C27.35 3.35018 27.6278 3.76592 27.8173 4.22346C28.0069 4.68101 28.1044 5.17141 28.1044 5.66665C28.1044 6.1619 28.0069 6.65229 27.8173 7.10984C27.6278 7.56739 27.35 7.98313 26.9998 8.33332L8.99984 26.3333L1.6665 28.3333L3.6665 21L21.6665 2.99999Z" stroke="#936DFF" stroke-width="2" stroke-linecap="round" stroke-linejoin="round"/>
</svg>
