<svg width="32" height="32" viewBox="0 0 32 32" fill="none" xmlns="http://www.w3.org/2000/svg">
<path d="M22.5128 6.81975H18.5887C17.6111 6.82621 16.683 6.39136 16.0635 5.63663L14.7713 3.85012C14.1622 3.08878 13.2341 2.65189 12.2579 2.66701H9.4838C4.50458 2.66701 2.66701 5.58931 2.66701 10.5584V15.9298C2.66081 16.5205 29.3279 16.5197 29.3296 15.9298V14.3681C29.3533 9.39895 27.5631 6.81975 22.5128 6.81975Z" fill="#9C1258"/>
<path fill-rule="evenodd" clip-rule="evenodd" d="M27.7765 8.72451C28.2031 9.22328 28.5328 9.79703 28.7486 10.4164C29.1734 11.6893 29.3701 13.027 29.3296 14.368V21.3721C29.3278 21.962 29.2843 22.5511 29.1991 23.1349C29.037 24.1652 28.6746 25.1539 28.1322 26.0454C27.8829 26.476 27.5801 26.8735 27.2312 27.2285C25.6514 28.6784 23.5536 29.4331 21.4102 29.3226H10.5745C8.42765 29.4323 6.32648 28.6779 4.74167 27.2285C4.39686 26.8728 4.09815 26.4753 3.85252 26.0454C3.31333 25.1546 2.95858 24.1649 2.80926 23.1349C2.71431 22.5521 2.66674 21.9625 2.66699 21.3721V14.368C2.66676 13.783 2.69842 13.1985 2.76184 12.617C2.77517 12.5149 2.79517 12.4146 2.81497 12.3153C2.84797 12.1497 2.88039 11.987 2.88039 11.8243C3.00073 11.1225 3.22027 10.4413 3.53243 9.80115C4.45714 7.82534 6.35399 6.81969 9.46008 6.81969H22.5009C24.2406 6.68514 25.9674 7.20887 27.3379 8.28676C27.4957 8.4206 27.6424 8.56699 27.7765 8.72451ZM9.29415 20.7213H22.7143H22.7381C23.0325 20.7341 23.3199 20.6287 23.5359 20.4287C23.752 20.2286 23.8788 19.9505 23.888 19.6565C23.9047 19.3981 23.8196 19.1434 23.6509 18.9467C23.4569 18.6823 23.1494 18.5245 22.821 18.5207H9.29415C8.68523 18.5207 8.19161 19.0134 8.19161 19.621C8.19161 20.2287 8.68523 20.7213 9.29415 20.7213Z" fill="#200E32"/>
</svg>
