<svg width="32" height="32" viewBox="0 0 32 32" fill="none" xmlns="http://www.w3.org/2000/svg">
<path d="M13.5373 7.40741C13.6052 7.54563 13.6501 7.69365 13.6702 7.84582L14.0414 13.3657L14.2257 16.1401C14.2276 16.4255 14.2724 16.7089 14.3585 16.9814C14.5811 17.5101 15.1165 17.8461 15.6991 17.8227L24.5754 17.2421C24.9598 17.2358 25.331 17.3795 25.6073 17.6417C25.8376 17.8603 25.9862 18.1461 26.0331 18.4536L26.0488 18.6403C25.6815 23.7266 21.9459 27.9689 16.8701 29.064C11.7944 30.1591 6.58948 27.8458 4.08127 23.3799C3.35818 22.0825 2.90653 20.6564 2.75283 19.1853C2.68863 18.7499 2.66036 18.31 2.6683 17.8701C2.66037 12.417 6.54362 7.70265 11.9794 6.56613C12.6337 6.46426 13.275 6.8106 13.5373 7.40741Z" fill="#200E32"/>
<path d="M17.1604 2.66772C23.2403 2.82239 28.3502 7.19434 29.3337 13.083L29.3243 13.1265L29.2975 13.1897L29.3013 13.3631C29.2873 13.5929 29.1986 13.814 29.0457 13.9926C28.8864 14.1786 28.6688 14.3053 28.4292 14.3545L28.2831 14.3746L18.042 15.0381C17.7014 15.0717 17.3622 14.9619 17.1089 14.7359C16.8978 14.5476 16.7628 14.2934 16.7247 14.0195L16.0373 3.79338C16.0253 3.7588 16.0253 3.72131 16.0373 3.68673C16.0467 3.40486 16.1708 3.13841 16.3818 2.94693C16.5929 2.75545 16.8733 2.65489 17.1604 2.66772Z" fill="#9C1258"/>
</svg>
