<svg width="1446" height="568" viewBox="0 0 1446 568" fill="none" xmlns="http://www.w3.org/2000/svg">
<g clip-path="url(#clip0)">
<rect width="1447" height="568" fill="#EEEEEE"/>
<g opacity="0.2">
<path fill-rule="evenodd" clip-rule="evenodd" d="M359.88 393.979C355.495 415.937 343.825 435.933 332.914 456.714C321.85 477.785 313.483 501.838 295.938 515.756C277.855 530.101 258.058 529.36 239 531.215C217.341 533.324 193.723 539.48 177.97 527.24C160.873 513.956 146.338 491.149 151.108 462.924C155.818 435.061 182.39 414.398 200.932 391.381C214.319 374.763 228.259 360.79 243.945 347.682C261.814 332.748 278.987 314.85 298.453 309.882C321.391 304.028 347.952 300.538 360.636 317.903C373.288 335.224 365.275 366.966 359.88 393.979Z" stroke="#999999" stroke-width="2"/>
<path fill-rule="evenodd" clip-rule="evenodd" d="M347.078 388.632C343.985 404.12 335.753 418.225 328.057 432.883C320.253 447.746 314.351 464.712 301.975 474.529C289.22 484.648 275.256 484.125 261.813 485.433C246.536 486.921 229.876 491.263 218.765 482.63C206.705 473.259 196.453 457.172 199.818 437.263C203.139 417.609 221.883 403.035 234.961 386.8C244.404 375.078 254.237 365.222 265.301 355.975C277.906 345.442 290.019 332.817 303.75 329.313C319.929 325.184 338.664 322.722 347.611 334.97C356.536 347.188 350.883 369.578 347.078 388.632Z" stroke="#999999" stroke-width="2"/>
<path fill-rule="evenodd" clip-rule="evenodd" d="M318.821 397.961C316.952 407.32 311.978 415.843 307.328 424.7C302.612 433.681 299.046 443.933 291.568 449.866C283.86 455.98 275.422 455.664 267.299 456.455C258.068 457.353 248.001 459.977 241.287 454.76C234 449.098 227.804 439.377 229.838 427.347C231.845 415.471 243.171 406.664 251.074 396.854C256.78 389.771 262.721 383.815 269.407 378.228C277.023 371.863 284.343 364.234 292.64 362.117C302.417 359.622 313.737 358.134 319.144 365.535C324.536 372.918 321.121 386.448 318.821 397.961Z" stroke="#999999" stroke-width="2"/>
<path fill-rule="evenodd" clip-rule="evenodd" d="M379.729 -129.133C408.021 -111.684 390.445 -52.2652 400.377 -15.292C409.66 19.2675 436.713 41.017 436.009 80.3882C435.22 124.474 427.041 177.496 396.261 214.608C365.539 251.65 321.292 245.833 282.953 264.93C246.449 283.113 212.471 321.164 176.538 324.055C138.222 327.139 104.165 310.251 81.9906 281.101C59.8608 252.01 57.6192 207.002 54.644 163.815C51.545 118.829 44.3941 72.3123 64.3657 25.2576C84.5117 -22.2081 121.632 -65.5738 161.941 -88.9853C199.455 -110.774 233.266 -87.9096 271.273 -94.916C307.838 -101.657 351.553 -146.511 379.729 -129.133Z" stroke="#999999" stroke-width="2"/>
<path fill-rule="evenodd" clip-rule="evenodd" d="M349.185 -78.6172C370.987 -65.1717 357.463 -19.4175 365.124 9.05855C372.286 35.6757 393.135 52.4326 392.603 82.7524C392.007 116.703 385.721 157.533 362.017 186.105C338.359 214.623 304.268 210.131 274.736 224.827C246.617 238.82 220.45 268.113 192.767 270.33C163.248 272.694 137.005 259.679 119.913 237.225C102.856 214.815 101.116 180.154 98.8123 146.894C96.4122 112.249 90.8901 76.4245 106.264 40.1929C121.772 3.64481 150.358 -29.7411 181.407 -47.7593C210.303 -64.5286 236.358 -46.9111 265.637 -52.2962C293.806 -57.4771 327.473 -92.0073 349.185 -78.6172Z" stroke="#999999" stroke-width="2"/>
<path fill-rule="evenodd" clip-rule="evenodd" d="M319.491 -29.3586C334.974 -19.8112 325.4 12.6274 330.855 32.8255C335.954 51.705 350.762 63.6001 350.402 85.101C349.999 109.176 345.56 138.128 328.752 158.375C311.975 178.585 287.774 175.38 266.821 185.784C246.87 195.691 228.313 216.45 208.665 218.006C187.713 219.665 169.078 210.421 156.933 194.487C144.812 178.585 143.558 154.005 141.903 130.417C140.179 105.848 136.239 80.4395 147.131 54.7549C158.117 28.8459 178.389 5.18696 200.417 -7.57263C220.918 -19.4478 239.423 -6.93946 260.203 -10.7414C280.194 -14.3992 304.071 -38.8666 319.491 -29.3586Z" stroke="#999999" stroke-width="2"/>
<path fill-rule="evenodd" clip-rule="evenodd" d="M289.795 19.8996C298.879 25.5026 293.221 44.6053 296.404 56.4876C299.378 67.5942 308.063 74.5796 307.829 87.2349C307.567 101.406 304.929 118.45 295.035 130.385C285.16 142.298 270.949 140.437 258.631 146.584C246.902 152.436 235.981 164.673 224.439 165.61C212.131 166.609 201.195 161.188 194.079 151.822C186.977 142.476 186.266 128.01 185.319 114.128C184.333 99.6693 182.046 84.7189 188.47 69.5899C194.951 54.3289 206.883 40.3823 219.834 32.8489C231.888 25.8376 242.743 33.1801 254.952 30.9203C266.698 28.7462 280.749 14.3198 289.795 19.8996Z" stroke="#999999" stroke-width="2"/>
<path fill-rule="evenodd" clip-rule="evenodd" d="M677.519 184.404C702.132 197.761 722.912 216.464 737.054 243.119C753.029 273.23 766.583 306.515 763.876 347.17C760.885 392.078 756.132 450.438 721.164 481.718C683.655 515.27 642.442 471.265 601.172 492.711C561.138 513.515 539.768 584.747 499.247 597.037C458.937 609.263 423.505 584.517 402.19 553.063C381.23 522.134 378.758 474.966 385.09 428.584C390.777 386.925 418.677 348.989 435.663 307.851C453.594 264.423 453.764 209.809 487.717 180.032C521.739 150.193 560.584 165.996 596.464 166.823C625.733 167.497 653.29 171.255 677.519 184.404Z" stroke="#999999" stroke-width="2"/>
<path fill-rule="evenodd" clip-rule="evenodd" d="M654.29 228.645C673.681 239.168 690.052 253.904 701.192 274.905C713.777 298.629 724.454 324.855 722.319 356.887C719.961 392.271 716.213 438.255 688.661 462.902C659.109 489.34 626.64 454.67 594.124 471.57C562.582 487.964 545.742 544.089 513.817 553.775C482.057 563.41 454.144 543.913 437.351 519.132C420.839 494.763 418.895 457.599 423.885 421.053C428.368 388.229 450.351 358.337 463.735 325.923C477.865 291.705 478.002 248.674 504.753 225.21C531.559 201.698 562.163 214.148 590.431 214.797C613.491 215.327 635.201 218.286 654.29 228.645Z" stroke="#999999" stroke-width="2"/>
<path fill-rule="evenodd" clip-rule="evenodd" d="M627.668 279.664C641.047 286.925 652.345 297.089 660.037 311.57C668.726 327.929 676.1 346.012 674.639 368.093C673.024 392.485 670.456 424.183 651.46 441.165C631.085 459.379 608.676 435.468 586.254 447.106C564.502 458.396 552.907 497.082 530.889 503.747C508.985 510.378 489.724 496.928 478.132 479.838C466.734 463.033 465.379 437.413 468.809 412.222C471.889 389.595 487.042 368.996 496.263 346.656C505.997 323.072 506.076 293.408 524.52 277.242C543.002 261.044 564.116 269.637 583.615 270.095C599.521 270.468 614.498 272.516 627.668 279.664Z" stroke="#999999" stroke-width="2"/>
<path fill-rule="evenodd" clip-rule="evenodd" d="M604.893 323.295C613.14 327.771 620.108 334.031 624.859 342.941C630.226 353.007 634.785 364.131 633.906 377.705C632.935 392.699 631.383 412.185 619.7 422.607C607.168 433.786 593.345 419.064 579.546 426.198C566.16 433.118 559.055 456.89 545.501 460.967C532.017 465.023 520.141 456.736 512.986 446.218C505.95 435.876 505.091 420.123 507.18 404.639C509.055 390.731 518.368 378.082 524.026 364.356C529.999 349.866 530.019 331.629 541.363 321.708C552.731 311.767 565.743 317.07 577.752 317.37C587.549 317.614 596.775 318.888 604.893 323.295Z" stroke="#999999" stroke-width="2"/>
</g>
<g opacity="0.2">
<path fill-rule="evenodd" clip-rule="evenodd" d="M1020.88 362.979C1016.49 384.937 1004.83 404.933 993.914 425.714C982.85 446.785 974.483 470.838 956.938 484.756C938.855 499.101 919.058 498.36 900 500.215C878.341 502.324 854.723 508.48 838.97 496.24C821.873 482.956 807.338 460.149 812.108 431.924C816.818 404.061 843.39 383.398 861.932 360.381C875.319 343.763 889.259 329.79 904.945 316.682C922.814 301.748 939.987 283.85 959.453 278.882C982.391 273.028 1008.95 269.538 1021.64 286.903C1034.29 304.224 1026.27 335.966 1020.88 362.979Z" stroke="#999999" stroke-width="2"/>
<path fill-rule="evenodd" clip-rule="evenodd" d="M1008.08 357.632C1004.98 373.12 996.753 387.225 989.057 401.883C981.253 416.746 975.351 433.712 962.975 443.529C950.22 453.648 936.256 453.125 922.813 454.433C907.536 455.921 890.876 460.263 879.765 451.63C867.705 442.259 857.453 426.172 860.818 406.263C864.139 386.609 882.883 372.035 895.961 355.8C905.404 344.078 915.237 334.222 926.301 324.975C938.906 314.442 951.019 301.817 964.75 298.313C980.929 294.184 999.664 291.722 1008.61 303.97C1017.54 316.188 1011.88 338.578 1008.08 357.632Z" stroke="#999999" stroke-width="2"/>
<path fill-rule="evenodd" clip-rule="evenodd" d="M979.821 366.961C977.952 376.32 972.978 384.843 968.328 393.7C963.612 402.681 960.046 412.933 952.568 418.866C944.86 424.98 936.422 424.664 928.299 425.455C919.068 426.353 909.001 428.977 902.287 423.76C895 418.098 888.804 408.377 890.838 396.347C892.845 384.471 904.171 375.664 912.074 365.854C917.78 358.771 923.721 352.815 930.407 347.228C938.023 340.863 945.343 333.234 953.64 331.117C963.417 328.622 974.737 327.134 980.144 334.535C985.536 341.918 982.121 355.448 979.821 366.961Z" stroke="#999999" stroke-width="2"/>
<path fill-rule="evenodd" clip-rule="evenodd" d="M1040.73 -160.133C1069.02 -142.684 1051.45 -83.2652 1061.38 -46.292C1070.66 -11.7325 1097.71 10.017 1097.01 49.3882C1096.22 93.4739 1088.04 146.496 1057.26 183.608C1026.54 220.65 982.292 214.833 943.953 233.93C907.449 252.113 873.471 290.164 837.538 293.055C799.222 296.139 765.165 279.251 742.991 250.101C720.861 221.01 718.619 176.002 715.644 132.815C712.545 87.829 705.394 41.3123 725.366 -5.74239C745.512 -53.2081 782.632 -96.5738 822.941 -119.985C860.455 -141.774 894.266 -118.91 932.273 -125.916C968.838 -132.657 1012.55 -177.511 1040.73 -160.133Z" stroke="#999999" stroke-width="2"/>
<path fill-rule="evenodd" clip-rule="evenodd" d="M1010.19 -109.617C1031.99 -96.1717 1018.46 -50.4175 1026.12 -21.9414C1033.29 4.67565 1054.13 21.4326 1053.6 51.7524C1053.01 85.7029 1046.72 126.533 1023.02 155.105C999.359 183.623 965.268 179.131 935.736 193.827C907.617 207.82 881.45 237.113 853.767 239.33C824.248 241.694 798.005 228.679 780.913 206.225C763.856 183.815 762.116 149.154 759.812 115.894C757.412 81.2492 751.89 45.4245 767.264 9.19287C782.772 -27.3552 811.358 -60.7411 842.407 -78.7593C871.303 -95.5286 897.358 -77.9111 926.637 -83.2962C954.806 -88.4771 988.473 -123.007 1010.19 -109.617Z" stroke="#999999" stroke-width="2"/>
<path fill-rule="evenodd" clip-rule="evenodd" d="M980.491 -60.3586C995.974 -50.8112 986.4 -18.3726 991.855 1.82548C996.954 20.705 1011.76 32.6001 1011.4 54.101C1011 78.1765 1006.56 107.128 989.752 127.375C972.975 147.585 948.774 144.38 927.821 154.784C907.87 164.691 889.313 185.45 869.665 187.006C848.713 188.665 830.078 179.421 817.933 163.487C805.812 147.585 804.558 123.005 802.903 99.4171C801.179 74.8477 797.239 49.4395 808.131 23.7549C819.117 -2.15405 839.389 -25.813 861.417 -38.5726C881.918 -50.4478 900.423 -37.9395 921.203 -41.7414C941.194 -45.3992 965.071 -69.8666 980.491 -60.3586Z" stroke="#999999" stroke-width="2"/>
<path fill-rule="evenodd" clip-rule="evenodd" d="M950.795 -11.1004C959.879 -5.49745 954.221 13.6053 957.404 25.4876C960.378 36.5942 969.063 43.5796 968.829 56.2349C968.567 70.4055 965.929 87.4502 956.035 99.3854C946.16 111.298 931.949 109.437 919.631 115.584C907.902 121.436 896.981 133.673 885.439 134.61C873.131 135.609 862.195 130.188 855.079 120.822C847.977 111.476 847.266 97.0096 846.319 83.1284C845.333 68.6693 843.046 53.7189 849.47 38.5899C855.951 23.3289 867.883 9.38225 880.834 1.84886C892.888 -5.16238 903.743 2.18008 915.952 -0.0797397C927.698 -2.25385 941.749 -16.6802 950.795 -11.1004Z" stroke="#999999" stroke-width="2"/>
<path fill-rule="evenodd" clip-rule="evenodd" d="M1338.52 153.404C1363.13 166.761 1383.91 185.464 1398.05 212.119C1414.03 242.23 1427.58 275.515 1424.88 316.17C1421.89 361.078 1417.13 419.438 1382.16 450.718C1344.66 484.27 1303.44 440.265 1262.17 461.711C1222.14 482.515 1200.77 553.747 1160.25 566.037C1119.94 578.263 1084.51 553.517 1063.19 522.063C1042.23 491.134 1039.76 443.966 1046.09 397.584C1051.78 355.925 1079.68 317.989 1096.66 276.851C1114.59 233.423 1114.76 178.809 1148.72 149.032C1182.74 119.193 1221.58 134.996 1257.46 135.823C1286.73 136.497 1314.29 140.255 1338.52 153.404Z" stroke="#999999" stroke-width="2"/>
<path fill-rule="evenodd" clip-rule="evenodd" d="M1315.29 197.645C1334.68 208.168 1351.05 222.904 1362.19 243.905C1374.78 267.629 1385.45 293.855 1383.32 325.887C1380.96 361.271 1377.21 407.255 1349.66 431.902C1320.11 458.34 1287.64 423.67 1255.12 440.57C1223.58 456.964 1206.74 513.089 1174.82 522.775C1143.06 532.41 1115.14 512.913 1098.35 488.132C1081.84 463.763 1079.89 426.599 1084.89 390.053C1089.37 357.229 1111.35 327.337 1124.74 294.923C1138.86 260.705 1139 217.674 1165.75 194.21C1192.56 170.698 1223.16 183.148 1251.43 183.797C1274.49 184.327 1296.2 187.286 1315.29 197.645Z" stroke="#999999" stroke-width="2"/>
<path fill-rule="evenodd" clip-rule="evenodd" d="M1288.67 248.664C1302.05 255.925 1313.34 266.089 1321.04 280.57C1329.73 296.929 1337.1 315.012 1335.64 337.093C1334.02 361.485 1331.46 393.183 1312.46 410.165C1292.08 428.379 1269.68 404.468 1247.25 416.106C1225.5 427.396 1213.91 466.082 1191.89 472.747C1169.99 479.378 1150.72 465.928 1139.13 448.838C1127.73 432.033 1126.38 406.413 1129.81 381.222C1132.89 358.595 1148.04 337.996 1157.26 315.656C1167 292.072 1167.08 262.408 1185.52 246.242C1204 230.044 1225.12 238.637 1244.62 239.095C1260.52 239.468 1275.5 241.516 1288.67 248.664Z" stroke="#999999" stroke-width="2"/>
<path fill-rule="evenodd" clip-rule="evenodd" d="M1265.89 292.295C1274.14 296.771 1281.11 303.031 1285.86 311.941C1291.23 322.007 1295.79 333.131 1294.91 346.705C1293.94 361.699 1292.38 381.185 1280.7 391.607C1268.17 402.786 1254.34 388.064 1240.55 395.198C1227.16 402.118 1220.06 425.89 1206.5 429.967C1193.02 434.023 1181.14 425.736 1173.99 415.218C1166.95 404.876 1166.09 389.123 1168.18 373.639C1170.06 359.731 1179.37 347.082 1185.03 333.356C1191 318.866 1191.02 300.629 1202.36 290.708C1213.73 280.767 1226.74 286.07 1238.75 286.37C1248.55 286.614 1257.78 287.888 1265.89 292.295Z" stroke="#999999" stroke-width="2"/>
</g>
</g>
<defs>
<clipPath id="clip0">
<rect width="1446" height="568" fill="white"/>
</clipPath>
</defs>
</svg>
