<svg width="487" height="591" viewBox="0 0 487 591" fill="none" xmlns="http://www.w3.org/2000/svg">
<g filter="url(#filter0_d)">
<rect x="103.163" y="9.16272" width="340.813" height="477.138" rx="12" fill="#0C9FB3"/>
</g>
<path d="M150.668 413.589V90.2423H380.291" stroke="white" stroke-width="2" stroke-dasharray="8.52 8.52"/>
<circle cx="150.242" cy="90.2423" r="7.24228" fill="white"/>
<circle cx="150.242" cy="396.122" r="7.24228" fill="white"/>
<circle cx="150.307" cy="324.705" r="4.24" fill="white"/>
<circle cx="150.307" cy="255.705" r="4.24" fill="white"/>
<circle cx="150.307" cy="186.705" r="4.24" fill="white"/>
<circle cx="150.307" cy="125.705" r="4.24" fill="white"/>
<rect x="120" y="44" width="308" height="138" rx="8" fill="white" fill-opacity="0.21"/>
<rect x="120" y="196" width="308" height="58" rx="8" fill="white" fill-opacity="0.21"/>
<rect x="120" y="272" width="308" height="58" rx="8" fill="white" fill-opacity="0.21"/>
<rect x="120" y="348" width="308" height="58" rx="8" fill="white" fill-opacity="0.21"/>
<g filter="url(#filter1_d)">
<rect x="35" y="350" width="175" height="177" rx="12" fill="#09566E"/>
</g>
<path d="M77.6016 349.124V25.7773H307.224" stroke="white" stroke-width="2" stroke-dasharray="8.52 8.52"/>
<circle cx="77.1756" cy="25.7773" r="7.24228" fill="white"/>
<circle cx="77.1757" cy="331.657" r="7.24228" fill="white"/>
<circle cx="77.24" cy="260.24" r="4.24" fill="white"/>
<circle cx="77.24" cy="191.24" r="4.24" fill="white"/>
<circle cx="77.24" cy="122.24" r="4.24" fill="white"/>
<circle cx="77.24" cy="61.24" r="4.24" fill="white"/>
<rect x="52" y="369" width="52.1429" height="54.8996" rx="3" fill="white" fill-opacity="0.26"/>
<rect x="110" y="369" width="52.1429" height="54.8996" rx="3" fill="white" fill-opacity="0.12"/>
<rect x="52" y="436.685" width="140" height="6.76844" fill="white"/>
<rect x="52" y="453.229" width="140" height="6.76844" fill="white" fill-opacity="0.78"/>
<rect x="52" y="469.775" width="140" height="6.76844" fill="white" fill-opacity="0.6"/>
<rect x="52" y="486.32" width="106.429" height="6.76844" fill="white" fill-opacity="0.44"/>
<defs>
<filter id="filter0_d" x="60.561" y="0.642395" width="426.016" height="562.341" filterUnits="userSpaceOnUse" color-interpolation-filters="sRGB">
<feFlood flood-opacity="0" result="BackgroundImageFix"/>
<feColorMatrix in="SourceAlpha" type="matrix" values="0 0 0 0 0 0 0 0 0 0 0 0 0 0 0 0 0 0 127 0"/>
<feOffset dy="34.0813"/>
<feGaussianBlur stdDeviation="21.3008"/>
<feColorMatrix type="matrix" values="0 0 0 0 0.133819 0 0 0 0 0.173145 0 0 0 0 0.257847 0 0 0 1 0"/>
<feBlend mode="normal" in2="BackgroundImageFix" result="effect1_dropShadow"/>
<feBlend mode="normal" in="SourceGraphic" in2="effect1_dropShadow" result="shape"/>
</filter>
<filter id="filter1_d" x="0.918701" y="345.74" width="243.163" height="245.163" filterUnits="userSpaceOnUse" color-interpolation-filters="sRGB">
<feFlood flood-opacity="0" result="BackgroundImageFix"/>
<feColorMatrix in="SourceAlpha" type="matrix" values="0 0 0 0 0 0 0 0 0 0 0 0 0 0 0 0 0 0 127 0"/>
<feOffset dy="29.8211"/>
<feGaussianBlur stdDeviation="17.0406"/>
<feColorMatrix type="matrix" values="0 0 0 0 0.158889 0 0 0 0 0.219245 0 0 0 0 0.374444 0 0 0 0.11 0"/>
<feBlend mode="normal" in2="BackgroundImageFix" result="effect1_dropShadow"/>
<feBlend mode="normal" in="SourceGraphic" in2="effect1_dropShadow" result="shape"/>
</filter>
</defs>
</svg>
