<svg width="375" height="812" viewBox="0 0 375 812" fill="none" xmlns="http://www.w3.org/2000/svg">
<g clip-path="url(#clip0)">
<rect width="375" height="812" fill="white"/>
<rect x="1" width="375" height="812" fill="#23304C"/>
<circle cx="287" cy="630" r="337.5" stroke="#293757" stroke-width="3"/>
<circle cx="286.661" cy="629.661" r="255.801" stroke="#293757" stroke-width="3"/>
<circle cx="286.661" cy="629.661" r="180.543" stroke="#293757" stroke-width="3"/>
<circle cx="287" cy="630" r="126.642" stroke="#293757" stroke-width="3"/>
<ellipse cx="320.204" cy="523.756" rx="13.56" ry="13.56" fill="#24314F"/>
<circle cx="25.2741" cy="616.642" r="13.56" fill="#273552"/>
<ellipse cx="24.9349" cy="616.303" rx="7.119" ry="7.11899" fill="#2E3D5E"/>
<ellipse cx="319.865" cy="523.417" rx="7.11902" ry="7.119" fill="#2E3D5E"/>
<ellipse cx="171.383" cy="412.225" rx="7.119" ry="7.119" fill="#2E3D5E"/>
<ellipse cx="199.181" cy="806.821" rx="7.119" ry="7.119" fill="#2E3D5E"/>
<ellipse cx="84.599" cy="368.155" rx="7.119" ry="7.119" fill="#2E3D5E"/>
<circle cx="296.5" cy="649.5" r="125.5" fill="#283755"/>
<circle cx="296.5" cy="649.5" r="91.5412" fill="#2C3B5C"/>
<circle cx="295.762" cy="648.762" r="64.2265" fill="#37486C"/>
<rect x="-85" y="775.432" width="852.278" height="317.781" transform="rotate(-18.5 -85 775.432)" fill="#086774"/>
<rect x="-70.4133" y="817.629" width="852.278" height="317.781" transform="rotate(-18.5 -70.4133 817.629)" fill="#075C68"/>
<rect x="-24.0415" y="857.221" width="852.278" height="317.781" transform="rotate(-18.5 -24.0415 857.221)" fill="#064851"/>
<path d="M333.623 185L333.623 508.346L104 508.346" stroke="white" stroke-width="2" stroke-dasharray="8.52 8.52"/>
<circle cx="334.049" cy="508.346" r="7.24228" transform="rotate(-180 334.049 508.346)" fill="white"/>
<circle cx="334.049" cy="202.467" r="7.24228" transform="rotate(-180 334.049 202.467)" fill="white"/>
<circle cx="333.984" cy="273.884" r="4.24" transform="rotate(-180 333.984 273.884)" fill="white"/>
<circle cx="333.984" cy="342.884" r="4.24" transform="rotate(-180 333.984 342.884)" fill="white"/>
<circle cx="333.984" cy="411.884" r="4.24" transform="rotate(-180 333.984 411.884)" fill="white"/>
<circle cx="333.984" cy="472.884" r="4.24" transform="rotate(-180 333.984 472.884)" fill="white"/>
<path d="M351 151C351 167.569 337.569 181 321 181C304.431 181 291 167.569 291 151C291 134.431 304.431 121 321 121C337.569 121 351 134.431 351 151ZM296.465 151C296.465 164.55 307.45 175.535 321 175.535C334.55 175.535 345.535 164.55 345.535 151C345.535 137.45 334.55 126.465 321 126.465C307.45 126.465 296.465 137.45 296.465 151Z" fill="#0C9FB3"/>
<path d="M305.967 88.58V91H305.237V88.58L302.437 84H303.227L305.627 87.93L308.027 84H308.767L305.967 88.58ZM314.153 85.74V91H313.473V90.04C313.286 90.36 313.03 90.61 312.703 90.79C312.376 90.9633 312.003 91.05 311.583 91.05C310.896 91.05 310.353 90.86 309.953 90.48C309.56 90.0933 309.363 89.53 309.363 88.79V85.74H310.073V88.72C310.073 89.2733 310.21 89.6933 310.483 89.98C310.756 90.2667 311.146 90.41 311.653 90.41C312.206 90.41 312.643 90.2433 312.963 89.91C313.283 89.57 313.443 89.1 313.443 88.5V85.74H314.153ZM320.941 83.58V91H320.261V89.96C320.048 90.3133 319.765 90.5833 319.411 90.77C319.065 90.9567 318.671 91.05 318.231 91.05C317.738 91.05 317.291 90.9367 316.891 90.71C316.491 90.4833 316.178 90.1667 315.951 89.76C315.725 89.3533 315.611 88.89 315.611 88.37C315.611 87.85 315.725 87.3867 315.951 86.98C316.178 86.5733 316.491 86.26 316.891 86.04C317.291 85.8133 317.738 85.7 318.231 85.7C318.658 85.7 319.041 85.79 319.381 85.97C319.728 86.1433 320.011 86.4 320.231 86.74V83.58H320.941ZM318.291 90.42C318.658 90.42 318.988 90.3367 319.281 90.17C319.581 89.9967 319.815 89.7533 319.981 89.44C320.155 89.1267 320.241 88.77 320.241 88.37C320.241 87.97 320.155 87.6133 319.981 87.3C319.815 86.9867 319.581 86.7467 319.281 86.58C318.988 86.4067 318.658 86.32 318.291 86.32C317.918 86.32 317.581 86.4067 317.281 86.58C316.988 86.7467 316.755 86.9867 316.581 87.3C316.415 87.6133 316.331 87.97 316.331 88.37C316.331 88.77 316.415 89.1267 316.581 89.44C316.755 89.7533 316.988 89.9967 317.281 90.17C317.581 90.3367 317.918 90.42 318.291 90.42ZM322.919 85.74H323.629V91H322.919V85.74ZM323.279 84.59C323.132 84.59 323.009 84.54 322.909 84.44C322.809 84.34 322.759 84.22 322.759 84.08C322.759 83.9467 322.809 83.83 322.909 83.73C323.009 83.63 323.132 83.58 323.279 83.58C323.425 83.58 323.549 83.63 323.649 83.73C323.749 83.8233 323.799 83.9367 323.799 84.07C323.799 84.2167 323.749 84.34 323.649 84.44C323.549 84.54 323.425 84.59 323.279 84.59ZM332.164 85.7C332.824 85.7 333.341 85.89 333.714 86.27C334.094 86.65 334.284 87.21 334.284 87.95V91H333.574V88.02C333.574 87.4733 333.441 87.0567 333.174 86.77C332.914 86.4833 332.544 86.34 332.064 86.34C331.518 86.34 331.088 86.51 330.774 86.85C330.461 87.1833 330.304 87.6467 330.304 88.24V91H329.594V88.02C329.594 87.4733 329.461 87.0567 329.194 86.77C328.934 86.4833 328.561 86.34 328.074 86.34C327.534 86.34 327.104 86.51 326.784 86.85C326.471 87.1833 326.314 87.6467 326.314 88.24V91H325.604V85.74H326.284V86.7C326.471 86.38 326.731 86.1333 327.064 85.96C327.398 85.7867 327.781 85.7 328.214 85.7C328.654 85.7 329.034 85.7933 329.354 85.98C329.681 86.1667 329.924 86.4433 330.084 86.81C330.278 86.4633 330.554 86.1933 330.914 86C331.281 85.8 331.698 85.7 332.164 85.7ZM340.532 85.74L337.902 91.63C337.689 92.1233 337.442 92.4733 337.162 92.68C336.882 92.8867 336.545 92.99 336.152 92.99C335.899 92.99 335.662 92.95 335.442 92.87C335.222 92.79 335.032 92.67 334.872 92.51L335.202 91.98C335.469 92.2467 335.789 92.38 336.162 92.38C336.402 92.38 336.605 92.3133 336.772 92.18C336.945 92.0467 337.105 91.82 337.252 91.5L337.482 90.99L335.132 85.74H335.872L337.852 90.21L339.832 85.74H340.532ZM341.788 83.53C341.941 83.53 342.068 83.5833 342.168 83.69C342.268 83.79 342.318 83.9167 342.318 84.07C342.318 84.15 342.304 84.2367 342.278 84.33C342.258 84.4167 342.228 84.52 342.188 84.64L341.758 86.02H341.278L341.628 84.58C341.514 84.5467 341.424 84.4867 341.358 84.4C341.291 84.3067 341.258 84.1967 341.258 84.07C341.258 83.91 341.308 83.78 341.408 83.68C341.508 83.58 341.634 83.53 341.788 83.53ZM345.081 91.05C344.654 91.05 344.244 90.99 343.851 90.87C343.464 90.7433 343.161 90.5867 342.941 90.4L343.261 89.84C343.481 90.0133 343.757 90.1567 344.091 90.27C344.424 90.3767 344.771 90.43 345.131 90.43C345.611 90.43 345.964 90.3567 346.191 90.21C346.424 90.0567 346.541 89.8433 346.541 89.57C346.541 89.3767 346.477 89.2267 346.351 89.12C346.224 89.0067 346.064 88.9233 345.871 88.87C345.677 88.81 345.421 88.7533 345.101 88.7C344.674 88.62 344.331 88.54 344.071 88.46C343.811 88.3733 343.587 88.23 343.401 88.03C343.221 87.83 343.131 87.5533 343.131 87.2C343.131 86.76 343.314 86.4 343.681 86.12C344.047 85.84 344.557 85.7 345.211 85.7C345.551 85.7 345.891 85.7467 346.231 85.84C346.571 85.9267 346.851 86.0433 347.071 86.19L346.761 86.76C346.327 86.46 345.811 86.31 345.211 86.31C344.757 86.31 344.414 86.39 344.181 86.55C343.954 86.71 343.841 86.92 343.841 87.18C343.841 87.38 343.904 87.54 344.031 87.66C344.164 87.78 344.327 87.87 344.521 87.93C344.714 87.9833 344.981 88.04 345.321 88.1C345.741 88.18 346.077 88.26 346.331 88.34C346.584 88.42 346.801 88.5567 346.981 88.75C347.161 88.9433 347.251 89.21 347.251 89.55C347.251 90.01 347.057 90.3767 346.671 90.65C346.291 90.9167 345.761 91.05 345.081 91.05Z" fill="#4B6397"/>
<path d="M315.633 105.048C315.078 105.048 314.577 104.925 314.129 104.68C313.686 104.435 313.337 104.096 313.081 103.664C312.83 103.227 312.705 102.739 312.705 102.2C312.705 101.661 312.83 101.176 313.081 100.744C313.337 100.307 313.689 99.9653 314.137 99.72C314.585 99.4747 315.086 99.352 315.641 99.352C316.057 99.352 316.441 99.4213 316.793 99.56C317.145 99.6987 317.444 99.9013 317.689 100.168L317.313 100.544C316.876 100.101 316.324 99.88 315.657 99.88C315.214 99.88 314.812 99.9813 314.449 100.184C314.086 100.387 313.801 100.664 313.593 101.016C313.39 101.368 313.289 101.763 313.289 102.2C313.289 102.637 313.39 103.032 313.593 103.384C313.801 103.736 314.086 104.013 314.449 104.216C314.812 104.419 315.214 104.52 315.657 104.52C316.329 104.52 316.881 104.296 317.313 103.848L317.689 104.224C317.444 104.491 317.142 104.696 316.785 104.84C316.433 104.979 316.049 105.048 315.633 105.048ZM318.831 99.064H319.399V105H318.831V99.064ZM322.452 100.76C323.001 100.76 323.422 100.899 323.716 101.176C324.009 101.448 324.156 101.853 324.156 102.392V105H323.612V104.344C323.484 104.563 323.294 104.733 323.044 104.856C322.798 104.979 322.505 105.04 322.164 105.04C321.694 105.04 321.321 104.928 321.044 104.704C320.766 104.48 320.628 104.184 320.628 103.816C320.628 103.459 320.756 103.171 321.012 102.952C321.273 102.733 321.686 102.624 322.252 102.624H323.588V102.368C323.588 102.005 323.486 101.731 323.284 101.544C323.081 101.352 322.785 101.256 322.396 101.256C322.129 101.256 321.873 101.301 321.628 101.392C321.382 101.477 321.172 101.597 320.996 101.752L320.74 101.328C320.953 101.147 321.209 101.008 321.508 100.912C321.806 100.811 322.121 100.76 322.452 100.76ZM322.252 104.592C322.572 104.592 322.846 104.52 323.076 104.376C323.305 104.227 323.476 104.013 323.588 103.736V103.048H322.268C321.548 103.048 321.188 103.299 321.188 103.8C321.188 104.045 321.281 104.24 321.468 104.384C321.654 104.523 321.916 104.592 322.252 104.592ZM326.242 101.616C326.376 101.333 326.573 101.12 326.834 100.976C327.101 100.832 327.429 100.76 327.818 100.76V101.312L327.682 101.304C327.24 101.304 326.893 101.44 326.642 101.712C326.392 101.984 326.266 102.365 326.266 102.856V105H325.698V100.792H326.242V101.616ZM328.847 100.792H329.415V105H328.847V100.792ZM329.135 99.872C329.017 99.872 328.919 99.832 328.839 99.752C328.759 99.672 328.719 99.576 328.719 99.464C328.719 99.3573 328.759 99.264 328.839 99.184C328.919 99.104 329.017 99.064 329.135 99.064C329.252 99.064 329.351 99.104 329.431 99.184C329.511 99.2587 329.551 99.3493 329.551 99.456C329.551 99.5733 329.511 99.672 329.431 99.752C329.351 99.832 329.252 99.872 329.135 99.872ZM333.211 104.744C333.104 104.84 332.971 104.915 332.811 104.968C332.656 105.016 332.494 105.04 332.323 105.04C331.928 105.04 331.624 104.933 331.411 104.72C331.198 104.507 331.091 104.205 331.091 103.816V101.272H330.339V100.792H331.091V99.872H331.659V100.792H332.939V101.272H331.659V103.784C331.659 104.035 331.72 104.227 331.843 104.36C331.971 104.488 332.152 104.552 332.387 104.552C332.504 104.552 332.616 104.533 332.723 104.496C332.835 104.459 332.931 104.405 333.011 104.336L333.211 104.744ZM337.703 100.792L335.599 105.504C335.428 105.899 335.231 106.179 335.007 106.344C334.783 106.509 334.514 106.592 334.199 106.592C333.996 106.592 333.807 106.56 333.631 106.496C333.455 106.432 333.303 106.336 333.175 106.208L333.439 105.784C333.652 105.997 333.908 106.104 334.207 106.104C334.399 106.104 334.562 106.051 334.695 105.944C334.834 105.837 334.962 105.656 335.079 105.4L335.263 104.992L333.383 100.792H333.975L335.559 104.368L337.143 100.792H337.703Z" fill="#4B6397"/>
</g>
<defs>
<clipPath id="clip0">
<rect width="375" height="812" fill="white"/>
</clipPath>
</defs>
</svg>
