<svg width="211" height="211" viewBox="0 0 211 211" fill="none" xmlns="http://www.w3.org/2000/svg">
<path d="M161.61 81.981C161.61 81.981 142.742 98.5429 164.467 134.008C183.762 165.504 140.394 179.157 121.705 175.501C97.4958 170.765 83.5958 140.166 65.082 149.861C46.5683 159.557 28.2273 115.622 55.1573 99.4548C88.6572 79.3438 67.1574 67.657 70.1662 52.9111C72.3257 42.3281 103.055 25.9657 119.625 44.6302C133.568 60.3362 140.405 54.7173 146.778 52.6206C155.969 49.5965 176.032 65.3262 161.61 81.981Z" fill="#9C1258" fill-opacity="0.1"/>
<path d="M108.186 100.644L102.005 126.001C101.775 126.941 101.733 127.918 101.881 128.874C102.029 129.831 102.364 130.749 102.867 131.576C103.37 132.403 104.03 133.123 104.812 133.694C105.593 134.266 106.479 134.678 107.419 134.907L138.164 142.402C138.954 151.082 146.137 151.724 148.971 152.021C148.999 152.022 149.027 152.015 149.05 151.999C149.073 151.983 149.09 151.96 149.099 151.934C149.108 151.907 149.107 151.878 149.098 151.852C149.088 151.826 149.071 151.803 149.047 151.788C147.012 150.548 146.404 147.147 146.269 144.378L148.551 144.935C149.492 145.164 150.468 145.206 151.424 145.058C152.381 144.91 153.299 144.575 154.126 144.072C154.953 143.57 155.673 142.909 156.245 142.128C156.816 141.346 157.228 140.46 157.457 139.52L163.639 114.163C163.868 113.223 163.91 112.247 163.762 111.29C163.614 110.334 163.28 109.415 162.777 108.588C162.274 107.761 161.613 107.041 160.832 106.47C160.051 105.898 159.165 105.486 158.224 105.257L117.092 95.2297C116.152 95.0002 115.176 94.9582 114.219 95.1061C113.263 95.254 112.345 95.589 111.517 96.0918C110.69 96.5947 109.97 97.2556 109.399 98.0367C108.827 98.8179 108.415 99.704 108.186 100.644Z" fill="#B0256C"/>
<path d="M159.185 113.154L141.994 108.962C141.88 108.935 141.766 109.004 141.739 109.117L140.857 112.735C140.829 112.848 140.898 112.962 141.012 112.99L158.203 117.181C158.317 117.209 158.431 117.139 158.458 117.026L159.34 113.409C159.368 113.295 159.299 113.181 159.185 113.154Z" fill="white"/>
<path d="M156.73 123.223L110.15 111.867C110.037 111.839 109.923 111.909 109.895 112.022L109.013 115.64C108.986 115.753 109.055 115.867 109.168 115.895L155.748 127.25C155.862 127.278 155.976 127.209 156.003 127.095L156.885 123.478C156.913 123.364 156.843 123.25 156.73 123.223Z" fill="#E762A5"/>
<path d="M154.276 133.292L107.696 121.936C107.583 121.909 107.468 121.978 107.441 122.091L106.559 125.709C106.531 125.822 106.601 125.936 106.714 125.964L153.294 137.32C153.407 137.347 153.521 137.278 153.549 137.165L154.431 133.547C154.458 133.434 154.389 133.32 154.276 133.292Z" fill="#E762A5"/>
<path d="M125.496 70.227L135.605 102.689C135.981 103.893 136.115 105.159 136.001 106.415C135.886 107.671 135.526 108.891 134.94 110.008C134.354 111.124 133.553 112.114 132.584 112.921C131.615 113.728 130.497 114.336 129.293 114.711L89.9333 126.967C89.6148 138.316 80.3285 139.737 76.6683 140.355C76.632 140.36 76.5951 140.352 76.5636 140.334C76.532 140.315 76.5075 140.287 76.494 140.252C76.4805 140.218 76.4788 140.181 76.4891 140.146C76.4994 140.111 76.5212 140.08 76.5509 140.058C79.0953 138.279 79.6074 133.809 79.5577 130.198L76.6353 131.108C75.4316 131.483 74.1657 131.617 72.9101 131.503C71.6544 131.389 70.4335 131.028 69.3172 130.442C68.2009 129.856 67.211 129.056 66.4041 128.087C65.5972 127.118 64.989 126 64.6144 124.796L54.5057 92.3333C54.1304 91.1296 53.9961 89.8636 54.1102 88.6079C54.2244 87.3522 54.5849 86.1312 55.1711 85.0149C55.7572 83.8985 56.5577 82.9085 57.5265 82.1016C58.4954 81.2947 59.6138 80.6865 60.8178 80.3119L113.475 63.9148C114.679 63.5396 115.945 63.4052 117.201 63.5194C118.456 63.6336 119.677 63.9941 120.794 64.5802C121.91 65.1664 122.9 65.9668 123.707 66.9357C124.514 67.9046 125.122 69.023 125.496 70.227Z" fill="#9C1258"/>
<path d="M88.3077 81.8535L60.1097 90.6229C59.9984 90.6575 59.9363 90.7758 59.9709 90.8871L61.4495 95.6416C61.4841 95.7528 61.6024 95.815 61.7137 95.7804L89.9117 87.011C90.023 86.9764 90.0851 86.8581 90.0505 86.7468L88.5719 81.9923C88.5373 81.881 88.419 81.8188 88.3077 81.8535Z" fill="white"/>
<path d="M123.892 84.8668L64.1385 103.475C64.0272 103.509 63.9651 103.628 63.9997 103.739L65.48 108.492C65.5146 108.603 65.6329 108.666 65.7442 108.631L125.498 90.0231C125.609 89.9885 125.671 89.8702 125.637 89.7589L124.157 85.0055C124.122 84.8943 124.004 84.8322 123.892 84.8668Z" fill="#F8C0DC"/>
<path d="M127.901 97.8237L68.1331 116.411C68.0219 116.446 67.9597 116.564 67.9943 116.675L69.4729 121.43C69.5075 121.541 69.6258 121.603 69.7371 121.569L129.505 102.981C129.616 102.947 129.678 102.828 129.644 102.717L128.165 97.9626C128.131 97.8513 128.012 97.7891 127.901 97.8237Z" fill="#F8C0DC"/>
</svg>
