<svg width="32" height="32" viewBox="0 0 32 32" fill="none" xmlns="http://www.w3.org/2000/svg">
<path d="M25.0783 12.028C24.4762 12.028 23.6788 12.0146 22.686 12.0146C20.2648 12.0146 18.2739 10.0106 18.2739 7.56663V3.27863C18.2739 2.94129 18.0046 2.66663 17.6706 2.66663H10.618C7.32673 2.66663 4.6665 5.36796 4.6665 8.67863V23.0453C4.6665 26.5186 7.45347 29.3333 10.8926 29.3333H21.3949C24.6743 29.3333 27.3332 26.6493 27.3332 23.336V12.628C27.3332 12.2893 27.0652 12.016 26.7298 12.0173C26.1661 12.0213 25.4902 12.028 25.0783 12.028Z" fill="#200E32"/>
<path d="M21.4453 3.42304C21.0466 3.00837 20.3506 3.2937 20.3506 3.86837V7.38437C20.3506 8.85904 21.5653 10.0724 23.0399 10.0724C23.9693 10.083 25.2599 10.0857 26.3559 10.083C26.9173 10.0817 27.2026 9.41104 26.8133 9.0057C25.4066 7.54304 22.8879 4.9217 21.4453 3.42304Z" fill="#9C1258"/>
<path fill-rule="evenodd" clip-rule="evenodd" d="M11.9651 15.1835H16.4785C17.0265 15.1835 17.4718 14.7395 17.4718 14.1915C17.4718 13.6435 17.0265 13.1981 16.4785 13.1981H11.9651C11.4171 13.1981 10.9731 13.6435 10.9731 14.1915C10.9731 14.7395 11.4171 15.1835 11.9651 15.1835ZM11.9652 21.8424H19.2239C19.7719 21.8424 20.2172 21.3984 20.2172 20.8504C20.2172 20.3024 19.7719 19.857 19.2239 19.857H11.9652C11.4172 19.857 10.9732 20.3024 10.9732 20.8504C10.9732 21.3984 11.4172 21.8424 11.9652 21.8424Z" fill="#9C1258"/>
</svg>
