<svg width="240" height="28" viewBox="0 0 240 28" fill="none" xmlns="http://www.w3.org/2000/svg">
<path d="M18.196 9.43198C18.196 10.704 17.896 11.904 17.296 13.032C16.696 14.16 15.736 15.084 14.416 15.804C13.096 16.5 11.404 16.848 9.34001 16.848H4.80401V27H0.700012V1.97998H9.34001C11.26 1.97998 12.88 2.31598 14.2 2.98798C15.544 3.63598 16.54 4.52398 17.188 5.65198C17.86 6.77998 18.196 8.03998 18.196 9.43198ZM9.34001 13.5C10.9 13.5 12.064 13.152 12.832 12.456C13.6 11.736 13.984 10.728 13.984 9.43198C13.984 6.69598 12.436 5.32798 9.34001 5.32798H4.80401V13.5H9.34001Z" fill="black"/>
<path d="M42.6062 27L36.8462 16.992H33.7142V27H29.6102V1.97998H38.2502C40.1702 1.97998 41.7902 2.31598 43.1102 2.98798C44.4542 3.65998 45.4502 4.55998 46.0982 5.68798C46.7702 6.81598 47.1062 8.07598 47.1062 9.46798C47.1062 11.1 46.6262 12.588 45.6662 13.932C44.7302 15.252 43.2782 16.152 41.3102 16.632L47.5022 27H42.6062ZM33.7142 13.716H38.2502C39.7862 13.716 40.9382 13.332 41.7062 12.564C42.4982 11.796 42.8942 10.764 42.8942 9.46798C42.8942 8.17198 42.5102 7.16398 41.7422 6.44398C40.9742 5.69998 39.8102 5.32798 38.2502 5.32798H33.7142V13.716Z" fill="black"/>
<path d="M63.9603 5.29198V12.636H72.6003V15.984H63.9603V23.652H73.6803V27H59.8563V1.94398H73.6803V5.29198H63.9603Z" fill="black"/>
<path d="M84.8672 14.436C84.8672 11.988 85.4312 9.79198 86.5592 7.84798C87.7112 5.90398 89.2592 4.39198 91.2032 3.31198C93.1712 2.20798 95.3192 1.65598 97.6472 1.65598C100.311 1.65598 102.675 2.31598 104.739 3.63598C106.827 4.93198 108.339 6.77998 109.275 9.17998H104.343C103.695 7.85998 102.795 6.87598 101.643 6.22798C100.491 5.57998 99.1592 5.25598 97.6472 5.25598C95.9912 5.25598 94.5152 5.62798 93.2192 6.37198C91.9232 7.11598 90.9032 8.18398 90.1592 9.57598C89.4392 10.968 89.0792 12.588 89.0792 14.436C89.0792 16.284 89.4392 17.904 90.1592 19.296C90.9032 20.688 91.9232 21.768 93.2192 22.536C94.5152 23.28 95.9912 23.652 97.6472 23.652C99.1592 23.652 100.491 23.328 101.643 22.68C102.795 22.032 103.695 21.048 104.343 19.728H109.275C108.339 22.128 106.827 23.976 104.739 25.272C102.675 26.568 100.311 27.216 97.6472 27.216C95.2952 27.216 93.1472 26.676 91.2032 25.596C89.2592 24.492 87.7112 22.968 86.5592 21.024C85.4312 19.08 84.8672 16.884 84.8672 14.436Z" fill="black"/>
<path d="M127.267 1.72798V27H121.111V1.72798H127.267Z" fill="black"/>
<path d="M148.372 27.252C146.524 27.252 144.868 26.952 143.404 26.352C141.94 25.752 140.764 24.864 139.876 23.688C139.012 22.512 138.556 21.096 138.508 19.44H145.06C145.156 20.376 145.48 21.096 146.032 21.6C146.584 22.08 147.304 22.32 148.192 22.32C149.104 22.32 149.824 22.116 150.352 21.708C150.88 21.276 151.144 20.688 151.144 19.944C151.144 19.32 150.928 18.804 150.496 18.396C150.088 17.988 149.572 17.652 148.948 17.388C148.348 17.124 147.484 16.824 146.356 16.488C144.724 15.984 143.392 15.48 142.36 14.976C141.328 14.472 140.44 13.728 139.696 12.744C138.952 11.76 138.58 10.476 138.58 8.89198C138.58 6.53998 139.432 4.70398 141.136 3.38398C142.84 2.03998 145.06 1.36798 147.796 1.36798C150.58 1.36798 152.824 2.03998 154.528 3.38398C156.232 4.70398 157.144 6.55198 157.264 8.92798H150.604C150.556 8.11198 150.256 7.47598 149.704 7.01998C149.152 6.53998 148.444 6.29998 147.58 6.29998C146.836 6.29998 146.236 6.50398 145.78 6.91198C145.324 7.29598 145.096 7.85998 145.096 8.60398C145.096 9.41998 145.48 10.056 146.248 10.512C147.016 10.968 148.216 11.46 149.848 11.988C151.48 12.54 152.8 13.068 153.808 13.572C154.84 14.076 155.728 14.808 156.472 15.768C157.216 16.728 157.588 17.964 157.588 19.476C157.588 20.916 157.216 22.224 156.472 23.4C155.752 24.576 154.696 25.512 153.304 26.208C151.912 26.904 150.268 27.252 148.372 27.252Z" fill="black"/>
<path d="M175.033 1.72798V27H168.877V1.72798H175.033Z" fill="black"/>
<path d="M239.86 27H233.704L223.408 11.412V27H217.252V1.72798H223.408L233.704 17.388V1.72798H239.86V27Z" fill="black"/>
<path d="M196 8.75C193.105 8.75 190.75 11.1055 190.75 14C190.75 16.8945 193.105 19.25 196 19.25C198.895 19.25 201.25 16.8945 201.25 14C201.25 11.1055 198.895 8.75 196 8.75ZM196 17.5C194.07 17.5 192.5 15.9303 192.5 14C192.5 12.0697 194.07 10.5 196 10.5C197.93 10.5 199.5 12.0697 199.5 14C199.5 15.9303 197.93 17.5 196 17.5Z" fill="#FF647C"/>
<path d="M209.125 13.125H206.456C206.033 8.0325 201.968 3.96725 196.875 3.54375V0.875C196.875 0.392 196.483 0 196 0C195.517 0 195.125 0.392 195.125 0.875V3.54375C190.032 3.96725 185.967 8.03425 185.544 13.125H182.875C182.392 13.125 182 13.517 182 14C182 14.483 182.392 14.875 182.875 14.875H185.544C185.967 19.9675 190.032 24.0328 195.125 24.4563V27.125C195.125 27.608 195.517 28 196 28C196.483 28 196.875 27.608 196.875 27.125V24.4563C201.968 24.0328 206.033 19.9675 206.456 14.875H209.125C209.608 14.875 210 14.4848 210 14C210 13.5187 209.608 13.125 209.125 13.125ZM196 22.75C191.175 22.75 187.25 18.8247 187.25 14C187.25 9.17525 191.175 5.25 196 5.25C200.825 5.25 204.75 9.17525 204.75 14C204.75 18.8247 200.825 22.75 196 22.75Z" fill="#FF647C"/>
<path d="M103 14C103 16.7614 100.761 19 98 19C95.2386 19 93 16.7614 93 14C93 11.2386 95.2386 9 98 9C100.761 9 103 11.2386 103 14Z" fill="#00C48C"/>
</svg>
