<svg width="112" height="99" viewBox="0 0 112 99" fill="none" xmlns="http://www.w3.org/2000/svg">
<path d="M28.2422 97.4609C28.5327 97.9307 29.1489 98.076 29.6186 97.7855L37.2734 93.0521C37.7431 92.7616 37.8884 92.1454 37.598 91.6756C37.3075 91.2059 36.6912 91.0606 36.2215 91.3511L29.4173 95.5585L25.2098 88.7543C24.9194 88.2846 24.3031 88.1393 23.8334 88.4297C23.3636 88.7202 23.2183 89.3365 23.5088 89.8062L28.2422 97.4609ZM65.4426 45.9861L66.4417 46.0297L65.4426 45.9861ZM49.9355 34.0277L50.8849 34.3416L49.9355 34.0277ZM85.4722 4.66733C85.4349 4.11631 84.958 3.69988 84.4069 3.73721L75.4275 4.34548C74.8765 4.38281 74.4601 4.85975 74.4974 5.41078C74.5347 5.9618 75.0117 6.37823 75.5627 6.3409L83.5444 5.80022L84.0851 13.7819C84.1224 14.333 84.5994 14.7494 85.1504 14.7121C85.7014 14.6747 86.1178 14.1978 86.0805 13.6468L85.4722 4.66733ZM30.066 97.1645C30.2267 96.4831 30.4583 95.692 30.757 94.8018L28.8609 94.1656C28.549 95.0952 28.2981 95.9477 28.1194 96.7055L30.066 97.1645ZM32.6005 90.0201C33.2192 88.5592 33.9244 86.9881 34.7009 85.3361L32.8909 84.4853C32.1053 86.1566 31.3892 87.7516 30.7589 89.2401L32.6005 90.0201ZM36.9512 80.7175C37.703 79.223 38.495 77.6912 39.3178 76.14L37.551 75.2028C36.7218 76.7661 35.9231 78.3107 35.1645 79.8187L36.9512 80.7175ZM41.7808 71.6053C42.6131 70.1076 43.4649 68.6084 44.3279 67.1232L42.5987 66.1183C41.7291 67.6147 40.871 69.1251 40.0326 70.6338L41.7808 71.6053ZM46.9636 62.691C47.8724 61.1986 48.7841 59.7384 49.6897 58.3275L48.0067 57.2471C47.0918 58.6723 46.1717 60.146 45.2554 61.6509L46.9636 62.691ZM52.5363 54.0311C53.5602 52.538 54.5617 51.1377 55.5267 49.8566L53.9291 48.6533C52.9434 49.962 51.9246 51.3868 50.8869 52.8999L52.5363 54.0311ZM58.7252 45.9085C60.1215 44.338 61.3305 43.2169 62.3008 42.5941L61.2205 40.911C60.0189 41.6823 58.6659 42.9651 57.2305 44.5797L58.7252 45.9085ZM64.3591 43.5045C64.4533 44.1209 64.4881 44.9245 64.4436 45.9424L66.4417 46.0297C66.4897 44.9316 66.4563 43.9892 66.3362 43.2025L64.3591 43.5045ZM64.4436 45.9424C64.4096 46.7209 64.3603 47.4571 64.2969 48.1524L66.2886 48.334C66.3551 47.6051 66.4064 46.8374 66.4417 46.0297L64.4436 45.9424ZM63.6181 52.4556C63.2005 54.1709 62.6649 55.4216 62.0795 56.2946L63.7406 57.4085C64.4956 56.2826 65.1073 54.7937 65.5613 52.9286L63.6181 52.4556ZM59.2517 58.0149C58.2786 57.9715 57.1261 57.4277 55.9202 56.3248L54.5704 57.8007C55.9622 59.0735 57.5423 59.9406 59.1625 60.0129L59.2517 58.0149ZM53.2936 53.0361C52.5902 51.8815 51.9549 50.5715 51.4287 49.1523L49.5534 49.8475C50.1219 51.3807 50.8121 52.8071 51.5857 54.0767L53.2936 53.0361ZM50.2828 44.9785C50.0268 43.5797 49.8873 42.1353 49.8902 40.6781L47.8902 40.6742C47.887 42.2609 48.0389 43.8273 48.3155 45.3386L50.2828 44.9785ZM50.3287 36.4094C50.4748 35.7144 50.6593 35.024 50.8849 34.3416L48.986 33.7138C48.7361 34.4694 48.5324 35.2322 48.3714 35.998L50.3287 36.4094ZM50.8849 34.3416C51.1071 33.6694 51.382 33.0027 51.7055 32.3416L49.909 31.4627C49.5489 32.1986 49.2388 32.9491 48.986 33.7138L50.8849 34.3416ZM54.0531 28.6269C54.9306 27.4903 55.9318 26.3791 57.0282 25.2947L55.6217 23.8728C54.4736 25.0084 53.411 26.1859 52.47 27.4047L54.0531 28.6269ZM60.3852 22.279C61.5396 21.3269 62.7472 20.4027 63.9833 19.5072L62.81 17.8875C61.546 18.8031 60.3046 19.753 59.1127 20.736L60.3852 22.279ZM67.7371 16.9182C69.0307 16.0643 70.3257 15.2429 71.5959 14.4547L70.5412 12.7553C69.2601 13.5504 67.9486 14.3822 66.6353 15.249L67.7371 16.9182ZM75.5172 12.0613C76.9189 11.2143 78.2502 10.412 79.4565 9.66143L78.3999 7.96333C77.2074 8.70535 75.8895 9.49954 74.4828 10.3496L75.5172 12.0613ZM83.3569 7.05503C84.1102 6.48729 84.7573 5.93152 85.2278 5.39262L83.7212 4.07722C83.3835 4.46403 82.8623 4.9234 82.1531 5.45785L83.3569 7.05503Z" fill="#EB5757"/>
</svg>
