<svg width="111" height="150" viewBox="0 0 111 150" fill="none" xmlns="http://www.w3.org/2000/svg">
<path d="M88.1332 4.5979C87.9014 4.44779 87.5918 4.514 87.4417 4.74578L84.9955 8.52283C84.8454 8.75461 84.9116 9.06419 85.1434 9.2143C85.3752 9.36441 85.6847 9.29821 85.8348 9.06643L88.0092 5.70905L91.3666 7.88345C91.5984 8.03356 91.908 7.96735 92.0581 7.73557C92.2082 7.50379 92.142 7.19421 91.9102 7.0441L88.1332 4.5979ZM20.4471 143.268C20.4116 143.542 20.6049 143.793 20.8787 143.828L25.3414 144.406C25.6153 144.442 25.866 144.248 25.9015 143.975C25.937 143.701 25.7437 143.45 25.4699 143.415L21.503 142.901L22.0169 138.934C22.0524 138.66 21.8592 138.409 21.5853 138.374C21.3114 138.338 21.0607 138.531 21.0252 138.805L20.4471 143.268ZM87.8614 5.01758C87.3724 5.12214 87.3724 5.12212 87.3724 5.12211C87.3724 5.12211 87.3724 5.1221 87.3724 5.12211C87.3724 5.12211 87.3724 5.12212 87.3724 5.12215C87.3724 5.12221 87.3725 5.12232 87.3725 5.12248C87.3726 5.1228 87.3727 5.12334 87.3728 5.12408C87.3732 5.12557 87.3736 5.12789 87.3743 5.13104C87.3756 5.13734 87.3777 5.14696 87.3804 5.15986C87.3858 5.18565 87.3938 5.22454 87.4043 5.27613C87.4253 5.37933 87.4562 5.53338 87.4951 5.73528C87.5731 6.13909 87.6834 6.73423 87.8126 7.49664L88.7985 7.32959C88.668 6.55922 88.5563 5.95659 88.477 5.54582C88.4374 5.34043 88.4059 5.183 88.3842 5.07653C88.3734 5.02329 88.365 4.9828 88.3592 4.95542C88.3564 4.94173 88.3542 4.93132 88.3527 4.92424C88.352 4.9207 88.3514 4.91799 88.351 4.91612C88.3508 4.91518 88.3506 4.91445 88.3505 4.91393C88.3505 4.91368 88.3504 4.91347 88.3504 4.91332C88.3504 4.91324 88.3504 4.91318 88.3503 4.91313C88.3503 4.9131 88.3503 4.91307 88.3503 4.91306C88.3503 4.91304 88.3503 4.91301 87.8614 5.01758ZM88.526 12.3804C88.7091 13.8499 88.8877 15.4999 89.0392 17.2904L90.0356 17.2061C89.883 15.4013 89.7029 13.7381 89.5183 12.2567L88.526 12.3804ZM89.3557 22.2139C89.425 23.8003 89.4649 25.4527 89.4641 27.1512L90.4641 27.1516C90.4649 25.4373 90.4246 23.7701 90.3548 22.1703L89.3557 22.2139ZM89.3433 32.0728C89.2629 33.692 89.1395 35.3337 88.9644 36.9826L89.9588 37.0882C90.136 35.4191 90.2608 33.7587 90.3421 32.1224L89.3433 32.0728ZM88.2898 41.8543C88.0107 43.4689 87.6739 45.0754 87.2716 46.6597L88.2409 46.9058C88.6501 45.2944 88.992 43.6624 89.2752 42.0246L88.2898 41.8543ZM85.8527 51.3519C85.3024 52.9001 84.6764 54.41 83.9667 55.8668L84.8656 56.3048C85.5931 54.8117 86.2332 53.2671 86.795 51.6868L85.8527 51.3519ZM81.5503 60.1044C80.65 61.4581 79.655 62.7418 78.5567 63.9403L79.294 64.6159C80.4294 63.3769 81.4559 62.0521 82.3829 60.6582L81.5503 60.1044ZM74.9818 67.2361C73.73 68.2053 72.3753 69.0843 70.9096 69.8596L71.3772 70.7436C72.8942 69.9412 74.2973 69.0309 75.594 68.0268L74.9818 67.2361ZM66.426 71.7766C64.9516 72.2724 63.3853 72.6792 61.7213 72.9875L61.9035 73.9708C63.612 73.6542 65.2241 73.2358 66.7447 72.7244L66.426 71.7766ZM56.8846 73.5806C56.075 73.6329 55.2456 73.6646 54.3961 73.675L54.4082 74.6749C55.2748 74.6643 56.1216 74.632 56.9491 74.5785L56.8846 73.5806ZM54.3961 73.675C53.5168 73.6856 52.6672 73.7116 51.8464 73.7524L51.8961 74.7512C52.7037 74.711 53.5407 74.6854 54.4082 74.6749L54.3961 73.675ZM46.9119 74.2225C45.107 74.4888 43.4777 74.8485 42.0085 75.2958L42.2998 76.2525C43.7152 75.8216 45.2953 75.4718 47.0579 75.2117L46.9119 74.2225ZM37.3907 77.2704C35.8096 78.1962 34.5197 79.2846 33.4766 80.5154L34.2395 81.162C35.2058 80.0218 36.4072 79.0051 37.896 78.1334L37.3907 77.2704ZM30.9299 84.9104C30.3542 86.4444 29.9882 88.0909 29.7744 89.822L30.7669 89.9446C30.9733 88.2734 31.3239 86.7066 31.8661 85.2618L30.9299 84.9104ZM29.5263 94.8201C29.5424 96.43 29.6327 98.0913 29.7631 99.7875L30.7602 99.7108C30.6308 98.0282 30.542 96.3905 30.5262 94.8101L29.5263 94.8201ZM30.2158 104.722C30.3792 106.345 30.5492 107.986 30.7002 109.638L31.6961 109.547C31.5445 107.889 31.3737 106.241 31.2108 104.621L30.2158 104.722ZM31.0657 114.546C31.1521 116.188 31.1941 117.827 31.1666 119.452L32.1664 119.469C32.1944 117.815 32.1516 116.153 32.0643 114.493L31.0657 114.546ZM30.8438 124.328C30.6456 125.95 30.3482 127.545 29.9252 129.103L30.8903 129.365C31.3274 127.755 31.6332 126.112 31.8364 124.449L30.8438 124.328ZM28.2535 133.65C27.5748 135.075 26.7528 136.456 25.7627 137.782L26.5641 138.381C27.5948 137 28.4504 135.562 29.1563 134.08L28.2535 133.65ZM22.5126 141.362C21.9262 141.899 21.302 142.424 20.6377 142.936L21.2482 143.728C21.9343 143.2 22.5802 142.656 23.1879 142.1L22.5126 141.362ZM88.405 4.17823C87.9414 3.87801 87.3222 4.01042 87.022 4.47398L82.1296 12.0281C81.8294 12.4916 81.9618 13.1108 82.4254 13.411C82.8889 13.7112 83.5081 13.5788 83.8083 13.1153L88.1571 6.40052L94.8719 10.7493C95.3354 11.0495 95.9546 10.9171 96.2548 10.4536C96.555 9.99001 96.4226 9.37085 95.9591 9.07062L88.405 4.17823ZM19.9512 143.204C19.8803 143.751 20.2668 144.253 20.8145 144.324L29.7399 145.48C30.2876 145.551 30.7891 145.165 30.8601 144.617C30.931 144.069 30.5445 143.568 29.9968 143.497L22.0631 142.469L23.0909 134.535C23.1619 133.988 22.7754 133.486 22.2277 133.415C21.6799 133.344 21.1784 133.731 21.1075 134.278L19.9512 143.204ZM87.8614 5.01758C86.8835 5.2267 86.8835 5.22667 86.8835 5.22664C86.8835 5.22663 86.8835 5.22661 86.8835 5.2266C86.8835 5.22657 86.8835 5.22657 86.8835 5.22657C86.8835 5.22658 86.8835 5.22664 86.8835 5.22675C86.8835 5.22698 86.8836 5.22742 86.8838 5.22806C86.884 5.22936 86.8845 5.23148 86.8851 5.23444C86.8864 5.24035 86.8883 5.24958 86.8909 5.26208C86.8961 5.28708 86.904 5.32516 86.9144 5.37594C86.9351 5.4775 86.9656 5.62986 87.0042 5.83001C87.0814 6.23034 87.1911 6.82173 87.3196 7.58016L89.2915 7.24607C89.1603 6.47171 89.0479 5.86534 88.968 5.45109C88.928 5.24396 88.8962 5.08483 88.8741 4.97673C88.8631 4.92267 88.8546 4.88137 88.8487 4.8532C88.8457 4.83912 88.8435 4.82831 88.8419 4.82084C88.8411 4.8171 88.8405 4.8142 88.84 4.81213C88.8398 4.8111 88.8396 4.81028 88.8395 4.80966C88.8395 4.80936 88.8394 4.8091 88.8394 4.8089C88.8393 4.8088 88.8393 4.80871 88.8393 4.80864C88.8393 4.8086 88.8393 4.80855 88.8393 4.80853C88.8393 4.80849 88.8393 4.80845 87.8614 5.01758ZM88.0298 12.4422C88.2122 13.9057 88.3901 15.5492 88.5409 17.3325L90.5338 17.164C90.3806 15.352 90.1998 13.6822 90.0144 12.1949L88.0298 12.4422ZM88.8562 22.2357C88.9252 23.8154 88.9649 25.4604 88.9641 27.1509L90.9641 27.1519C90.9649 25.4296 90.9245 23.755 90.8543 22.1485L88.8562 22.2357ZM88.8439 32.048C88.7639 33.6587 88.6412 35.291 88.4672 36.9298L90.456 37.1409C90.6343 35.4618 90.7598 33.7921 90.8414 32.1472L88.8439 32.048ZM87.7971 41.7691C87.52 43.3721 87.1859 44.966 86.787 46.5366L88.7255 47.0289C89.1381 45.4039 89.4827 43.7592 89.7679 42.1098L87.7971 41.7691ZM85.3816 51.1844C84.837 52.7167 84.2181 54.2092 83.5172 55.6478L85.3151 56.5238C86.0515 55.0125 86.6987 53.4506 87.2661 51.8542L85.3816 51.1844ZM81.1339 59.8275C80.247 61.1611 79.2678 62.4242 78.1881 63.6026L79.6627 64.9537C80.8166 63.6944 81.8589 62.3491 82.7993 60.9351L81.1339 59.8275ZM74.6757 66.8408C73.4464 67.7926 72.1159 68.6559 70.6758 69.4177L71.6109 71.1856C73.1536 70.3696 74.5809 69.4436 75.9001 68.4221L74.6757 66.8408ZM66.2666 71.3027C64.8154 71.7906 63.2719 72.1917 61.6302 72.4959L61.9947 74.4624C63.7253 74.1417 65.3603 73.7175 66.9041 73.1984L66.2666 71.3027ZM56.8523 73.0816C56.0517 73.1334 55.2311 73.1648 54.39 73.175L54.4143 75.1748C55.2893 75.1642 56.1449 75.1315 56.9813 75.0775L56.8523 73.0816ZM54.39 73.175C53.5048 73.1858 52.6489 73.2119 51.8216 73.253L51.9209 75.2505C52.7219 75.2107 53.5527 75.1853 54.4143 75.1748L54.39 73.175ZM46.8389 73.7278C45.0129 73.9972 43.359 74.362 41.8629 74.8175L42.4454 76.7308C43.8339 76.3081 45.3894 75.9634 47.1309 75.7064L46.8389 73.7278ZM37.138 76.839C35.5108 77.7918 34.1766 78.9161 33.0952 80.1922L34.621 81.4852C35.5488 80.3904 36.706 79.4096 38.1486 78.5649L37.138 76.839ZM30.4618 84.7347C29.8693 86.3134 29.4957 87.9996 29.2782 89.7608L31.2631 90.0059C31.4658 88.3647 31.8087 86.8377 32.3343 85.4375L30.4618 84.7347ZM29.0263 94.8251C29.0426 96.4497 29.1337 98.1229 29.2646 99.8258L31.2587 99.6725C31.1299 97.9966 31.0419 96.3708 31.0262 94.8051L29.0263 94.8251ZM29.7183 104.772C29.8819 106.397 30.0515 108.034 30.2023 109.683L32.194 109.501C32.0422 107.84 31.871 106.189 31.7083 104.571L29.7183 104.772ZM30.5664 114.572C30.6523 116.206 30.6939 117.832 30.6666 119.443L32.6664 119.477C32.6946 117.81 32.6514 116.135 32.5636 114.467L30.5664 114.572ZM30.3475 124.267C30.1518 125.869 29.8586 127.44 29.4427 128.972L31.3728 129.496C31.817 127.86 32.127 126.193 32.3327 124.51L30.3475 124.267ZM27.802 133.435C27.137 134.832 26.3318 136.184 25.3621 137.483L26.9648 138.68C28.0158 137.272 28.8882 135.806 29.6077 134.295L27.802 133.435ZM22.1749 140.994C21.5991 141.521 20.9858 142.037 20.3325 142.54L21.5534 144.124C22.2504 143.587 22.9072 143.035 23.5256 142.469L22.1749 140.994Z" fill="#1BB978"/>
</svg>
