<svg width="110" height="146" viewBox="0 0 110 146" fill="none" xmlns="http://www.w3.org/2000/svg">
<path d="M10.1232 0.445351C9.81685 -0.0141968 9.19599 -0.138409 8.73645 0.167916L1.24769 5.15976C0.788141 5.46608 0.663929 6.08695 0.970253 6.54649C1.27658 7.00604 1.89744 7.13025 2.35699 6.82393L9.01366 2.38673L13.4509 9.04341C13.7572 9.50295 14.378 9.62717 14.8376 9.32084C15.2971 9.01452 15.4213 8.39366 15.115 7.93411L10.1232 0.445351ZM109.76 138.181C110.119 137.761 110.07 137.13 109.65 136.771L102.815 130.916C102.395 130.557 101.764 130.606 101.405 131.025C101.046 131.445 101.094 132.076 101.514 132.435L107.59 137.639L102.386 143.715C102.027 144.135 102.076 144.766 102.495 145.125C102.915 145.485 103.546 145.436 103.905 145.016L109.76 138.181ZM8.31053 0.803824C8.14823 1.61504 7.99036 2.43895 7.83727 3.2749L9.80455 3.63518C9.9557 2.80983 10.1115 1.9966 10.2717 1.19618L8.31053 0.803824ZM6.99877 8.29837C6.75006 9.94369 6.5205 11.6266 6.31245 13.3426L8.29791 13.5833C8.50361 11.8867 8.73053 10.2232 8.9763 8.59729L6.99877 8.29837ZM5.77197 18.4035C5.61775 20.0705 5.4845 21.7632 5.37418 23.4777L7.37005 23.6061C7.47916 21.9104 7.61095 20.2364 7.76346 18.5877L5.77197 18.4035ZM5.11835 28.5618C5.05736 30.2427 5.01919 31.9406 5.0056 33.6522L7.00554 33.6681C7.01898 31.9757 7.05671 30.2967 7.11703 28.6343L5.11835 28.5618ZM5.03858 38.7446C5.07403 40.4311 5.13431 42.1276 5.22102 43.8312L7.21843 43.7296C7.13276 42.0463 7.07318 40.3696 7.03814 38.7026L5.03858 38.7446ZM5.55765 48.907C5.69586 50.5927 5.86116 52.2825 6.05508 53.9735L8.04205 53.7457C7.85066 52.0766 7.68746 50.4083 7.55096 48.7435L5.55765 48.907ZM6.72064 59.0238C6.97109 60.7016 7.25123 62.3779 7.56257 64.05L9.52878 63.6839C9.22195 62.036 8.94574 60.3833 8.69872 58.7285L6.72064 59.0238ZM8.58989 69.0431C8.96431 70.7009 9.37132 72.352 9.81243 73.9934L11.7439 73.4743C11.31 71.8597 10.9094 70.2349 10.5408 68.6025L8.58989 69.0431ZM11.2413 78.8914C11.7536 80.5156 12.3019 82.1275 12.8875 83.7242L14.7652 83.0355C14.1904 81.4685 13.6521 79.8856 13.1486 78.2897L11.2413 78.8914ZM14.762 88.4758C15.4267 90.0457 16.1307 91.5976 16.8754 93.1286L18.6739 92.2538C17.9449 90.755 17.2553 89.2348 16.6037 87.696L14.762 88.4758ZM19.2376 97.6634C20.0676 99.1534 20.9402 100.62 21.8569 102.059L23.5438 100.985C22.6487 99.5792 21.7962 98.1468 20.9847 96.6901L19.2376 97.6634ZM24.7389 106.292C25.7412 107.669 26.7889 109.017 27.8834 110.333L29.4211 109.055C28.3548 107.772 27.3336 106.458 26.3561 105.115L24.7389 106.292ZM31.2878 114.16C32.4597 115.391 33.6783 116.588 34.9453 117.748L36.2958 116.273C35.0631 115.144 33.8771 113.979 32.7364 112.781L31.2878 114.16ZM38.8451 121.076C40.1737 122.133 41.5494 123.152 42.9734 124.13L44.1061 122.482C42.7206 121.53 41.3823 120.539 40.0898 119.511L38.8451 121.076ZM47.2939 126.885C48.7436 127.741 50.2382 128.558 51.7788 129.334L52.6786 127.548C51.1776 126.792 49.7221 125.996 48.3109 125.163L47.2939 126.885ZM56.4206 131.487C57.9727 132.147 59.5674 132.768 61.2054 133.349L61.8733 131.464C60.2737 130.897 58.7174 130.29 57.2035 129.646L56.4206 131.487ZM66.0749 134.914C67.6775 135.379 69.3184 135.807 70.9983 136.197L71.4501 134.248C69.805 133.867 68.1993 133.448 66.632 132.994L66.0749 134.914ZM76.0176 137.224C77.6665 137.519 79.3504 137.778 81.07 138.001L81.3273 136.018C79.6386 135.799 77.9861 135.544 76.369 135.256L76.0176 137.224ZM86.113 138.542C87.7924 138.685 89.5038 138.795 91.2476 138.872L91.3353 136.874C89.6184 136.799 87.9345 136.69 86.2831 136.549L86.113 138.542ZM96.2953 138.997C97.9705 139.008 99.6741 138.988 101.406 138.938L101.348 136.939C99.6391 136.988 97.9591 137.008 96.3078 136.997L96.2953 138.997ZM106.48 138.708C107.339 138.655 108.205 138.595 109.077 138.527L108.923 136.533C108.061 136.6 107.205 136.659 106.357 136.711L106.48 138.708Z" fill="#F2994A"/>
</svg>
