<svg width="126" height="155" viewBox="0 0 126 155" fill="none" xmlns="http://www.w3.org/2000/svg">
<path d="M69.3989 2.0734C68.8871 1.86575 68.3039 2.11229 68.0963 2.62405L64.7124 10.9637C64.5048 11.4754 64.7513 12.0586 65.2631 12.2663C65.7748 12.4739 66.358 12.2274 66.5657 11.7157L69.5735 4.30264L76.9866 7.3105C77.4983 7.51815 78.0815 7.27162 78.2892 6.75986C78.4968 6.24809 78.2503 5.6649 77.7385 5.45725L69.3989 2.0734ZM53.905 79.1583L53.0729 79.7129L53.905 79.1583ZM83.9608 79.9212L83.0092 80.2283L83.9608 79.9212ZM53.1397 152.644C53.4951 153.066 54.1259 153.121 54.5486 152.765L61.437 146.973C61.8598 146.618 61.9143 145.987 61.5588 145.564C61.2034 145.142 60.5726 145.087 60.1499 145.442L54.0268 150.591L48.8782 144.468C48.5228 144.045 47.892 143.991 47.4693 144.346C47.0466 144.702 46.992 145.332 47.3475 145.755L53.1397 152.644ZM68.1018 3.38939C68.3791 4.04529 68.6446 4.76658 68.8978 5.54916L70.8007 4.93347C70.5326 4.10464 70.2472 3.32802 69.944 2.61067L68.1018 3.38939ZM70.0801 10.0567C70.3896 11.504 70.6675 13.0593 70.9138 14.7046L72.8918 14.4085C72.6403 12.7285 72.3552 11.132 72.0359 9.6385L70.0801 10.0567ZM71.5072 19.4088C71.6681 20.9436 71.8054 22.5304 71.9192 24.1576L73.9143 24.0182C73.7991 22.3697 73.6598 20.7597 73.4962 19.2002L71.5072 19.4088ZM72.1794 28.897C72.243 30.4611 72.2864 32.0496 72.3097 33.6532L74.3095 33.6242C74.2859 32.0037 74.2421 30.3978 74.1778 28.8158L72.1794 28.897ZM72.3201 38.4161C72.3042 40.0007 72.2693 41.5907 72.2154 43.1777L74.2142 43.2456C74.2687 41.6427 74.304 40.0366 74.32 38.436L72.3201 38.4161ZM71.9958 47.9312C71.9022 49.5305 71.7889 51.1174 71.6561 52.6828L73.649 52.8518C73.7833 51.2685 73.8978 49.6642 73.9924 48.0481L71.9958 47.9312ZM71.186 57.4213C71.0021 59.0303 70.7962 60.604 70.5685 62.1313L72.5467 62.4262C72.7779 60.8747 72.9867 59.2785 73.1731 57.6484L71.186 57.4213ZM69.7761 66.7935C69.4618 68.4225 69.1193 69.9733 68.749 71.4299L70.6873 71.9226C71.0684 70.4235 71.4192 68.8344 71.7398 67.1724L69.7761 66.7935ZM67.4115 75.9164C66.8381 77.5469 66.222 78.9634 65.5679 80.1365L67.3147 81.1105C68.0386 79.8121 68.6984 78.2855 69.2982 76.5799L67.4115 75.9164ZM62.8318 83.4006C61.7826 84.0691 60.6602 84.1531 59.3113 83.4176L58.3539 85.1735C60.3072 86.2386 62.2101 86.1681 63.9064 85.0874L62.8318 83.4006ZM56.1151 80.4986C55.6681 79.9414 55.2087 79.3113 54.7372 78.6037L53.0729 79.7129C53.5726 80.4626 54.0666 81.1412 54.5551 81.7501L56.1151 80.4986ZM54.7372 78.6037C54.2602 77.888 53.8123 77.1917 53.3925 76.5143L51.6925 77.5679C52.1245 78.2649 52.5843 78.9798 53.0729 79.7129L54.7372 78.6037ZM51.0187 72.3158C50.2053 70.7077 49.5846 69.2405 49.1344 67.9089L47.2398 68.5494C47.7252 69.9854 48.3853 71.5405 49.234 73.2185L51.0187 72.3158ZM48.194 63.3574C48.1201 61.55 48.526 60.2362 49.2088 59.3041L47.5953 58.1222C46.5862 59.4999 46.1078 61.2895 46.1956 63.4391L48.194 63.3574ZM52.7514 57.2723C54.0536 57.0204 55.5991 57.0296 57.3167 57.3095L57.6384 55.3355C55.7518 55.0281 53.9609 55.0012 52.3715 55.3088L52.7514 57.2723ZM61.8896 58.5655C63.3119 59.1015 64.7718 59.7786 66.2322 60.5891L67.2027 58.8403C65.662 57.9853 64.1137 57.2663 62.5948 56.694L61.8896 58.5655ZM70.2779 63.1894C71.5475 64.1234 72.7877 65.1549 73.9725 66.2771L75.3478 64.825C74.1016 63.6447 72.7978 62.5603 71.4631 61.5784L70.2779 63.1894ZM77.2469 69.8002C78.2514 71.0328 79.1819 72.341 80.0166 73.7188L81.7272 72.6824C80.8419 71.2213 79.8573 69.8375 78.7974 68.5368L77.2469 69.8002ZM82.1834 77.9853C82.487 78.7181 82.7631 79.466 83.0092 80.2283L84.9125 79.614C84.6495 78.7994 84.3548 78.001 84.031 77.2196L82.1834 77.9853ZM83.0092 80.2283C83.2462 80.9626 83.4309 81.723 83.5661 82.5081L85.5371 82.1687C85.3868 81.296 85.1802 80.4434 84.9125 79.614L83.0092 80.2283ZM83.8181 87.2531C83.741 88.7909 83.5263 90.3915 83.1908 92.0438L85.1508 92.4418C85.5031 90.7069 85.7327 89.0059 85.8156 87.3532L83.8181 87.2531ZM81.958 96.769C81.4815 98.2884 80.9262 99.8349 80.3048 101.4L82.1638 102.138C82.8008 100.533 83.3732 98.94 83.8664 97.3675L81.958 96.769ZM78.3554 105.929C77.6742 107.405 76.9478 108.889 76.1869 110.373L77.9667 111.285C78.7386 109.78 79.4772 108.271 80.1713 106.767L78.3554 105.929ZM73.8529 114.748C73.0532 116.194 72.231 117.633 71.3965 119.061L73.1231 120.07C73.9644 118.631 74.7946 117.177 75.6031 115.715L73.8529 114.748ZM68.8473 123.33C67.9753 124.763 67.1015 126.176 66.2368 127.562L67.9335 128.62C68.8011 127.23 69.679 125.811 70.556 124.369L68.8473 123.33ZM63.584 131.784C62.6669 133.237 61.774 134.65 60.9218 136.011L62.6169 137.073C63.4667 135.716 64.3573 134.306 65.2755 132.851L63.584 131.784ZM58.294 140.272C57.3614 141.818 56.5136 143.273 55.7819 144.617L57.5383 145.573C58.251 144.265 59.0826 142.837 60.0065 141.305L58.294 140.272ZM53.5816 149.251C53.2228 150.215 52.9779 151.114 52.9088 151.914L54.9013 152.086C54.9486 151.54 55.1278 150.83 55.4559 149.949L53.5816 149.251Z" fill="#5E1F60"/>
</svg>
