<svg width="288" height="308" viewBox="0 0 288 308" fill="none" xmlns="http://www.w3.org/2000/svg">
<g filter="url(#filter0_d)">
<path fill-rule="evenodd" clip-rule="evenodd" d="M122.622 275.433C101.771 276.691 81.0596 273.053 62.7778 262.947C40.4015 250.579 13.1943 237.062 7.93953 212.041C2.68402 187.016 21.8426 163.451 37.6634 143.362C50.661 126.858 69.0109 116.217 88.8488 109.305C105.885 103.368 123.744 109.7 141.604 107.145C168.866 103.246 197.799 74.8271 220.458 90.4794C242.072 105.41 228.223 140.699 228.206 166.968C228.193 187.444 231.236 209.023 220.372 226.379C210.095 242.795 189.567 247.655 172.257 256.342C156.016 264.492 140.761 274.338 122.622 275.433Z" fill="#F2994A"/>
</g>
<path d="M286.264 239.46H240.226V162.547H286.264V239.46Z" fill="#B2B2B2"/>
<path d="M240.408 239.46H194.37V162.547H240.408V239.46Z" fill="#D1D1D1"/>
<path d="M236.272 89.8164L230.728 116.366L248.046 118.596C248.046 118.596 249.547 91.0056 248.046 90.857C246.544 90.7232 236.272 89.8164 236.272 89.8164Z" fill="#A8754B"/>
<path d="M252.476 63.1482C252.476 63.1482 235.172 65.5861 232.065 91.9126C232.065 91.9126 237.58 97.8439 244.612 96.0154L252.476 63.1482Z" fill="#FFD686"/>
<path d="M259.983 62.2414C259.983 62.2414 276.84 60.5765 282.771 72.4539C288.717 84.3313 271.384 96.6992 277.331 123.918L239.959 121.941V97.9331C239.959 97.9331 233.151 88.003 242.798 77.3595C242.798 77.3595 243.378 61.186 259.983 62.2414Z" fill="#FFD686"/>
<path d="M204.386 127.768C204.386 127.768 192.271 123.278 189.016 135.037C185.76 146.78 172.262 223.56 172.262 223.56H183.084L189.447 193.041C189.447 193.041 198.425 183.037 201.175 161.794L238.933 157.29L204.386 127.768Z" fill="#B5845B"/>
<path d="M229.152 155.863C229.152 155.863 222.73 155.685 211.328 152.057C199.927 148.415 191.795 152.266 196.285 165.109C200.774 177.938 223.459 237.399 223.459 237.399L232.051 234.828L224.633 196.326C224.633 196.326 222.894 177.224 214.837 166.031C214.837 166.031 231.783 166.878 237.581 165.986C243.348 165.109 229.152 155.863 229.152 155.863Z" fill="#A8754B"/>
<path d="M277.33 123.918C277.33 123.918 291.036 141.147 274.551 158.063C274.551 158.063 266.063 167.949 228.647 166.403C228.647 166.403 218.835 133.283 197.965 124.379L241.163 118.596L277.33 123.918Z" fill="#0C2C40"/>
<path d="M259.061 18.2549C259.061 18.2549 254.601 0.104359 270.047 0.000302013C281.478 -0.0740246 284.882 13.5872 270.864 22.7293L259.061 18.2549Z" fill="#190D08"/>
<path d="M271.384 26.0294C271.384 26.0294 274.179 18.8941 266.211 15.2818C258.243 11.6696 255.701 20.2171 255.701 20.2171L271.384 26.0294Z" fill="#FD6C75"/>
<path d="M241.119 42.2626C241.119 42.2626 229.613 35.4543 242.055 21.7782C249.83 13.2306 263.446 13.7063 271.028 22.1795C278.609 30.6527 271.459 45.5924 271.459 45.5924L266.3 37.0151L261.781 30.3554L255.315 27.7689L250.246 28.1256L245.95 28.6756L242.486 30.1325L241.119 42.2626Z" fill="#27160C"/>
<path d="M250.516 47.7637L263.448 46.1028L266.065 66.4802L253.134 68.1411L250.516 47.7637Z" fill="#B5845B"/>
<path d="M264.799 52.1626C264.799 52.1626 263.402 59.5804 257.441 61.0818C255.583 61.5426 253.561 61.0074 252.431 59.4763C252.119 59.0601 251.896 58.5844 251.822 58.0493C251.539 55.9086 257.188 52.1626 257.188 52.1626H264.799Z" fill="#A8754B"/>
<path d="M255.687 57.4398L256.356 57.3507C263.773 56.3993 269.021 49.6058 268.069 42.188L267.311 36.3014C266.36 28.8836 259.566 23.6361 252.149 24.5875L251.48 24.6767C244.062 25.628 238.815 32.4215 239.766 39.8393L240.524 45.726C241.475 53.1438 248.269 58.3912 255.687 57.4398Z" fill="#B5845B"/>
<path d="M266.613 40.7165C266.613 40.7165 257.307 37.6839 257.545 27.2336C257.545 27.2336 256.95 19.4442 265.096 26.6539C273.242 33.8636 266.613 40.7165 266.613 40.7165Z" fill="#27160C"/>
<path d="M264.561 43.5706C264.888 46.068 267.163 47.837 269.675 47.5099C272.172 47.1829 273.941 44.9085 273.614 42.4112C273.287 39.9138 271.013 38.1448 268.501 38.4718C266.003 38.784 264.234 41.0733 264.561 43.5706Z" fill="#B5845B"/>
<path d="M261.573 35.4839L261.989 38.784C262.941 43.4368 264.903 42.0246 265.617 40.0178L261.573 35.4839Z" fill="#27160C"/>
<path d="M238.339 33.8042C238.339 33.8042 247.838 40.9247 261.766 30.3703C271.369 23.1012 256.846 20.4849 256.846 20.4849L243.304 23.2795L238.339 33.8042Z" fill="#27160C"/>
<path d="M266.048 66.4632C266.048 66.4632 257.916 80.9717 252.149 76.5121C245.92 71.6958 259.983 62.2415 259.983 62.2415L266.048 66.4632Z" fill="#B5845B"/>
<path d="M262.45 96.0154C262.45 96.0154 257.426 105.276 253.992 112.546L217.364 110.435C217.364 110.435 210.095 104.489 204.401 109.513L210.02 116.262L255.88 126.415C257.634 126.801 259.462 126.296 260.756 125.077C264.814 121.242 273.644 112.308 277.925 103.195L262.45 96.0154Z" fill="#B5845B"/>
<path d="M160.786 81.73H205.798C207.285 81.73 208.563 82.7706 208.861 84.2125L217.334 123.977C217.75 125.925 216.264 127.768 214.272 127.768H168.501C167 127.768 165.707 126.698 165.424 125.226L157.694 85.4612C157.337 83.5287 158.824 81.73 160.786 81.73Z" fill="#B2B2B2"/>
<path d="M158.2 81.73H203.212C204.698 81.73 205.977 82.7706 206.274 84.2125L214.747 123.977C215.164 125.925 213.677 127.768 211.685 127.768H165.915C164.413 127.768 163.12 126.698 162.838 125.226L155.108 85.4612C154.751 83.5287 156.223 81.73 158.2 81.73Z" fill="#D1D1D1"/>
<path d="M216.145 124.378H246.901C247.838 124.378 248.596 125.137 248.596 126.073C248.596 127.01 247.838 127.768 246.901 127.768H215.55L216.145 124.378Z" fill="#B2B2B2"/>
<path d="M186.072 103.716C186.072 106.421 183.872 108.621 181.167 108.621C178.461 108.621 176.261 106.421 176.261 103.716C176.261 101.01 178.461 98.8101 181.167 98.8101C183.872 98.8101 186.072 100.995 186.072 103.716Z" fill="white"/>
<path d="M277.925 66.6711C278.535 66.9387 298.707 76.8539 278.862 107.58C278.862 107.58 266.181 107.789 258.838 98.3491C258.823 98.3491 261.261 59.3574 277.925 66.6711Z" fill="#FFD686"/>
<path d="M234.385 233.148C234.117 232.345 233.24 232.048 232.645 232.568C231.486 233.594 229.405 234.857 226.342 234.545C223.146 234.233 221.957 232.345 221.496 230.992C221.259 230.279 220.575 229.922 219.965 230.219L200.611 239.941C199.436 240.536 198.515 241.636 198.069 243.004C197.638 244.297 198.5 245.679 199.719 245.65L233.151 244.728C234.474 244.698 235.47 243.405 235.366 241.904L234.816 234.53C234.801 234.411 234.786 234.293 234.741 234.174L234.385 233.148Z" fill="#FD6C75"/>
<path d="M185.582 220.423C185.522 219.576 184.764 219.056 184.065 219.412C182.683 220.096 180.349 220.765 177.465 219.665C174.477 218.52 173.808 216.395 173.719 214.968C173.675 214.224 173.11 213.689 172.441 213.823L151.213 218.149C149.92 218.416 148.745 219.234 147.943 220.438C147.185 221.568 147.66 223.129 148.835 223.411L181.345 231.275C182.623 231.587 183.932 230.606 184.214 229.119L185.611 221.865C185.641 221.746 185.641 221.627 185.641 221.494L185.582 220.423Z" fill="#FD6C75"/>
<path d="M36.998 161.2C37.9407 161.2 38.776 161.396 39.504 161.788C40.2413 162.171 40.8153 162.731 41.226 163.468C41.6367 164.205 41.842 165.083 41.842 166.1C41.842 167.117 41.6367 167.995 41.226 168.732C40.8153 169.469 40.2413 170.034 39.504 170.426C38.776 170.809 37.9407 171 36.998 171H32.952V161.2H36.998ZM36.998 168.746C37.7447 168.746 38.314 168.527 38.706 168.088C39.098 167.649 39.294 166.987 39.294 166.1C39.294 165.213 39.098 164.551 38.706 164.112C38.314 163.673 37.7447 163.454 36.998 163.454H35.388V168.746H36.998ZM47.277 171.196C46.5023 171.196 45.821 171.033 45.233 170.706C44.645 170.37 44.1876 169.917 43.861 169.348C43.5436 168.769 43.385 168.125 43.385 167.416C43.385 166.707 43.5436 166.067 43.861 165.498C44.1876 164.919 44.645 164.467 45.233 164.14C45.821 163.804 46.5023 163.636 47.277 163.636C48.0516 163.636 48.733 163.804 49.321 164.14C49.909 164.467 50.3616 164.919 50.679 165.498C51.0056 166.067 51.169 166.707 51.169 167.416C51.169 168.125 51.0056 168.769 50.679 169.348C50.3616 169.917 49.909 170.37 49.321 170.706C48.733 171.033 48.0516 171.196 47.277 171.196ZM47.277 169.096C47.7436 169.096 48.1123 168.947 48.383 168.648C48.6536 168.34 48.789 167.929 48.789 167.416C48.789 166.903 48.6536 166.497 48.383 166.198C48.1123 165.89 47.7436 165.736 47.277 165.736C46.8103 165.736 46.4416 165.89 46.171 166.198C45.9003 166.497 45.765 166.903 45.765 167.416C45.765 167.929 45.9003 168.34 46.171 168.648C46.4416 168.947 46.8103 169.096 47.277 169.096ZM59.9066 167.402C59.9066 167.626 59.8926 167.859 59.8646 168.102H55.0066C55.1093 168.494 55.2959 168.783 55.5666 168.97C55.8466 169.147 56.2106 169.236 56.6586 169.236C57.3493 169.236 57.9093 169.026 58.3386 168.606L59.6126 170.006C59.2766 170.389 58.8473 170.683 58.3246 170.888C57.8113 171.093 57.2279 171.196 56.5746 171.196C55.7813 171.196 55.0859 171.047 54.4886 170.748C53.8913 170.44 53.4293 170.006 53.1026 169.446C52.7853 168.886 52.6266 168.223 52.6266 167.458C52.6266 166.711 52.7806 166.049 53.0886 165.47C53.3966 164.891 53.8306 164.443 54.3906 164.126C54.9506 163.799 55.5993 163.636 56.3366 163.636C57.0553 163.636 57.6806 163.79 58.2126 164.098C58.7539 164.406 59.1693 164.845 59.4586 165.414C59.7573 165.983 59.9066 166.646 59.9066 167.402ZM56.3506 165.582C55.5853 165.582 55.1279 165.946 54.9786 166.674H57.5826C57.5266 165.946 57.1159 165.582 56.3506 165.582ZM64.555 171.196C63.8737 171.196 63.2344 171.098 62.637 170.902C62.049 170.697 61.5684 170.412 61.195 170.048L62.203 168.438C62.511 168.681 62.8797 168.881 63.309 169.04C63.7477 169.199 64.1724 169.278 64.583 169.278C64.8537 169.278 65.059 169.245 65.199 169.18C65.339 169.105 65.409 169.007 65.409 168.886C65.409 168.765 65.353 168.667 65.241 168.592C65.1384 168.517 64.9704 168.452 64.737 168.396L63.519 168.102C62.791 167.925 62.2637 167.663 61.937 167.318C61.6197 166.973 61.461 166.548 61.461 166.044C61.461 165.316 61.7364 164.733 62.287 164.294C62.847 163.855 63.6077 163.636 64.569 163.636C65.1944 163.636 65.7777 163.729 66.319 163.916C66.8697 164.103 67.3177 164.355 67.663 164.672L66.627 166.268C65.8897 165.801 65.199 165.568 64.555 165.568C64.303 165.568 64.1117 165.605 63.981 165.68C63.8597 165.745 63.799 165.834 63.799 165.946C63.799 166.049 63.8457 166.133 63.939 166.198C64.0417 166.263 64.2097 166.324 64.443 166.38L65.661 166.674C66.417 166.861 66.9584 167.127 67.285 167.472C67.6117 167.808 67.775 168.237 67.775 168.76C67.775 169.516 67.4904 170.113 66.921 170.552C66.3517 170.981 65.563 171.196 64.555 171.196ZM79.8466 163.832V170.244C79.8466 171.448 79.506 172.372 78.8246 173.016C78.1433 173.669 77.1633 173.996 75.8846 173.996C75.2593 173.996 74.6713 173.917 74.1206 173.758C73.5793 173.609 73.1313 173.389 72.7766 173.1L73.6726 171.336C73.9713 171.532 74.298 171.681 74.6526 171.784C75.0166 171.896 75.3666 171.952 75.7026 171.952C76.2813 171.952 76.734 171.798 77.0606 171.49C77.3873 171.191 77.5506 170.776 77.5506 170.244V169.74C77.3453 170.085 77.056 170.361 76.6826 170.566C76.3186 170.762 75.8986 170.86 75.4226 170.86C74.6946 170.86 74.116 170.631 73.6866 170.174C73.2573 169.707 73.0426 169.059 73.0426 168.228V163.832H75.3946V167.612C75.3946 167.985 75.474 168.265 75.6326 168.452C75.8006 168.639 76.0526 168.732 76.3886 168.732C77.1446 168.732 77.5226 168.303 77.5226 167.444V163.832H79.8466ZM85.5555 171.196C84.7808 171.196 84.0995 171.033 83.5115 170.706C82.9235 170.37 82.4661 169.917 82.1395 169.348C81.8221 168.769 81.6635 168.125 81.6635 167.416C81.6635 166.707 81.8221 166.067 82.1395 165.498C82.4661 164.919 82.9235 164.467 83.5115 164.14C84.0995 163.804 84.7808 163.636 85.5555 163.636C86.3301 163.636 87.0115 163.804 87.5995 164.14C88.1875 164.467 88.6401 164.919 88.9575 165.498C89.2841 166.067 89.4475 166.707 89.4475 167.416C89.4475 168.125 89.2841 168.769 88.9575 169.348C88.6401 169.917 88.1875 170.37 87.5995 170.706C87.0115 171.033 86.3301 171.196 85.5555 171.196ZM85.5555 169.096C86.0221 169.096 86.3908 168.947 86.6615 168.648C86.9321 168.34 87.0675 167.929 87.0675 167.416C87.0675 166.903 86.9321 166.497 86.6615 166.198C86.3908 165.89 86.0221 165.736 85.5555 165.736C85.0888 165.736 84.7201 165.89 84.4495 166.198C84.1788 166.497 84.0435 166.903 84.0435 167.416C84.0435 167.929 84.1788 168.34 84.4495 168.648C84.7201 168.947 85.0888 169.096 85.5555 169.096ZM94.5451 171.196C93.4718 171.196 92.6364 170.935 92.0391 170.412C91.4511 169.88 91.1571 169.147 91.1571 168.214V163.832H93.5091V167.878C93.5091 168.69 93.8544 169.096 94.5451 169.096C95.2358 169.096 95.5811 168.69 95.5811 167.878V163.832H97.9331V168.214C97.9331 169.147 97.6344 169.88 97.0371 170.412C96.4491 170.935 95.6184 171.196 94.5451 171.196ZM104.331 163.692C104.536 163.692 104.732 163.72 104.919 163.776V166.058C104.602 165.993 104.275 165.96 103.939 165.96C103.37 165.96 102.964 166.086 102.721 166.338C102.478 166.59 102.357 167.019 102.357 167.626V171H100.005V163.832H102.301V164.924C102.488 164.541 102.758 164.243 103.113 164.028C103.468 163.804 103.874 163.692 104.331 163.692ZM121.322 163.832L119.194 171H116.576L115.372 166.898L114.168 171H111.55L109.422 163.832H111.83L112.978 168.228L114.294 163.832H116.45L117.766 168.228L118.914 163.832H121.322ZM126.199 171.196C125.425 171.196 124.743 171.033 124.155 170.706C123.567 170.37 123.11 169.917 122.783 169.348C122.466 168.769 122.307 168.125 122.307 167.416C122.307 166.707 122.466 166.067 122.783 165.498C123.11 164.919 123.567 164.467 124.155 164.14C124.743 163.804 125.425 163.636 126.199 163.636C126.974 163.636 127.655 163.804 128.243 164.14C128.831 164.467 129.284 164.919 129.601 165.498C129.928 166.067 130.091 166.707 130.091 167.416C130.091 168.125 129.928 168.769 129.601 169.348C129.284 169.917 128.831 170.37 128.243 170.706C127.655 171.033 126.974 171.196 126.199 171.196ZM126.199 169.096C126.666 169.096 127.035 168.947 127.305 168.648C127.576 168.34 127.711 167.929 127.711 167.416C127.711 166.903 127.576 166.497 127.305 166.198C127.035 165.89 126.666 165.736 126.199 165.736C125.733 165.736 125.364 165.89 125.093 166.198C124.823 166.497 124.687 166.903 124.687 167.416C124.687 167.929 124.823 168.34 125.093 168.648C125.364 168.947 125.733 169.096 126.199 169.096ZM136.239 163.692C136.444 163.692 136.64 163.72 136.827 163.776V166.058C136.51 165.993 136.183 165.96 135.847 165.96C135.278 165.96 134.872 166.086 134.629 166.338C134.386 166.59 134.265 167.019 134.265 167.626V171H131.913V163.832H134.209V164.924C134.396 164.541 134.666 164.243 135.021 164.028C135.376 163.804 135.782 163.692 136.239 163.692ZM141.373 168.27H140.827V171H138.475V160.752H140.827V166.226H141.415L143.123 163.832H145.895L143.361 167.234L145.951 171H143.179L141.373 168.27ZM146.094 165.974H150.294V167.99H146.094V165.974ZM152.091 160.752H154.443V171H152.091V160.752ZM157.819 162.978C157.39 162.978 157.045 162.857 156.783 162.614C156.522 162.362 156.391 162.031 156.391 161.62C156.391 161.209 156.522 160.883 156.783 160.64C157.045 160.388 157.39 160.262 157.819 160.262C158.249 160.262 158.594 160.388 158.855 160.64C159.117 160.883 159.247 161.209 159.247 161.62C159.247 162.031 159.117 162.362 158.855 162.614C158.594 162.857 158.249 162.978 157.819 162.978ZM156.643 163.832H158.995V171H156.643V163.832ZM161.923 165.904H160.663V163.832H161.923V163.09C161.923 161.447 162.866 160.626 164.751 160.626C165.171 160.626 165.591 160.668 166.011 160.752V162.74C165.713 162.693 165.465 162.67 165.269 162.67C164.915 162.67 164.658 162.731 164.499 162.852C164.35 162.964 164.275 163.137 164.275 163.37V163.832H166.011V165.904H164.275V171H161.923V165.904ZM174.359 167.402C174.359 167.626 174.345 167.859 174.317 168.102H169.459C169.561 168.494 169.748 168.783 170.019 168.97C170.299 169.147 170.663 169.236 171.111 169.236C171.801 169.236 172.361 169.026 172.791 168.606L174.065 170.006C173.729 170.389 173.299 170.683 172.777 170.888C172.263 171.093 171.68 171.196 171.027 171.196C170.233 171.196 169.538 171.047 168.941 170.748C168.343 170.44 167.881 170.006 167.555 169.446C167.237 168.886 167.079 168.223 167.079 167.458C167.079 166.711 167.233 166.049 167.541 165.47C167.849 164.891 168.283 164.443 168.843 164.126C169.403 163.799 170.051 163.636 170.789 163.636C171.507 163.636 172.133 163.79 172.665 164.098C173.206 164.406 173.621 164.845 173.911 165.414C174.209 165.983 174.359 166.646 174.359 167.402ZM170.803 165.582C170.037 165.582 169.58 165.946 169.431 166.674H172.035C171.979 165.946 171.568 165.582 170.803 165.582ZM35.668 191.196C34.9867 191.196 34.3473 191.098 33.75 190.902C33.162 190.697 32.6813 190.412 32.308 190.048L33.316 188.438C33.624 188.681 33.9927 188.881 34.422 189.04C34.8607 189.199 35.2853 189.278 35.696 189.278C35.9667 189.278 36.172 189.245 36.312 189.18C36.452 189.105 36.522 189.007 36.522 188.886C36.522 188.765 36.466 188.667 36.354 188.592C36.2513 188.517 36.0833 188.452 35.85 188.396L34.632 188.102C33.904 187.925 33.3767 187.663 33.05 187.318C32.7327 186.973 32.574 186.548 32.574 186.044C32.574 185.316 32.8493 184.733 33.4 184.294C33.96 183.855 34.7207 183.636 35.682 183.636C36.3073 183.636 36.8907 183.729 37.432 183.916C37.9827 184.103 38.4307 184.355 38.776 184.672L37.74 186.268C37.0027 185.801 36.312 185.568 35.668 185.568C35.416 185.568 35.2247 185.605 35.094 185.68C34.9727 185.745 34.912 185.834 34.912 185.946C34.912 186.049 34.9587 186.133 35.052 186.198C35.1547 186.263 35.3227 186.324 35.556 186.38L36.774 186.674C37.53 186.861 38.0713 187.127 38.398 187.472C38.7247 187.808 38.888 188.237 38.888 188.76C38.888 189.516 38.6033 190.113 38.034 190.552C37.4647 190.981 36.676 191.196 35.668 191.196ZM47.9534 183.832V191H45.6574V190.034C45.4521 190.407 45.1534 190.697 44.7614 190.902C44.3694 191.098 43.9308 191.196 43.4454 191.196C42.8388 191.196 42.2928 191.037 41.8074 190.72C41.3314 190.403 40.9581 189.959 40.6874 189.39C40.4168 188.811 40.2814 188.153 40.2814 187.416C40.2814 186.679 40.4168 186.025 40.6874 185.456C40.9581 184.877 41.3314 184.429 41.8074 184.112C42.2928 183.795 42.8388 183.636 43.4454 183.636C43.9308 183.636 44.3694 183.739 44.7614 183.944C45.1534 184.14 45.4521 184.425 45.6574 184.798V183.832H47.9534ZM44.1734 189.096C44.6401 189.096 45.0088 188.947 45.2794 188.648C45.5501 188.34 45.6854 187.929 45.6854 187.416C45.6854 186.903 45.5501 186.497 45.2794 186.198C45.0088 185.89 44.6401 185.736 44.1734 185.736C43.7068 185.736 43.3381 185.89 43.0674 186.198C42.7968 186.497 42.6614 186.903 42.6614 187.416C42.6614 187.929 42.7968 188.34 43.0674 188.648C43.3381 188.947 43.7068 189.096 44.1734 189.096ZM54.6412 183.636C55.2478 183.636 55.7892 183.795 56.2652 184.112C56.7505 184.429 57.1285 184.877 57.3992 185.456C57.6698 186.025 57.8052 186.679 57.8052 187.416C57.8052 188.153 57.6698 188.811 57.3992 189.39C57.1285 189.959 56.7505 190.403 56.2652 190.72C55.7892 191.037 55.2478 191.196 54.6412 191.196C54.1838 191.196 53.7638 191.103 53.3812 190.916C52.9985 190.729 52.6998 190.463 52.4852 190.118V193.8H50.1332V183.832H52.4292V184.798C52.6345 184.425 52.9332 184.14 53.3252 183.944C53.7172 183.739 54.1558 183.636 54.6412 183.636ZM53.9132 189.096C54.3798 189.096 54.7485 188.947 55.0192 188.648C55.2898 188.34 55.4252 187.929 55.4252 187.416C55.4252 186.903 55.2898 186.497 55.0192 186.198C54.7485 185.89 54.3798 185.736 53.9132 185.736C53.4465 185.736 53.0778 185.89 52.8072 186.198C52.5365 186.497 52.4012 186.903 52.4012 187.416C52.4012 187.929 52.5365 188.34 52.8072 188.648C53.0778 188.947 53.4465 189.096 53.9132 189.096ZM70.1731 187.402C70.1731 187.626 70.1591 187.859 70.1311 188.102H65.2731C65.3757 188.494 65.5624 188.783 65.8331 188.97C66.1131 189.147 66.4771 189.236 66.9251 189.236C67.6157 189.236 68.1757 189.026 68.6051 188.606L69.8791 190.006C69.5431 190.389 69.1137 190.683 68.5911 190.888C68.0777 191.093 67.4944 191.196 66.8411 191.196C66.0477 191.196 65.3524 191.047 64.7551 190.748C64.1577 190.44 63.6957 190.006 63.3691 189.446C63.0517 188.886 62.8931 188.223 62.8931 187.458C62.8931 186.711 63.0471 186.049 63.3551 185.47C63.6631 184.891 64.0971 184.443 64.6571 184.126C65.2171 183.799 65.8657 183.636 66.6031 183.636C67.3217 183.636 67.9471 183.79 68.4791 184.098C69.0204 184.406 69.4357 184.845 69.7251 185.414C70.0237 185.983 70.1731 186.646 70.1731 187.402ZM66.6171 185.582C65.8517 185.582 65.3944 185.946 65.2451 186.674H67.8491C67.7931 185.946 67.3824 185.582 66.6171 185.582ZM76.4595 183.636C77.2062 183.636 77.7942 183.869 78.2235 184.336C78.6622 184.793 78.8815 185.437 78.8815 186.268V191H76.5295V186.884C76.5295 186.511 76.4455 186.231 76.2775 186.044C76.1095 185.857 75.8482 185.764 75.4935 185.764C74.7095 185.764 74.3175 186.193 74.3175 187.052V191H71.9655V183.832H74.2615V184.798C74.4668 184.443 74.7562 184.163 75.1295 183.958C75.5122 183.743 75.9555 183.636 76.4595 183.636ZM87.9318 187.402C87.9318 187.626 87.9178 187.859 87.8898 188.102H83.0318C83.1344 188.494 83.3211 188.783 83.5918 188.97C83.8718 189.147 84.2358 189.236 84.6838 189.236C85.3744 189.236 85.9344 189.026 86.3638 188.606L87.6378 190.006C87.3018 190.389 86.8724 190.683 86.3498 190.888C85.8364 191.093 85.2531 191.196 84.5998 191.196C83.8064 191.196 83.1111 191.047 82.5138 190.748C81.9164 190.44 81.4544 190.006 81.1278 189.446C80.8104 188.886 80.6518 188.223 80.6518 187.458C80.6518 186.711 80.8058 186.049 81.1138 185.47C81.4218 184.891 81.8558 184.443 82.4158 184.126C82.9758 183.799 83.6244 183.636 84.3618 183.636C85.0804 183.636 85.7058 183.79 86.2378 184.098C86.7791 184.406 87.1944 184.845 87.4838 185.414C87.7824 185.983 87.9318 186.646 87.9318 187.402ZM84.3758 185.582C83.6104 185.582 83.1531 185.946 83.0038 186.674H85.6078C85.5518 185.946 85.1411 185.582 84.3758 185.582ZM94.0502 183.692C94.2555 183.692 94.4515 183.72 94.6382 183.776V186.058C94.3209 185.993 93.9942 185.96 93.6582 185.96C93.0889 185.96 92.6829 186.086 92.4402 186.338C92.1975 186.59 92.0762 187.019 92.0762 187.626V191H89.7242V183.832H92.0202V184.924C92.2069 184.541 92.4775 184.243 92.8322 184.028C93.1869 183.804 93.5929 183.692 94.0502 183.692ZM103.389 183.832V190.16C103.389 191.355 103.035 192.293 102.325 192.974C101.625 193.655 100.627 193.996 99.3294 193.996C98.6387 193.996 97.9901 193.898 97.3834 193.702C96.7767 193.506 96.2774 193.24 95.8854 192.904L96.8934 191.21C97.2481 191.453 97.6214 191.635 98.0134 191.756C98.4054 191.887 98.7881 191.952 99.1614 191.952C99.7681 191.952 100.244 191.789 100.589 191.462C100.935 191.145 101.107 190.711 101.107 190.16V189.67C100.911 190.043 100.617 190.337 100.225 190.552C99.8334 190.757 99.3807 190.86 98.8674 190.86C98.2607 190.86 97.7147 190.711 97.2294 190.412C96.7534 190.113 96.3801 189.693 96.1094 189.152C95.8387 188.611 95.7034 187.99 95.7034 187.29C95.7034 186.59 95.8387 185.965 96.1094 185.414C96.3894 184.854 96.7674 184.42 97.2434 184.112C97.7287 183.795 98.2747 183.636 98.8814 183.636C99.3667 183.636 99.8054 183.739 100.197 183.944C100.589 184.14 100.888 184.425 101.093 184.798V183.832H103.389ZM99.6094 188.816C100.076 188.816 100.445 188.671 100.715 188.382C100.986 188.093 101.121 187.719 101.121 187.262C101.121 186.805 100.986 186.431 100.715 186.142C100.445 185.853 100.076 185.708 99.6094 185.708C99.1427 185.708 98.7741 185.853 98.5034 186.142C98.2327 186.431 98.0974 186.805 98.0974 187.262C98.0974 187.719 98.2327 188.093 98.5034 188.382C98.7741 188.671 99.1427 188.816 99.6094 188.816ZM112.247 183.832V190.244C112.247 191.448 111.906 192.372 111.225 193.016C110.543 193.669 109.563 193.996 108.285 193.996C107.659 193.996 107.071 193.917 106.521 193.758C105.979 193.609 105.531 193.389 105.177 193.1L106.073 191.336C106.371 191.532 106.698 191.681 107.053 191.784C107.417 191.896 107.767 191.952 108.103 191.952C108.681 191.952 109.134 191.798 109.461 191.49C109.787 191.191 109.951 190.776 109.951 190.244V189.74C109.745 190.085 109.456 190.361 109.083 190.566C108.719 190.762 108.299 190.86 107.823 190.86C107.095 190.86 106.516 190.631 106.087 190.174C105.657 189.707 105.443 189.059 105.443 188.228V183.832H107.795V187.612C107.795 187.985 107.874 188.265 108.033 188.452C108.201 188.639 108.453 188.732 108.789 188.732C109.545 188.732 109.923 188.303 109.923 187.444V183.832H112.247ZM121.592 191.196C120.817 191.196 120.136 191.033 119.548 190.706C118.96 190.37 118.502 189.917 118.176 189.348C117.858 188.769 117.7 188.125 117.7 187.416C117.7 186.707 117.858 186.067 118.176 185.498C118.502 184.919 118.96 184.467 119.548 184.14C120.136 183.804 120.817 183.636 121.592 183.636C122.366 183.636 123.048 183.804 123.636 184.14C124.224 184.467 124.676 184.919 124.994 185.498C125.32 186.067 125.484 186.707 125.484 187.416C125.484 188.125 125.32 188.769 124.994 189.348C124.676 189.917 124.224 190.37 123.636 190.706C123.048 191.033 122.366 191.196 121.592 191.196ZM121.592 189.096C122.058 189.096 122.427 188.947 122.698 188.648C122.968 188.34 123.104 187.929 123.104 187.416C123.104 186.903 122.968 186.497 122.698 186.198C122.427 185.89 122.058 185.736 121.592 185.736C121.125 185.736 120.756 185.89 120.486 186.198C120.215 186.497 120.08 186.903 120.08 187.416C120.08 187.929 120.215 188.34 120.486 188.648C120.756 188.947 121.125 189.096 121.592 189.096ZM130.581 191.196C129.508 191.196 128.673 190.935 128.075 190.412C127.487 189.88 127.193 189.147 127.193 188.214V183.832H129.545V187.878C129.545 188.69 129.891 189.096 130.581 189.096C131.272 189.096 131.617 188.69 131.617 187.878V183.832H133.969V188.214C133.969 189.147 133.671 189.88 133.073 190.412C132.485 190.935 131.655 191.196 130.581 191.196ZM139.359 191.098C138.417 191.098 137.74 190.907 137.329 190.524C136.919 190.141 136.713 189.502 136.713 188.606V185.904H135.481V183.832H136.713V181.732H139.065V183.832H140.829V185.904H139.065V188.2C139.065 188.499 139.131 188.709 139.261 188.83C139.392 188.942 139.625 188.998 139.961 188.998C140.269 188.998 140.568 188.965 140.857 188.9V190.902C140.409 191.033 139.91 191.098 139.359 191.098ZM149.863 191.196C149.088 191.196 148.407 191.033 147.819 190.706C147.231 190.37 146.774 189.917 146.447 189.348C146.13 188.769 145.971 188.125 145.971 187.416C145.971 186.707 146.13 186.067 146.447 185.498C146.774 184.919 147.231 184.467 147.819 184.14C148.407 183.804 149.088 183.636 149.863 183.636C150.638 183.636 151.319 183.804 151.907 184.14C152.495 184.467 152.948 184.919 153.265 185.498C153.592 186.067 153.755 186.707 153.755 187.416C153.755 188.125 153.592 188.769 153.265 189.348C152.948 189.917 152.495 190.37 151.907 190.706C151.319 191.033 150.638 191.196 149.863 191.196ZM149.863 189.096C150.33 189.096 150.698 188.947 150.969 188.648C151.24 188.34 151.375 187.929 151.375 187.416C151.375 186.903 151.24 186.497 150.969 186.198C150.698 185.89 150.33 185.736 149.863 185.736C149.396 185.736 149.028 185.89 148.757 186.198C148.486 186.497 148.351 186.903 148.351 187.416C148.351 187.929 148.486 188.34 148.757 188.648C149.028 188.947 149.396 189.096 149.863 189.096ZM156.223 185.904H154.963V183.832H156.223V183.09C156.223 181.447 157.165 180.626 159.051 180.626C159.471 180.626 159.891 180.668 160.311 180.752V182.74C160.012 182.693 159.765 182.67 159.569 182.67C159.214 182.67 158.957 182.731 158.799 182.852C158.649 182.964 158.575 183.137 158.575 183.37V183.832H160.311V185.904H158.575V191H156.223V185.904ZM39.49 203.832V210.244C39.49 211.448 39.1493 212.372 38.468 213.016C37.7867 213.669 36.8067 213.996 35.528 213.996C34.9027 213.996 34.3147 213.917 33.764 213.758C33.2227 213.609 32.7747 213.389 32.42 213.1L33.316 211.336C33.6147 211.532 33.9413 211.681 34.296 211.784C34.66 211.896 35.01 211.952 35.346 211.952C35.9247 211.952 36.3773 211.798 36.704 211.49C37.0307 211.191 37.194 210.776 37.194 210.244V209.74C36.9887 210.085 36.6993 210.361 36.326 210.566C35.962 210.762 35.542 210.86 35.066 210.86C34.338 210.86 33.7593 210.631 33.33 210.174C32.9007 209.707 32.686 209.059 32.686 208.228V203.832H35.038V207.612C35.038 207.985 35.1173 208.265 35.276 208.452C35.444 208.639 35.696 208.732 36.032 208.732C36.788 208.732 37.166 208.303 37.166 207.444V203.832H39.49ZM45.1988 211.196C44.4242 211.196 43.7428 211.033 43.1548 210.706C42.5668 210.37 42.1095 209.917 41.7828 209.348C41.4655 208.769 41.3068 208.125 41.3068 207.416C41.3068 206.707 41.4655 206.067 41.7828 205.498C42.1095 204.919 42.5668 204.467 43.1548 204.14C43.7428 203.804 44.4242 203.636 45.1988 203.636C45.9735 203.636 46.6548 203.804 47.2428 204.14C47.8308 204.467 48.2835 204.919 48.6008 205.498C48.9275 206.067 49.0908 206.707 49.0908 207.416C49.0908 208.125 48.9275 208.769 48.6008 209.348C48.2835 209.917 47.8308 210.37 47.2428 210.706C46.6548 211.033 45.9735 211.196 45.1988 211.196ZM45.1988 209.096C45.6655 209.096 46.0342 208.947 46.3048 208.648C46.5755 208.34 46.7108 207.929 46.7108 207.416C46.7108 206.903 46.5755 206.497 46.3048 206.198C46.0342 205.89 45.6655 205.736 45.1988 205.736C44.7322 205.736 44.3635 205.89 44.0928 206.198C43.8222 206.497 43.6868 206.903 43.6868 207.416C43.6868 207.929 43.8222 208.34 44.0928 208.648C44.3635 208.947 44.7322 209.096 45.1988 209.096ZM54.1885 211.196C53.1151 211.196 52.2798 210.935 51.6825 210.412C51.0945 209.88 50.8005 209.147 50.8005 208.214V203.832H53.1525V207.878C53.1525 208.69 53.4978 209.096 54.1885 209.096C54.8791 209.096 55.2245 208.69 55.2245 207.878V203.832H57.5765V208.214C57.5765 209.147 57.2778 209.88 56.6805 210.412C56.0925 210.935 55.2618 211.196 54.1885 211.196ZM60.8243 206.842C60.8243 206.515 60.8523 206.259 60.9083 206.072C60.9643 205.876 61.0669 205.689 61.2163 205.512C61.3656 205.335 61.6083 205.106 61.9443 204.826L62.5463 204.322C62.8449 204.07 62.9943 203.827 62.9943 203.594C62.9943 203.417 62.9289 203.281 62.7983 203.188C62.6769 203.095 62.5043 203.048 62.2803 203.048C61.6643 203.048 61.1229 203.426 60.6563 204.182L58.9763 203.048C59.2936 202.423 59.7369 201.928 60.3063 201.564C60.8849 201.191 61.5569 201.004 62.3223 201.004C62.8823 201.004 63.3863 201.107 63.8343 201.312C64.2823 201.517 64.6323 201.811 64.8843 202.194C65.1363 202.577 65.2623 203.02 65.2623 203.524C65.2623 203.907 65.1736 204.261 64.9963 204.588C64.8189 204.915 64.5063 205.265 64.0583 205.638L63.5403 206.072C63.3163 206.259 63.1763 206.403 63.1203 206.506C63.0643 206.609 63.0363 206.772 63.0363 206.996V207.5H60.8243V206.842ZM61.9303 211.196C61.4729 211.196 61.1089 211.061 60.8383 210.79C60.5676 210.519 60.4323 210.155 60.4323 209.698C60.4323 209.231 60.5676 208.867 60.8383 208.606C61.1089 208.335 61.4729 208.2 61.9303 208.2C62.3969 208.2 62.7609 208.335 63.0223 208.606C63.2929 208.867 63.4283 209.231 63.4283 209.698C63.4283 210.155 63.2929 210.519 63.0223 210.79C62.7609 211.061 62.3969 211.196 61.9303 211.196Z" fill="white"/>
<defs>
<filter id="filter0_d" x="7.0528" y="85.813" width="257.538" height="221.859" filterUnits="userSpaceOnUse" color-interpolation-filters="sRGB">
<feFlood flood-opacity="0" result="BackgroundImageFix"/>
<feColorMatrix in="SourceAlpha" type="matrix" values="0 0 0 0 0 0 0 0 0 0 0 0 0 0 0 0 0 0 127 0"/>
<feOffset dx="16" dy="16"/>
<feGaussianBlur stdDeviation="8"/>
<feColorMatrix type="matrix" values="0 0 0 0 0.227451 0 0 0 0 0.25098 0 0 0 0 0.356863 0 0 0 0.16 0"/>
<feBlend mode="normal" in2="BackgroundImageFix" result="effect1_dropShadow"/>
<feBlend mode="normal" in="SourceGraphic" in2="effect1_dropShadow" result="shape"/>
</filter>
</defs>
</svg>
