<svg width="319" height="389" viewBox="0 0 319 389" fill="none" xmlns="http://www.w3.org/2000/svg">
<g filter="url(#filter0_d)">
<path fill-rule="evenodd" clip-rule="evenodd" d="M214.43 120.378C247.816 144.274 278.253 174.858 282.991 211.896C287.365 246.086 262.526 272.211 236.525 293.104C214.133 311.097 184.936 316.144 153.538 315.918C112.741 315.624 61.3815 325.046 36.9385 291.666C12.5516 258.363 52.6396 224.914 60.3216 188.62C69.1362 146.976 43.7581 87.2543 83.9744 69.4457C124.763 51.3839 174.389 91.7175 214.43 120.378Z" fill="#08ADB8"/>
</g>
<path d="M146.998 191.2C147.941 191.2 148.776 191.396 149.504 191.788C150.241 192.171 150.815 192.731 151.226 193.468C151.637 194.205 151.842 195.083 151.842 196.1C151.842 197.117 151.637 197.995 151.226 198.732C150.815 199.469 150.241 200.034 149.504 200.426C148.776 200.809 147.941 201 146.998 201H142.952V191.2H146.998ZM146.998 198.746C147.745 198.746 148.314 198.527 148.706 198.088C149.098 197.649 149.294 196.987 149.294 196.1C149.294 195.213 149.098 194.551 148.706 194.112C148.314 193.673 147.745 193.454 146.998 193.454H145.388V198.746H146.998ZM157.277 201.196C156.502 201.196 155.821 201.033 155.233 200.706C154.645 200.37 154.188 199.917 153.861 199.348C153.544 198.769 153.385 198.125 153.385 197.416C153.385 196.707 153.544 196.067 153.861 195.498C154.188 194.919 154.645 194.467 155.233 194.14C155.821 193.804 156.502 193.636 157.277 193.636C158.052 193.636 158.733 193.804 159.321 194.14C159.909 194.467 160.362 194.919 160.679 195.498C161.006 196.067 161.169 196.707 161.169 197.416C161.169 198.125 161.006 198.769 160.679 199.348C160.362 199.917 159.909 200.37 159.321 200.706C158.733 201.033 158.052 201.196 157.277 201.196ZM157.277 199.096C157.744 199.096 158.112 198.947 158.383 198.648C158.654 198.34 158.789 197.929 158.789 197.416C158.789 196.903 158.654 196.497 158.383 196.198C158.112 195.89 157.744 195.736 157.277 195.736C156.81 195.736 156.442 195.89 156.171 196.198C155.9 196.497 155.765 196.903 155.765 197.416C155.765 197.929 155.9 198.34 156.171 198.648C156.442 198.947 156.81 199.096 157.277 199.096ZM173.305 193.832V200.244C173.305 201.448 172.964 202.372 172.283 203.016C171.601 203.669 170.621 203.996 169.343 203.996C168.717 203.996 168.129 203.917 167.579 203.758C167.037 203.609 166.589 203.389 166.235 203.1L167.131 201.336C167.429 201.532 167.756 201.681 168.111 201.784C168.475 201.896 168.825 201.952 169.161 201.952C169.739 201.952 170.192 201.798 170.519 201.49C170.845 201.191 171.009 200.776 171.009 200.244V199.74C170.803 200.085 170.514 200.361 170.141 200.566C169.777 200.762 169.357 200.86 168.881 200.86C168.153 200.86 167.574 200.631 167.145 200.174C166.715 199.707 166.501 199.059 166.501 198.228V193.832H168.853V197.612C168.853 197.985 168.932 198.265 169.091 198.452C169.259 198.639 169.511 198.732 169.847 198.732C170.603 198.732 170.981 198.303 170.981 197.444V193.832H173.305ZM179.014 201.196C178.239 201.196 177.558 201.033 176.97 200.706C176.382 200.37 175.924 199.917 175.598 199.348C175.28 198.769 175.122 198.125 175.122 197.416C175.122 196.707 175.28 196.067 175.598 195.498C175.924 194.919 176.382 194.467 176.97 194.14C177.558 193.804 178.239 193.636 179.014 193.636C179.788 193.636 180.47 193.804 181.058 194.14C181.646 194.467 182.098 194.919 182.416 195.498C182.742 196.067 182.906 196.707 182.906 197.416C182.906 198.125 182.742 198.769 182.416 199.348C182.098 199.917 181.646 200.37 181.058 200.706C180.47 201.033 179.788 201.196 179.014 201.196ZM179.014 199.096C179.48 199.096 179.849 198.947 180.12 198.648C180.39 198.34 180.526 197.929 180.526 197.416C180.526 196.903 180.39 196.497 180.12 196.198C179.849 195.89 179.48 195.736 179.014 195.736C178.547 195.736 178.178 195.89 177.908 196.198C177.637 196.497 177.502 196.903 177.502 197.416C177.502 197.929 177.637 198.34 177.908 198.648C178.178 198.947 178.547 199.096 179.014 199.096ZM188.003 201.196C186.93 201.196 186.095 200.935 185.497 200.412C184.909 199.88 184.615 199.147 184.615 198.214V193.832H186.967V197.878C186.967 198.69 187.313 199.096 188.003 199.096C188.694 199.096 189.039 198.69 189.039 197.878V193.832H191.391V198.214C191.391 199.147 191.093 199.88 190.495 200.412C189.907 200.935 189.077 201.196 188.003 201.196ZM197.622 195.904H196.362V193.832H197.622V193.09C197.622 191.447 198.565 190.626 200.45 190.626C200.87 190.626 201.29 190.668 201.71 190.752V192.74C201.411 192.693 201.164 192.67 200.968 192.67C200.613 192.67 200.357 192.731 200.198 192.852C200.049 192.964 199.974 193.137 199.974 193.37V193.832H201.71V195.904H199.974V201H197.622V195.904ZM204.496 192.978C204.066 192.978 203.721 192.857 203.46 192.614C203.198 192.362 203.068 192.031 203.068 191.62C203.068 191.209 203.198 190.883 203.46 190.64C203.721 190.388 204.066 190.262 204.496 190.262C204.925 190.262 205.27 190.388 205.532 190.64C205.793 190.883 205.924 191.209 205.924 191.62C205.924 192.031 205.793 192.362 205.532 192.614C205.27 192.857 204.925 192.978 204.496 192.978ZM203.32 193.832H205.672V201H203.32V193.832ZM212.366 193.636C213.112 193.636 213.7 193.869 214.13 194.336C214.568 194.793 214.788 195.437 214.788 196.268V201H212.436V196.884C212.436 196.511 212.352 196.231 212.184 196.044C212.016 195.857 211.754 195.764 211.4 195.764C210.616 195.764 210.224 196.193 210.224 197.052V201H207.872V193.832H210.168V194.798C210.373 194.443 210.662 194.163 211.036 193.958C211.418 193.743 211.862 193.636 212.366 193.636ZM224.23 190.752V201H221.934V200.034C221.728 200.407 221.43 200.697 221.038 200.902C220.646 201.098 220.207 201.196 219.722 201.196C219.115 201.196 218.569 201.037 218.084 200.72C217.608 200.403 217.234 199.959 216.964 199.39C216.693 198.811 216.558 198.153 216.558 197.416C216.558 196.679 216.693 196.025 216.964 195.456C217.234 194.877 217.608 194.429 218.084 194.112C218.569 193.795 219.115 193.636 219.722 193.636C220.179 193.636 220.599 193.729 220.982 193.916C221.364 194.103 221.663 194.369 221.878 194.714V190.752H224.23ZM220.45 199.096C220.916 199.096 221.285 198.947 221.556 198.648C221.826 198.34 221.962 197.929 221.962 197.416C221.962 196.903 221.826 196.497 221.556 196.198C221.285 195.89 220.916 195.736 220.45 195.736C219.983 195.736 219.614 195.89 219.344 196.198C219.073 196.497 218.938 196.903 218.938 197.416C218.938 197.929 219.073 198.34 219.344 198.648C219.614 198.947 219.983 199.096 220.45 199.096ZM149.49 213.832V220.244C149.49 221.448 149.149 222.372 148.468 223.016C147.787 223.669 146.807 223.996 145.528 223.996C144.903 223.996 144.315 223.917 143.764 223.758C143.223 223.609 142.775 223.389 142.42 223.1L143.316 221.336C143.615 221.532 143.941 221.681 144.296 221.784C144.66 221.896 145.01 221.952 145.346 221.952C145.925 221.952 146.377 221.798 146.704 221.49C147.031 221.191 147.194 220.776 147.194 220.244V219.74C146.989 220.085 146.699 220.361 146.326 220.566C145.962 220.762 145.542 220.86 145.066 220.86C144.338 220.86 143.759 220.631 143.33 220.174C142.901 219.707 142.686 219.059 142.686 218.228V213.832H145.038V217.612C145.038 217.985 145.117 218.265 145.276 218.452C145.444 218.639 145.696 218.732 146.032 218.732C146.788 218.732 147.166 218.303 147.166 217.444V213.832H149.49ZM155.199 221.196C154.424 221.196 153.743 221.033 153.155 220.706C152.567 220.37 152.109 219.917 151.783 219.348C151.465 218.769 151.307 218.125 151.307 217.416C151.307 216.707 151.465 216.067 151.783 215.498C152.109 214.919 152.567 214.467 153.155 214.14C153.743 213.804 154.424 213.636 155.199 213.636C155.973 213.636 156.655 213.804 157.243 214.14C157.831 214.467 158.283 214.919 158.601 215.498C158.927 216.067 159.091 216.707 159.091 217.416C159.091 218.125 158.927 218.769 158.601 219.348C158.283 219.917 157.831 220.37 157.243 220.706C156.655 221.033 155.973 221.196 155.199 221.196ZM155.199 219.096C155.665 219.096 156.034 218.947 156.305 218.648C156.575 218.34 156.711 217.929 156.711 217.416C156.711 216.903 156.575 216.497 156.305 216.198C156.034 215.89 155.665 215.736 155.199 215.736C154.732 215.736 154.363 215.89 154.093 216.198C153.822 216.497 153.687 216.903 153.687 217.416C153.687 217.929 153.822 218.34 154.093 218.648C154.363 218.947 154.732 219.096 155.199 219.096ZM164.188 221.196C163.115 221.196 162.28 220.935 161.682 220.412C161.094 219.88 160.8 219.147 160.8 218.214V213.832H163.152V217.878C163.152 218.69 163.498 219.096 164.188 219.096C164.879 219.096 165.224 218.69 165.224 217.878V213.832H167.576V218.214C167.576 219.147 167.278 219.88 166.68 220.412C166.092 220.935 165.262 221.196 164.188 221.196ZM173.974 213.692C174.18 213.692 174.376 213.72 174.562 213.776V216.058C174.245 215.993 173.918 215.96 173.582 215.96C173.013 215.96 172.607 216.086 172.364 216.338C172.122 216.59 172 217.019 172 217.626V221H169.648V213.832H171.944V214.924C172.131 214.541 172.402 214.243 172.756 214.028C173.111 213.804 173.517 213.692 173.974 213.692ZM179.012 221.196C178.33 221.196 177.691 221.098 177.094 220.902C176.506 220.697 176.025 220.412 175.652 220.048L176.66 218.438C176.968 218.681 177.336 218.881 177.766 219.04C178.204 219.199 178.629 219.278 179.04 219.278C179.31 219.278 179.516 219.245 179.656 219.18C179.796 219.105 179.866 219.007 179.866 218.886C179.866 218.765 179.81 218.667 179.698 218.592C179.595 218.517 179.427 218.452 179.194 218.396L177.976 218.102C177.248 217.925 176.72 217.663 176.394 217.318C176.076 216.973 175.918 216.548 175.918 216.044C175.918 215.316 176.193 214.733 176.744 214.294C177.304 213.855 178.064 213.636 179.026 213.636C179.651 213.636 180.234 213.729 180.776 213.916C181.326 214.103 181.774 214.355 182.12 214.672L181.084 216.268C180.346 215.801 179.656 215.568 179.012 215.568C178.76 215.568 178.568 215.605 178.438 215.68C178.316 215.745 178.256 215.834 178.256 215.946C178.256 216.049 178.302 216.133 178.396 216.198C178.498 216.263 178.666 216.324 178.9 216.38L180.118 216.674C180.874 216.861 181.415 217.127 181.742 217.472C182.068 217.808 182.232 218.237 182.232 218.76C182.232 219.516 181.947 220.113 181.378 220.552C180.808 220.981 180.02 221.196 179.012 221.196ZM190.905 217.402C190.905 217.626 190.891 217.859 190.863 218.102H186.005C186.108 218.494 186.294 218.783 186.565 218.97C186.845 219.147 187.209 219.236 187.657 219.236C188.348 219.236 188.908 219.026 189.337 218.606L190.611 220.006C190.275 220.389 189.846 220.683 189.323 220.888C188.81 221.093 188.226 221.196 187.573 221.196C186.78 221.196 186.084 221.047 185.487 220.748C184.89 220.44 184.428 220.006 184.101 219.446C183.784 218.886 183.625 218.223 183.625 217.458C183.625 216.711 183.779 216.049 184.087 215.47C184.395 214.891 184.829 214.443 185.389 214.126C185.949 213.799 186.598 213.636 187.335 213.636C188.054 213.636 188.679 213.79 189.211 214.098C189.752 214.406 190.168 214.845 190.457 215.414C190.756 215.983 190.905 216.646 190.905 217.402ZM187.349 215.582C186.584 215.582 186.126 215.946 185.977 216.674H188.581C188.525 215.946 188.114 215.582 187.349 215.582ZM192.697 210.752H195.049V221H192.697V210.752ZM197.964 215.904H196.704V213.832H197.964V213.09C197.964 211.447 198.907 210.626 200.792 210.626C201.212 210.626 201.632 210.668 202.052 210.752V212.74C201.753 212.693 201.506 212.67 201.31 212.67C200.955 212.67 200.699 212.731 200.54 212.852C200.391 212.964 200.316 213.137 200.316 213.37V213.832H202.052V215.904H200.316V221H197.964V215.904ZM218.266 213.832L216.138 221H213.52L212.316 216.898L211.112 221H208.494L206.366 213.832H208.774L209.922 218.228L211.238 213.832H213.394L214.71 218.228L215.858 213.832H218.266ZM223.143 221.196C222.368 221.196 221.687 221.033 221.099 220.706C220.511 220.37 220.054 219.917 219.727 219.348C219.41 218.769 219.251 218.125 219.251 217.416C219.251 216.707 219.41 216.067 219.727 215.498C220.054 214.919 220.511 214.467 221.099 214.14C221.687 213.804 222.368 213.636 223.143 213.636C223.918 213.636 224.599 213.804 225.187 214.14C225.775 214.467 226.228 214.919 226.545 215.498C226.872 216.067 227.035 216.707 227.035 217.416C227.035 218.125 226.872 218.769 226.545 219.348C226.228 219.917 225.775 220.37 225.187 220.706C224.599 221.033 223.918 221.196 223.143 221.196ZM223.143 219.096C223.61 219.096 223.978 218.947 224.249 218.648C224.52 218.34 224.655 217.929 224.655 217.416C224.655 216.903 224.52 216.497 224.249 216.198C223.978 215.89 223.61 215.736 223.143 215.736C222.676 215.736 222.308 215.89 222.037 216.198C221.766 216.497 221.631 216.903 221.631 217.416C221.631 217.929 221.766 218.34 222.037 218.648C222.308 218.947 222.676 219.096 223.143 219.096ZM233.183 213.692C233.388 213.692 233.584 213.72 233.771 213.776V216.058C233.453 215.993 233.127 215.96 232.791 215.96C232.221 215.96 231.815 216.086 231.573 216.338C231.33 216.59 231.209 217.019 231.209 217.626V221H228.857V213.832H231.153V214.924C231.339 214.541 231.61 214.243 231.965 214.028C232.319 213.804 232.725 213.692 233.183 213.692ZM238.317 218.27H237.771V221H235.419V210.752H237.771V216.226H238.359L240.067 213.832H242.839L240.305 217.234L242.895 221H240.123L238.317 218.27ZM245.454 212.978C245.025 212.978 244.679 212.857 244.418 212.614C244.157 212.362 244.026 212.031 244.026 211.62C244.026 211.209 244.157 210.883 244.418 210.64C244.679 210.388 245.025 210.262 245.454 210.262C245.883 210.262 246.229 210.388 246.49 210.64C246.751 210.883 246.882 211.209 246.882 211.62C246.882 212.031 246.751 212.362 246.49 212.614C246.229 212.857 245.883 212.978 245.454 212.978ZM244.278 213.832H246.63V221H244.278V213.832ZM253.324 213.636C254.07 213.636 254.658 213.869 255.088 214.336C255.526 214.793 255.746 215.437 255.746 216.268V221H253.394V216.884C253.394 216.511 253.31 216.231 253.142 216.044C252.974 215.857 252.712 215.764 252.358 215.764C251.574 215.764 251.182 216.193 251.182 217.052V221H248.83V213.832H251.126V214.798C251.331 214.443 251.62 214.163 251.994 213.958C252.376 213.743 252.82 213.636 253.324 213.636ZM265.202 213.832V220.16C265.202 221.355 264.847 222.293 264.138 222.974C263.438 223.655 262.439 223.996 261.142 223.996C260.451 223.996 259.803 223.898 259.196 223.702C258.589 223.506 258.09 223.24 257.698 222.904L258.706 221.21C259.061 221.453 259.434 221.635 259.826 221.756C260.218 221.887 260.601 221.952 260.974 221.952C261.581 221.952 262.057 221.789 262.402 221.462C262.747 221.145 262.92 220.711 262.92 220.16V219.67C262.724 220.043 262.43 220.337 262.038 220.552C261.646 220.757 261.193 220.86 260.68 220.86C260.073 220.86 259.527 220.711 259.042 220.412C258.566 220.113 258.193 219.693 257.922 219.152C257.651 218.611 257.516 217.99 257.516 217.29C257.516 216.59 257.651 215.965 257.922 215.414C258.202 214.854 258.58 214.42 259.056 214.112C259.541 213.795 260.087 213.636 260.694 213.636C261.179 213.636 261.618 213.739 262.01 213.944C262.402 214.14 262.701 214.425 262.906 214.798V213.832H265.202ZM261.422 218.816C261.889 218.816 262.257 218.671 262.528 218.382C262.799 218.093 262.934 217.719 262.934 217.262C262.934 216.805 262.799 216.431 262.528 216.142C262.257 215.853 261.889 215.708 261.422 215.708C260.955 215.708 260.587 215.853 260.316 216.142C260.045 216.431 259.91 216.805 259.91 217.262C259.91 217.719 260.045 218.093 260.316 218.382C260.587 218.671 260.955 218.816 261.422 218.816ZM146.13 241.098C145.187 241.098 144.511 240.907 144.1 240.524C143.689 240.141 143.484 239.502 143.484 238.606V235.904H142.252V233.832H143.484V231.732H145.836V233.832H147.6V235.904H145.836V238.2C145.836 238.499 145.901 238.709 146.032 238.83C146.163 238.942 146.396 238.998 146.732 238.998C147.04 238.998 147.339 238.965 147.628 238.9V240.902C147.18 241.033 146.681 241.098 146.13 241.098ZM150.66 232.978C150.23 232.978 149.885 232.857 149.624 232.614C149.362 232.362 149.232 232.031 149.232 231.62C149.232 231.209 149.362 230.883 149.624 230.64C149.885 230.388 150.23 230.262 150.66 230.262C151.089 230.262 151.434 230.388 151.696 230.64C151.957 230.883 152.088 231.209 152.088 231.62C152.088 232.031 151.957 232.362 151.696 232.614C151.434 232.857 151.089 232.978 150.66 232.978ZM149.484 233.832H151.836V241H149.484V233.832ZM158.362 233.692C158.567 233.692 158.763 233.72 158.95 233.776V236.058C158.632 235.993 158.306 235.96 157.97 235.96C157.4 235.96 156.994 236.086 156.752 236.338C156.509 236.59 156.388 237.019 156.388 237.626V241H154.036V233.832H156.332V234.924C156.518 234.541 156.789 234.243 157.144 234.028C157.498 233.804 157.904 233.692 158.362 233.692ZM167.295 237.402C167.295 237.626 167.281 237.859 167.253 238.102H162.395C162.497 238.494 162.684 238.783 162.955 238.97C163.235 239.147 163.599 239.236 164.047 239.236C164.737 239.236 165.297 239.026 165.727 238.606L167.001 240.006C166.665 240.389 166.235 240.683 165.713 240.888C165.199 241.093 164.616 241.196 163.963 241.196C163.169 241.196 162.474 241.047 161.877 240.748C161.279 240.44 160.817 240.006 160.491 239.446C160.173 238.886 160.015 238.223 160.015 237.458C160.015 236.711 160.169 236.049 160.477 235.47C160.785 234.891 161.219 234.443 161.779 234.126C162.339 233.799 162.987 233.636 163.725 233.636C164.443 233.636 165.069 233.79 165.601 234.098C166.142 234.406 166.557 234.845 166.847 235.414C167.145 235.983 167.295 236.646 167.295 237.402ZM163.739 235.582C162.973 235.582 162.516 235.946 162.367 236.674H164.971C164.915 235.946 164.504 235.582 163.739 235.582ZM169.087 230.752H171.439V241H169.087V230.752ZM180.542 237.402C180.542 237.626 180.528 237.859 180.5 238.102H175.642C175.744 238.494 175.931 238.783 176.202 238.97C176.482 239.147 176.846 239.236 177.294 239.236C177.984 239.236 178.544 239.026 178.974 238.606L180.248 240.006C179.912 240.389 179.482 240.683 178.96 240.888C178.446 241.093 177.863 241.196 177.21 241.196C176.416 241.196 175.721 241.047 175.124 240.748C174.526 240.44 174.064 240.006 173.738 239.446C173.42 238.886 173.262 238.223 173.262 237.458C173.262 236.711 173.416 236.049 173.724 235.47C174.032 234.891 174.466 234.443 175.026 234.126C175.586 233.799 176.234 233.636 176.972 233.636C177.69 233.636 178.316 233.79 178.848 234.098C179.389 234.406 179.804 234.845 180.094 235.414C180.392 235.983 180.542 236.646 180.542 237.402ZM176.986 235.582C176.22 235.582 175.763 235.946 175.614 236.674H178.218C178.162 235.946 177.751 235.582 176.986 235.582ZM185.19 241.196C184.509 241.196 183.869 241.098 183.272 240.902C182.684 240.697 182.203 240.412 181.83 240.048L182.838 238.438C183.146 238.681 183.515 238.881 183.944 239.04C184.383 239.199 184.807 239.278 185.218 239.278C185.489 239.278 185.694 239.245 185.834 239.18C185.974 239.105 186.044 239.007 186.044 238.886C186.044 238.765 185.988 238.667 185.876 238.592C185.773 238.517 185.605 238.452 185.372 238.396L184.154 238.102C183.426 237.925 182.899 237.663 182.572 237.318C182.255 236.973 182.096 236.548 182.096 236.044C182.096 235.316 182.371 234.733 182.922 234.294C183.482 233.855 184.243 233.636 185.204 233.636C185.829 233.636 186.413 233.729 186.954 233.916C187.505 234.103 187.953 234.355 188.298 234.672L187.262 236.268C186.525 235.801 185.834 235.568 185.19 235.568C184.938 235.568 184.747 235.605 184.616 235.68C184.495 235.745 184.434 235.834 184.434 235.946C184.434 236.049 184.481 236.133 184.574 236.198C184.677 236.263 184.845 236.324 185.078 236.38L186.296 236.674C187.052 236.861 187.593 237.127 187.92 237.472C188.247 237.808 188.41 238.237 188.41 238.76C188.41 239.516 188.125 240.113 187.556 240.552C186.987 240.981 186.198 241.196 185.19 241.196ZM192.996 241.196C192.315 241.196 191.676 241.098 191.078 240.902C190.49 240.697 190.01 240.412 189.636 240.048L190.644 238.438C190.952 238.681 191.321 238.881 191.75 239.04C192.189 239.199 192.614 239.278 193.024 239.278C193.295 239.278 193.5 239.245 193.64 239.18C193.78 239.105 193.85 239.007 193.85 238.886C193.85 238.765 193.794 238.667 193.682 238.592C193.58 238.517 193.412 238.452 193.178 238.396L191.96 238.102C191.232 237.925 190.705 237.663 190.378 237.318C190.061 236.973 189.902 236.548 189.902 236.044C189.902 235.316 190.178 234.733 190.728 234.294C191.288 233.855 192.049 233.636 193.01 233.636C193.636 233.636 194.219 233.729 194.76 233.916C195.311 234.103 195.759 234.355 196.104 234.672L195.068 236.268C194.331 235.801 193.64 235.568 192.996 235.568C192.744 235.568 192.553 235.605 192.422 235.68C192.301 235.745 192.24 235.834 192.24 235.946C192.24 236.049 192.287 236.133 192.38 236.198C192.483 236.263 192.651 236.324 192.884 236.38L194.102 236.674C194.858 236.861 195.4 237.127 195.726 237.472C196.053 237.808 196.216 238.237 196.216 238.76C196.216 239.516 195.932 240.113 195.362 240.552C194.793 240.981 194.004 241.196 192.996 241.196ZM197.974 230.752H200.326V241H197.974V230.752ZM209.19 233.832V240.244C209.19 241.448 208.849 242.372 208.168 243.016C207.487 243.669 206.507 243.996 205.228 243.996C204.603 243.996 204.015 243.917 203.464 243.758C202.923 243.609 202.475 243.389 202.12 243.1L203.016 241.336C203.315 241.532 203.641 241.681 203.996 241.784C204.36 241.896 204.71 241.952 205.046 241.952C205.625 241.952 206.077 241.798 206.404 241.49C206.731 241.191 206.894 240.776 206.894 240.244V239.74C206.689 240.085 206.399 240.361 206.026 240.566C205.662 240.762 205.242 240.86 204.766 240.86C204.038 240.86 203.459 240.631 203.03 240.174C202.601 239.707 202.386 239.059 202.386 238.228V233.832H204.738V237.612C204.738 237.985 204.817 238.265 204.976 238.452C205.144 238.639 205.396 238.732 205.732 238.732C206.488 238.732 206.866 238.303 206.866 237.444V233.832H209.19ZM219.515 233.636C220.122 233.636 220.663 233.795 221.139 234.112C221.624 234.429 222.002 234.877 222.273 235.456C222.544 236.025 222.679 236.679 222.679 237.416C222.679 238.153 222.544 238.811 222.273 239.39C222.002 239.959 221.624 240.403 221.139 240.72C220.663 241.037 220.122 241.196 219.515 241.196C219.03 241.196 218.591 241.098 218.199 240.902C217.807 240.697 217.508 240.407 217.303 240.034V241H215.007V230.752H217.359V234.714C217.574 234.369 217.872 234.103 218.255 233.916C218.638 233.729 219.058 233.636 219.515 233.636ZM218.787 239.096C219.254 239.096 219.622 238.947 219.893 238.648C220.164 238.34 220.299 237.929 220.299 237.416C220.299 236.903 220.164 236.497 219.893 236.198C219.622 235.89 219.254 235.736 218.787 235.736C218.32 235.736 217.952 235.89 217.681 236.198C217.41 236.497 217.275 236.903 217.275 237.416C217.275 237.929 217.41 238.34 217.681 238.648C217.952 238.947 218.32 239.096 218.787 239.096ZM227.771 241.196C226.698 241.196 225.862 240.935 225.265 240.412C224.677 239.88 224.383 239.147 224.383 238.214V233.832H226.735V237.878C226.735 238.69 227.08 239.096 227.771 239.096C228.462 239.096 228.807 238.69 228.807 237.878V233.832H231.159V238.214C231.159 239.147 230.86 239.88 230.263 240.412C229.675 240.935 228.844 241.196 227.771 241.196ZM236.549 241.098C235.606 241.098 234.929 240.907 234.519 240.524C234.108 240.141 233.903 239.502 233.903 238.606V235.904H232.671V233.832H233.903V231.732H236.255V233.832H238.019V235.904H236.255V238.2C236.255 238.499 236.32 238.709 236.451 238.83C236.581 238.942 236.815 238.998 237.151 238.998C237.459 238.998 237.757 238.965 238.047 238.9V240.902C237.599 241.033 237.099 241.098 236.549 241.098ZM246.381 241.196C245.699 241.196 245.06 241.098 244.463 240.902C243.875 240.697 243.394 240.412 243.021 240.048L244.029 238.438C244.337 238.681 244.705 238.881 245.135 239.04C245.573 239.199 245.998 239.278 246.409 239.278C246.679 239.278 246.885 239.245 247.025 239.18C247.165 239.105 247.235 239.007 247.235 238.886C247.235 238.765 247.179 238.667 247.067 238.592C246.964 238.517 246.796 238.452 246.563 238.396L245.345 238.102C244.617 237.925 244.089 237.663 243.763 237.318C243.445 236.973 243.287 236.548 243.287 236.044C243.287 235.316 243.562 234.733 244.113 234.294C244.673 233.855 245.433 233.636 246.395 233.636C247.02 233.636 247.603 233.729 248.145 233.916C248.695 234.103 249.143 234.355 249.489 234.672L248.453 236.268C247.715 235.801 247.025 235.568 246.381 235.568C246.129 235.568 245.937 235.605 245.807 235.68C245.685 235.745 245.625 235.834 245.625 235.946C245.625 236.049 245.671 236.133 245.765 236.198C245.867 236.263 246.035 236.324 246.269 236.38L247.487 236.674C248.243 236.861 248.784 237.127 249.111 237.472C249.437 237.808 249.601 238.237 249.601 238.76C249.601 239.516 249.316 240.113 248.747 240.552C248.177 240.981 247.389 241.196 246.381 241.196ZM254.649 241.098C253.706 241.098 253.029 240.907 252.619 240.524C252.208 240.141 252.003 239.502 252.003 238.606V235.904H250.771V233.832H252.003V231.732H254.355V233.832H256.119V235.904H254.355V238.2C254.355 238.499 254.42 238.709 254.551 238.83C254.681 238.942 254.915 238.998 255.251 238.998C255.559 238.998 255.857 238.965 256.147 238.9V240.902C255.699 241.033 255.199 241.098 254.649 241.098ZM259.178 232.978C258.749 232.978 258.404 232.857 258.142 232.614C257.881 232.362 257.75 232.031 257.75 231.62C257.75 231.209 257.881 230.883 258.142 230.64C258.404 230.388 258.749 230.262 259.178 230.262C259.608 230.262 259.953 230.388 260.214 230.64C260.476 230.883 260.606 231.209 260.606 231.62C260.606 232.031 260.476 232.362 260.214 232.614C259.953 232.857 259.608 232.978 259.178 232.978ZM258.002 233.832H260.354V241H258.002V233.832ZM262.554 230.752H264.906V241H262.554V230.752ZM267.093 230.752H269.445V241H267.093V230.752ZM145.668 261.196C144.987 261.196 144.347 261.098 143.75 260.902C143.162 260.697 142.681 260.412 142.308 260.048L143.316 258.438C143.624 258.681 143.993 258.881 144.422 259.04C144.861 259.199 145.285 259.278 145.696 259.278C145.967 259.278 146.172 259.245 146.312 259.18C146.452 259.105 146.522 259.007 146.522 258.886C146.522 258.765 146.466 258.667 146.354 258.592C146.251 258.517 146.083 258.452 145.85 258.396L144.632 258.102C143.904 257.925 143.377 257.663 143.05 257.318C142.733 256.973 142.574 256.548 142.574 256.044C142.574 255.316 142.849 254.733 143.4 254.294C143.96 253.855 144.721 253.636 145.682 253.636C146.307 253.636 146.891 253.729 147.432 253.916C147.983 254.103 148.431 254.355 148.776 254.672L147.74 256.268C147.003 255.801 146.312 255.568 145.668 255.568C145.416 255.568 145.225 255.605 145.094 255.68C144.973 255.745 144.912 255.834 144.912 255.946C144.912 256.049 144.959 256.133 145.052 256.198C145.155 256.263 145.323 256.324 145.556 256.38L146.774 256.674C147.53 256.861 148.071 257.127 148.398 257.472C148.725 257.808 148.888 258.237 148.888 258.76C148.888 259.516 148.603 260.113 148.034 260.552C147.465 260.981 146.676 261.196 145.668 261.196ZM153.936 261.098C152.993 261.098 152.317 260.907 151.906 260.524C151.495 260.141 151.29 259.502 151.29 258.606V255.904H150.058V253.832H151.29V251.732H153.642V253.832H155.406V255.904H153.642V258.2C153.642 258.499 153.707 258.709 153.838 258.83C153.969 258.942 154.202 258.998 154.538 258.998C154.846 258.998 155.145 258.965 155.434 258.9V260.902C154.986 261.033 154.487 261.098 153.936 261.098ZM160.552 261.196C159.478 261.196 158.643 260.935 158.046 260.412C157.458 259.88 157.164 259.147 157.164 258.214V253.832H159.516V257.878C159.516 258.69 159.861 259.096 160.552 259.096C161.242 259.096 161.588 258.69 161.588 257.878V253.832H163.94V258.214C163.94 259.147 163.641 259.88 163.044 260.412C162.456 260.935 161.625 261.196 160.552 261.196ZM169.428 261.196C168.681 261.196 168.018 261.037 167.44 260.72C166.87 260.403 166.427 259.959 166.11 259.39C165.802 258.811 165.648 258.153 165.648 257.416C165.648 256.679 165.802 256.025 166.11 255.456C166.427 254.877 166.87 254.429 167.44 254.112C168.018 253.795 168.681 253.636 169.428 253.636C170.156 253.636 170.8 253.785 171.36 254.084C171.929 254.383 172.363 254.798 172.662 255.33L170.94 256.548C170.576 256.025 170.1 255.764 169.512 255.764C169.064 255.764 168.704 255.913 168.434 256.212C168.163 256.511 168.028 256.912 168.028 257.416C168.028 257.92 168.163 258.321 168.434 258.62C168.704 258.919 169.064 259.068 169.512 259.068C170.1 259.068 170.576 258.807 170.94 258.284L172.662 259.502C172.363 260.034 171.929 260.449 171.36 260.748C170.8 261.047 170.156 261.196 169.428 261.196ZM177.071 258.27H176.525V261H174.173V250.752H176.525V256.226H177.113L178.821 253.832H181.593L179.059 257.234L181.649 261H178.877L177.071 258.27ZM184.112 256.842C184.112 256.515 184.14 256.259 184.196 256.072C184.252 255.876 184.355 255.689 184.504 255.512C184.654 255.335 184.896 255.106 185.232 254.826L185.834 254.322C186.133 254.07 186.282 253.827 186.282 253.594C186.282 253.417 186.217 253.281 186.086 253.188C185.965 253.095 185.792 253.048 185.568 253.048C184.952 253.048 184.411 253.426 183.944 254.182L182.264 253.048C182.582 252.423 183.025 251.928 183.594 251.564C184.173 251.191 184.845 251.004 185.61 251.004C186.17 251.004 186.674 251.107 187.122 251.312C187.57 251.517 187.92 251.811 188.172 252.194C188.424 252.577 188.55 253.02 188.55 253.524C188.55 253.907 188.462 254.261 188.284 254.588C188.107 254.915 187.794 255.265 187.346 255.638L186.828 256.072C186.604 256.259 186.464 256.403 186.408 256.506C186.352 256.609 186.324 256.772 186.324 256.996V257.5H184.112V256.842ZM185.218 261.196C184.761 261.196 184.397 261.061 184.126 260.79C183.856 260.519 183.72 260.155 183.72 259.698C183.72 259.231 183.856 258.867 184.126 258.606C184.397 258.335 184.761 258.2 185.218 258.2C185.685 258.2 186.049 258.335 186.31 258.606C186.581 258.867 186.716 259.231 186.716 259.698C186.716 260.155 186.581 260.519 186.31 260.79C186.049 261.061 185.685 261.196 185.218 261.196Z" fill="white"/>
<path d="M80.06 136.186C84.2439 133.666 89.688 135.007 92.2081 139.207C94.7281 143.391 93.3873 148.835 89.1872 151.355C85.0032 153.875 79.5592 152.534 77.0391 148.334C74.5191 144.166 75.876 138.722 80.06 136.186Z" fill="#FCC9A7"/>
<path d="M90.0919 136.816C89.8011 136.59 74.2607 118.335 74.2607 118.335L67.912 126.025L81.934 143.778L90.0919 136.816Z" fill="#FCC9A7"/>
<path d="M76.9906 279.136L73.0328 297.212L60.5294 295.339L64.5679 277.504L76.9906 279.136Z" fill="#FCC9A7"/>
<path d="M133.046 277.52L133.192 296.033L120.607 296.97L120.575 278.683L133.046 277.52Z" fill="#FCC9A7"/>
<path d="M74.616 294.272C74.3576 293.513 73.4367 293.19 72.7744 293.674C71.4821 294.611 69.2043 295.71 65.9088 295.322C62.4841 294.918 61.2565 293.109 60.8365 291.817C60.6103 291.138 59.8834 290.783 59.221 291.041L38.0104 299.538C36.7181 300.055 35.6841 301.057 35.1511 302.333C34.6341 303.529 35.5065 304.869 36.815 304.869L72.8553 305.128C74.2769 305.144 75.4076 303.965 75.343 302.543L75.0361 295.581C75.0361 295.468 75.0038 295.354 74.9715 295.241L74.616 294.272Z" fill="#0C0C0C"/>
<path d="M119.331 294.272C119.59 293.513 120.527 293.19 121.173 293.674C122.465 294.611 124.743 295.71 128.038 295.322C131.463 294.918 132.675 293.109 133.111 291.817C133.337 291.138 134.064 290.783 134.726 291.041L155.937 299.538C157.229 300.055 158.263 301.057 158.796 302.333C159.313 303.529 158.441 304.869 157.132 304.869L121.092 305.128C119.671 305.144 118.54 303.965 118.604 302.543L118.911 295.581C118.911 295.468 118.944 295.354 118.976 295.241L119.331 294.272Z" fill="#0C0C0C"/>
<path d="M119.17 45.431L107.975 46.4003L90.1727 56.4321V127.77H137.683V56.4321L119.17 45.431Z" fill="#54585A"/>
<path d="M116.1 52.62H112.886C109.558 52.62 106.86 49.9222 106.86 46.5944V34.511H122.11V46.5944C122.126 49.9222 119.428 52.62 116.1 52.62Z" fill="#FCC9A7"/>
<path d="M106.86 40.6656C106.86 40.6656 109.235 45.4312 114.63 45.4312C120.026 45.4312 122.11 40.5687 122.11 40.5687L106.86 40.6656Z" fill="#F4BE9A"/>
<path d="M114.663 42.6364H114.162C106.392 42.6364 99.9945 36.4978 99.6876 28.7276L99.413 20.9897C99.0899 12.7671 105.665 5.93384 113.887 5.93384H114.937C121.157 5.93384 129.735 12.7671 129.411 20.9897L129.137 28.7276C128.83 36.4978 122.433 42.6364 114.663 42.6364Z" fill="#FCC9A7"/>
<path d="M104.13 26.8536C104.308 29.4706 102.337 31.7322 99.7199 31.9099C97.1029 32.0876 94.8413 30.1168 94.6636 27.4998C94.4859 24.8828 96.4567 22.6212 99.0737 22.4435C101.691 22.2819 103.952 24.2527 104.13 26.8536Z" fill="#FCC9A7"/>
<path d="M134.145 26.8536C134.322 29.4706 132.352 31.7322 129.735 31.9099C127.118 32.0876 124.856 30.1168 124.678 27.4998C124.501 24.8828 126.471 22.6212 129.088 22.4435C131.705 22.2819 133.967 24.2527 134.145 26.8536Z" fill="#FCC9A7"/>
<path d="M90.1726 127.43L60.6264 284.499L77.6046 284.337L120.801 127.737L90.1726 127.43Z" fill="#0C0C0C"/>
<path d="M137.683 127.77L135.825 284.66H117.877L110.721 128.755L137.683 127.77Z" fill="#0C0C0C"/>
<path d="M90.1727 56.4323C90.1727 56.4323 50.4978 80.3729 40.8536 96.9796C38.9636 100.227 41.419 104.427 44.7468 106.155C48.43 108.078 52.9694 106.769 55.0856 103.199L91.7881 81.9076C91.8043 81.9076 90.1727 63.6209 90.1727 56.4323Z" fill="#54585A"/>
<path d="M98.5892 12.2017L99.7038 24.0913H101.497L101.723 17.8557C101.723 17.8557 102.66 15.4649 106.844 10.3278C106.844 10.3278 109.574 17.3065 126.488 15.9495L127.473 23.8328L129.218 23.639L130.138 15.1741C130.752 12.3148 130.962 9.64933 130.445 6.77386C129.395 0.958307 124.662 -2.2564 110.996 1.8468C109.865 2.18604 112.175 1.95988 110.996 1.8468C107.086 1.41063 96.7799 1.36217 98.5892 12.2017Z" fill="#2E2A33"/>
<path d="M118.717 126.639L114.873 167.768C114.727 169.318 115.777 170.724 117.312 171.015L164.483 180.029C166.211 180.368 167.859 179.14 168.053 177.396L172.366 138.302C172.527 136.784 171.542 135.378 170.04 135.023L122.401 123.973C120.624 123.553 118.895 124.813 118.717 126.639Z" fill="#AFAFAF"/>
<path d="M121.334 127.366L117.49 168.495C117.344 170.045 118.394 171.451 119.929 171.742L167.099 180.756C168.828 181.079 170.476 179.867 170.67 178.123L174.983 139.029C175.144 137.511 174.159 136.105 172.657 135.75L125.017 124.7C123.257 124.28 121.512 125.54 121.334 127.366Z" fill="#D1D1D1"/>
<path d="M145.889 169.351C150.574 170.74 153.255 175.667 151.866 180.352C150.477 185.037 145.55 187.718 140.865 186.345C136.18 184.956 133.499 180.029 134.872 175.344C136.277 170.643 141.188 167.962 145.889 169.351Z" fill="#FCC9A7"/>
<path d="M152.205 177.17C152.173 176.798 150.655 152.147 150.655 152.147L142.27 153.665L143.385 174.682L152.205 177.17Z" fill="#FCC9A7"/>
<path d="M137.682 56.4323C137.682 56.4323 150.38 65.5271 151.187 78.4829L155.161 108.772C155.388 110.549 155.485 112.326 155.42 114.119L153.885 160.191H136.455L136.132 110.323L137.682 56.4323Z" fill="#54585A"/>
<path d="M109.316 45.431C107.959 46.4164 101.416 50.0996 101.416 50.0996C101.416 50.0996 101.594 59.3076 115.454 58.5645C127.651 57.9183 127.57 50.4389 127.57 50.4389L119.154 45.431H109.316Z" fill="#FCC9A7"/>
<path d="M60.4003 91.0026L84.1148 128.901L72.8714 139.546L40.9182 102.246L60.4003 91.0026Z" fill="#54585A"/>
<path d="M136.116 127.269V110.307L132.174 79.3713" stroke="#424647" stroke-width="0.7693" stroke-miterlimit="10" stroke-linecap="round" stroke-linejoin="round"/>
<defs>
<filter id="filter0_d" x="29.1646" y="64.9519" width="286.33" height="283.976" filterUnits="userSpaceOnUse" color-interpolation-filters="sRGB">
<feFlood flood-opacity="0" result="BackgroundImageFix"/>
<feColorMatrix in="SourceAlpha" type="matrix" values="0 0 0 0 0 0 0 0 0 0 0 0 0 0 0 0 0 0 127 0"/>
<feOffset dx="16" dy="16"/>
<feGaussianBlur stdDeviation="8"/>
<feColorMatrix type="matrix" values="0 0 0 0 0.227451 0 0 0 0 0.25098 0 0 0 0 0.356863 0 0 0 0.16 0"/>
<feBlend mode="normal" in2="BackgroundImageFix" result="effect1_dropShadow"/>
<feBlend mode="normal" in="SourceGraphic" in2="effect1_dropShadow" result="shape"/>
</filter>
</defs>
</svg>
