<svg width="64" height="64" viewBox="0 0 64 64" fill="none" xmlns="http://www.w3.org/2000/svg">
<path d="M43.674 23.5585C43.2484 22.4225 54.9988 11.9297 48.1476 3.42732C46.5444 1.44012 41.1044 12.9473 33.3796 18.1569C29.1172 21.0305 19.2004 27.1489 19.2004 30.5313V52.4257C19.2004 56.4929 34.9252 60.8001 46.874 60.8001C51.2548 60.8001 57.6004 33.3569 57.6004 28.9985C57.6004 24.6209 44.0932 24.6977 43.674 23.5585ZM16.0004 23.8625C13.8948 23.8625 6.40039 25.1425 6.40039 33.8561V49.3697C6.40039 58.0769 13.8948 59.0369 16.0004 59.0369C18.1028 59.0369 12.8004 57.2065 12.8004 51.8049V31.4113C12.8004 25.7537 18.1028 23.8625 16.0004 23.8625Z" fill="#FFAD08"/>
</svg>
